<!-- Generated by readme-aura https://github.com/collectioneur/readme-aura -->
<svg width="860" height="140" viewBox="0 0 860 140" xmlns="http://www.w3.org/2000/svg"><defs><clipPath id="satori_bc-id"><path x="0" y="0" width="860" height="140" d="M16,0 h828 a16,16 0 0 1 16,16 v108 a16,16 0 0 1 -16,16 h-828 a16,16 0 0 1 -16,-16 v-108 a16,16 0 0 1 16,-16"/></clipPath></defs><clipPath id="satori_cp-id"><path x="0" y="0" width="860" height="140" d="M16,0 h828 a16,16 0 0 1 16,16 v108 a16,16 0 0 1 -16,16 h-828 a16,16 0 0 1 -16,-16 v-108 a16,16 0 0 1 16,-16"/></clipPath><mask id="satori_om-id"><rect x="1" y="1" width="858" height="138" fill="#fff"/><path width="860" height="140" fill="none" stroke="#000" stroke-width="2" d="M4.686,4.686 A16,16 0 0 1 16,0 h828 a16,16 0 0 1 16,16 v108 a16,16 0 0 1 -16,16 h-828 a16,16 0 0 1 -16,-16 v-108 A16,16 0 0 1 4.686,4.686"/></mask><path x="0" y="0" width="860" height="140" fill="#08080c" d="M16,0 h828 a16,16 0 0 1 16,16 v108 a16,16 0 0 1 -16,16 h-828 a16,16 0 0 1 -16,-16 v-108 a16,16 0 0 1 16,-16"/><path width="860" height="140" clip-path="url(#satori_bc-id)" fill="none" stroke="rgba(110,80,220,0.18)" stroke-width="2" d="M4.686,4.686 A16,16 0 0 1 16,0 h828 a16,16 0 0 1 16,16 v108 a16,16 0 0 1 -16,16 h-828 a16,16 0 0 1 -16,-16 v-108 A16,16 0 0 1 4.686,4.686"/><clipPath id="satori_cp-id-0" clip-path="url(#satori_cp-id)"><rect x="1" y="1" width="860" height="140"/></clipPath><mask id="satori_om-id-0"><rect x="1" y="1" width="860" height="140" fill="#fff" mask="url(#satori_om-id)"/></mask><svg x="1" y="1" width="860" height="140" preserveAspectRatio="none" clip-path="url(#satori_cp-id-0)" mask="url(#satori_om-id-0)"><defs><radialGradient id="g1" cx="50%" cy="50%" r="50%"><stop offset="0%" stop-color="rgba(110,20,210,0.65)"></stop><stop offset="45%" stop-color="rgba(80,15,170,0.28)"></stop><stop offset="70%" stop-color="rgba(80,15,170,0)"></stop></radialGradient><radialGradient id="g2" cx="50%" cy="50%" r="50%"><stop offset="0%" stop-color="rgba(40,70,255,0.55)"></stop><stop offset="45%" stop-color="rgba(20,50,200,0.22)"></stop><stop offset="70%" stop-color="rgba(20,50,200,0)"></stop></radialGradient><radialGradient id="g3" cx="50%" cy="50%" r="50%"><stop offset="0%" stop-color="rgba(0,140,255,0.42)"></stop><stop offset="70%" stop-color="rgba(0,140,255,0)"></stop></radialGradient><radialGradient id="g4" cx="50%" cy="50%" r="50%"><stop offset="0%" stop-color="rgba(0,195,235,0.30)"></stop><stop offset="70%" stop-color="rgba(0,195,235,0)"></stop></radialGradient><radialGradient id="g5" cx="50%" cy="50%" r="50%"><stop offset="0%" stop-color="rgba(100,30,210,0.40)"></stop><stop offset="70%" stop-color="rgba(100,30,210,0)"></stop></radialGradient></defs><ellipse id="glow-1" cx="710" cy="150" rx="210" ry="150" fill="url(#g1)"></ellipse><ellipse id="glow-2" cx="550" cy="140" rx="190" ry="140" fill="url(#g2)"></ellipse><ellipse id="glow-3" cx="400" cy="130" rx="170" ry="130" fill="url(#g3)"></ellipse><ellipse id="glow-4" cx="250" cy="140" rx="150" ry="120" fill="url(#g4)"></ellipse><ellipse id="glow-5" cx="100" cy="150" rx="130" ry="110" fill="url(#g5)"></ellipse><style>

         @keyframes float-slow {
           0%, 100% { transform: translateX(0px); opacity: 0.8; }
           50% { transform: translateX(350px); opacity: 1.2; }
         }
         @keyframes float-medium {
           0%, 100% { transform: translateX(0px); opacity: 0.7; }
           50% { transform: translateX(-250px); opacity: 1.1; }
         }
         @keyframes float-fast {
           0%, 100% { transform: translateX(0px); opacity: 0.9; }
           50% { transform: translateX(200px); opacity: 0.6; }
         }
         @keyframes float-diagonal {
           0%, 100% { transform: translate(0px, 0px); opacity: 0.75; }
           50% { transform: translate(120px, 30px); opacity: 1.0; }
         }
         @keyframes float-wave {
           0%, 100% { transform: translateX(0px); opacity: 0.65; }
           33% { transform: translateX(-160px); opacity: 0.9; }
           66% { transform: translateX(80px); opacity: 1.0; }
         }
         @keyframes float-pulse {
           0%, 100% { transform: scale(1); opacity: 0.8; }
           50% { transform: scale(1.3); opacity: 0.4; }
         }
         #glow-1 { animation: float-slow 8s ease-in-out infinite; }
         #glow-2 { animation: float-medium 12s ease-in-out infinite; }
         #glow-3 { animation: float-fast 9s ease-in-out infinite; }
         #glow-4 { animation: float-diagonal 10s ease-in-out infinite; }
         #glow-5 { animation: float-wave 14s ease-in-out infinite; }
       
</style>
</svg><mask id="satori_om-id-0-0"><rect x="1" y="1" width="0" height="140" fill="#fff" mask="url(#satori_om-id)"/></mask><mask id="satori_om-id-0-0-0"><rect x="1" y="1" width="0" height="140" fill="#fff" mask="url(#satori_om-id)"/></mask><mask id="satori_om-id-0-0-0-0"><rect x="1" y="1" width="0" height="140" fill="#fff" mask="url(#satori_om-id)"/></mask><mask id="satori_om-id-0-0-0-1"><rect x="1" y="1" width="0" height="140" fill="#fff" mask="url(#satori_om-id)"/></mask><mask id="satori_om-id-0-0-0-2"><rect x="1" y="1" width="0" height="140" fill="#fff" mask="url(#satori_om-id)"/></mask><mask id="satori_om-id-0-0-1"><rect x="1" y="1" width="0" height="140" fill="#fff" mask="url(#satori_om-id)"/></mask><mask id="satori_om-id-0-0-1-0"><rect x="1" y="1" width="0" height="140" fill="#fff" mask="url(#satori_om-id)"/></mask><mask id="satori_om-id-0-0-1-1"><rect x="1" y="1" width="0" height="140" fill="#fff" mask="url(#satori_om-id)"/></mask><mask id="satori_om-id-0-0-1-2"><rect x="1" y="1" width="0" height="140" fill="#fff" mask="url(#satori_om-id)"/></mask><mask id="satori_om-id-0-0-2"><rect x="1" y="1" width="0" height="140" fill="#fff" mask="url(#satori_om-id)"/></mask><mask id="satori_om-id-0-0-2-0"><rect x="1" y="1" width="0" height="140" fill="#fff" mask="url(#satori_om-id)"/></mask><mask id="satori_om-id-0-0-2-1"><rect x="1" y="1" width="0" height="140" fill="#fff" mask="url(#satori_om-id)"/></mask><mask id="satori_om-id-0-0-3"><rect x="1" y="1" width="0" height="140" fill="#fff" mask="url(#satori_om-id)"/></mask><mask id="satori_om-id-0-0-3-0"><rect x="1" y="1" width="0" height="140" fill="#fff" mask="url(#satori_om-id)"/></mask><mask id="satori_om-id-0-0-3-1"><rect x="1" y="1" width="0" height="140" fill="#fff" mask="url(#satori_om-id)"/></mask><mask id="satori_om-id-0-0-4"><rect x="1" y="1" width="0" height="140" fill="#fff" mask="url(#satori_om-id)"/></mask><mask id="satori_om-id-0-0-4-0"><rect x="1" y="1" width="0" height="140" fill="#fff" mask="url(#satori_om-id)"/></mask><mask id="satori_om-id-0-0-4-1"><rect x="1" y="1" width="0" height="140" fill="#fff" mask="url(#satori_om-id)"/></mask><mask id="satori_om-id-0-1"><rect x="1" y="1" width="0" height="140" fill="#fff" mask="url(#satori_om-id)"/></mask><mask id="satori_om-id-0-2"><rect x="1" y="1" width="0" height="140" fill="#fff" mask="url(#satori_om-id)"/></mask><mask id="satori_om-id-0-3"><rect x="1" y="1" width="0" height="140" fill="#fff" mask="url(#satori_om-id)"/></mask><mask id="satori_om-id-0-4"><rect x="1" y="1" width="0" height="140" fill="#fff" mask="url(#satori_om-id)"/></mask><mask id="satori_om-id-0-5"><rect x="1" y="1" width="0" height="140" fill="#fff" mask="url(#satori_om-id)"/></mask><defs><clipPath id="satori_bc-id-1" clip-path="url(#satori_cp-id)"><rect x="1" y="30" width="270" height="80"/></clipPath></defs><mask id="satori_om-id-1"><rect x="1" y="30" width="269" height="80" fill="#fff" mask="url(#satori_om-id)"/><path width="270" height="80" fill="none" stroke="#000" stroke-width="2" d="M271,30 A0,0 0 0 1 271,30 v80 A0,0 0 0 1 271,110"/></mask><path width="270" height="80" clip-path="url(#satori_bc-id-1)" fill="none" stroke="rgba(255,255,255,0.06)" stroke-width="2" d="M271,30 A0,0 0 0 1 271,30 v80 A0,0 0 0 1 271,110"/><mask id="satori_om-id-1-0"><rect x="119" y="46" width="33" height="30" fill="#fff" mask="url(#satori_om-id)"/></mask><g mask="url(#satori_om-id)" clip-path="url(#satori_cp-id)"><path fill="#a78bfa" d="M125.2 50.2L130.0 50.2L130.0 72L125.5 72L125.5 54.1L125.4 54.1L120.4 57.7L120.4 53.6L125.2 50.2ZM142.0 72.3L142.0 72.3Q140.3 72.3 138.7 71.7Q137.2 71.2 136.0 69.9Q134.7 68.7 134.0 66.7Q133.3 64.6 133.3 61.6L133.3 61.6Q133.3 58.8 133.9 56.7Q134.5 54.5 135.7 53.0Q136.9 51.5 138.5 50.7Q140.1 49.9 142.1 49.9L142.1 49.9Q144.3 49.9 145.9 50.7Q147.6 51.6 148.6 53.0Q149.6 54.4 149.8 56.2L149.8 56.2L145.4 56.2Q145.1 55.1 144.3 54.4Q143.4 53.7 142.1 53.7L142.1 53.7Q140.7 53.7 139.7 54.6Q138.7 55.4 138.2 57.0Q137.7 58.6 137.7 60.7L137.7 60.7L137.9 60.7Q138.4 59.8 139.2 59.1Q140.0 58.4 141.1 58.0Q142.1 57.7 143.3 57.7L143.3 57.7Q145.3 57.7 146.8 58.6Q148.3 59.5 149.2 61.1Q150.1 62.7 150.1 64.7L150.1 64.7Q150.1 66.9 149.0 68.6Q148.0 70.3 146.2 71.3Q144.4 72.3 142.0 72.3ZM141.9 68.7L141.9 68.7Q143.0 68.7 143.9 68.2Q144.7 67.7 145.2 66.8Q145.7 65.9 145.7 64.8L145.7 64.8Q145.7 63.7 145.2 62.8Q144.7 62.0 143.9 61.4Q143.0 60.9 142.0 60.9L142.0 60.9Q141.1 60.9 140.5 61.2Q139.8 61.5 139.3 62.1Q138.7 62.6 138.4 63.3Q138.2 64.0 138.2 64.8L138.2 64.8Q138.2 65.9 138.6 66.8Q139.1 67.7 140.0 68.2Q140.8 68.7 141.9 68.7Z "/></g><mask id="satori_om-id-1-1"><rect x="113" y="81" width="45" height="13" fill="#fff" mask="url(#satori_om-id)"/></mask><g mask="url(#satori_om-id)" clip-path="url(#satori_cp-id)"><path fill="rgba(200,195,225,0.45)" d="M115.4 92L113.7 92L113.7 84.0L116.8 84.0Q117.8 84.0 118.4 84.3Q119.0 84.6 119.4 85.2Q119.7 85.8 119.7 86.6Q119.7 87.4 119.4 88.0Q119.0 88.5 118.4 88.8L118.4 88.8Q118.3 88.9 118.3 88.9L118.3 88.9L120.0 92L118.2 92L116.6 89.1L115.4 89.1L115.4 92ZM115.4 85.4L115.4 87.8L116.5 87.8Q117.0 87.8 117.4 87.7Q117.7 87.5 117.9 87.3Q118.0 87.0 118.0 86.6L118.0 86.6Q118.0 86.2 117.9 85.9Q117.7 85.6 117.4 85.5Q117.0 85.4 116.5 85.4L116.5 85.4L115.4 85.4ZM127.8 92L122.4 92L122.4 84.0L127.8 84.0L127.8 85.4L124.1 85.4L124.1 87.3L127.5 87.3L127.5 88.6L124.1 88.6L124.1 90.6L127.8 90.6L127.8 92ZM132.3 92L130.6 92L130.6 84.0L133.8 84.0Q134.7 84.0 135.3 84.3Q135.9 84.7 136.3 85.3Q136.6 85.9 136.6 86.7L136.6 86.7Q136.6 87.5 136.3 88.1Q135.9 88.7 135.3 89.0Q134.6 89.4 133.7 89.4L133.7 89.4L132.3 89.4L132.3 92ZM132.3 85.4L132.3 88.1L133.5 88.1Q134.0 88.1 134.3 87.9Q134.6 87.7 134.8 87.4Q134.9 87.1 134.9 86.7Q134.9 86.3 134.8 86.0Q134.6 85.7 134.3 85.5Q134.0 85.4 133.4 85.4L133.4 85.4L132.3 85.4ZM142.8 92.1L142.8 92.1Q141.7 92.1 140.9 91.6Q140.0 91.1 139.5 90.2Q139.0 89.3 139.0 88.0L139.0 88.0Q139.0 86.7 139.5 85.8Q140.0 84.9 140.9 84.4Q141.7 83.9 142.8 83.9L142.8 83.9Q143.8 83.9 144.7 84.4Q145.5 84.9 146.0 85.8Q146.5 86.7 146.5 88.0L146.5 88.0Q146.5 89.3 146.0 90.2Q145.5 91.1 144.7 91.6Q143.8 92.1 142.8 92.1ZM142.8 90.7L142.8 90.7Q143.4 90.7 143.9 90.3Q144.3 90.0 144.6 89.5Q144.8 88.9 144.8 88.0L144.8 88.0Q144.8 87.1 144.6 86.5Q144.3 86.0 143.9 85.6Q143.4 85.3 142.8 85.3L142.8 85.3Q142.2 85.3 141.7 85.7Q141.2 86.0 141.0 86.6Q140.7 87.1 140.7 88.0L140.7 88.0Q140.7 88.9 141.0 89.4Q141.2 90.0 141.7 90.3Q142.2 90.7 142.8 90.7ZM152.2 92.1L152.2 92.1Q151.2 92.1 150.5 91.8Q149.8 91.5 149.4 90.9Q149.0 90.4 149.0 89.5L149.0 89.5L150.6 89.5Q150.6 89.9 150.8 90.2Q151.0 90.5 151.4 90.6Q151.7 90.7 152.2 90.7L152.2 90.7Q152.6 90.7 152.9 90.6Q153.2 90.5 153.4 90.2Q153.6 90.0 153.6 89.7L153.6 89.7Q153.6 89.4 153.4 89.3Q153.3 89.1 153.0 88.9Q152.7 88.8 152.2 88.7L152.2 88.7L151.3 88.5Q150.3 88.2 149.8 87.7Q149.2 87.2 149.2 86.3L149.2 86.3Q149.2 85.6 149.6 85.0Q150.0 84.5 150.6 84.2Q151.3 83.9 152.2 83.9L152.2 83.9Q153.1 83.9 153.7 84.2Q154.4 84.5 154.8 85.0Q155.1 85.6 155.1 86.3L155.1 86.3L153.6 86.3Q153.5 85.8 153.2 85.5Q152.8 85.3 152.2 85.3L152.2 85.3Q151.8 85.3 151.5 85.4Q151.2 85.5 151.0 85.7Q150.9 85.9 150.9 86.2L150.9 86.2Q150.9 86.5 151.0 86.7Q151.2 86.9 151.5 87.0Q151.8 87.1 152.1 87.2L152.1 87.2L152.9 87.4Q153.4 87.5 153.8 87.7Q154.2 87.9 154.6 88.2Q154.9 88.4 155.1 88.8Q155.3 89.2 155.3 89.7L155.3 89.7Q155.3 90.4 154.9 91.0Q154.5 91.5 153.8 91.8Q153.1 92.1 152.2 92.1Z "/></g><defs><clipPath id="satori_bc-id-2" clip-path="url(#satori_cp-id)"><rect x="271" y="30" width="269" height="80"/></clipPath></defs><mask id="satori_om-id-2"><rect x="271" y="30" width="268" height="80" fill="#fff" mask="url(#satori_om-id)"/><path width="269" height="80" fill="none" stroke="#000" stroke-width="2" d="M540,30 A0,0 0 0 1 540,30 v80 A0,0 0 0 1 540,110"/></mask><path width="269" height="80" clip-path="url(#satori_bc-id-2)" fill="none" stroke="rgba(255,255,255,0.06)" stroke-width="2" d="M540,30 A0,0 0 0 1 540,30 v80 A0,0 0 0 1 540,110"/><mask id="satori_om-id-2-0"><rect x="395" y="46" width="21" height="30" fill="#fff" mask="url(#satori_om-id)"/></mask><g mask="url(#satori_om-id)" clip-path="url(#satori_cp-id)"><path fill="#60a5fa" d="M406.9 68.1L396.5 68.1L396.5 64.6L405.6 50.2L411.2 50.2L411.2 64.5L413.9 64.5L413.9 68.1L411.2 68.1L411.2 72L406.9 72L406.9 68.1ZM401.0 64.5L407.0 64.5L407.0 55.1L406.8 55.1L401.0 64.3L401.0 64.5Z "/></g><mask id="satori_om-id-2-1"><rect x="383" y="81" width="45" height="13" fill="#fff" mask="url(#satori_om-id)"/></mask><g mask="url(#satori_om-id)" clip-path="url(#satori_cp-id)"><path fill="rgba(200,195,225,0.45)" d="M386.7 92.1L386.7 92.1Q385.7 92.1 385.0 91.8Q384.3 91.5 383.9 90.9Q383.5 90.4 383.5 89.5L383.5 89.5L385.1 89.5Q385.1 89.9 385.3 90.2Q385.5 90.5 385.9 90.6Q386.2 90.7 386.6 90.7L386.6 90.7Q387.1 90.7 387.4 90.6Q387.7 90.5 387.9 90.2Q388.1 90.0 388.1 89.7L388.1 89.7Q388.1 89.4 387.9 89.3Q387.8 89.1 387.5 88.9Q387.2 88.8 386.7 88.7L386.7 88.7L385.8 88.5Q384.8 88.2 384.2 87.7Q383.7 87.2 383.7 86.3L383.7 86.3Q383.7 85.6 384.1 85.0Q384.5 84.5 385.1 84.2Q385.8 83.9 386.7 83.9L386.7 83.9Q387.6 83.9 388.2 84.2Q388.9 84.5 389.3 85.0Q389.6 85.6 389.6 86.3L389.6 86.3L388.1 86.3Q388.0 85.8 387.6 85.5Q387.3 85.3 386.7 85.3L386.7 85.3Q386.2 85.3 386.0 85.4Q385.7 85.5 385.5 85.7Q385.4 85.9 385.4 86.2L385.4 86.2Q385.4 86.5 385.5 86.7Q385.7 86.9 386.0 87.0Q386.3 87.1 386.6 87.2L386.6 87.2L387.4 87.4Q387.9 87.5 388.3 87.7Q388.7 87.9 389.1 88.2Q389.4 88.4 389.6 88.8Q389.7 89.2 389.7 89.7L389.7 89.7Q389.7 90.4 389.4 91.0Q389.0 91.5 388.3 91.8Q387.6 92.1 386.7 92.1ZM394.6 85.4L392.1 85.4L392.1 84.0L398.6 84.0L398.6 85.4L396.2 85.4L396.2 92L394.6 92L394.6 85.4ZM402.6 92L400.8 92L403.5 84.0L405.7 84.0L408.5 92L406.7 92L406.1 90.1L403.2 90.1L402.6 92ZM403.6 88.9L405.6 88.9L405.4 88.1Q405.2 87.4 404.9 86.5L404.9 86.5Q404.8 85.9 404.6 85.3L404.6 85.3Q404.4 85.9 404.3 86.5L404.3 86.5Q404.1 87.4 403.9 88.1L403.9 88.1L403.6 88.9ZM412.6 92L411.0 92L411.0 84.0L414.1 84.0Q415.0 84.0 415.7 84.3Q416.3 84.6 416.6 85.2Q417.0 85.8 417.0 86.6Q417.0 87.4 416.6 88.0Q416.3 88.5 415.6 88.8L415.6 88.8Q415.6 88.9 415.5 88.9L415.5 88.9L417.3 92L415.4 92L413.9 89.1L412.6 89.1L412.6 92ZM412.6 85.4L412.6 87.8L413.8 87.8Q414.3 87.8 414.6 87.7Q415.0 87.5 415.1 87.3Q415.3 87.0 415.3 86.6L415.3 86.6Q415.3 86.2 415.1 85.9Q415.0 85.6 414.6 85.5Q414.3 85.4 413.8 85.4L413.8 85.4L412.6 85.4ZM422.6 92.1L422.6 92.1Q421.7 92.1 421.0 91.8Q420.3 91.5 419.9 90.9Q419.5 90.4 419.4 89.5L419.4 89.5L421.0 89.5Q421.1 89.9 421.3 90.2Q421.5 90.5 421.8 90.6Q422.2 90.7 422.6 90.7L422.6 90.7Q423.1 90.7 423.4 90.6Q423.7 90.5 423.9 90.2Q424.1 90.0 424.1 89.7L424.1 89.7Q424.1 89.4 423.9 89.3Q423.8 89.1 423.4 88.9Q423.1 88.8 422.7 88.7L422.7 88.7L421.8 88.5Q420.8 88.2 420.2 87.7Q419.7 87.2 419.7 86.3L419.7 86.3Q419.7 85.6 420.0 85.0Q420.4 84.5 421.1 84.2Q421.8 83.9 422.7 83.9L422.7 83.9Q423.5 83.9 424.2 84.2Q424.9 84.5 425.2 85.0Q425.6 85.6 425.6 86.3L425.6 86.3L424.0 86.3Q424.0 85.8 423.6 85.5Q423.3 85.3 422.6 85.3L422.6 85.3Q422.2 85.3 421.9 85.4Q421.6 85.5 421.5 85.7Q421.3 85.9 421.3 86.2L421.3 86.2Q421.3 86.5 421.5 86.7Q421.7 86.9 422.0 87.0Q422.3 87.1 422.6 87.2L422.6 87.2L423.3 87.4Q423.8 87.5 424.3 87.7Q424.7 87.9 425.0 88.2Q425.4 88.4 425.5 88.8Q425.7 89.2 425.7 89.7L425.7 89.7Q425.7 90.4 425.4 91.0Q425.0 91.5 424.3 91.8Q423.6 92.1 422.6 92.1Z "/></g><mask id="satori_om-id-3"><rect x="540" y="30" width="319" height="80" fill="#fff" mask="url(#satori_om-id)"/></mask><mask id="satori_om-id-3-0"><rect x="652" y="46" width="95" height="30" fill="#fff" mask="url(#satori_om-id)"/></mask><g mask="url(#satori_om-id)" clip-path="url(#satori_cp-id)"><path fill="#f59e0b" d="M669.3 72L653.8 72L653.8 68.8L661.6 61.5Q662.5 60.6 663.2 59.8Q663.9 59.0 664.3 58.2Q664.6 57.5 664.6 56.6L664.6 56.6Q664.6 55.6 664.2 54.9Q663.7 54.2 663.0 53.8Q662.2 53.5 661.2 53.5L661.2 53.5Q660.2 53.5 659.5 53.9Q658.7 54.3 658.3 55.0Q657.9 55.8 657.9 56.9L657.9 56.9L653.6 56.9Q653.6 54.7 654.6 53.2Q655.6 51.6 657.3 50.7Q659.0 49.9 661.3 49.9L661.3 49.9Q663.6 49.9 665.3 50.7Q667.0 51.5 668.0 53.0Q669.0 54.4 669.0 56.3L669.0 56.3Q669.0 57.5 668.5 58.7Q668.0 59.9 666.8 61.4Q665.6 62.9 663.3 64.9L663.3 64.9L660.0 68.2L660.0 68.3L669.3 68.3L669.3 72ZM680.1 72.3L680.1 72.3Q677.9 72.3 676.1 71.5Q674.4 70.6 673.3 69.2Q672.3 67.7 672.3 65.9L672.3 65.9L676.6 65.9Q676.7 66.7 677.1 67.4Q677.6 68.0 678.4 68.4Q679.2 68.7 680.1 68.7L680.1 68.7Q681.2 68.7 682.0 68.3Q682.9 67.8 683.4 66.9Q683.8 66.0 683.8 64.9L683.8 64.9Q683.8 63.7 683.4 62.8Q682.9 61.9 682.0 61.4Q681.2 60.9 680.0 60.9L680.0 60.9Q679.0 60.9 678.1 61.3Q677.2 61.7 676.7 62.3L676.7 62.3L672.7 61.6L673.8 50.2L687.0 50.2L687.0 53.9L677.5 53.9L676.9 59.4L677.0 59.4Q677.6 58.6 678.8 58.1Q679.9 57.6 681.3 57.6L681.3 57.6Q682.8 57.6 684.1 58.1Q685.3 58.6 686.2 59.6Q687.2 60.5 687.7 61.9Q688.2 63.2 688.2 64.7L688.2 64.7Q688.2 66.9 687.2 68.6Q686.1 70.3 684.3 71.3Q682.5 72.3 680.1 72.3ZM699.7 72.3L699.7 72.3Q696.9 72.3 695.0 71.0Q693.0 69.6 692.0 67.1Q690.9 64.6 690.9 61.1L690.9 61.1Q690.9 57.6 692.0 55.1Q693.0 52.5 695.0 51.2Q696.9 49.9 699.7 49.9L699.7 49.9Q702.4 49.9 704.4 51.2Q706.3 52.6 707.4 55.1Q708.4 57.6 708.4 61.1L708.4 61.1Q708.4 64.6 707.4 67.1Q706.3 69.6 704.4 71.0Q702.4 72.3 699.7 72.3ZM699.7 68.6L699.7 68.6Q701.0 68.6 701.9 67.7Q702.9 66.8 703.4 65.2Q703.9 63.5 703.9 61.1L703.9 61.1Q703.9 58.7 703.4 57.0Q702.9 55.3 701.9 54.5Q701.0 53.6 699.7 53.6L699.7 53.6Q698.3 53.6 697.4 54.5Q696.5 55.3 696.0 57.0Q695.5 58.7 695.5 61.1L695.5 61.1Q695.5 63.5 696.0 65.2Q696.5 66.8 697.4 67.7Q698.3 68.6 699.7 68.6ZM716.4 72L711.8 72L720.9 54.0L720.9 53.9L710.3 53.9L710.3 50.2L725.5 50.2L725.5 53.9L716.4 72ZM736.0 72.3L736.0 72.3Q733.5 72.3 731.6 71.5Q729.8 70.7 728.7 69.3Q727.6 67.9 727.6 66.1L727.6 66.1Q727.6 64.8 728.2 63.6Q728.8 62.5 729.9 61.7Q731.0 60.9 732.3 60.7L732.3 60.7L732.3 60.6Q730.6 60.2 729.5 58.9Q728.4 57.5 728.4 55.7L728.4 55.7Q728.4 54.1 729.4 52.7Q730.4 51.4 732.1 50.6Q733.8 49.9 736.0 49.9L736.0 49.9Q738.2 49.9 739.9 50.6Q741.6 51.4 742.6 52.7Q743.6 54.1 743.6 55.7L743.6 55.7Q743.6 57.5 742.5 58.9Q741.4 60.2 739.7 60.6L739.7 60.6L739.7 60.7Q741.0 60.9 742.1 61.7Q743.1 62.5 743.8 63.6Q744.4 64.8 744.4 66.1L744.4 66.1Q744.4 67.9 743.3 69.3Q742.2 70.7 740.3 71.5Q738.4 72.3 736.0 72.3ZM736.0 69.0L736.0 69.0Q737.1 69.0 737.9 68.6Q738.8 68.2 739.2 67.5Q739.7 66.7 739.7 65.8L739.7 65.8Q739.7 64.8 739.2 64.1Q738.7 63.3 737.9 62.9Q737.1 62.5 736.0 62.5L736.0 62.5Q734.9 62.5 734.1 62.9Q733.2 63.3 732.7 64.1Q732.2 64.8 732.2 65.8L732.2 65.8Q732.2 66.7 732.7 67.4Q733.2 68.2 734.0 68.6Q734.9 69.0 736.0 69.0ZM736.0 59.2L736.0 59.2Q736.9 59.2 737.6 58.8Q738.4 58.4 738.8 57.8Q739.2 57.1 739.2 56.2L739.2 56.2Q739.2 55.3 738.8 54.7Q738.4 54.0 737.7 53.7Q736.9 53.3 736.0 53.3L736.0 53.3Q735.0 53.3 734.3 53.7Q733.6 54.0 733.2 54.7Q732.8 55.3 732.8 56.2L732.8 56.2Q732.8 57.1 733.2 57.8Q733.6 58.4 734.3 58.8Q735.0 59.2 736.0 59.2Z "/></g><mask id="satori_om-id-3-1"><rect x="666" y="81" width="66" height="13" fill="#fff" mask="url(#satori_om-id)"/></mask><g mask="url(#satori_om-id)" clip-path="url(#satori_cp-id)"><path fill="rgba(200,195,225,0.45)" d="M670.2 92.1L670.2 92.1Q669.2 92.1 668.3 91.6Q667.5 91.1 667.0 90.2Q666.5 89.3 666.5 88.0L666.5 88.0Q666.5 86.7 667.0 85.8Q667.5 84.9 668.3 84.4Q669.2 83.9 670.2 83.9L670.2 83.9Q670.9 83.9 671.5 84.1Q672.1 84.3 672.5 84.6Q673.0 85.0 673.3 85.5Q673.6 86.1 673.7 86.7L673.7 86.7L672.0 86.7Q672.0 86.4 671.8 86.1Q671.6 85.9 671.4 85.7Q671.2 85.5 670.9 85.4Q670.6 85.3 670.3 85.3L670.3 85.3Q669.6 85.3 669.2 85.7Q668.7 86.0 668.4 86.6Q668.2 87.2 668.2 88.0L668.2 88.0Q668.2 88.9 668.4 89.5Q668.7 90.1 669.2 90.4Q669.6 90.7 670.2 90.7L670.2 90.7Q670.6 90.7 670.9 90.6Q671.2 90.5 671.4 90.3Q671.6 90.1 671.8 89.8Q672.0 89.6 672.0 89.3L672.0 89.3L673.7 89.3Q673.6 89.8 673.3 90.3Q673.1 90.8 672.6 91.2Q672.2 91.6 671.6 91.9Q671.0 92.1 670.2 92.1ZM679.9 92.1L679.9 92.1Q678.8 92.1 678.0 91.6Q677.1 91.1 676.6 90.2Q676.1 89.3 676.1 88.0L676.1 88.0Q676.1 86.7 676.6 85.8Q677.1 84.9 678.0 84.4Q678.8 83.9 679.9 83.9L679.9 83.9Q680.9 83.9 681.8 84.4Q682.6 84.9 683.1 85.8Q683.6 86.7 683.6 88.0L683.6 88.0Q683.6 89.3 683.1 90.2Q682.6 91.1 681.8 91.6Q680.9 92.1 679.9 92.1ZM679.9 90.7L679.9 90.7Q680.5 90.7 681.0 90.3Q681.4 90.0 681.7 89.5Q681.9 88.9 681.9 88.0L681.9 88.0Q681.9 87.1 681.7 86.5Q681.4 86.0 681.0 85.6Q680.5 85.3 679.9 85.3L679.9 85.3Q679.3 85.3 678.8 85.7Q678.3 86.0 678.1 86.6Q677.8 87.1 677.8 88.0L677.8 88.0Q677.8 88.9 678.1 89.4Q678.3 90.0 678.8 90.3Q679.3 90.7 679.9 90.7ZM688.0 92L686.3 92L686.3 84.0L688.9 84.0L690.2 87.7Q690.2 87.9 690.3 88.3Q690.4 88.7 690.5 89.2L690.5 89.2Q690.7 89.7 690.7 90.1L690.7 90.1Q690.8 89.7 690.9 89.2L690.9 89.2Q691.0 88.8 691.2 88.3Q691.3 87.9 691.3 87.7L691.3 87.7L692.6 84.0L695.1 84.0L695.1 92L693.5 92L693.5 88.2Q693.5 88.0 693.5 87.6Q693.5 87.2 693.5 86.7Q693.5 86.3 693.5 85.8L693.5 85.8Q693.6 85.6 693.6 85.4L693.6 85.4Q693.5 85.6 693.4 85.9L693.4 85.9Q693.3 86.3 693.2 86.8Q693.1 87.2 692.9 87.6Q692.8 88.0 692.8 88.2L692.8 88.2L691.4 92L690.0 92L688.7 88.2Q688.6 88.0 688.5 87.6Q688.4 87.2 688.3 86.8Q688.1 86.4 688.0 85.9L688.0 85.9Q688.0 85.7 687.9 85.5L687.9 85.5Q687.9 85.6 687.9 85.8L687.9 85.8Q687.9 86.2 687.9 86.7Q687.9 87.2 688.0 87.6Q688.0 88.0 688.0 88.2L688.0 88.2L688.0 92ZM699.7 92L698.1 92L698.1 84.0L700.6 84.0L701.9 87.7Q702.0 87.9 702.1 88.3Q702.2 88.7 702.3 89.2L702.3 89.2Q702.4 89.7 702.5 90.1L702.5 90.1Q702.6 89.7 702.7 89.2L702.7 89.2Q702.8 88.8 702.9 88.3Q703.0 87.9 703.1 87.7L703.1 87.7L704.4 84.0L706.9 84.0L706.9 92L705.2 92L705.2 88.2Q705.2 88.0 705.2 87.6Q705.3 87.2 705.3 86.7Q705.3 86.3 705.3 85.8L705.3 85.8Q705.3 85.6 705.3 85.4L705.3 85.4Q705.2 85.6 705.2 85.9L705.2 85.9Q705.1 86.3 704.9 86.8Q704.8 87.2 704.7 87.6Q704.6 88.0 704.5 88.2L704.5 88.2L703.2 92L701.8 92L700.4 88.2Q700.4 88.0 700.3 87.6Q700.1 87.2 700.0 86.8Q699.9 86.4 699.8 85.9L699.8 85.9Q699.7 85.7 699.7 85.5L699.7 85.5Q699.7 85.6 699.7 85.8L699.7 85.8Q699.7 86.2 699.7 86.7Q699.7 87.2 699.7 87.6Q699.7 88.0 699.7 88.2L699.7 88.2L699.7 92ZM709.8 84.0L711.5 84.0L711.5 92L709.8 92L709.8 84.0ZM716.5 85.4L714.1 85.4L714.1 84.0L720.6 84.0L720.6 85.4L718.2 85.4L718.2 92L716.5 92L716.5 85.4ZM726.2 92.1L726.2 92.1Q725.2 92.1 724.5 91.8Q723.8 91.5 723.4 90.9Q723.0 90.4 723.0 89.5L723.0 89.5L724.6 89.5Q724.6 89.9 724.8 90.2Q725.0 90.5 725.4 90.6Q725.7 90.7 726.2 90.7L726.2 90.7Q726.6 90.7 726.9 90.6Q727.3 90.5 727.5 90.2Q727.6 90.0 727.6 89.7L727.6 89.7Q727.6 89.4 727.5 89.3Q727.3 89.1 727.0 88.9Q726.7 88.8 726.3 88.7L726.3 88.7L725.4 88.5Q724.4 88.2 723.8 87.7Q723.2 87.2 723.2 86.3L723.2 86.3Q723.2 85.6 723.6 85.0Q724.0 84.5 724.7 84.2Q725.3 83.9 726.2 83.9L726.2 83.9Q727.1 83.9 727.8 84.2Q728.4 84.5 728.8 85.0Q729.2 85.6 729.2 86.3L729.2 86.3L727.6 86.3Q727.6 85.8 727.2 85.5Q726.8 85.3 726.2 85.3L726.2 85.3Q725.8 85.3 725.5 85.4Q725.2 85.5 725.0 85.7Q724.9 85.9 724.9 86.2L724.9 86.2Q724.9 86.5 725.1 86.7Q725.2 86.9 725.5 87.0Q725.8 87.1 726.2 87.2L726.2 87.2L726.9 87.4Q727.4 87.5 727.8 87.7Q728.3 87.9 728.6 88.2Q728.9 88.4 729.1 88.8Q729.3 89.2 729.3 89.7L729.3 89.7Q729.3 90.4 728.9 91.0Q728.6 91.5 727.9 91.8Q727.2 92.1 726.2 92.1Z "/></g></svg>