<!-- Generated by readme-aura https://github.com/collectioneur/readme-aura -->
<svg width="860" height="140" viewBox="0 0 860 140" xmlns="http://www.w3.org/2000/svg"><defs><clipPath id="satori_bc-id"><path x="0" y="0" width="860" height="140" d="M16,0 h828 a16,16 0 0 1 16,16 v108 a16,16 0 0 1 -16,16 h-828 a16,16 0 0 1 -16,-16 v-108 a16,16 0 0 1 16,-16"/></clipPath></defs><clipPath id="satori_cp-id"><path x="0" y="0" width="860" height="140" d="M16,0 h828 a16,16 0 0 1 16,16 v108 a16,16 0 0 1 -16,16 h-828 a16,16 0 0 1 -16,-16 v-108 a16,16 0 0 1 16,-16"/></clipPath><mask id="satori_om-id"><rect x="1" y="1" width="858" height="138" fill="#fff"/><path width="860" height="140" fill="none" stroke="#000" stroke-width="2" d="M4.686,4.686 A16,16 0 0 1 16,0 h828 a16,16 0 0 1 16,16 v108 a16,16 0 0 1 -16,16 h-828 a16,16 0 0 1 -16,-16 v-108 A16,16 0 0 1 4.686,4.686"/></mask><path x="0" y="0" width="860" height="140" fill="#08080c" d="M16,0 h828 a16,16 0 0 1 16,16 v108 a16,16 0 0 1 -16,16 h-828 a16,16 0 0 1 -16,-16 v-108 a16,16 0 0 1 16,-16"/><path width="860" height="140" clip-path="url(#satori_bc-id)" fill="none" stroke="rgba(110,80,220,0.18)" stroke-width="2" d="M4.686,4.686 A16,16 0 0 1 16,0 h828 a16,16 0 0 1 16,16 v108 a16,16 0 0 1 -16,16 h-828 a16,16 0 0 1 -16,-16 v-108 A16,16 0 0 1 4.686,4.686"/><clipPath id="satori_cp-id-0" clip-path="url(#satori_cp-id)"><rect x="1" y="1" width="860" height="140"/></clipPath><mask id="satori_om-id-0"><rect x="1" y="1" width="860" height="140" fill="#fff" mask="url(#satori_om-id)"/></mask><svg x="1" y="1" width="860" height="140" preserveAspectRatio="none" clip-path="url(#satori_cp-id-0)" mask="url(#satori_om-id-0)"><defs><radialGradient id="g1" cx="50%" cy="50%" r="50%"><stop offset="0%" stop-color="rgba(110,20,210,0.65)"></stop><stop offset="45%" stop-color="rgba(80,15,170,0.28)"></stop><stop offset="70%" stop-color="rgba(80,15,170,0)"></stop></radialGradient><radialGradient id="g2" cx="50%" cy="50%" r="50%"><stop offset="0%" stop-color="rgba(40,70,255,0.55)"></stop><stop offset="45%" stop-color="rgba(20,50,200,0.22)"></stop><stop offset="70%" stop-color="rgba(20,50,200,0)"></stop></radialGradient><radialGradient id="g3" cx="50%" cy="50%" r="50%"><stop offset="0%" stop-color="rgba(0,140,255,0.42)"></stop><stop offset="70%" stop-color="rgba(0,140,255,0)"></stop></radialGradient><radialGradient id="g4" cx="50%" cy="50%" r="50%"><stop offset="0%" stop-color="rgba(0,195,235,0.30)"></stop><stop offset="70%" stop-color="rgba(0,195,235,0)"></stop></radialGradient><radialGradient id="g5" cx="50%" cy="50%" r="50%"><stop offset="0%" stop-color="rgba(100,30,210,0.40)"></stop><stop offset="70%" stop-color="rgba(100,30,210,0)"></stop></radialGradient></defs><ellipse id="glow-1" cx="710" cy="150" rx="210" ry="150" fill="url(#g1)"></ellipse><ellipse id="glow-2" cx="550" cy="140" rx="190" ry="140" fill="url(#g2)"></ellipse><ellipse id="glow-3" cx="400" cy="130" rx="170" ry="130" fill="url(#g3)"></ellipse><ellipse id="glow-4" cx="250" cy="140" rx="150" ry="120" fill="url(#g4)"></ellipse><ellipse id="glow-5" cx="100" cy="150" rx="130" ry="110" fill="url(#g5)"></ellipse><style>

         @keyframes float-slow {
           0%, 100% { transform: translateX(0px); opacity: 0.8; }
           50% { transform: translateX(350px); opacity: 1.2; }
         }
         @keyframes float-medium {
           0%, 100% { transform: translateX(0px); opacity: 0.7; }
           50% { transform: translateX(-250px); opacity: 1.1; }
         }
         @keyframes float-fast {
           0%, 100% { transform: translateX(0px); opacity: 0.9; }
           50% { transform: translateX(200px); opacity: 0.6; }
         }
         @keyframes float-diagonal {
           0%, 100% { transform: translate(0px, 0px); opacity: 0.75; }
           50% { transform: translate(120px, 30px); opacity: 1.0; }
         }
         @keyframes float-wave {
           0%, 100% { transform: translateX(0px); opacity: 0.65; }
           33% { transform: translateX(-160px); opacity: 0.9; }
           66% { transform: translateX(80px); opacity: 1.0; }
         }
         @keyframes float-pulse {
           0%, 100% { transform: scale(1); opacity: 0.8; }
           50% { transform: scale(1.3); opacity: 0.4; }
         }
         #glow-1 { animation: float-slow 8s ease-in-out infinite; }
         #glow-2 { animation: float-medium 12s ease-in-out infinite; }
         #glow-3 { animation: float-fast 9s ease-in-out infinite; }
         #glow-4 { animation: float-diagonal 10s ease-in-out infinite; }
         #glow-5 { animation: float-wave 14s ease-in-out infinite; }
       
</style>
</svg><mask id="satori_om-id-0-0"><rect x="1" y="1" width="0" height="140" fill="#fff" mask="url(#satori_om-id)"/></mask><mask id="satori_om-id-0-0-0"><rect x="1" y="1" width="0" height="140" fill="#fff" mask="url(#satori_om-id)"/></mask><mask id="satori_om-id-0-0-0-0"><rect x="1" y="1" width="0" height="140" fill="#fff" mask="url(#satori_om-id)"/></mask><mask id="satori_om-id-0-0-0-1"><rect x="1" y="1" width="0" height="140" fill="#fff" mask="url(#satori_om-id)"/></mask><mask id="satori_om-id-0-0-0-2"><rect x="1" y="1" width="0" height="140" fill="#fff" mask="url(#satori_om-id)"/></mask><mask id="satori_om-id-0-0-1"><rect x="1" y="1" width="0" height="140" fill="#fff" mask="url(#satori_om-id)"/></mask><mask id="satori_om-id-0-0-1-0"><rect x="1" y="1" width="0" height="140" fill="#fff" mask="url(#satori_om-id)"/></mask><mask id="satori_om-id-0-0-1-1"><rect x="1" y="1" width="0" height="140" fill="#fff" mask="url(#satori_om-id)"/></mask><mask id="satori_om-id-0-0-1-2"><rect x="1" y="1" width="0" height="140" fill="#fff" mask="url(#satori_om-id)"/></mask><mask id="satori_om-id-0-0-2"><rect x="1" y="1" width="0" height="140" fill="#fff" mask="url(#satori_om-id)"/></mask><mask id="satori_om-id-0-0-2-0"><rect x="1" y="1" width="0" height="140" fill="#fff" mask="url(#satori_om-id)"/></mask><mask id="satori_om-id-0-0-2-1"><rect x="1" y="1" width="0" height="140" fill="#fff" mask="url(#satori_om-id)"/></mask><mask id="satori_om-id-0-0-3"><rect x="1" y="1" width="0" height="140" fill="#fff" mask="url(#satori_om-id)"/></mask><mask id="satori_om-id-0-0-3-0"><rect x="1" y="1" width="0" height="140" fill="#fff" mask="url(#satori_om-id)"/></mask><mask id="satori_om-id-0-0-3-1"><rect x="1" y="1" width="0" height="140" fill="#fff" mask="url(#satori_om-id)"/></mask><mask id="satori_om-id-0-0-4"><rect x="1" y="1" width="0" height="140" fill="#fff" mask="url(#satori_om-id)"/></mask><mask id="satori_om-id-0-0-4-0"><rect x="1" y="1" width="0" height="140" fill="#fff" mask="url(#satori_om-id)"/></mask><mask id="satori_om-id-0-0-4-1"><rect x="1" y="1" width="0" height="140" fill="#fff" mask="url(#satori_om-id)"/></mask><mask id="satori_om-id-0-1"><rect x="1" y="1" width="0" height="140" fill="#fff" mask="url(#satori_om-id)"/></mask><mask id="satori_om-id-0-2"><rect x="1" y="1" width="0" height="140" fill="#fff" mask="url(#satori_om-id)"/></mask><mask id="satori_om-id-0-3"><rect x="1" y="1" width="0" height="140" fill="#fff" mask="url(#satori_om-id)"/></mask><mask id="satori_om-id-0-4"><rect x="1" y="1" width="0" height="140" fill="#fff" mask="url(#satori_om-id)"/></mask><mask id="satori_om-id-0-5"><rect x="1" y="1" width="0" height="140" fill="#fff" mask="url(#satori_om-id)"/></mask><defs><clipPath id="satori_bc-id-1" clip-path="url(#satori_cp-id)"><rect x="1" y="30" width="268" height="80"/></clipPath></defs><mask id="satori_om-id-1"><rect x="1" y="30" width="267" height="80" fill="#fff" mask="url(#satori_om-id)"/><path width="268" height="80" fill="none" stroke="#000" stroke-width="2" d="M269,30 A0,0 0 0 1 269,30 v80 A0,0 0 0 1 269,110"/></mask><path width="268" height="80" clip-path="url(#satori_bc-id-1)" fill="none" stroke="rgba(255,255,255,0.06)" stroke-width="2" d="M269,30 A0,0 0 0 1 269,30 v80 A0,0 0 0 1 269,110"/><mask id="satori_om-id-1-0"><rect x="119" y="46" width="31" height="30" fill="#fff" mask="url(#satori_om-id)"/></mask><g mask="url(#satori_om-id)" clip-path="url(#satori_cp-id)"><path fill="#a78bfa" d="M125.2 50.2L130.0 50.2L130.0 72L125.5 72L125.5 54.1L125.4 54.1L120.4 57.7L120.4 53.6L125.2 50.2ZM139.2 72L134.5 72L143.6 54.0L143.6 53.9L133.0 53.9L133.0 50.2L148.3 50.2L148.3 53.9L139.2 72Z "/></g><mask id="satori_om-id-1-1"><rect x="112" y="81" width="45" height="13" fill="#fff" mask="url(#satori_om-id)"/></mask><g mask="url(#satori_om-id)" clip-path="url(#satori_cp-id)"><path fill="rgba(200,195,225,0.45)" d="M114.4 92L112.7 92L112.7 84.0L115.8 84.0Q116.8 84.0 117.4 84.3Q118.0 84.6 118.4 85.2Q118.7 85.8 118.7 86.6Q118.7 87.4 118.4 88.0Q118.0 88.5 117.4 88.8L117.4 88.8Q117.3 88.9 117.3 88.9L117.3 88.9L119.0 92L117.2 92L115.6 89.1L114.4 89.1L114.4 92ZM114.4 85.4L114.4 87.8L115.5 87.8Q116.0 87.8 116.4 87.7Q116.7 87.5 116.9 87.3Q117.0 87.0 117.0 86.6L117.0 86.6Q117.0 86.2 116.9 85.9Q116.7 85.6 116.4 85.5Q116.0 85.4 115.5 85.4L115.5 85.4L114.4 85.4ZM126.8 92L121.4 92L121.4 84.0L126.8 84.0L126.8 85.4L123.1 85.4L123.1 87.3L126.5 87.3L126.5 88.6L123.1 88.6L123.1 90.6L126.8 90.6L126.8 92ZM131.3 92L129.6 92L129.6 84.0L132.8 84.0Q133.7 84.0 134.3 84.3Q134.9 84.7 135.3 85.3Q135.6 85.9 135.6 86.7L135.6 86.7Q135.6 87.5 135.3 88.1Q134.9 88.7 134.3 89.0Q133.6 89.4 132.7 89.4L132.7 89.4L131.3 89.4L131.3 92ZM131.3 85.4L131.3 88.1L132.5 88.1Q133.0 88.1 133.3 87.9Q133.6 87.7 133.8 87.4Q133.9 87.1 133.9 86.7Q133.9 86.3 133.8 86.0Q133.6 85.7 133.3 85.5Q133.0 85.4 132.4 85.4L132.4 85.4L131.3 85.4ZM141.8 92.1L141.8 92.1Q140.7 92.1 139.9 91.6Q139.0 91.1 138.5 90.2Q138.0 89.3 138.0 88.0L138.0 88.0Q138.0 86.7 138.5 85.8Q139.0 84.9 139.9 84.4Q140.7 83.9 141.8 83.9L141.8 83.9Q142.8 83.9 143.7 84.4Q144.5 84.9 145.0 85.8Q145.5 86.7 145.5 88.0L145.5 88.0Q145.5 89.3 145.0 90.2Q144.5 91.1 143.7 91.6Q142.8 92.1 141.8 92.1ZM141.8 90.7L141.8 90.7Q142.4 90.7 142.9 90.3Q143.3 90.0 143.6 89.5Q143.8 88.9 143.8 88.0L143.8 88.0Q143.8 87.1 143.6 86.5Q143.3 86.0 142.9 85.6Q142.4 85.3 141.8 85.3L141.8 85.3Q141.2 85.3 140.7 85.7Q140.2 86.0 140.0 86.6Q139.7 87.1 139.7 88.0L139.7 88.0Q139.7 88.9 140.0 89.4Q140.2 90.0 140.7 90.3Q141.2 90.7 141.8 90.7ZM151.2 92.1L151.2 92.1Q150.2 92.1 149.5 91.8Q148.8 91.5 148.4 90.9Q148.0 90.4 148.0 89.5L148.0 89.5L149.6 89.5Q149.6 89.9 149.8 90.2Q150.0 90.5 150.4 90.6Q150.7 90.7 151.2 90.7L151.2 90.7Q151.6 90.7 151.9 90.6Q152.2 90.5 152.4 90.2Q152.6 90.0 152.6 89.7L152.6 89.7Q152.6 89.4 152.4 89.3Q152.3 89.1 152.0 88.9Q151.7 88.8 151.2 88.7L151.2 88.7L150.3 88.5Q149.3 88.2 148.8 87.7Q148.2 87.2 148.2 86.3L148.2 86.3Q148.2 85.6 148.6 85.0Q149.0 84.5 149.6 84.2Q150.3 83.9 151.2 83.9L151.2 83.9Q152.1 83.9 152.7 84.2Q153.4 84.5 153.8 85.0Q154.1 85.6 154.1 86.3L154.1 86.3L152.6 86.3Q152.5 85.8 152.2 85.5Q151.8 85.3 151.2 85.3L151.2 85.3Q150.8 85.3 150.5 85.4Q150.2 85.5 150.0 85.7Q149.9 85.9 149.9 86.2L149.9 86.2Q149.9 86.5 150.0 86.7Q150.2 86.9 150.5 87.0Q150.8 87.1 151.1 87.2L151.1 87.2L151.9 87.4Q152.4 87.5 152.8 87.7Q153.2 87.9 153.6 88.2Q153.9 88.4 154.1 88.8Q154.3 89.2 154.3 89.7L154.3 89.7Q154.3 90.4 153.9 91.0Q153.5 91.5 152.8 91.8Q152.1 92.1 151.2 92.1Z "/></g><defs><clipPath id="satori_bc-id-2" clip-path="url(#satori_cp-id)"><rect x="269" y="30" width="269" height="80"/></clipPath></defs><mask id="satori_om-id-2"><rect x="269" y="30" width="268" height="80" fill="#fff" mask="url(#satori_om-id)"/><path width="269" height="80" fill="none" stroke="#000" stroke-width="2" d="M538,30 A0,0 0 0 1 538,30 v80 A0,0 0 0 1 538,110"/></mask><path width="269" height="80" clip-path="url(#satori_bc-id-2)" fill="none" stroke="rgba(255,255,255,0.06)" stroke-width="2" d="M538,30 A0,0 0 0 1 538,30 v80 A0,0 0 0 1 538,110"/><mask id="satori_om-id-2-0"><rect x="392" y="46" width="21" height="30" fill="#fff" mask="url(#satori_om-id)"/></mask><g mask="url(#satori_om-id)" clip-path="url(#satori_cp-id)"><path fill="#60a5fa" d="M403.9 68.1L393.5 68.1L393.5 64.6L402.6 50.2L408.2 50.2L408.2 64.5L410.9 64.5L410.9 68.1L408.2 68.1L408.2 72L403.9 72L403.9 68.1ZM398.0 64.5L404.0 64.5L404.0 55.1L403.8 55.1L398.0 64.3L398.0 64.5Z "/></g><mask id="satori_om-id-2-1"><rect x="380" y="81" width="45" height="13" fill="#fff" mask="url(#satori_om-id)"/></mask><g mask="url(#satori_om-id)" clip-path="url(#satori_cp-id)"><path fill="rgba(200,195,225,0.45)" d="M383.7 92.1L383.7 92.1Q382.7 92.1 382.0 91.8Q381.3 91.5 380.9 90.9Q380.5 90.4 380.5 89.5L380.5 89.5L382.1 89.5Q382.1 89.9 382.3 90.2Q382.5 90.5 382.9 90.6Q383.2 90.7 383.6 90.7L383.6 90.7Q384.1 90.7 384.4 90.6Q384.7 90.5 384.9 90.2Q385.1 90.0 385.1 89.7L385.1 89.7Q385.1 89.4 384.9 89.3Q384.8 89.1 384.5 88.9Q384.2 88.8 383.7 88.7L383.7 88.7L382.8 88.5Q381.8 88.2 381.2 87.7Q380.7 87.2 380.7 86.3L380.7 86.3Q380.7 85.6 381.1 85.0Q381.5 84.5 382.1 84.2Q382.8 83.9 383.7 83.9L383.7 83.9Q384.6 83.9 385.2 84.2Q385.9 84.5 386.3 85.0Q386.6 85.6 386.6 86.3L386.6 86.3L385.1 86.3Q385.0 85.8 384.6 85.5Q384.3 85.3 383.7 85.3L383.7 85.3Q383.2 85.3 383.0 85.4Q382.7 85.5 382.5 85.7Q382.4 85.9 382.4 86.2L382.4 86.2Q382.4 86.5 382.5 86.7Q382.7 86.9 383.0 87.0Q383.3 87.1 383.6 87.2L383.6 87.2L384.4 87.4Q384.9 87.5 385.3 87.7Q385.7 87.9 386.1 88.2Q386.4 88.4 386.6 88.8Q386.7 89.2 386.7 89.7L386.7 89.7Q386.7 90.4 386.4 91.0Q386.0 91.5 385.3 91.8Q384.6 92.1 383.7 92.1ZM391.6 85.4L389.1 85.4L389.1 84.0L395.6 84.0L395.6 85.4L393.2 85.4L393.2 92L391.6 92L391.6 85.4ZM399.6 92L397.8 92L400.5 84.0L402.7 84.0L405.5 92L403.7 92L403.1 90.1L400.2 90.1L399.6 92ZM400.6 88.9L402.6 88.9L402.4 88.1Q402.2 87.4 401.9 86.5L401.9 86.5Q401.8 85.9 401.6 85.3L401.6 85.3Q401.4 85.9 401.3 86.5L401.3 86.5Q401.1 87.4 400.9 88.1L400.9 88.1L400.6 88.9ZM409.6 92L408.0 92L408.0 84.0L411.1 84.0Q412.0 84.0 412.7 84.3Q413.3 84.6 413.6 85.2Q414.0 85.8 414.0 86.6Q414.0 87.4 413.6 88.0Q413.3 88.5 412.6 88.8L412.6 88.8Q412.6 88.9 412.5 88.9L412.5 88.9L414.3 92L412.4 92L410.9 89.1L409.6 89.1L409.6 92ZM409.6 85.4L409.6 87.8L410.8 87.8Q411.3 87.8 411.6 87.7Q412.0 87.5 412.1 87.3Q412.3 87.0 412.3 86.6L412.3 86.6Q412.3 86.2 412.1 85.9Q412.0 85.6 411.6 85.5Q411.3 85.4 410.8 85.4L410.8 85.4L409.6 85.4ZM419.6 92.1L419.6 92.1Q418.7 92.1 418.0 91.8Q417.3 91.5 416.9 90.9Q416.5 90.4 416.4 89.5L416.4 89.5L418.0 89.5Q418.1 89.9 418.3 90.2Q418.5 90.5 418.8 90.6Q419.2 90.7 419.6 90.7L419.6 90.7Q420.1 90.7 420.4 90.6Q420.7 90.5 420.9 90.2Q421.1 90.0 421.1 89.7L421.1 89.7Q421.1 89.4 420.9 89.3Q420.8 89.1 420.4 88.9Q420.1 88.8 419.7 88.7L419.7 88.7L418.8 88.5Q417.8 88.2 417.2 87.7Q416.7 87.2 416.7 86.3L416.7 86.3Q416.7 85.6 417.0 85.0Q417.4 84.5 418.1 84.2Q418.8 83.9 419.7 83.9L419.7 83.9Q420.5 83.9 421.2 84.2Q421.9 84.5 422.2 85.0Q422.6 85.6 422.6 86.3L422.6 86.3L421.0 86.3Q421.0 85.8 420.6 85.5Q420.3 85.3 419.6 85.3L419.6 85.3Q419.2 85.3 418.9 85.4Q418.6 85.5 418.5 85.7Q418.3 85.9 418.3 86.2L418.3 86.2Q418.3 86.5 418.5 86.7Q418.7 86.9 419.0 87.0Q419.3 87.1 419.6 87.2L419.6 87.2L420.3 87.4Q420.8 87.5 421.3 87.7Q421.7 87.9 422.0 88.2Q422.4 88.4 422.5 88.8Q422.7 89.2 422.7 89.7L422.7 89.7Q422.7 90.4 422.4 91.0Q422.0 91.5 421.3 91.8Q420.6 92.1 419.6 92.1Z "/></g><mask id="satori_om-id-3"><rect x="538" y="30" width="321" height="80" fill="#fff" mask="url(#satori_om-id)"/></mask><mask id="satori_om-id-3-0"><rect x="649" y="46" width="99" height="30" fill="#fff" mask="url(#satori_om-id)"/></mask><g mask="url(#satori_om-id)" clip-path="url(#satori_cp-id)"><path fill="#f59e0b" d="M666.3 72L650.8 72L650.8 68.8L658.6 61.5Q659.5 60.6 660.2 59.8Q660.9 59.0 661.3 58.2Q661.6 57.5 661.6 56.6L661.6 56.6Q661.6 55.6 661.2 54.9Q660.7 54.2 660.0 53.8Q659.2 53.5 658.2 53.5L658.2 53.5Q657.2 53.5 656.5 53.9Q655.7 54.3 655.3 55.0Q654.9 55.8 654.9 56.9L654.9 56.9L650.6 56.9Q650.6 54.7 651.6 53.2Q652.6 51.6 654.3 50.7Q656.0 49.9 658.3 49.9L658.3 49.9Q660.6 49.9 662.3 50.7Q664.0 51.5 665.0 53.0Q666.0 54.4 666.0 56.3L666.0 56.3Q666.0 57.5 665.5 58.7Q665.0 59.9 663.8 61.4Q662.6 62.9 660.3 64.9L660.3 64.9L657.0 68.2L657.0 68.3L666.3 68.3L666.3 72ZM677.1 72.3L677.1 72.3Q674.9 72.3 673.1 71.5Q671.4 70.6 670.3 69.2Q669.3 67.7 669.3 65.9L669.3 65.9L673.6 65.9Q673.7 66.7 674.1 67.4Q674.6 68.0 675.4 68.4Q676.2 68.7 677.1 68.7L677.1 68.7Q678.2 68.7 679.0 68.3Q679.9 67.8 680.4 66.9Q680.8 66.0 680.8 64.9L680.8 64.9Q680.8 63.7 680.4 62.8Q679.9 61.9 679.0 61.4Q678.2 60.9 677.0 60.9L677.0 60.9Q676.0 60.9 675.1 61.3Q674.2 61.7 673.7 62.3L673.7 62.3L669.7 61.6L670.8 50.2L684.0 50.2L684.0 53.9L674.5 53.9L673.9 59.4L674.0 59.4Q674.6 58.6 675.8 58.1Q676.9 57.6 678.3 57.6L678.3 57.6Q679.8 57.6 681.1 58.1Q682.3 58.6 683.2 59.6Q684.2 60.5 684.7 61.9Q685.2 63.2 685.2 64.7L685.2 64.7Q685.2 66.9 684.2 68.6Q683.1 70.3 681.3 71.3Q679.5 72.3 677.1 72.3ZM696.7 72.3L696.7 72.3Q693.9 72.3 692.0 71.0Q690.0 69.6 689.0 67.1Q687.9 64.6 687.9 61.1L687.9 61.1Q687.9 57.6 689.0 55.1Q690.0 52.5 692.0 51.2Q693.9 49.9 696.7 49.9L696.7 49.9Q699.4 49.9 701.4 51.2Q703.3 52.6 704.4 55.1Q705.4 57.6 705.4 61.1L705.4 61.1Q705.4 64.6 704.4 67.1Q703.3 69.6 701.4 71.0Q699.4 72.3 696.7 72.3ZM696.7 68.6L696.7 68.6Q698.0 68.6 698.9 67.7Q699.9 66.8 700.4 65.2Q700.9 63.5 700.9 61.1L700.9 61.1Q700.9 58.7 700.4 57.0Q699.9 55.3 698.9 54.5Q698.0 53.6 696.7 53.6L696.7 53.6Q695.3 53.6 694.4 54.5Q693.5 55.3 693.0 57.0Q692.5 58.7 692.5 61.1L692.5 61.1Q692.5 63.5 693.0 65.2Q693.5 66.8 694.4 67.7Q695.3 68.6 696.7 68.6ZM718.7 68.1L708.3 68.1L708.3 64.6L717.4 50.2L723.0 50.2L723.0 64.5L725.7 64.5L725.7 68.1L723.0 68.1L723.0 72L718.7 72L718.7 68.1ZM712.8 64.5L718.8 64.5L718.8 55.1L718.6 55.1L712.8 64.3L712.8 64.5ZM739 68.1L728.6 68.1L728.6 64.6L737.7 50.2L743.3 50.2L743.3 64.5L746.0 64.5L746.0 68.1L743.3 68.1L743.3 72L739 72L739 68.1ZM733.1 64.5L739.1 64.5L739.1 55.1L738.9 55.1L733.1 64.3L733.1 64.5Z "/></g><mask id="satori_om-id-3-1"><rect x="666" y="81" width="66" height="13" fill="#fff" mask="url(#satori_om-id)"/></mask><g mask="url(#satori_om-id)" clip-path="url(#satori_cp-id)"><path fill="rgba(200,195,225,0.45)" d="M670.2 92.1L670.2 92.1Q669.2 92.1 668.3 91.6Q667.5 91.1 667.0 90.2Q666.5 89.3 666.5 88.0L666.5 88.0Q666.5 86.7 667.0 85.8Q667.5 84.9 668.3 84.4Q669.2 83.9 670.2 83.9L670.2 83.9Q670.9 83.9 671.5 84.1Q672.1 84.3 672.5 84.6Q673.0 85.0 673.3 85.5Q673.6 86.1 673.7 86.7L673.7 86.7L672.0 86.7Q672.0 86.4 671.8 86.1Q671.6 85.9 671.4 85.7Q671.2 85.5 670.9 85.4Q670.6 85.3 670.3 85.3L670.3 85.3Q669.6 85.3 669.2 85.7Q668.7 86.0 668.4 86.6Q668.2 87.2 668.2 88.0L668.2 88.0Q668.2 88.9 668.4 89.5Q668.7 90.1 669.2 90.4Q669.6 90.7 670.2 90.7L670.2 90.7Q670.6 90.7 670.9 90.6Q671.2 90.5 671.4 90.3Q671.6 90.1 671.8 89.8Q672.0 89.6 672.0 89.3L672.0 89.3L673.7 89.3Q673.6 89.8 673.3 90.3Q673.1 90.8 672.6 91.2Q672.2 91.6 671.6 91.9Q671.0 92.1 670.2 92.1ZM679.9 92.1L679.9 92.1Q678.8 92.1 678.0 91.6Q677.1 91.1 676.6 90.2Q676.1 89.3 676.1 88.0L676.1 88.0Q676.1 86.7 676.6 85.8Q677.1 84.9 678.0 84.4Q678.8 83.9 679.9 83.9L679.9 83.9Q680.9 83.9 681.8 84.4Q682.6 84.9 683.1 85.8Q683.6 86.7 683.6 88.0L683.6 88.0Q683.6 89.3 683.1 90.2Q682.6 91.1 681.8 91.6Q680.9 92.1 679.9 92.1ZM679.9 90.7L679.9 90.7Q680.5 90.7 681.0 90.3Q681.4 90.0 681.7 89.5Q681.9 88.9 681.9 88.0L681.9 88.0Q681.9 87.1 681.7 86.5Q681.4 86.0 681.0 85.6Q680.5 85.3 679.9 85.3L679.9 85.3Q679.3 85.3 678.8 85.7Q678.3 86.0 678.1 86.6Q677.8 87.1 677.8 88.0L677.8 88.0Q677.8 88.9 678.1 89.4Q678.3 90.0 678.8 90.3Q679.3 90.7 679.9 90.7ZM688.0 92L686.3 92L686.3 84.0L688.9 84.0L690.2 87.7Q690.2 87.9 690.3 88.3Q690.4 88.7 690.5 89.2L690.5 89.2Q690.7 89.7 690.7 90.1L690.7 90.1Q690.8 89.7 690.9 89.2L690.9 89.2Q691.0 88.8 691.2 88.3Q691.3 87.9 691.3 87.7L691.3 87.7L692.6 84.0L695.1 84.0L695.1 92L693.5 92L693.5 88.2Q693.5 88.0 693.5 87.6Q693.5 87.2 693.5 86.7Q693.5 86.3 693.5 85.8L693.5 85.8Q693.6 85.6 693.6 85.4L693.6 85.4Q693.5 85.6 693.4 85.9L693.4 85.9Q693.3 86.3 693.2 86.8Q693.1 87.2 692.9 87.6Q692.8 88.0 692.8 88.2L692.8 88.2L691.4 92L690.0 92L688.7 88.2Q688.6 88.0 688.5 87.6Q688.4 87.2 688.3 86.8Q688.1 86.4 688.0 85.9L688.0 85.9Q688.0 85.7 687.9 85.5L687.9 85.5Q687.9 85.6 687.9 85.8L687.9 85.8Q687.9 86.2 687.9 86.7Q687.9 87.2 688.0 87.6Q688.0 88.0 688.0 88.2L688.0 88.2L688.0 92ZM699.7 92L698.1 92L698.1 84.0L700.6 84.0L701.9 87.7Q702.0 87.9 702.1 88.3Q702.2 88.7 702.3 89.2L702.3 89.2Q702.4 89.7 702.5 90.1L702.5 90.1Q702.6 89.7 702.7 89.2L702.7 89.2Q702.8 88.8 702.9 88.3Q703.0 87.9 703.1 87.7L703.1 87.7L704.4 84.0L706.9 84.0L706.9 92L705.2 92L705.2 88.2Q705.2 88.0 705.2 87.6Q705.3 87.2 705.3 86.7Q705.3 86.3 705.3 85.8L705.3 85.8Q705.3 85.6 705.3 85.4L705.3 85.4Q705.2 85.6 705.2 85.9L705.2 85.9Q705.1 86.3 704.9 86.8Q704.8 87.2 704.7 87.6Q704.6 88.0 704.5 88.2L704.5 88.2L703.2 92L701.8 92L700.4 88.2Q700.4 88.0 700.3 87.6Q700.1 87.2 700.0 86.8Q699.9 86.4 699.8 85.9L699.8 85.9Q699.7 85.7 699.7 85.5L699.7 85.5Q699.7 85.6 699.7 85.8L699.7 85.8Q699.7 86.2 699.7 86.7Q699.7 87.2 699.7 87.6Q699.7 88.0 699.7 88.2L699.7 88.2L699.7 92ZM709.8 84.0L711.5 84.0L711.5 92L709.8 92L709.8 84.0ZM716.5 85.4L714.1 85.4L714.1 84.0L720.6 84.0L720.6 85.4L718.2 85.4L718.2 92L716.5 92L716.5 85.4ZM726.2 92.1L726.2 92.1Q725.2 92.1 724.5 91.8Q723.8 91.5 723.4 90.9Q723.0 90.4 723.0 89.5L723.0 89.5L724.6 89.5Q724.6 89.9 724.8 90.2Q725.0 90.5 725.4 90.6Q725.7 90.7 726.2 90.7L726.2 90.7Q726.6 90.7 726.9 90.6Q727.3 90.5 727.5 90.2Q727.6 90.0 727.6 89.7L727.6 89.7Q727.6 89.4 727.5 89.3Q727.3 89.1 727.0 88.9Q726.7 88.8 726.3 88.7L726.3 88.7L725.4 88.5Q724.4 88.2 723.8 87.7Q723.2 87.2 723.2 86.3L723.2 86.3Q723.2 85.6 723.6 85.0Q724.0 84.5 724.7 84.2Q725.3 83.9 726.2 83.9L726.2 83.9Q727.1 83.9 727.8 84.2Q728.4 84.5 728.8 85.0Q729.2 85.6 729.2 86.3L729.2 86.3L727.6 86.3Q727.6 85.8 727.2 85.5Q726.8 85.3 726.2 85.3L726.2 85.3Q725.8 85.3 725.5 85.4Q725.2 85.5 725.0 85.7Q724.9 85.9 724.9 86.2L724.9 86.2Q724.9 86.5 725.1 86.7Q725.2 86.9 725.5 87.0Q725.8 87.1 726.2 87.2L726.2 87.2L726.9 87.4Q727.4 87.5 727.8 87.7Q728.3 87.9 728.6 88.2Q728.9 88.4 729.1 88.8Q729.3 89.2 729.3 89.7L729.3 89.7Q729.3 90.4 728.9 91.0Q728.6 91.5 727.9 91.8Q727.2 92.1 726.2 92.1Z "/></g></svg>