<!-- Generated by readme-aura https://github.com/collectioneur/readme-aura -->
<svg width="860" height="200" viewBox="0 0 860 200" xmlns="http://www.w3.org/2000/svg"><defs><clipPath id="satori_bc-id"><path x="0" y="0" width="860" height="200" d="M16,0 h828 a16,16 0 0 1 16,16 v168 a16,16 0 0 1 -16,16 h-828 a16,16 0 0 1 -16,-16 v-168 a16,16 0 0 1 16,-16"/></clipPath></defs><clipPath id="satori_cp-id"><path x="0" y="0" width="860" height="200" d="M16,0 h828 a16,16 0 0 1 16,16 v168 a16,16 0 0 1 -16,16 h-828 a16,16 0 0 1 -16,-16 v-168 a16,16 0 0 1 16,-16"/></clipPath><mask id="satori_om-id"><rect x="1" y="1" width="858" height="198" fill="#fff"/><path width="860" height="200" fill="none" stroke="#000" stroke-width="2" d="M4.686,4.686 A16,16 0 0 1 16,0 h828 a16,16 0 0 1 16,16 v168 a16,16 0 0 1 -16,16 h-828 a16,16 0 0 1 -16,-16 v-168 A16,16 0 0 1 4.686,4.686"/></mask><path x="0" y="0" width="860" height="200" fill="#08080c" d="M16,0 h828 a16,16 0 0 1 16,16 v168 a16,16 0 0 1 -16,16 h-828 a16,16 0 0 1 -16,-16 v-168 a16,16 0 0 1 16,-16"/><path width="860" height="200" clip-path="url(#satori_bc-id)" fill="none" stroke="rgba(255,191,0,0.18)" stroke-width="2" d="M4.686,4.686 A16,16 0 0 1 16,0 h828 a16,16 0 0 1 16,16 v168 a16,16 0 0 1 -16,16 h-828 a16,16 0 0 1 -16,-16 v-168 A16,16 0 0 1 4.686,4.686"/><clipPath id="satori_cp-id-0" clip-path="url(#satori_cp-id)"><rect x="1" y="1" width="860" height="198"/></clipPath><mask id="satori_om-id-0"><rect x="1" y="1" width="860" height="198" fill="#fff" mask="url(#satori_om-id)"/></mask><svg x="1" y="1" width="860" height="198" preserveAspectRatio="none" clip-path="url(#satori_cp-id-0)" mask="url(#satori_om-id-0)"><defs><radialGradient id="fpg1" cx="50%" cy="50%" r="50%"><stop offset="0%" stop-color="rgba(255,140,0,0.5)"></stop><stop offset="45%" stop-color="rgba(255,140,0,0.2)"></stop><stop offset="70%" stop-color="rgba(255,140,0,0)"></stop></radialGradient><radialGradient id="fpg2" cx="50%" cy="50%" r="50%"><stop offset="0%" stop-color="rgba(255,180,0,0.45)"></stop><stop offset="45%" stop-color="rgba(255,180,0,0.18)"></stop><stop offset="70%" stop-color="rgba(255,180,0,0)"></stop></radialGradient><radialGradient id="fpg3" cx="50%" cy="50%" r="50%"><stop offset="0%" stop-color="rgba(255,100,0,0.35)"></stop><stop offset="70%" stop-color="rgba(255,100,0,0)"></stop></radialGradient><radialGradient id="fpg4" cx="50%" cy="50%" r="50%"><stop offset="0%" stop-color="rgba(255,160,0,0.25)"></stop><stop offset="70%" stop-color="rgba(255,160,0,0)"></stop></radialGradient><radialGradient id="fpg5" cx="50%" cy="50%" r="50%"><stop offset="0%" stop-color="rgba(255,200,0,0.4)"></stop><stop offset="45%" stop-color="rgba(255,200,0,0.15)"></stop><stop offset="70%" stop-color="rgba(255,120,0,0)"></stop></radialGradient></defs><ellipse id="fp-glow-1" cx="15%" cy="50%" rx="35%" ry="85%" fill="url(#fpg1)"></ellipse><ellipse id="fp-glow-2" cx="35%" cy="55%" rx="30%" ry="75%" fill="url(#fpg2)"></ellipse><ellipse id="fp-glow-3" cx="60%" cy="45%" rx="25%" ry="70%" fill="url(#fpg3)"></ellipse><ellipse id="fp-glow-4" cx="80%" cy="55%" rx="25%" ry="75%" fill="url(#fpg4)"></ellipse><ellipse id="fp-glow-5" cx="95%" cy="50%" rx="20%" ry="65%" fill="url(#fpg5)"></ellipse><style>

         @keyframes fp-slow {
           0%, 100% { transform: translateX(0px); opacity: 0.75; }
           50% { transform: translateX(260px); opacity: 1.1; }
         }
         @keyframes fp-medium {
           0%, 100% { transform: translateX(0px); opacity: 0.65; }
           50% { transform: translateX(-200px); opacity: 1.0; }
         }
         @keyframes fp-fast {
           0%, 100% { transform: translateX(0px); opacity: 0.85; }
           50% { transform: translateX(160px); opacity: 0.55; }
         }
         @keyframes fp-wave {
           0%, 100% { transform: translateX(0px); opacity: 0.6; }
           33% { transform: translateX(-130px); opacity: 0.9; }
           66% { transform: translateX(90px); opacity: 1.0; }
         }
         @keyframes fp-pulse {
           0%, 100% { transform: scale(1); opacity: 0.7; }
           50% { transform: scale(1.25); opacity: 0.35; }
         }
         #fp-glow-1 { animation: fp-slow   9s  ease-in-out infinite; }
         #fp-glow-2 { animation: fp-medium 13s ease-in-out infinite; }
         #fp-glow-3 { animation: fp-fast   8s  ease-in-out infinite; }
         #fp-glow-4 { animation: fp-wave   11s ease-in-out infinite; }
         #fp-glow-5 { animation: fp-pulse  7s  ease-in-out infinite; }
       
</style>
</svg><mask id="satori_om-id-0-0"><rect x="1" y="1" width="0" height="198" fill="#fff" mask="url(#satori_om-id)"/></mask><mask id="satori_om-id-0-0-0"><rect x="1" y="1" width="0" height="198" fill="#fff" mask="url(#satori_om-id)"/></mask><mask id="satori_om-id-0-0-0-0"><rect x="1" y="1" width="0" height="198" fill="#fff" mask="url(#satori_om-id)"/></mask><mask id="satori_om-id-0-0-0-1"><rect x="1" y="1" width="0" height="198" fill="#fff" mask="url(#satori_om-id)"/></mask><mask id="satori_om-id-0-0-0-2"><rect x="1" y="1" width="0" height="198" fill="#fff" mask="url(#satori_om-id)"/></mask><mask id="satori_om-id-0-0-1"><rect x="1" y="1" width="0" height="198" fill="#fff" mask="url(#satori_om-id)"/></mask><mask id="satori_om-id-0-0-1-0"><rect x="1" y="1" width="0" height="198" fill="#fff" mask="url(#satori_om-id)"/></mask><mask id="satori_om-id-0-0-1-1"><rect x="1" y="1" width="0" height="198" fill="#fff" mask="url(#satori_om-id)"/></mask><mask id="satori_om-id-0-0-1-2"><rect x="1" y="1" width="0" height="198" fill="#fff" mask="url(#satori_om-id)"/></mask><mask id="satori_om-id-0-0-2"><rect x="1" y="1" width="0" height="198" fill="#fff" mask="url(#satori_om-id)"/></mask><mask id="satori_om-id-0-0-2-0"><rect x="1" y="1" width="0" height="198" fill="#fff" mask="url(#satori_om-id)"/></mask><mask id="satori_om-id-0-0-2-1"><rect x="1" y="1" width="0" height="198" fill="#fff" mask="url(#satori_om-id)"/></mask><mask id="satori_om-id-0-0-3"><rect x="1" y="1" width="0" height="198" fill="#fff" mask="url(#satori_om-id)"/></mask><mask id="satori_om-id-0-0-3-0"><rect x="1" y="1" width="0" height="198" fill="#fff" mask="url(#satori_om-id)"/></mask><mask id="satori_om-id-0-0-3-1"><rect x="1" y="1" width="0" height="198" fill="#fff" mask="url(#satori_om-id)"/></mask><mask id="satori_om-id-0-0-4"><rect x="1" y="1" width="0" height="198" fill="#fff" mask="url(#satori_om-id)"/></mask><mask id="satori_om-id-0-0-4-0"><rect x="1" y="1" width="0" height="198" fill="#fff" mask="url(#satori_om-id)"/></mask><mask id="satori_om-id-0-0-4-1"><rect x="1" y="1" width="0" height="198" fill="#fff" mask="url(#satori_om-id)"/></mask><mask id="satori_om-id-0-0-4-2"><rect x="1" y="1" width="0" height="198" fill="#fff" mask="url(#satori_om-id)"/></mask><mask id="satori_om-id-0-1"><rect x="1" y="1" width="0" height="198" fill="#fff" mask="url(#satori_om-id)"/></mask><mask id="satori_om-id-0-2"><rect x="1" y="1" width="0" height="198" fill="#fff" mask="url(#satori_om-id)"/></mask><mask id="satori_om-id-0-3"><rect x="1" y="1" width="0" height="198" fill="#fff" mask="url(#satori_om-id)"/></mask><mask id="satori_om-id-0-4"><rect x="1" y="1" width="0" height="198" fill="#fff" mask="url(#satori_om-id)"/></mask><mask id="satori_om-id-0-5"><rect x="1" y="1" width="0" height="198" fill="#fff" mask="url(#satori_om-id)"/></mask><mask id="satori_om-id-1"><rect x="33" y="19" width="794" height="12" fill="#fff" mask="url(#satori_om-id)"/></mask><g mask="url(#satori_om-id)" clip-path="url(#satori_cp-id)"><path fill="rgba(255,200,100,0.5)" d="M35.1 29L33.7 29L33.7 21.7L38.4 21.7L38.4 23.0L35.1 23.0L35.1 25.0L38.1 25.0L38.1 26.2L35.1 26.2L35.1 29ZM47.4 29L42.5 29L42.5 21.7L47.4 21.7L47.4 23.0L44.0 23.0L44.0 24.7L47.1 24.7L47.1 25.9L44.0 25.9L44.0 27.8L47.4 27.8L47.4 29ZM52.8 29L51.2 29L53.7 21.7L55.6 21.7L58.2 29L56.5 29L56.0 27.3L53.4 27.3L52.8 29ZM53.7 26.1L55.6 26.1L55.3 25.5Q55.1 24.8 54.9 24L54.9 24Q54.8 23.5 54.6 22.9L54.6 22.9Q54.5 23.5 54.4 24.0L54.4 24.0Q54.2 24.8 54.0 25.5L54.0 25.5L53.7 26.1ZM64.0 23.0L61.8 23.0L61.8 21.7L67.7 21.7L67.7 23.0L65.5 23.0L65.5 29L64.0 29L64.0 23.0ZM74.7 29.1L74.7 29.1Q73.8 29.1 73.2 28.8Q72.5 28.4 72.1 27.8Q71.7 27.2 71.7 26.4L71.7 26.4L71.7 21.7L73.2 21.7L73.2 26.3Q73.2 26.7 73.4 27.1Q73.6 27.4 73.9 27.6Q74.3 27.8 74.7 27.8L74.7 27.8Q75.2 27.8 75.5 27.6Q75.9 27.4 76.1 27.1Q76.3 26.7 76.3 26.3L76.3 26.3L76.3 21.7L77.7 21.7L77.7 26.4Q77.7 27.2 77.4 27.8Q77.0 28.4 76.3 28.8Q75.6 29.1 74.7 29.1ZM83.6 29L82.1 29L82.1 21.7L84.9 21.7Q85.7 21.7 86.3 22.0Q86.9 22.3 87.2 22.8Q87.5 23.4 87.5 24.1Q87.5 24.8 87.2 25.3Q86.9 25.9 86.3 26.1L86.3 26.1Q86.3 26.1 86.2 26.2L86.2 26.2L87.8 29L86.1 29L84.7 26.4L83.6 26.4L83.6 29ZM83.6 23.0L83.6 25.2L84.6 25.2Q85.1 25.2 85.4 25.1Q85.7 24.9 85.8 24.7Q86.0 24.5 86.0 24.1L86.0 24.1Q86.0 23.7 85.8 23.5Q85.7 23.2 85.4 23.1Q85.1 23.0 84.6 23.0L84.6 23.0L83.6 23.0ZM96.5 29L91.6 29L91.6 21.7L96.5 21.7L96.5 23.0L93.1 23.0L93.1 24.7L96.2 24.7L96.2 25.9L93.1 25.9L93.1 27.8L96.5 27.8L96.5 29ZM103.3 29L103.3 29L100.7 29L100.7 21.7L103.3 21.7Q104.4 21.7 105.2 22.2Q106.0 22.6 106.4 23.4Q106.8 24.2 106.8 25.4L106.8 25.4Q106.8 26.5 106.4 27.3Q106.0 28.1 105.2 28.6Q104.4 29 103.3 29ZM102.2 23.0L102.2 27.7L103.2 27.7Q103.9 27.7 104.4 27.5Q104.8 27.2 105.1 26.7Q105.3 26.2 105.3 25.4L105.3 25.4Q105.3 24.5 105.1 24.0Q104.8 23.5 104.4 23.3Q103.9 23.0 103.2 23.0L103.2 23.0L102.2 23.0Z M117.8 29L116.3 29L116.3 21.7L119.1 21.7Q120.0 21.7 120.5 22.0Q121.1 22.4 121.4 22.9Q121.7 23.5 121.7 24.2L121.7 24.2Q121.7 24.9 121.4 25.5Q121.1 26.0 120.5 26.3Q119.9 26.6 119.1 26.6L119.1 26.6L117.8 26.6L117.8 29ZM117.8 23.0L117.8 25.4L118.9 25.4Q119.3 25.4 119.6 25.3Q119.9 25.1 120.1 24.8Q120.2 24.5 120.2 24.2Q120.2 23.8 120.1 23.5Q119.9 23.3 119.6 23.1Q119.3 23.0 118.9 23.0L118.9 23.0L117.8 23.0ZM127.3 29L125.8 29L125.8 21.7L128.6 21.7Q129.4 21.7 130.0 22.0Q130.6 22.3 130.9 22.8Q131.2 23.4 131.2 24.1Q131.2 24.8 130.9 25.3Q130.6 25.9 130.0 26.1L130.0 26.1Q130.0 26.1 129.9 26.2L129.9 26.2L131.5 29L129.8 29L128.4 26.4L127.3 26.4L127.3 29ZM127.3 23.0L127.3 25.2L128.3 25.2Q128.8 25.2 129.1 25.1Q129.4 24.9 129.5 24.7Q129.7 24.5 129.7 24.1L129.7 24.1Q129.7 23.7 129.5 23.5Q129.4 23.2 129.1 23.1Q128.8 23.0 128.3 23.0L128.3 23.0L127.3 23.0ZM138.5 29.1L138.5 29.1Q137.6 29.1 136.8 28.7Q136.0 28.2 135.6 27.4Q135.1 26.5 135.1 25.4L135.1 25.4Q135.1 24.2 135.6 23.3Q136.0 22.5 136.8 22.1Q137.6 21.6 138.5 21.6L138.5 21.6Q139.5 21.6 140.3 22.1Q141.0 22.5 141.5 23.3Q141.9 24.2 141.9 25.4L141.9 25.4Q141.9 26.5 141.5 27.4Q141.0 28.2 140.3 28.7Q139.5 29.1 138.5 29.1ZM138.5 27.8L138.5 27.8Q139.1 27.8 139.5 27.5Q139.9 27.2 140.2 26.7Q140.4 26.1 140.4 25.4L140.4 25.4Q140.4 24.6 140.2 24.0Q139.9 23.5 139.5 23.2Q139.1 23.0 138.5 23.0L138.5 23.0Q138.0 23.0 137.5 23.2Q137.1 23.5 136.9 24.0Q136.7 24.6 136.7 25.4L136.7 25.4Q136.7 26.1 136.9 26.7Q137.1 27.2 137.5 27.5Q138.0 27.8 138.5 27.8ZM148.2 29.1L148.2 29.1Q147.0 29.1 146.4 28.5Q145.7 27.9 145.7 26.8L145.7 26.8L145.7 26.4L147.2 26.4L147.2 26.8Q147.2 27.4 147.5 27.6Q147.7 27.9 148.2 27.9L148.2 27.9Q148.6 27.9 148.8 27.6Q149.1 27.4 149.1 26.8L149.1 26.8L149.1 21.7L150.6 21.7L150.6 26.8Q150.6 27.9 149.9 28.5Q149.3 29.1 148.2 29.1ZM159.8 29L154.9 29L154.9 21.7L159.8 21.7L159.8 23.0L156.4 23.0L156.4 24.7L159.5 24.7L159.5 25.9L156.4 25.9L156.4 27.8L159.8 27.8L159.8 29ZM167.1 29.1L167.1 29.1Q166.2 29.1 165.4 28.7Q164.6 28.2 164.2 27.4Q163.8 26.5 163.8 25.4L163.8 25.4Q163.8 24.2 164.2 23.3Q164.7 22.5 165.4 22.1Q166.2 21.6 167.1 21.6L167.1 21.6Q167.8 21.6 168.3 21.8Q168.8 22.0 169.2 22.3Q169.7 22.6 169.9 23.1Q170.2 23.6 170.3 24.2L170.3 24.2L168.8 24.2Q168.7 23.9 168.6 23.7Q168.4 23.4 168.2 23.3Q168.0 23.1 167.8 23.0Q167.5 23.0 167.2 23.0L167.2 23.0Q166.6 23.0 166.2 23.2Q165.8 23.5 165.5 24.1Q165.3 24.6 165.3 25.4L165.3 25.4Q165.3 26.2 165.5 26.7Q165.8 27.2 166.2 27.5Q166.6 27.8 167.2 27.8L167.2 27.8Q167.5 27.8 167.7 27.7Q168.0 27.6 168.2 27.4Q168.4 27.3 168.6 27.0Q168.7 26.8 168.8 26.5L168.8 26.5L170.3 26.5Q170.2 27.0 170.0 27.5Q169.7 27.9 169.3 28.3Q168.9 28.7 168.4 28.9Q167.8 29.1 167.1 29.1ZM176.3 23.0L174.1 23.0L174.1 21.7L180.0 21.7L180.0 23.0L177.8 23.0L177.8 29L176.3 29L176.3 23.0ZM186.7 29.1L186.7 29.1Q185.8 29.1 185.2 28.8Q184.5 28.6 184.2 28.0Q183.8 27.5 183.8 26.7L183.8 26.7L185.2 26.7Q185.3 27.1 185.5 27.4Q185.7 27.6 186.0 27.7Q186.3 27.8 186.7 27.8L186.7 27.8Q187.1 27.8 187.4 27.7Q187.7 27.6 187.8 27.4Q188.0 27.2 188.0 26.9L188.0 26.9Q188.0 26.7 187.9 26.5Q187.7 26.3 187.4 26.2Q187.2 26.1 186.8 26.0L186.8 26.0L186.0 25.8Q185.0 25.6 184.5 25.1Q184.0 24.6 184.0 23.8L184.0 23.8Q184.0 23.2 184.3 22.7Q184.7 22.2 185.3 21.9Q185.9 21.6 186.7 21.6L186.7 21.6Q187.5 21.6 188.1 21.9Q188.7 22.2 189.1 22.7Q189.4 23.2 189.4 23.8L189.4 23.8L188.0 23.8Q187.9 23.4 187.6 23.1Q187.3 22.9 186.7 22.9L186.7 22.9Q186.3 22.9 186.1 23.0Q185.8 23.1 185.7 23.3Q185.5 23.5 185.5 23.7L185.5 23.7Q185.5 24.0 185.7 24.2Q185.8 24.3 186.1 24.5Q186.4 24.6 186.7 24.6L186.7 24.6L187.3 24.8Q187.8 24.9 188.2 25.1Q188.6 25.3 188.9 25.5Q189.2 25.8 189.3 26.1Q189.5 26.5 189.5 26.9L189.5 26.9Q189.5 27.6 189.2 28.1Q188.8 28.6 188.2 28.8Q187.6 29.1 186.7 29.1Z "/></g><mask id="satori_om-id-2"><rect x="33" y="41" width="794" height="67" fill="#fff" mask="url(#satori_om-id)"/></mask><defs><clipPath id="satori_bc-id-2-0" clip-path="url(#satori_cp-id)"><path x="33" y="41" width="389" height="67" d="M43,41 h369 a10,10 0 0 1 10,10 v47 a10,10 0 0 1 -10,10 h-369 a10,10 0 0 1 -10,-10 v-47 a10,10 0 0 1 10,-10"/></clipPath></defs><mask id="satori_om-id-2-0"><rect x="34" y="42" width="387" height="65" fill="#fff" mask="url(#satori_om-id)"/><path width="389" height="67" fill="none" stroke="#000" stroke-width="2" d="M35.929,43.929 A10,10 0 0 1 43,41 h369 a10,10 0 0 1 10,10 v47 a10,10 0 0 1 -10,10 h-369 a10,10 0 0 1 -10,-10 v-47 A10,10 0 0 1 35.929,43.929"/></mask><path x="33" y="41" width="389" height="67" fill="rgba(255,255,255,0.03)" d="M43,41 h369 a10,10 0 0 1 10,10 v47 a10,10 0 0 1 -10,10 h-369 a10,10 0 0 1 -10,-10 v-47 a10,10 0 0 1 10,-10" clip-path="url(#satori_cp-id)" mask="url(#satori_om-id)"/><path width="389" height="67" clip-path="url(#satori_bc-id-2-0)" fill="none" stroke="rgba(255,191,0,0.15)" stroke-width="2" d="M35.929,43.929 A10,10 0 0 1 43,41 h369 a10,10 0 0 1 10,10 v47 a10,10 0 0 1 -10,10 h-369 a10,10 0 0 1 -10,-10 v-47 A10,10 0 0 1 35.929,43.929"/><mask id="satori_om-id-2-0-0"><rect x="50" y="54" width="355" height="18" fill="#fff" mask="url(#satori_om-id)"/></mask><mask id="satori_om-id-2-0-0-0"><rect x="50" y="55" width="124" height="16" fill="#fff" mask="url(#satori_om-id)"/></mask><g mask="url(#satori_om-id)" clip-path="url(#satori_cp-id)"><path fill="#ffedd5" d="M54.0 68.1L54.0 68.1Q52.9 68.1 52.1 67.7Q51.4 67.2 50.9 66.4Q50.5 65.6 50.5 64.5L50.5 64.5Q50.5 63.4 50.9 62.6Q51.4 61.7 52.1 61.3Q52.9 60.8 54.0 60.8L54.0 60.8Q54.6 60.8 55.1 61.0Q55.7 61.1 56.1 61.4Q56.5 61.8 56.8 62.2Q57.0 62.6 57.1 63.2L57.1 63.2L55.4 63.5Q55.3 63.2 55.2 63.0Q55.1 62.8 54.9 62.6Q54.7 62.5 54.5 62.4Q54.3 62.3 54.0 62.3L54.0 62.3Q53.5 62.3 53.2 62.6Q52.8 62.9 52.6 63.3Q52.5 63.8 52.5 64.5L52.5 64.5Q52.5 65.1 52.6 65.6Q52.8 66.1 53.2 66.4Q53.5 66.6 54.0 66.6L54.0 66.6Q54.3 66.6 54.5 66.6Q54.7 66.5 54.9 66.3Q55.1 66.1 55.2 65.9Q55.3 65.7 55.4 65.4L55.4 65.4L57.2 65.7Q57.1 66.3 56.8 66.7Q56.5 67.2 56.1 67.5Q55.7 67.8 55.2 68.0Q54.6 68.1 54.0 68.1ZM60.4 68.1L60.4 68.1Q59.8 68.1 59.2 67.9Q58.7 67.7 58.4 67.2Q58.1 66.7 58.1 66.0L58.1 66.0Q58.1 65.4 58.3 65.0Q58.5 64.6 58.9 64.4Q59.3 64.1 59.8 64.0Q60.2 63.9 60.8 63.8L60.8 63.8Q61.4 63.8 61.8 63.7Q62.1 63.7 62.3 63.5Q62.5 63.4 62.5 63.2L62.5 63.2L62.5 63.2Q62.5 62.9 62.4 62.7Q62.2 62.4 62.0 62.3Q61.7 62.2 61.4 62.2L61.4 62.2Q61.0 62.2 60.7 62.3Q60.5 62.4 60.3 62.6Q60.1 62.8 60.0 63.0L60.0 63.0L58.3 62.8Q58.5 62.1 58.9 61.7Q59.3 61.3 59.9 61.0Q60.6 60.8 61.4 60.8L61.4 60.8Q61.9 60.8 62.5 61.0Q63.0 61.1 63.5 61.4Q63.9 61.7 64.1 62.1Q64.4 62.6 64.4 63.2L64.4 63.2L64.4 68L62.6 68L62.6 67.0L62.5 67.0Q62.3 67.3 62.1 67.6Q61.8 67.8 61.4 68.0Q61.0 68.1 60.4 68.1ZM61.0 66.8L61.0 66.8Q61.4 66.8 61.8 66.6Q62.1 66.4 62.3 66.1Q62.5 65.8 62.5 65.5L62.5 65.5L62.5 64.7Q62.4 64.8 62.2 64.8Q62.1 64.9 61.9 64.9Q61.6 64.9 61.4 65.0Q61.2 65.0 61.1 65.0L61.1 65.0Q60.7 65.1 60.5 65.2Q60.2 65.3 60.1 65.5Q59.9 65.7 59.9 66.0L59.9 66.0Q59.9 66.2 60.0 66.4Q60.2 66.6 60.4 66.7Q60.7 66.8 61.0 66.8ZM67.9 68L66.0 68L66.0 60.9L67.8 60.9L67.8 62.1L67.9 62.1Q68.1 61.5 68.6 61.1Q69.0 60.8 69.6 60.8L69.6 60.8Q69.8 60.8 70.0 60.8Q70.1 60.8 70.3 60.9L70.3 60.9L70.3 62.6Q70.1 62.5 69.9 62.5Q69.6 62.5 69.4 62.5L69.4 62.5Q69.0 62.5 68.6 62.7Q68.3 62.9 68.1 63.2Q67.9 63.5 67.9 64.0L67.9 64.0L67.9 68ZM75.3 68.1L75.3 68.1Q74.7 68.1 74.3 67.9Q73.9 67.7 73.6 67.4Q73.4 67.1 73.3 66.9L73.3 66.9L73.2 66.9L73.2 68L71.3 68L71.3 58.5L73.2 58.5L73.2 62.1L73.3 62.1Q73.4 61.8 73.6 61.5Q73.9 61.2 74.3 61.0Q74.7 60.8 75.3 60.8L75.3 60.8Q76.1 60.8 76.7 61.2Q77.4 61.6 77.8 62.4Q78.2 63.3 78.2 64.5L78.2 64.5Q78.2 65.6 77.8 66.5Q77.4 67.3 76.7 67.7Q76.1 68.1 75.3 68.1ZM74.7 66.6L74.7 66.6Q75.2 66.6 75.5 66.3Q75.9 66.0 76.0 65.6Q76.2 65.1 76.2 64.5L76.2 64.5Q76.2 63.8 76.0 63.4Q75.9 62.9 75.5 62.6Q75.2 62.3 74.7 62.3L74.7 62.3Q74.2 62.3 73.9 62.6Q73.5 62.9 73.3 63.3Q73.2 63.8 73.2 64.5L73.2 64.5Q73.2 65.1 73.3 65.6Q73.5 66.1 73.9 66.3Q74.2 66.6 74.7 66.6ZM82.7 68.1L82.7 68.1Q81.6 68.1 80.8 67.7Q80.0 67.2 79.6 66.4Q79.2 65.6 79.2 64.5L79.2 64.5Q79.2 63.4 79.6 62.6Q80.0 61.7 80.8 61.3Q81.6 60.8 82.7 60.8L82.7 60.8Q83.7 60.8 84.5 61.3Q85.3 61.7 85.7 62.6Q86.1 63.4 86.1 64.5L86.1 64.5Q86.1 65.6 85.7 66.4Q85.3 67.2 84.5 67.7Q83.7 68.1 82.7 68.1ZM82.7 66.6L82.7 66.6Q83.2 66.6 83.5 66.4Q83.9 66.1 84.0 65.6Q84.2 65.1 84.2 64.5L84.2 64.5Q84.2 63.8 84.0 63.4Q83.9 62.9 83.5 62.6Q83.2 62.3 82.7 62.3L82.7 62.3Q82.2 62.3 81.8 62.6Q81.5 62.9 81.3 63.4Q81.1 63.8 81.1 64.5L81.1 64.5Q81.1 65.1 81.3 65.6Q81.5 66.1 81.8 66.4Q82.2 66.6 82.7 66.6ZM89.4 63.9L89.4 63.9L89.4 68L87.5 68L87.5 60.9L89.3 60.9L89.3 62.4Q89.6 61.7 90.0 61.3L90.0 61.3Q90.6 60.8 91.5 60.8L91.5 60.8Q92.2 60.8 92.8 61.1Q93.3 61.5 93.6 62.1Q93.9 62.7 93.9 63.5L93.9 63.5L93.9 68L92.0 68L92.0 63.8Q92.0 63.2 91.7 62.8Q91.4 62.4 90.8 62.4L90.8 62.4Q90.4 62.4 90.0 62.6Q89.7 62.8 89.5 63.1Q89.4 63.4 89.4 63.9ZM95.6 63.3L99.9 63.3L99.9 64.9L95.6 64.9L95.6 63.3ZM104.1 60.9L105.6 60.9L105.6 62.4L104.1 62.4L104.1 68L102.2 68L102.2 62.4L101.0 62.4L101.0 60.9L102.2 60.9L102.2 60.4Q102.2 59.6 102.5 59.1Q102.8 58.6 103.3 58.3Q103.9 58.1 104.5 58.1L104.5 58.1Q105.0 58.1 105.3 58.2Q105.7 58.2 105.9 58.3L105.9 58.3L105.5 59.7Q105.4 59.7 105.3 59.7Q105.1 59.6 104.9 59.6L104.9 59.6Q104.5 59.6 104.3 59.8Q104.1 60.0 104.1 60.4L104.1 60.4L104.1 60.9ZM110.0 68.1L110.0 68.1Q108.9 68.1 108.1 67.7Q107.4 67.2 106.9 66.4Q106.5 65.6 106.5 64.5L106.5 64.5Q106.5 63.4 106.9 62.6Q107.4 61.7 108.1 61.3Q108.9 60.8 110.0 60.8L110.0 60.8Q111.1 60.8 111.8 61.3Q112.6 61.7 113.0 62.6Q113.5 63.4 113.5 64.5L113.5 64.5Q113.5 65.6 113.0 66.4Q112.6 67.2 111.8 67.7Q111.1 68.1 110.0 68.1ZM110.0 66.6L110.0 66.6Q110.5 66.6 110.8 66.4Q111.2 66.1 111.4 65.6Q111.5 65.1 111.5 64.5L111.5 64.5Q111.5 63.8 111.4 63.4Q111.2 62.9 110.8 62.6Q110.5 62.3 110.0 62.3L110.0 62.3Q109.5 62.3 109.1 62.6Q108.8 62.9 108.6 63.4Q108.5 63.8 108.5 64.5L108.5 64.5Q108.5 65.1 108.6 65.6Q108.8 66.1 109.1 66.4Q109.5 66.6 110.0 66.6ZM118.0 68.1L118.0 68.1Q116.9 68.1 116.1 67.7Q115.3 67.2 114.9 66.4Q114.5 65.6 114.5 64.5L114.5 64.5Q114.5 63.4 114.9 62.6Q115.3 61.7 116.1 61.3Q116.9 60.8 118.0 60.8L118.0 60.8Q119.0 60.8 119.8 61.3Q120.6 61.7 121.0 62.6Q121.4 63.4 121.4 64.5L121.4 64.5Q121.4 65.6 121.0 66.4Q120.6 67.2 119.8 67.7Q119.0 68.1 118.0 68.1ZM118.0 66.6L118.0 66.6Q118.5 66.6 118.8 66.4Q119.2 66.1 119.3 65.6Q119.5 65.1 119.5 64.5L119.5 64.5Q119.5 63.8 119.3 63.4Q119.2 62.9 118.8 62.6Q118.5 62.3 118.0 62.3L118.0 62.3Q117.5 62.3 117.1 62.6Q116.8 62.9 116.6 63.4Q116.4 63.8 116.4 64.5L116.4 64.5Q116.4 65.1 116.6 65.6Q116.8 66.1 117.1 66.4Q117.5 66.6 118.0 66.6ZM125.0 60.9L126.3 60.9L126.3 62.4L125.0 62.4L125.0 65.9Q125.0 66.3 125.1 66.4Q125.3 66.6 125.6 66.6L125.6 66.6Q125.7 66.6 125.9 66.6Q126.1 66.5 126.2 66.5L126.2 66.5L126.5 67.9Q126.2 68.0 125.9 68.1Q125.5 68.1 125.3 68.1L125.3 68.1Q124.2 68.1 123.6 67.6Q123.1 67.1 123.1 66.1L123.1 66.1L123.1 62.4L122.1 62.4L122.1 60.9L123.1 60.9L123.1 59.2L125.0 59.2L125.0 60.9ZM129.4 70.7L127.5 70.7L127.5 60.9L129.4 60.9L129.4 62.1L129.5 62.1Q129.6 61.8 129.9 61.5Q130.1 61.2 130.5 61.0Q130.9 60.8 131.5 60.8L131.5 60.8Q132.3 60.8 133.0 61.2Q133.6 61.6 134.0 62.4Q134.4 63.3 134.4 64.5L134.4 64.5Q134.4 65.6 134.0 66.5Q133.6 67.3 133.0 67.7Q132.3 68.1 131.5 68.1L131.5 68.1Q130.9 68.1 130.5 67.9Q130.1 67.7 129.9 67.4Q129.6 67.1 129.5 66.9L129.5 66.9L129.4 66.9L129.4 70.7ZM130.9 66.6L130.9 66.6Q131.4 66.6 131.7 66.3Q132.1 66.0 132.3 65.6Q132.4 65.1 132.4 64.5L132.4 64.5Q132.4 63.8 132.3 63.4Q132.1 62.9 131.8 62.6Q131.4 62.3 130.9 62.3L130.9 62.3Q130.4 62.3 130.1 62.6Q129.7 62.9 129.6 63.3Q129.4 63.8 129.4 64.5L129.4 64.5Q129.4 65.1 129.6 65.6Q129.7 66.1 130.1 66.3Q130.4 66.6 130.9 66.6ZM137.6 68L135.7 68L135.7 60.9L137.6 60.9L137.6 62.1L137.6 62.1Q137.8 61.5 138.3 61.1Q138.8 60.8 139.3 60.8L139.3 60.8Q139.5 60.8 139.7 60.8Q139.8 60.8 140.0 60.9L140.0 60.9L140.0 62.6Q139.8 62.5 139.6 62.5Q139.4 62.5 139.1 62.5L139.1 62.5Q138.7 62.5 138.4 62.7Q138.0 62.9 137.8 63.2Q137.6 63.5 137.6 64.0L137.6 64.0L137.6 68ZM142.9 68L141.0 68L141.0 60.9L142.9 60.9L142.9 68ZM142.0 60.0L142.0 60.0Q141.5 60.0 141.2 59.7Q140.9 59.4 140.9 59.0L140.9 59.0Q140.9 58.6 141.2 58.3Q141.5 58.0 142.0 58.0L142.0 58.0Q142.4 58.0 142.7 58.3Q143.0 58.6 143.0 59.0L143.0 59.0Q143.0 59.4 142.7 59.7Q142.4 60.0 142.0 60.0ZM146.4 63.9L146.4 63.9L146.4 68L144.5 68L144.5 60.9L146.3 60.9L146.4 62.4Q146.6 61.7 147.1 61.3L147.1 61.3Q147.7 60.8 148.6 60.8L148.6 60.8Q149.3 60.8 149.9 61.1Q150.4 61.5 150.7 62.1Q151.0 62.7 151.0 63.5L151.0 63.5L151.0 68L149.1 68L149.1 63.8Q149.1 63.2 148.8 62.8Q148.4 62.4 147.8 62.4L147.8 62.4Q147.4 62.4 147.1 62.6Q146.8 62.8 146.6 63.1Q146.4 63.4 146.4 63.9ZM154.8 60.9L156.2 60.9L156.2 62.4L154.8 62.4L154.8 65.9Q154.8 66.3 155.0 66.4Q155.1 66.6 155.5 66.6L155.5 66.6Q155.6 66.6 155.8 66.6Q156.0 66.5 156.1 66.5L156.1 66.5L156.3 67.9Q156.0 68.0 155.7 68.1Q155.4 68.1 155.1 68.1L155.1 68.1Q154.1 68.1 153.5 67.6Q152.9 67.1 152.9 66.1L152.9 66.1L152.9 62.4L151.9 62.4L151.9 60.9L152.9 60.9L152.9 59.2L154.8 59.2L154.8 60.9ZM157.5 63.3L161.8 63.3L161.8 64.9L157.5 64.9L157.5 63.3ZM165.5 68.1L165.5 68.1Q164.8 68.1 164.2 67.9Q163.7 67.7 163.4 67.2Q163.1 66.7 163.1 66.0L163.1 66.0Q163.1 65.4 163.3 65.0Q163.5 64.6 163.9 64.4Q164.3 64.1 164.8 64.0Q165.2 63.9 165.8 63.8L165.8 63.8Q166.4 63.8 166.8 63.7Q167.1 63.7 167.3 63.5Q167.5 63.4 167.5 63.2L167.5 63.2L167.5 63.2Q167.5 62.9 167.4 62.7Q167.2 62.4 167.0 62.3Q166.7 62.2 166.4 62.2L166.4 62.2Q166.0 62.2 165.7 62.3Q165.5 62.4 165.3 62.6Q165.1 62.8 165.0 63.0L165.0 63.0L163.3 62.8Q163.5 62.1 163.9 61.7Q164.3 61.3 165.0 61.0Q165.6 60.8 166.4 60.8L166.4 60.8Q167.0 60.8 167.5 61.0Q168.0 61.1 168.5 61.4Q168.9 61.7 169.1 62.1Q169.4 62.6 169.4 63.2L169.4 63.2L169.4 68L167.6 68L167.6 67.0L167.5 67.0Q167.4 67.3 167.1 67.6Q166.8 67.8 166.4 68.0Q166.0 68.1 165.5 68.1ZM166.0 66.8L166.0 66.8Q166.4 66.8 166.8 66.6Q167.1 66.4 167.3 66.1Q167.5 65.8 167.5 65.5L167.5 65.5L167.5 64.7Q167.4 64.8 167.2 64.8Q167.1 64.9 166.9 64.9Q166.7 64.9 166.5 65.0Q166.3 65.0 166.1 65.0L166.1 65.0Q165.7 65.1 165.5 65.2Q165.2 65.3 165.1 65.5Q164.9 65.7 164.9 66.0L164.9 66.0Q164.9 66.2 165.1 66.4Q165.2 66.6 165.4 66.7Q165.7 66.8 166.0 66.8ZM172.9 68L171.0 68L171.0 60.9L172.9 60.9L172.9 68ZM172.0 60.0L172.0 60.0Q171.5 60.0 171.2 59.7Q170.9 59.4 170.9 59.0L170.9 59.0Q170.9 58.6 171.2 58.3Q171.5 58.0 172.0 58.0L172.0 58.0Q172.4 58.0 172.7 58.3Q173.0 58.6 173.0 59.0L173.0 59.0Q173.0 59.4 172.7 59.7Q172.4 60.0 172.0 60.0Z "/></g><defs><clipPath id="satori_bc-id-2-0-0-1" clip-path="url(#satori_cp-id)"><path x="364" y="54" width="41" height="18" d="M373,54 h23 a9,9 0 0 1 9,9 v0 a9,9 0 0 1 -9,9 h-23 a9,9 0 0 1 -9,-9 v0 a9,9 0 0 1 9,-9"/></clipPath></defs><mask id="satori_om-id-2-0-0-1"><rect x="365" y="55" width="39" height="16" fill="#fff" mask="url(#satori_om-id)"/><path width="41" height="18" fill="none" stroke="#000" stroke-width="2" d="M366.636,56.636 A9,9 0 0 1 373,54 h23 a9,9 0 0 1 9,9 v0 a9,9 0 0 1 -9,9 h-23 a9,9 0 0 1 -9,-9 v0 A9,9 0 0 1 366.636,56.636"/></mask><path x="364" y="54" width="41" height="18" fill="#563d7c22" d="M373,54 h23 a9,9 0 0 1 9,9 v0 a9,9 0 0 1 -9,9 h-23 a9,9 0 0 1 -9,-9 v0 a9,9 0 0 1 9,-9" clip-path="url(#satori_cp-id)" mask="url(#satori_om-id)"/><path width="41" height="18" clip-path="url(#satori_bc-id-2-0-0-1)" fill="none" stroke="#563d7c55" stroke-width="2" d="M366.636,56.636 A9,9 0 0 1 373,54 h23 a9,9 0 0 1 9,9 v0 a9,9 0 0 1 -9,9 h-23 a9,9 0 0 1 -9,-9 v0 A9,9 0 0 1 366.636,56.636"/><g mask="url(#satori_om-id)" clip-path="url(#satori_cp-id)"><path fill="#563d7c" d="M377.8 67.1L377.8 67.1Q376.9 67.1 376.1 66.7Q375.3 66.2 374.9 65.4Q374.5 64.5 374.5 63.4L374.5 63.4Q374.5 62.2 374.9 61.3Q375.3 60.5 376.1 60.1Q376.9 59.6 377.8 59.6L377.8 59.6Q378.5 59.6 379.0 59.8Q379.5 60.0 379.9 60.3Q380.4 60.6 380.6 61.1Q380.9 61.6 381.0 62.2L381.0 62.2L379.5 62.2Q379.4 61.9 379.3 61.7Q379.1 61.4 378.9 61.3Q378.7 61.1 378.4 61.0Q378.2 61.0 377.9 61.0L377.9 61.0Q377.3 61.0 376.9 61.2Q376.4 61.5 376.2 62.1Q376.0 62.6 376.0 63.4L376.0 63.4Q376.0 64.2 376.2 64.7Q376.5 65.2 376.9 65.5Q377.3 65.8 377.9 65.8L377.9 65.8Q378.2 65.8 378.4 65.7Q378.7 65.6 378.9 65.4Q379.1 65.3 379.3 65.0Q379.4 64.8 379.5 64.5L379.5 64.5L381.0 64.5Q380.9 65.0 380.7 65.5Q380.4 65.9 380.0 66.3Q379.6 66.7 379.1 66.9Q378.5 67.1 377.8 67.1ZM384.7 67.1L384.7 67.1Q383.8 67.1 383.2 66.8Q382.6 66.6 382.2 66.0Q381.8 65.5 381.8 64.7L381.8 64.7L383.3 64.7Q383.3 65.1 383.5 65.4Q383.7 65.6 384.0 65.7Q384.3 65.8 384.7 65.8L384.7 65.8Q385.1 65.8 385.4 65.7Q385.7 65.6 385.9 65.4Q386.0 65.2 386.0 64.9L386.0 64.9Q386.0 64.7 385.9 64.5Q385.7 64.3 385.5 64.2Q385.2 64.1 384.8 64.0L384.8 64.0L384.0 63.8Q383.1 63.6 382.5 63.1Q382.0 62.6 382.0 61.8L382.0 61.8Q382.0 61.2 382.4 60.7Q382.7 60.2 383.3 59.9Q384.0 59.6 384.7 59.6L384.7 59.6Q385.5 59.6 386.1 59.9Q386.7 60.2 387.1 60.7Q387.4 61.2 387.4 61.8L387.4 61.8L386.0 61.8Q386.0 61.4 385.6 61.1Q385.3 60.9 384.7 60.9L384.7 60.9Q384.4 60.9 384.1 61.0Q383.8 61.1 383.7 61.3Q383.5 61.5 383.5 61.7L383.5 61.7Q383.5 62.0 383.7 62.2Q383.9 62.3 384.1 62.5Q384.4 62.6 384.7 62.6L384.7 62.6L385.4 62.8Q385.8 62.9 386.2 63.1Q386.6 63.3 386.9 63.5Q387.2 63.8 387.4 64.1Q387.5 64.5 387.5 64.9L387.5 64.9Q387.5 65.6 387.2 66.1Q386.9 66.6 386.2 66.8Q385.6 67.1 384.7 67.1ZM391.3 67.1L391.3 67.1Q390.4 67.1 389.7 66.8Q389.1 66.6 388.7 66.0Q388.4 65.5 388.4 64.7L388.4 64.7L389.8 64.7Q389.8 65.1 390.0 65.4Q390.2 65.6 390.5 65.7Q390.9 65.8 391.3 65.8L391.3 65.8Q391.7 65.8 392.0 65.7Q392.2 65.6 392.4 65.4Q392.6 65.2 392.6 64.9L392.6 64.9Q392.6 64.7 392.4 64.5Q392.3 64.3 392.0 64.2Q391.7 64.1 391.3 64.0L391.3 64.0L390.5 63.8Q389.6 63.6 389.1 63.1Q388.6 62.6 388.6 61.8L388.6 61.8Q388.6 61.2 388.9 60.7Q389.3 60.2 389.9 59.9Q390.5 59.6 391.3 59.6L391.3 59.6Q392.1 59.6 392.7 59.9Q393.3 60.2 393.6 60.7Q394.0 61.2 394.0 61.8L394.0 61.8L392.5 61.8Q392.5 61.4 392.2 61.1Q391.8 60.9 391.3 60.9L391.3 60.9Q390.9 60.9 390.6 61.0Q390.4 61.1 390.2 61.3Q390.1 61.5 390.1 61.7L390.1 61.7Q390.1 62.0 390.2 62.2Q390.4 62.3 390.7 62.5Q390.9 62.6 391.2 62.6L391.2 62.6L391.9 62.8Q392.4 62.9 392.8 63.1Q393.2 63.3 393.5 63.5Q393.8 63.8 393.9 64.1Q394.1 64.5 394.1 64.9L394.1 64.9Q394.1 65.6 393.7 66.1Q393.4 66.6 392.8 66.8Q392.2 67.1 391.3 67.1Z "/></g><mask id="satori_om-id-2-0-1"><rect x="50" y="78" width="355" height="17" fill="#fff" mask="url(#satori_om-id)"/></mask><g mask="url(#satori_om-id)" clip-path="url(#satori_cp-id)"><path fill="rgba(255,215,160,0.6)" d="M52.0 90L51.0 90L51.0 82.0L52.2 82.0L55.4 87.1Q55.6 87.3 55.7 87.6Q55.9 87.9 56.1 88.3L56.1 88.3Q56.3 88.5 56.4 88.8L56.4 88.8Q56.3 88.5 56.3 88.3L56.3 88.3Q56.3 87.9 56.3 87.5Q56.3 87.2 56.3 86.9L56.3 86.9L56.3 82.0L57.3 82.0L57.3 90L56.1 90L53.2 85.4Q53.0 85.1 52.8 84.8Q52.6 84.5 52.3 84.0L52.3 84.0Q52.2 83.7 51.9 83.2L51.9 83.2Q51.9 83.6 51.9 84.0L51.9 84.0Q52.0 84.5 52.0 84.8Q52.0 85.2 52.0 85.4L52.0 85.4L52.0 90ZM61.6 90.1L61.6 90.1Q60.8 90.1 60.1 89.7Q59.5 89.4 59.2 88.7Q58.8 88.0 58.8 87.0L58.8 87.0Q58.8 86.1 59.2 85.4Q59.5 84.7 60.1 84.3Q60.8 83.9 61.6 83.9L61.6 83.9Q62.4 83.9 63.0 84.3Q63.6 84.7 64.0 85.4Q64.3 86.1 64.3 87.0L64.3 87.0Q64.3 88.0 64.0 88.7Q63.6 89.4 63.0 89.7Q62.4 90.1 61.6 90.1ZM61.6 89.3L61.6 89.3Q62.2 89.3 62.6 89.0Q63.0 88.6 63.2 88.1Q63.3 87.6 63.3 87.0L63.3 87.0Q63.3 86.4 63.2 85.9Q63.0 85.4 62.6 85.1Q62.2 84.8 61.6 84.8L61.6 84.8Q61.0 84.8 60.6 85.1Q60.2 85.4 60.0 85.9Q59.8 86.4 59.8 87.0L59.8 87.0Q59.8 87.6 60.0 88.1Q60.2 88.6 60.6 89.0Q61.0 89.3 61.6 89.3Z M71.1 90.1L71.1 90.1Q70.3 90.1 69.8 89.7Q69.2 89.4 68.9 88.7Q68.5 88.0 68.5 87.0L68.5 87.0Q68.5 86.1 68.9 85.4Q69.2 84.7 69.8 84.3Q70.3 83.9 71.1 83.9L71.1 83.9Q71.7 83.9 72.0 84.1Q72.4 84.3 72.5 84.6Q72.7 84.8 72.8 85.0L72.8 85.0L72.9 85.0L72.9 82.0L73.9 82.0L73.9 90L72.9 90L72.9 89.1L72.8 89.1Q72.7 89.2 72.5 89.5Q72.3 89.7 72.0 89.9Q71.7 90.1 71.1 90.1ZM71.2 89.3L71.2 89.3Q71.8 89.3 72.1 89.0Q72.5 88.7 72.7 88.2Q72.9 87.7 72.9 87.0L72.9 87.0Q72.9 86.3 72.7 85.8Q72.5 85.3 72.2 85.1Q71.8 84.8 71.2 84.8L71.2 84.8Q70.7 84.8 70.3 85.1Q69.9 85.4 69.7 85.9Q69.5 86.4 69.5 87.0L69.5 87.0Q69.5 87.6 69.7 88.1Q69.9 88.7 70.3 89.0Q70.7 89.3 71.2 89.3ZM78.1 90.1L78.1 90.1Q77.2 90.1 76.6 89.7Q76.0 89.4 75.6 88.7Q75.3 88.0 75.3 87.0Q75.3 86.1 75.6 85.4Q75.9 84.7 76.5 84.3Q77.2 83.9 78.0 83.9L78.0 83.9Q78.5 83.9 78.9 84.1Q79.4 84.2 79.8 84.6Q80.1 84.9 80.4 85.5Q80.6 86.1 80.6 86.9L80.6 86.9L80.6 87.3L76.2 87.3Q76.3 87.9 76.5 88.3L76.5 88.3Q76.7 88.8 77.1 89.0Q77.5 89.3 78.1 89.3L78.1 89.3Q78.4 89.3 78.7 89.2Q79.0 89.1 79.2 88.9Q79.4 88.7 79.6 88.3L79.6 88.3L80.5 88.6Q80.4 89.1 80.0 89.4Q79.7 89.7 79.2 89.9Q78.7 90.1 78.1 90.1ZM76.3 86.5L76.3 86.5L79.6 86.5Q79.6 86.1 79.4 85.8L79.4 85.8Q79.2 85.3 78.9 85.0Q78.5 84.8 78.0 84.8Q77.4 84.8 77.0 85.0Q76.7 85.3 76.5 85.7L76.5 85.7Q76.3 86.1 76.3 86.5ZM84.0 90.1L84.0 90.1Q83.4 90.1 82.9 89.9Q82.4 89.8 82.1 89.4Q81.8 89.1 81.7 88.5L81.7 88.5L82.6 88.3Q82.8 88.8 83.1 89.0Q83.5 89.3 84.0 89.3L84.0 89.3Q84.6 89.3 85.0 89.0Q85.4 88.7 85.4 88.4L85.4 88.4Q85.4 88.1 85.2 87.9Q84.9 87.6 84.5 87.5L84.5 87.5L83.5 87.3Q82.7 87.1 82.3 86.7Q81.9 86.3 81.9 85.7L81.9 85.7Q81.9 85.2 82.2 84.8Q82.5 84.4 83.0 84.1Q83.5 83.9 84.1 83.9L84.1 83.9Q84.7 83.9 85.2 84.1Q85.6 84.3 85.9 84.6Q86.1 84.9 86.3 85.4L86.3 85.4L85.4 85.6Q85.3 85.3 85.0 85.0Q84.7 84.7 84.1 84.7L84.1 84.7Q83.6 84.7 83.2 85.0Q82.9 85.2 82.9 85.6L82.9 85.6Q82.9 85.9 83.1 86.1Q83.3 86.3 83.9 86.5L83.9 86.5L84.8 86.7Q85.6 86.9 86.0 87.3Q86.4 87.7 86.4 88.3L86.4 88.3Q86.4 88.8 86.1 89.2Q85.8 89.7 85.3 89.9Q84.7 90.1 84.0 90.1ZM90.2 90.1L90.2 90.1Q89.4 90.1 88.8 89.7Q88.2 89.4 87.8 88.7Q87.5 88.0 87.5 87.0L87.5 87.0Q87.5 86.1 87.8 85.4Q88.2 84.7 88.8 84.3Q89.4 83.9 90.2 83.9L90.2 83.9Q90.7 83.9 91.0 84.0Q91.4 84.1 91.8 84.4Q92.1 84.6 92.3 84.9Q92.5 85.2 92.7 85.6L92.7 85.6L91.7 85.8Q91.7 85.6 91.5 85.4Q91.4 85.2 91.2 85.1Q91.0 84.9 90.8 84.9Q90.5 84.8 90.2 84.8L90.2 84.8Q89.6 84.8 89.2 85.1Q88.8 85.4 88.7 85.9Q88.5 86.4 88.5 87.0L88.5 87.0Q88.5 87.6 88.7 88.1Q88.8 88.6 89.2 89.0Q89.6 89.3 90.2 89.3L90.2 89.3Q90.5 89.3 90.8 89.2Q91.0 89.1 91.2 89.0Q91.4 88.8 91.6 88.6Q91.7 88.4 91.8 88.2L91.8 88.2L92.7 88.4Q92.6 88.8 92.3 89.1Q92.1 89.5 91.8 89.7Q91.4 89.9 91.1 90.0Q90.7 90.1 90.2 90.1ZM95.0 90L94.1 90L94.1 84.0L95.0 84.0L95.0 84.9L95.1 84.9Q95.2 84.5 95.7 84.2Q96.1 83.9 96.6 83.9L96.6 83.9Q96.7 83.9 96.9 83.9Q97.0 83.9 97.1 83.9L97.1 83.9L97.1 84.9Q97.1 84.9 96.9 84.9Q96.7 84.8 96.5 84.8L96.5 84.8Q96.1 84.8 95.8 85.0Q95.4 85.2 95.2 85.5Q95.0 85.8 95.0 86.2L95.0 86.2L95.0 90ZM99.2 90L98.2 90L98.2 84.0L99.2 84.0L99.2 90ZM98.7 83.0L98.7 83.0Q98.4 83.0 98.2 82.8Q98.0 82.6 98.0 82.4L98.0 82.4Q98.0 82.1 98.2 81.9Q98.4 81.7 98.7 81.7L98.7 81.7Q99.0 81.7 99.2 81.9Q99.4 82.1 99.4 82.4L99.4 82.4Q99.4 82.6 99.2 82.8Q99.0 83.0 98.7 83.0ZM101.8 92.2L100.9 92.2L100.9 84.0L101.8 84.0L101.8 85.0L101.9 85.0Q102.0 84.8 102.2 84.6Q102.4 84.3 102.7 84.1Q103.1 83.9 103.7 83.9L103.7 83.9Q104.4 83.9 105.0 84.3Q105.5 84.7 105.9 85.4Q106.2 86.1 106.2 87.0L106.2 87.0Q106.2 88.0 105.9 88.7Q105.6 89.4 105.0 89.7Q104.4 90.1 103.7 90.1L103.7 90.1Q103.1 90.1 102.7 89.9Q102.4 89.7 102.2 89.5Q102.0 89.2 101.9 89.1L101.9 89.1L101.8 89.1L101.8 92.2ZM103.5 89.3L103.5 89.3Q104.1 89.3 104.5 89.0Q104.8 88.7 105.0 88.1Q105.2 87.6 105.2 87.0L105.2 87.0Q105.2 86.4 105.0 85.9Q104.8 85.4 104.5 85.1Q104.1 84.8 103.5 84.8L103.5 84.8Q103.0 84.8 102.6 85.1Q102.2 85.3 102.0 85.8Q101.8 86.3 101.8 87.0L101.8 87.0Q101.8 87.7 102.0 88.2Q102.2 88.7 102.6 89.0Q103.0 89.3 103.5 89.3ZM108.7 84.0L110.0 84.0L110.0 84.8L108.7 84.8L108.7 88.4Q108.7 88.8 108.9 89.0Q109.1 89.2 109.4 89.2L109.4 89.2Q109.5 89.2 109.7 89.2Q109.8 89.2 109.9 89.2L109.9 89.2L110.1 90.0Q110.0 90.0 109.8 90.0Q109.6 90.1 109.4 90.1L109.4 90.1Q108.6 90.1 108.2 89.7Q107.8 89.3 107.8 88.5L107.8 88.5L107.8 84.8L106.9 84.8L106.9 84.0L107.8 84.0L107.8 82.6L108.7 82.6L108.7 84.0ZM112.2 90L111.2 90L111.2 84.0L112.2 84.0L112.2 90ZM111.7 83.0L111.7 83.0Q111.4 83.0 111.2 82.8Q111.0 82.6 111.0 82.4L111.0 82.4Q111.0 82.1 111.2 81.9Q111.4 81.7 111.7 81.7L111.7 81.7Q112.0 81.7 112.2 81.9Q112.4 82.1 112.4 82.4L112.4 82.4Q112.4 82.6 112.2 82.8Q112.0 83.0 111.7 83.0ZM116.3 90.1L116.3 90.1Q115.5 90.1 114.9 89.7Q114.3 89.4 113.9 88.7Q113.6 88.0 113.6 87.0L113.6 87.0Q113.6 86.1 113.9 85.4Q114.3 84.7 114.9 84.3Q115.5 83.9 116.3 83.9L116.3 83.9Q117.1 83.9 117.8 84.3Q118.4 84.7 118.7 85.4Q119.1 86.1 119.1 87.0L119.1 87.0Q119.1 88.0 118.7 88.7Q118.4 89.4 117.8 89.7Q117.1 90.1 116.3 90.1ZM116.3 89.3L116.3 89.3Q116.9 89.3 117.3 89.0Q117.7 88.6 117.9 88.1Q118.1 87.6 118.1 87.0L118.1 87.0Q118.1 86.4 117.9 85.9Q117.7 85.4 117.3 85.1Q116.9 84.8 116.3 84.8L116.3 84.8Q115.7 84.8 115.3 85.1Q114.9 85.4 114.7 85.9Q114.6 86.4 114.6 87.0L114.6 87.0Q114.6 87.6 114.7 88.1Q114.9 88.6 115.3 89.0Q115.7 89.3 116.3 89.3ZM121.4 86.4L121.4 86.4L121.4 90L120.5 90L120.5 84.0L121.4 84.0L121.4 85.1Q121.7 84.5 122.0 84.3L122.0 84.3Q122.6 83.9 123.2 83.9L123.2 83.9Q123.8 83.9 124.3 84.2Q124.8 84.4 125.0 84.9Q125.3 85.4 125.3 86.2L125.3 86.2L125.3 90L124.3 90L124.3 86.3Q124.3 85.6 123.9 85.2Q123.6 84.8 122.9 84.8L122.9 84.8Q122.5 84.8 122.2 85.0Q121.8 85.2 121.6 85.5Q121.4 85.9 121.4 86.4Z M131.0 92.2L130.1 92.2L130.1 84.0L131.0 84.0L131.0 85.0L131.1 85.0Q131.2 84.8 131.4 84.6Q131.6 84.3 131.9 84.1Q132.3 83.9 132.8 83.9L132.8 83.9Q133.6 83.9 134.2 84.3Q134.7 84.7 135.1 85.4Q135.4 86.1 135.4 87.0L135.4 87.0Q135.4 88.0 135.1 88.7Q134.7 89.4 134.2 89.7Q133.6 90.1 132.8 90.1L132.8 90.1Q132.3 90.1 131.9 89.9Q131.6 89.7 131.4 89.5Q131.2 89.2 131.1 89.1L131.1 89.1L131.0 89.1L131.0 92.2ZM132.7 89.3L132.7 89.3Q133.3 89.3 133.6 89.0Q134.0 88.7 134.2 88.1Q134.4 87.6 134.4 87.0L134.4 87.0Q134.4 86.4 134.2 85.9Q134.0 85.4 133.6 85.1Q133.3 84.8 132.7 84.8L132.7 84.8Q132.1 84.8 131.8 85.1Q131.4 85.3 131.2 85.8Q131.0 86.3 131.0 87.0L131.0 87.0Q131.0 87.7 131.2 88.2Q131.4 88.7 131.8 89.0Q132.2 89.3 132.7 89.3ZM137.8 90L136.8 90L136.8 84.0L137.7 84.0L137.7 84.9L137.8 84.9Q138.0 84.5 138.4 84.2Q138.8 83.9 139.3 83.9L139.3 83.9Q139.5 83.9 139.6 83.9Q139.8 83.9 139.8 83.9L139.8 83.9L139.8 84.9Q139.8 84.9 139.6 84.9Q139.5 84.8 139.3 84.8L139.3 84.8Q138.8 84.8 138.5 85.0Q138.1 85.2 138.0 85.5Q137.8 85.8 137.8 86.2L137.8 86.2L137.8 90ZM143.4 90.1L143.4 90.1Q142.6 90.1 141.9 89.7Q141.3 89.4 141.0 88.7Q140.6 88.0 140.6 87.0L140.6 87.0Q140.6 86.1 141.0 85.4Q141.3 84.7 141.9 84.3Q142.6 83.9 143.4 83.9L143.4 83.9Q144.2 83.9 144.8 84.3Q145.4 84.7 145.8 85.4Q146.1 86.1 146.1 87.0L146.1 87.0Q146.1 88.0 145.8 88.7Q145.4 89.4 144.8 89.7Q144.2 90.1 143.4 90.1ZM143.4 89.3L143.4 89.3Q144.0 89.3 144.4 89.0Q144.8 88.6 145.0 88.1Q145.1 87.6 145.1 87.0L145.1 87.0Q145.1 86.4 145.0 85.9Q144.8 85.4 144.4 85.1Q144.0 84.8 143.4 84.8L143.4 84.8Q142.8 84.8 142.4 85.1Q142.0 85.4 141.8 85.9Q141.6 86.4 141.6 87.0L141.6 87.0Q141.6 87.6 141.8 88.1Q142.0 88.6 142.4 89.0Q142.8 89.3 143.4 89.3ZM150.3 90L149.3 90L147.0 84.0L148.0 84.0L149.3 87.6Q149.5 88.1 149.7 88.7L149.7 88.7Q149.7 88.9 149.8 89.1L149.8 89.1Q149.8 88.9 149.9 88.7L149.9 88.7Q150.0 88.1 150.2 87.6L150.2 87.6L151.5 84.0L152.6 84.0L150.3 90ZM154.7 90L153.7 90L153.7 84.0L154.7 84.0L154.7 90ZM154.2 83.0L154.2 83.0Q153.9 83.0 153.7 82.8Q153.5 82.6 153.5 82.4L153.5 82.4Q153.5 82.1 153.7 81.9Q153.9 81.7 154.2 81.7L154.2 81.7Q154.5 81.7 154.7 81.9Q154.9 82.1 154.9 82.4L154.9 82.4Q154.9 82.6 154.7 82.8Q154.5 83.0 154.2 83.0ZM158.6 90.1L158.6 90.1Q157.9 90.1 157.3 89.7Q156.7 89.4 156.4 88.7Q156.1 88.0 156.1 87.0L156.1 87.0Q156.1 86.1 156.4 85.4Q156.7 84.7 157.3 84.3Q157.9 83.9 158.6 83.9L158.6 83.9Q159.2 83.9 159.6 84.1Q159.9 84.3 160.1 84.6Q160.3 84.8 160.4 85.0L160.4 85.0L160.4 85.0L160.4 82.0L161.4 82.0L161.4 90L160.5 90L160.5 89.1L160.4 89.1Q160.3 89.2 160.1 89.5Q159.9 89.7 159.5 89.9Q159.2 90.1 158.6 90.1ZM158.8 89.3L158.8 89.3Q159.3 89.3 159.7 89.0Q160.1 88.7 160.3 88.2Q160.5 87.7 160.5 87.0L160.5 87.0Q160.5 86.3 160.3 85.8Q160.1 85.3 159.7 85.1Q159.3 84.8 158.8 84.8L158.8 84.8Q158.2 84.8 157.8 85.1Q157.4 85.4 157.3 85.9Q157.1 86.4 157.1 87.0L157.1 87.0Q157.1 87.6 157.3 88.1Q157.4 88.7 157.8 89.0Q158.2 89.3 158.8 89.3ZM165.6 90.1L165.6 90.1Q164.8 90.1 164.1 89.7Q163.5 89.4 163.2 88.7Q162.8 88.0 162.8 87.0Q162.8 86.1 163.2 85.4Q163.5 84.7 164.1 84.3Q164.7 83.9 165.5 83.9L165.5 83.9Q166.0 83.9 166.5 84.1Q166.9 84.2 167.3 84.6Q167.7 84.9 167.9 85.5Q168.1 86.1 168.1 86.9L168.1 86.9L168.1 87.3L163.8 87.3Q163.8 87.9 164.0 88.3L164.0 88.3Q164.3 88.8 164.7 89.0Q165.1 89.3 165.6 89.3L165.6 89.3Q166.0 89.3 166.3 89.2Q166.6 89.1 166.8 88.9Q167.0 88.7 167.1 88.3L167.1 88.3L168.0 88.6Q167.9 89.1 167.6 89.4Q167.2 89.7 166.7 89.9Q166.3 90.1 165.6 90.1ZM163.8 86.5L163.8 86.5L167.2 86.5Q167.1 86.1 167.0 85.8L167.0 85.8Q166.8 85.3 166.4 85.0Q166.1 84.8 165.5 84.8Q165.0 84.8 164.6 85.0Q164.2 85.3 164.0 85.7L164.0 85.7Q163.8 86.1 163.8 86.5ZM171.8 90.1L171.8 90.1Q171.0 90.1 170.5 89.7Q169.9 89.4 169.6 88.7Q169.2 88.0 169.2 87.0L169.2 87.0Q169.2 86.1 169.6 85.4Q169.9 84.7 170.5 84.3Q171.0 83.9 171.8 83.9L171.8 83.9Q172.4 83.9 172.7 84.1Q173.1 84.3 173.2 84.6Q173.4 84.8 173.5 85.0L173.5 85.0L173.6 85.0L173.6 82.0L174.6 82.0L174.6 90L173.6 90L173.6 89.1L173.5 89.1Q173.4 89.2 173.2 89.5Q173.0 89.7 172.7 89.9Q172.3 90.1 171.8 90.1ZM171.9 89.3L171.9 89.3Q172.5 89.3 172.8 89.0Q173.2 88.7 173.4 88.2Q173.6 87.7 173.6 87.0L173.6 87.0Q173.6 86.3 173.4 85.8Q173.2 85.3 172.8 85.1Q172.5 84.8 171.9 84.8L171.9 84.8Q171.3 84.8 171.0 85.1Q170.6 85.4 170.4 85.9Q170.2 86.4 170.2 87.0L170.2 87.0Q170.2 87.6 170.4 88.1Q170.6 88.7 171.0 89.0Q171.4 89.3 171.9 89.3ZM177.0 90.1L177.0 90.1Q176.7 90.1 176.5 89.9Q176.3 89.6 176.3 89.3L176.3 89.3Q176.3 89.0 176.5 88.8Q176.7 88.6 177.0 88.6L177.0 88.6Q177.3 88.6 177.5 88.8Q177.7 89.0 177.7 89.3L177.7 89.3Q177.7 89.6 177.5 89.9Q177.3 90.1 177.0 90.1Z "/></g><defs><clipPath id="satori_bc-id-2-1" clip-path="url(#satori_cp-id)"><path x="438" y="41" width="389" height="67" d="M448,41 h369 a10,10 0 0 1 10,10 v47 a10,10 0 0 1 -10,10 h-369 a10,10 0 0 1 -10,-10 v-47 a10,10 0 0 1 10,-10"/></clipPath></defs><mask id="satori_om-id-2-1"><rect x="439" y="42" width="387" height="65" fill="#fff" mask="url(#satori_om-id)"/><path width="389" height="67" fill="none" stroke="#000" stroke-width="2" d="M440.929,43.929 A10,10 0 0 1 448,41 h369 a10,10 0 0 1 10,10 v47 a10,10 0 0 1 -10,10 h-369 a10,10 0 0 1 -10,-10 v-47 A10,10 0 0 1 440.929,43.929"/></mask><path x="438" y="41" width="389" height="67" fill="rgba(255,255,255,0.03)" d="M448,41 h369 a10,10 0 0 1 10,10 v47 a10,10 0 0 1 -10,10 h-369 a10,10 0 0 1 -10,-10 v-47 a10,10 0 0 1 10,-10" clip-path="url(#satori_cp-id)" mask="url(#satori_om-id)"/><path width="389" height="67" clip-path="url(#satori_bc-id-2-1)" fill="none" stroke="rgba(255,191,0,0.15)" stroke-width="2" d="M440.929,43.929 A10,10 0 0 1 448,41 h369 a10,10 0 0 1 10,10 v47 a10,10 0 0 1 -10,10 h-369 a10,10 0 0 1 -10,-10 v-47 A10,10 0 0 1 440.929,43.929"/><mask id="satori_om-id-2-1-0"><rect x="455" y="54" width="355" height="18" fill="#fff" mask="url(#satori_om-id)"/></mask><mask id="satori_om-id-2-1-0-0"><rect x="455" y="55" width="124" height="16" fill="#fff" mask="url(#satori_om-id)"/></mask><g mask="url(#satori_om-id)" clip-path="url(#satori_cp-id)"><path fill="#ffedd5" d="M459.0 68.1L459.0 68.1Q457.9 68.1 457.1 67.7Q456.4 67.2 455.9 66.4Q455.5 65.6 455.5 64.5L455.5 64.5Q455.5 63.4 455.9 62.6Q456.4 61.7 457.1 61.3Q457.9 60.8 459.0 60.8L459.0 60.8Q459.6 60.8 460.1 61.0Q460.7 61.1 461.1 61.4Q461.5 61.8 461.8 62.2Q462.0 62.6 462.1 63.2L462.1 63.2L460.4 63.5Q460.3 63.2 460.2 63.0Q460.1 62.8 459.9 62.6Q459.7 62.5 459.5 62.4Q459.3 62.3 459.0 62.3L459.0 62.3Q458.5 62.3 458.2 62.6Q457.8 62.9 457.6 63.3Q457.5 63.8 457.5 64.5L457.5 64.5Q457.5 65.1 457.6 65.6Q457.8 66.1 458.2 66.4Q458.5 66.6 459.0 66.6L459.0 66.6Q459.3 66.6 459.5 66.6Q459.7 66.5 459.9 66.3Q460.1 66.1 460.2 65.9Q460.3 65.7 460.4 65.4L460.4 65.4L462.2 65.7Q462.1 66.3 461.8 66.7Q461.5 67.2 461.1 67.5Q460.7 67.8 460.2 68.0Q459.6 68.1 459.0 68.1ZM465.4 68.1L465.4 68.1Q464.8 68.1 464.2 67.9Q463.7 67.7 463.4 67.2Q463.1 66.7 463.1 66.0L463.1 66.0Q463.1 65.4 463.3 65.0Q463.5 64.6 463.9 64.4Q464.3 64.1 464.8 64.0Q465.2 63.9 465.8 63.8L465.8 63.8Q466.4 63.8 466.8 63.7Q467.1 63.7 467.3 63.5Q467.5 63.4 467.5 63.2L467.5 63.2L467.5 63.2Q467.5 62.9 467.4 62.7Q467.2 62.4 467.0 62.3Q466.7 62.2 466.4 62.2L466.4 62.2Q466.0 62.2 465.7 62.3Q465.5 62.4 465.3 62.6Q465.1 62.8 465.0 63.0L465.0 63.0L463.3 62.8Q463.5 62.1 463.9 61.7Q464.3 61.3 464.9 61.0Q465.6 60.8 466.4 60.8L466.4 60.8Q466.9 60.8 467.5 61.0Q468.0 61.1 468.5 61.4Q468.9 61.7 469.1 62.1Q469.4 62.6 469.4 63.2L469.4 63.2L469.4 68L467.6 68L467.6 67.0L467.5 67.0Q467.3 67.3 467.1 67.6Q466.8 67.8 466.4 68.0Q466.0 68.1 465.4 68.1ZM466.0 66.8L466.0 66.8Q466.4 66.8 466.8 66.6Q467.1 66.4 467.3 66.1Q467.5 65.8 467.5 65.5L467.5 65.5L467.5 64.7Q467.4 64.8 467.2 64.8Q467.1 64.9 466.9 64.9Q466.6 64.9 466.4 65.0Q466.2 65.0 466.1 65.0L466.1 65.0Q465.7 65.1 465.5 65.2Q465.2 65.3 465.1 65.5Q464.9 65.7 464.9 66.0L464.9 66.0Q464.9 66.2 465.0 66.4Q465.2 66.6 465.4 66.7Q465.7 66.8 466.0 66.8ZM472.9 68L471.0 68L471.0 60.9L472.8 60.9L472.8 62.1L472.9 62.1Q473.1 61.5 473.6 61.1Q474.0 60.8 474.6 60.8L474.6 60.8Q474.8 60.8 475.0 60.8Q475.1 60.8 475.3 60.9L475.3 60.9L475.3 62.6Q475.1 62.5 474.9 62.5Q474.6 62.5 474.4 62.5L474.4 62.5Q474.0 62.5 473.6 62.7Q473.3 62.9 473.1 63.2Q472.9 63.5 472.9 64.0L472.9 64.0L472.9 68ZM480.3 68.1L480.3 68.1Q479.7 68.1 479.3 67.9Q478.9 67.7 478.6 67.4Q478.4 67.1 478.3 66.9L478.3 66.9L478.2 66.9L478.2 68L476.3 68L476.3 58.5L478.2 58.5L478.2 62.1L478.3 62.1Q478.4 61.8 478.6 61.5Q478.9 61.2 479.3 61.0Q479.7 60.8 480.3 60.8L480.3 60.8Q481.1 60.8 481.7 61.2Q482.4 61.6 482.8 62.4Q483.2 63.3 483.2 64.5L483.2 64.5Q483.2 65.6 482.8 66.5Q482.4 67.3 481.7 67.7Q481.1 68.1 480.3 68.1ZM479.7 66.6L479.7 66.6Q480.2 66.6 480.5 66.3Q480.9 66.0 481.0 65.6Q481.2 65.1 481.2 64.5L481.2 64.5Q481.2 63.8 481.0 63.4Q480.9 62.9 480.5 62.6Q480.2 62.3 479.7 62.3L479.7 62.3Q479.2 62.3 478.9 62.6Q478.5 62.9 478.3 63.3Q478.2 63.8 478.2 64.5L478.2 64.5Q478.2 65.1 478.3 65.6Q478.5 66.1 478.9 66.3Q479.2 66.6 479.7 66.6ZM487.7 68.1L487.7 68.1Q486.6 68.1 485.8 67.7Q485.0 67.2 484.6 66.4Q484.2 65.6 484.2 64.5L484.2 64.5Q484.2 63.4 484.6 62.6Q485.0 61.7 485.8 61.3Q486.6 60.8 487.7 60.8L487.7 60.8Q488.7 60.8 489.5 61.3Q490.3 61.7 490.7 62.6Q491.1 63.4 491.1 64.5L491.1 64.5Q491.1 65.6 490.7 66.4Q490.3 67.2 489.5 67.7Q488.7 68.1 487.7 68.1ZM487.7 66.6L487.7 66.6Q488.2 66.6 488.5 66.4Q488.9 66.1 489.0 65.6Q489.2 65.1 489.2 64.5L489.2 64.5Q489.2 63.8 489.0 63.4Q488.9 62.9 488.5 62.6Q488.2 62.3 487.7 62.3L487.7 62.3Q487.2 62.3 486.8 62.6Q486.5 62.9 486.3 63.4Q486.1 63.8 486.1 64.5L486.1 64.5Q486.1 65.1 486.3 65.6Q486.5 66.1 486.8 66.4Q487.2 66.6 487.7 66.6ZM494.4 63.9L494.4 63.9L494.4 68L492.5 68L492.5 60.9L494.3 60.9L494.3 62.4Q494.6 61.7 495.0 61.3L495.0 61.3Q495.6 60.8 496.5 60.8L496.5 60.8Q497.2 60.8 497.8 61.1Q498.3 61.5 498.6 62.1Q498.9 62.7 498.9 63.5L498.9 63.5L498.9 68L497.0 68L497.0 63.8Q497.0 63.2 496.7 62.8Q496.4 62.4 495.8 62.4L495.8 62.4Q495.4 62.4 495.0 62.6Q494.7 62.8 494.5 63.1Q494.4 63.4 494.4 63.9ZM500.6 63.3L504.9 63.3L504.9 64.9L500.6 64.9L500.6 63.3ZM509.1 60.9L510.6 60.9L510.6 62.4L509.1 62.4L509.1 68L507.2 68L507.2 62.4L506.0 62.4L506.0 60.9L507.2 60.9L507.2 60.4Q507.2 59.6 507.5 59.1Q507.8 58.6 508.3 58.3Q508.9 58.1 509.5 58.1L509.5 58.1Q510.0 58.1 510.3 58.2Q510.7 58.2 510.9 58.3L510.9 58.3L510.5 59.7Q510.4 59.7 510.3 59.7Q510.1 59.6 509.9 59.6L509.9 59.6Q509.5 59.6 509.3 59.8Q509.1 60.0 509.1 60.4L509.1 60.4L509.1 60.9ZM515.0 68.1L515.0 68.1Q513.9 68.1 513.1 67.7Q512.4 67.2 511.9 66.4Q511.5 65.6 511.5 64.5L511.5 64.5Q511.5 63.4 511.9 62.6Q512.4 61.7 513.1 61.3Q513.9 60.8 515.0 60.8L515.0 60.8Q516.1 60.8 516.8 61.3Q517.6 61.7 518.0 62.6Q518.5 63.4 518.5 64.5L518.5 64.5Q518.5 65.6 518.0 66.4Q517.6 67.2 516.8 67.7Q516.1 68.1 515.0 68.1ZM515.0 66.6L515.0 66.6Q515.5 66.6 515.8 66.4Q516.2 66.1 516.4 65.6Q516.5 65.1 516.5 64.5L516.5 64.5Q516.5 63.8 516.4 63.4Q516.2 62.9 515.8 62.6Q515.5 62.3 515.0 62.3L515.0 62.3Q514.5 62.3 514.1 62.6Q513.8 62.9 513.6 63.4Q513.5 63.8 513.5 64.5L513.5 64.5Q513.5 65.1 513.6 65.6Q513.8 66.1 514.1 66.4Q514.5 66.6 515.0 66.6ZM523.0 68.1L523.0 68.1Q521.9 68.1 521.1 67.7Q520.3 67.2 519.9 66.4Q519.5 65.6 519.5 64.5L519.5 64.5Q519.5 63.4 519.9 62.6Q520.3 61.7 521.1 61.3Q521.9 60.8 523.0 60.8L523.0 60.8Q524.0 60.8 524.8 61.3Q525.6 61.7 526.0 62.6Q526.4 63.4 526.4 64.5L526.4 64.5Q526.4 65.6 526.0 66.4Q525.6 67.2 524.8 67.7Q524.0 68.1 523.0 68.1ZM523.0 66.6L523.0 66.6Q523.5 66.6 523.8 66.4Q524.2 66.1 524.3 65.6Q524.5 65.1 524.5 64.5L524.5 64.5Q524.5 63.8 524.3 63.4Q524.2 62.9 523.8 62.6Q523.5 62.3 523.0 62.3L523.0 62.3Q522.5 62.3 522.1 62.6Q521.8 62.9 521.6 63.4Q521.4 63.8 521.4 64.5L521.4 64.5Q521.4 65.1 521.6 65.6Q521.8 66.1 522.1 66.4Q522.5 66.6 523.0 66.6ZM530.0 60.9L531.3 60.9L531.3 62.4L530.0 62.4L530.0 65.9Q530.0 66.3 530.1 66.4Q530.3 66.6 530.6 66.6L530.6 66.6Q530.7 66.6 530.9 66.6Q531.1 66.5 531.2 66.5L531.2 66.5L531.5 67.9Q531.2 68.0 530.9 68.1Q530.5 68.1 530.3 68.1L530.3 68.1Q529.2 68.1 528.6 67.6Q528.1 67.1 528.1 66.1L528.1 66.1L528.1 62.4L527.1 62.4L527.1 60.9L528.1 60.9L528.1 59.2L530.0 59.2L530.0 60.9ZM534.4 70.7L532.5 70.7L532.5 60.9L534.4 60.9L534.4 62.1L534.5 62.1Q534.6 61.8 534.9 61.5Q535.1 61.2 535.5 61.0Q535.9 60.8 536.5 60.8L536.5 60.8Q537.3 60.8 538.0 61.2Q538.6 61.6 539.0 62.4Q539.4 63.3 539.4 64.5L539.4 64.5Q539.4 65.6 539.0 66.5Q538.6 67.3 538.0 67.7Q537.3 68.1 536.5 68.1L536.5 68.1Q535.9 68.1 535.5 67.9Q535.1 67.7 534.9 67.4Q534.6 67.1 534.5 66.9L534.5 66.9L534.4 66.9L534.4 70.7ZM535.9 66.6L535.9 66.6Q536.4 66.6 536.7 66.3Q537.1 66.0 537.3 65.6Q537.4 65.1 537.4 64.5L537.4 64.5Q537.4 63.8 537.3 63.4Q537.1 62.9 536.8 62.6Q536.4 62.3 535.9 62.3L535.9 62.3Q535.4 62.3 535.1 62.6Q534.7 62.9 534.6 63.3Q534.4 63.8 534.4 64.5L534.4 64.5Q534.4 65.1 534.6 65.6Q534.7 66.1 535.1 66.3Q535.4 66.6 535.9 66.6ZM542.6 68L540.7 68L540.7 60.9L542.6 60.9L542.6 62.1L542.6 62.1Q542.8 61.5 543.3 61.1Q543.8 60.8 544.3 60.8L544.3 60.8Q544.5 60.8 544.7 60.8Q544.8 60.8 545.0 60.9L545.0 60.9L545.0 62.6Q544.8 62.5 544.6 62.5Q544.4 62.5 544.1 62.5L544.1 62.5Q543.7 62.5 543.4 62.7Q543.0 62.9 542.8 63.2Q542.6 63.5 542.6 64.0L542.6 64.0L542.6 68ZM547.9 68L546.0 68L546.0 60.9L547.9 60.9L547.9 68ZM547.0 60.0L547.0 60.0Q546.5 60.0 546.2 59.7Q545.9 59.4 545.9 59.0L545.9 59.0Q545.9 58.6 546.2 58.3Q546.5 58.0 547.0 58.0L547.0 58.0Q547.4 58.0 547.7 58.3Q548.0 58.6 548.0 59.0L548.0 59.0Q548.0 59.4 547.7 59.7Q547.4 60.0 547.0 60.0ZM551.4 63.9L551.4 63.9L551.4 68L549.5 68L549.5 60.9L551.3 60.9L551.4 62.4Q551.6 61.7 552.1 61.3L552.1 61.3Q552.7 60.8 553.6 60.8L553.6 60.8Q554.3 60.8 554.9 61.1Q555.4 61.5 555.7 62.1Q556.0 62.7 556.0 63.5L556.0 63.5L556.0 68L554.1 68L554.1 63.8Q554.1 63.2 553.8 62.8Q553.4 62.4 552.8 62.4L552.8 62.4Q552.4 62.4 552.1 62.6Q551.8 62.8 551.6 63.1Q551.4 63.4 551.4 63.9ZM559.8 60.9L561.2 60.9L561.2 62.4L559.8 62.4L559.8 65.9Q559.8 66.3 560.0 66.4Q560.1 66.6 560.5 66.6L560.5 66.6Q560.6 66.6 560.8 66.6Q561.0 66.5 561.1 66.5L561.1 66.5L561.3 67.9Q561.0 68.0 560.7 68.1Q560.4 68.1 560.1 68.1L560.1 68.1Q559.1 68.1 558.5 67.6Q557.9 67.1 557.9 66.1L557.9 66.1L557.9 62.4L556.9 62.4L556.9 60.9L557.9 60.9L557.9 59.2L559.8 59.2L559.8 60.9ZM562.5 63.3L566.8 63.3L566.8 64.9L562.5 64.9L562.5 63.3ZM570.5 68.1L570.5 68.1Q569.8 68.1 569.2 67.9Q568.7 67.7 568.4 67.2Q568.1 66.7 568.1 66.0L568.1 66.0Q568.1 65.4 568.3 65.0Q568.5 64.6 568.9 64.4Q569.3 64.1 569.8 64.0Q570.2 63.9 570.8 63.8L570.8 63.8Q571.4 63.8 571.8 63.7Q572.1 63.7 572.3 63.5Q572.5 63.4 572.5 63.2L572.5 63.2L572.5 63.2Q572.5 62.9 572.4 62.7Q572.2 62.4 572.0 62.3Q571.7 62.2 571.4 62.2L571.4 62.2Q571.0 62.2 570.7 62.3Q570.5 62.4 570.3 62.6Q570.1 62.8 570.0 63.0L570.0 63.0L568.3 62.8Q568.5 62.1 568.9 61.7Q569.3 61.3 570.0 61.0Q570.6 60.8 571.4 60.8L571.4 60.8Q572.0 60.8 572.5 61.0Q573.0 61.1 573.5 61.4Q573.9 61.7 574.1 62.1Q574.4 62.6 574.4 63.2L574.4 63.2L574.4 68L572.6 68L572.6 67.0L572.5 67.0Q572.4 67.3 572.1 67.6Q571.8 67.8 571.4 68.0Q571.0 68.1 570.5 68.1ZM571.0 66.8L571.0 66.8Q571.4 66.8 571.8 66.6Q572.1 66.4 572.3 66.1Q572.5 65.8 572.5 65.5L572.5 65.5L572.5 64.7Q572.4 64.8 572.2 64.8Q572.1 64.9 571.9 64.9Q571.7 64.9 571.5 65.0Q571.3 65.0 571.1 65.0L571.1 65.0Q570.7 65.1 570.5 65.2Q570.2 65.3 570.1 65.5Q569.9 65.7 569.9 66.0L569.9 66.0Q569.9 66.2 570.1 66.4Q570.2 66.6 570.4 66.7Q570.7 66.8 571.0 66.8ZM577.9 68L576.0 68L576.0 60.9L577.9 60.9L577.9 68ZM577.0 60.0L577.0 60.0Q576.5 60.0 576.2 59.7Q575.9 59.4 575.9 59.0L575.9 59.0Q575.9 58.6 576.2 58.3Q576.5 58.0 577.0 58.0L577.0 58.0Q577.4 58.0 577.7 58.3Q578.0 58.6 578.0 59.0L578.0 59.0Q578.0 59.4 577.7 59.7Q577.4 60.0 577.0 60.0Z "/></g><defs><clipPath id="satori_bc-id-2-1-0-1" clip-path="url(#satori_cp-id)"><path x="769" y="54" width="41" height="18" d="M778,54 h23 a9,9 0 0 1 9,9 v0 a9,9 0 0 1 -9,9 h-23 a9,9 0 0 1 -9,-9 v0 a9,9 0 0 1 9,-9"/></clipPath></defs><mask id="satori_om-id-2-1-0-1"><rect x="770" y="55" width="39" height="16" fill="#fff" mask="url(#satori_om-id)"/><path width="41" height="18" fill="none" stroke="#000" stroke-width="2" d="M771.636,56.636 A9,9 0 0 1 778,54 h23 a9,9 0 0 1 9,9 v0 a9,9 0 0 1 -9,9 h-23 a9,9 0 0 1 -9,-9 v0 A9,9 0 0 1 771.636,56.636"/></mask><path x="769" y="54" width="41" height="18" fill="#563d7c22" d="M778,54 h23 a9,9 0 0 1 9,9 v0 a9,9 0 0 1 -9,9 h-23 a9,9 0 0 1 -9,-9 v0 a9,9 0 0 1 9,-9" clip-path="url(#satori_cp-id)" mask="url(#satori_om-id)"/><path width="41" height="18" clip-path="url(#satori_bc-id-2-1-0-1)" fill="none" stroke="#563d7c55" stroke-width="2" d="M771.636,56.636 A9,9 0 0 1 778,54 h23 a9,9 0 0 1 9,9 v0 a9,9 0 0 1 -9,9 h-23 a9,9 0 0 1 -9,-9 v0 A9,9 0 0 1 771.636,56.636"/><g mask="url(#satori_om-id)" clip-path="url(#satori_cp-id)"><path fill="#563d7c" d="M782.8 67.1L782.8 67.1Q781.9 67.1 781.1 66.7Q780.3 66.2 779.9 65.4Q779.5 64.5 779.5 63.4L779.5 63.4Q779.5 62.2 779.9 61.3Q780.3 60.5 781.1 60.1Q781.9 59.6 782.8 59.6L782.8 59.6Q783.5 59.6 784.0 59.8Q784.5 60.0 784.9 60.3Q785.4 60.6 785.6 61.1Q785.9 61.6 786.0 62.2L786.0 62.2L784.5 62.2Q784.4 61.9 784.3 61.7Q784.1 61.4 783.9 61.3Q783.7 61.1 783.4 61.0Q783.2 61.0 782.9 61.0L782.9 61.0Q782.3 61.0 781.9 61.2Q781.4 61.5 781.2 62.1Q781.0 62.6 781.0 63.4L781.0 63.4Q781.0 64.2 781.2 64.7Q781.5 65.2 781.9 65.5Q782.3 65.8 782.9 65.8L782.9 65.8Q783.2 65.8 783.4 65.7Q783.7 65.6 783.9 65.4Q784.1 65.3 784.3 65.0Q784.4 64.8 784.5 64.5L784.5 64.5L786.0 64.5Q785.9 65.0 785.7 65.5Q785.4 65.9 785.0 66.3Q784.6 66.7 784.1 66.9Q783.5 67.1 782.8 67.1ZM789.7 67.1L789.7 67.1Q788.8 67.1 788.2 66.8Q787.6 66.6 787.2 66.0Q786.8 65.5 786.8 64.7L786.8 64.7L788.3 64.7Q788.3 65.1 788.5 65.4Q788.7 65.6 789.0 65.7Q789.3 65.8 789.7 65.8L789.7 65.8Q790.1 65.8 790.4 65.7Q790.7 65.6 790.9 65.4Q791.0 65.2 791.0 64.9L791.0 64.9Q791.0 64.7 790.9 64.5Q790.7 64.3 790.5 64.2Q790.2 64.1 789.8 64.0L789.8 64.0L789.0 63.8Q788.1 63.6 787.5 63.1Q787.0 62.6 787.0 61.8L787.0 61.8Q787.0 61.2 787.4 60.7Q787.7 60.2 788.3 59.9Q789.0 59.6 789.7 59.6L789.7 59.6Q790.5 59.6 791.1 59.9Q791.7 60.2 792.1 60.7Q792.4 61.2 792.4 61.8L792.4 61.8L791.0 61.8Q791.0 61.4 790.6 61.1Q790.3 60.9 789.7 60.9L789.7 60.9Q789.4 60.9 789.1 61.0Q788.8 61.1 788.7 61.3Q788.5 61.5 788.5 61.7L788.5 61.7Q788.5 62.0 788.7 62.2Q788.9 62.3 789.1 62.5Q789.4 62.6 789.7 62.6L789.7 62.6L790.4 62.8Q790.8 62.9 791.2 63.1Q791.6 63.3 791.9 63.5Q792.2 63.8 792.4 64.1Q792.5 64.5 792.5 64.9L792.5 64.9Q792.5 65.6 792.2 66.1Q791.9 66.6 791.2 66.8Q790.6 67.1 789.7 67.1ZM796.3 67.1L796.3 67.1Q795.4 67.1 794.7 66.8Q794.1 66.6 793.7 66.0Q793.4 65.5 793.4 64.7L793.4 64.7L794.8 64.7Q794.8 65.1 795.0 65.4Q795.2 65.6 795.5 65.7Q795.9 65.8 796.3 65.8L796.3 65.8Q796.7 65.8 797.0 65.7Q797.2 65.6 797.4 65.4Q797.6 65.2 797.6 64.9L797.6 64.9Q797.6 64.7 797.4 64.5Q797.3 64.3 797.0 64.2Q796.7 64.1 796.3 64.0L796.3 64.0L795.5 63.8Q794.6 63.6 794.1 63.1Q793.6 62.6 793.6 61.8L793.6 61.8Q793.6 61.2 793.9 60.7Q794.3 60.2 794.9 59.9Q795.5 59.6 796.3 59.6L796.3 59.6Q797.1 59.6 797.7 59.9Q798.3 60.2 798.6 60.7Q799.0 61.2 799.0 61.8L799.0 61.8L797.5 61.8Q797.5 61.4 797.2 61.1Q796.8 60.9 796.3 60.9L796.3 60.9Q795.9 60.9 795.6 61.0Q795.4 61.1 795.2 61.3Q795.1 61.5 795.1 61.7L795.1 61.7Q795.1 62.0 795.2 62.2Q795.4 62.3 795.7 62.5Q795.9 62.6 796.2 62.6L796.2 62.6L796.9 62.8Q797.4 62.9 797.8 63.1Q798.2 63.3 798.5 63.5Q798.8 63.8 798.9 64.1Q799.1 64.5 799.1 64.9L799.1 64.9Q799.1 65.6 798.7 66.1Q798.4 66.6 797.8 66.8Q797.2 67.1 796.3 67.1Z "/></g><mask id="satori_om-id-2-1-1"><rect x="455" y="78" width="355" height="17" fill="#fff" mask="url(#satori_om-id)"/></mask><g mask="url(#satori_om-id)" clip-path="url(#satori_cp-id)"><path fill="rgba(255,215,160,0.6)" d="M457.0 90L456.0 90L456.0 82.0L457.2 82.0L460.4 87.1Q460.6 87.3 460.7 87.6Q460.9 87.9 461.1 88.3L461.1 88.3Q461.3 88.5 461.4 88.8L461.4 88.8Q461.3 88.5 461.3 88.3L461.3 88.3Q461.3 87.9 461.3 87.5Q461.3 87.2 461.3 86.9L461.3 86.9L461.3 82.0L462.3 82.0L462.3 90L461.1 90L458.2 85.4Q458.0 85.1 457.8 84.8Q457.6 84.5 457.3 84.0L457.3 84.0Q457.2 83.7 456.9 83.2L456.9 83.2Q456.9 83.6 456.9 84.0L456.9 84.0Q457.0 84.5 457.0 84.8Q457.0 85.2 457.0 85.4L457.0 85.4L457.0 90ZM466.6 90.1L466.6 90.1Q465.8 90.1 465.1 89.7Q464.5 89.4 464.2 88.7Q463.8 88.0 463.8 87.0L463.8 87.0Q463.8 86.1 464.2 85.4Q464.5 84.7 465.1 84.3Q465.8 83.9 466.6 83.9L466.6 83.9Q467.4 83.9 468.0 84.3Q468.6 84.7 469.0 85.4Q469.3 86.1 469.3 87.0L469.3 87.0Q469.3 88.0 469.0 88.7Q468.6 89.4 468.0 89.7Q467.4 90.1 466.6 90.1ZM466.6 89.3L466.6 89.3Q467.2 89.3 467.6 89.0Q468.0 88.6 468.2 88.1Q468.3 87.6 468.3 87.0L468.3 87.0Q468.3 86.4 468.2 85.9Q468.0 85.4 467.6 85.1Q467.2 84.8 466.6 84.8L466.6 84.8Q466.0 84.8 465.6 85.1Q465.2 85.4 465.0 85.9Q464.8 86.4 464.8 87.0L464.8 87.0Q464.8 87.6 465.0 88.1Q465.2 88.6 465.6 89.0Q466.0 89.3 466.6 89.3Z M476.1 90.1L476.1 90.1Q475.3 90.1 474.8 89.7Q474.2 89.4 473.9 88.7Q473.5 88.0 473.5 87.0L473.5 87.0Q473.5 86.1 473.9 85.4Q474.2 84.7 474.8 84.3Q475.3 83.9 476.1 83.9L476.1 83.9Q476.7 83.9 477.0 84.1Q477.4 84.3 477.5 84.6Q477.7 84.8 477.8 85.0L477.8 85.0L477.9 85.0L477.9 82.0L478.9 82.0L478.9 90L477.9 90L477.9 89.1L477.8 89.1Q477.7 89.2 477.5 89.5Q477.3 89.7 477.0 89.9Q476.7 90.1 476.1 90.1ZM476.2 89.3L476.2 89.3Q476.8 89.3 477.1 89.0Q477.5 88.7 477.7 88.2Q477.9 87.7 477.9 87.0L477.9 87.0Q477.9 86.3 477.7 85.8Q477.5 85.3 477.2 85.1Q476.8 84.8 476.2 84.8L476.2 84.8Q475.7 84.8 475.3 85.1Q474.9 85.4 474.7 85.9Q474.5 86.4 474.5 87.0L474.5 87.0Q474.5 87.6 474.7 88.1Q474.9 88.7 475.3 89.0Q475.7 89.3 476.2 89.3ZM483.1 90.1L483.1 90.1Q482.2 90.1 481.6 89.7Q481.0 89.4 480.6 88.7Q480.3 88.0 480.3 87.0Q480.3 86.1 480.6 85.4Q480.9 84.7 481.5 84.3Q482.2 83.9 483.0 83.9L483.0 83.9Q483.5 83.9 483.9 84.1Q484.4 84.2 484.8 84.6Q485.1 84.9 485.4 85.5Q485.6 86.1 485.6 86.9L485.6 86.9L485.6 87.3L481.2 87.3Q481.3 87.9 481.5 88.3L481.5 88.3Q481.7 88.8 482.1 89.0Q482.5 89.3 483.1 89.3L483.1 89.3Q483.4 89.3 483.7 89.2Q484.0 89.1 484.2 88.9Q484.4 88.7 484.6 88.3L484.6 88.3L485.5 88.6Q485.4 89.1 485.0 89.4Q484.7 89.7 484.2 89.9Q483.7 90.1 483.1 90.1ZM481.3 86.5L481.3 86.5L484.6 86.5Q484.6 86.1 484.4 85.8L484.4 85.8Q484.2 85.3 483.9 85.0Q483.5 84.8 483.0 84.8Q482.4 84.8 482.0 85.0Q481.7 85.3 481.5 85.7L481.5 85.7Q481.3 86.1 481.3 86.5ZM489.0 90.1L489.0 90.1Q488.4 90.1 487.9 89.9Q487.4 89.8 487.1 89.4Q486.8 89.1 486.7 88.5L486.7 88.5L487.6 88.3Q487.8 88.8 488.1 89.0Q488.5 89.3 489.0 89.3L489.0 89.3Q489.6 89.3 490.0 89.0Q490.4 88.7 490.4 88.4L490.4 88.4Q490.4 88.1 490.2 87.9Q489.9 87.6 489.5 87.5L489.5 87.5L488.5 87.3Q487.7 87.1 487.3 86.7Q486.9 86.3 486.9 85.7L486.9 85.7Q486.9 85.2 487.2 84.8Q487.5 84.4 488.0 84.1Q488.5 83.9 489.1 83.9L489.1 83.9Q489.7 83.9 490.2 84.1Q490.6 84.3 490.9 84.6Q491.1 84.9 491.3 85.4L491.3 85.4L490.4 85.6Q490.3 85.3 490.0 85.0Q489.7 84.7 489.1 84.7L489.1 84.7Q488.6 84.7 488.2 85.0Q487.9 85.2 487.9 85.6L487.9 85.6Q487.9 85.9 488.1 86.1Q488.3 86.3 488.9 86.5L488.9 86.5L489.8 86.7Q490.6 86.9 491.0 87.3Q491.4 87.7 491.4 88.3L491.4 88.3Q491.4 88.8 491.1 89.2Q490.8 89.7 490.3 89.9Q489.7 90.1 489.0 90.1ZM495.2 90.1L495.2 90.1Q494.4 90.1 493.8 89.7Q493.2 89.4 492.8 88.7Q492.5 88.0 492.5 87.0L492.5 87.0Q492.5 86.1 492.8 85.4Q493.2 84.7 493.8 84.3Q494.4 83.9 495.2 83.9L495.2 83.9Q495.7 83.9 496.0 84.0Q496.4 84.1 496.8 84.4Q497.1 84.6 497.3 84.9Q497.5 85.2 497.7 85.6L497.7 85.6L496.7 85.8Q496.7 85.6 496.5 85.4Q496.4 85.2 496.2 85.1Q496.0 84.9 495.8 84.9Q495.5 84.8 495.2 84.8L495.2 84.8Q494.6 84.8 494.2 85.1Q493.8 85.4 493.7 85.9Q493.5 86.4 493.5 87.0L493.5 87.0Q493.5 87.6 493.7 88.1Q493.8 88.6 494.2 89.0Q494.6 89.3 495.2 89.3L495.2 89.3Q495.5 89.3 495.8 89.2Q496.0 89.1 496.2 89.0Q496.4 88.8 496.6 88.6Q496.7 88.4 496.8 88.2L496.8 88.2L497.7 88.4Q497.6 88.8 497.3 89.1Q497.1 89.5 496.8 89.7Q496.4 89.9 496.1 90.0Q495.7 90.1 495.2 90.1ZM500.0 90L499.1 90L499.1 84.0L500.0 84.0L500.0 84.9L500.1 84.9Q500.2 84.5 500.7 84.2Q501.1 83.9 501.6 83.9L501.6 83.9Q501.7 83.9 501.9 83.9Q502.0 83.9 502.1 83.9L502.1 83.9L502.1 84.9Q502.1 84.9 501.9 84.9Q501.7 84.8 501.5 84.8L501.5 84.8Q501.1 84.8 500.8 85.0Q500.4 85.2 500.2 85.5Q500.0 85.8 500.0 86.2L500.0 86.2L500.0 90ZM504.2 90L503.2 90L503.2 84.0L504.2 84.0L504.2 90ZM503.7 83.0L503.7 83.0Q503.4 83.0 503.2 82.8Q503.0 82.6 503.0 82.4L503.0 82.4Q503.0 82.1 503.2 81.9Q503.4 81.7 503.7 81.7L503.7 81.7Q504.0 81.7 504.2 81.9Q504.4 82.1 504.4 82.4L504.4 82.4Q504.4 82.6 504.2 82.8Q504.0 83.0 503.7 83.0ZM506.8 92.2L505.9 92.2L505.9 84.0L506.8 84.0L506.8 85.0L506.9 85.0Q507.0 84.8 507.2 84.6Q507.4 84.3 507.7 84.1Q508.1 83.9 508.7 83.9L508.7 83.9Q509.4 83.9 510.0 84.3Q510.5 84.7 510.9 85.4Q511.2 86.1 511.2 87.0L511.2 87.0Q511.2 88.0 510.9 88.7Q510.6 89.4 510.0 89.7Q509.4 90.1 508.7 90.1L508.7 90.1Q508.1 90.1 507.7 89.9Q507.4 89.7 507.2 89.5Q507.0 89.2 506.9 89.1L506.9 89.1L506.8 89.1L506.8 92.2ZM508.5 89.3L508.5 89.3Q509.1 89.3 509.5 89.0Q509.8 88.7 510.0 88.1Q510.2 87.6 510.2 87.0L510.2 87.0Q510.2 86.4 510.0 85.9Q509.8 85.4 509.5 85.1Q509.1 84.8 508.5 84.8L508.5 84.8Q508.0 84.8 507.6 85.1Q507.2 85.3 507.0 85.8Q506.8 86.3 506.8 87.0L506.8 87.0Q506.8 87.7 507.0 88.2Q507.2 88.7 507.6 89.0Q508.0 89.3 508.5 89.3ZM513.7 84.0L515.0 84.0L515.0 84.8L513.7 84.8L513.7 88.4Q513.7 88.8 513.9 89.0Q514.1 89.2 514.4 89.2L514.4 89.2Q514.5 89.2 514.7 89.2Q514.8 89.2 514.9 89.2L514.9 89.2L515.1 90.0Q515.0 90.0 514.8 90.0Q514.6 90.1 514.4 90.1L514.4 90.1Q513.6 90.1 513.2 89.7Q512.8 89.3 512.8 88.5L512.8 88.5L512.8 84.8L511.9 84.8L511.9 84.0L512.8 84.0L512.8 82.6L513.7 82.6L513.7 84.0ZM517.2 90L516.2 90L516.2 84.0L517.2 84.0L517.2 90ZM516.7 83.0L516.7 83.0Q516.4 83.0 516.2 82.8Q516.0 82.6 516.0 82.4L516.0 82.4Q516.0 82.1 516.2 81.9Q516.4 81.7 516.7 81.7L516.7 81.7Q517.0 81.7 517.2 81.9Q517.4 82.1 517.4 82.4L517.4 82.4Q517.4 82.6 517.2 82.8Q517.0 83.0 516.7 83.0ZM521.3 90.1L521.3 90.1Q520.5 90.1 519.9 89.7Q519.3 89.4 518.9 88.7Q518.6 88.0 518.6 87.0L518.6 87.0Q518.6 86.1 518.9 85.4Q519.3 84.7 519.9 84.3Q520.5 83.9 521.3 83.9L521.3 83.9Q522.1 83.9 522.8 84.3Q523.4 84.7 523.7 85.4Q524.1 86.1 524.1 87.0L524.1 87.0Q524.1 88.0 523.7 88.7Q523.4 89.4 522.8 89.7Q522.1 90.1 521.3 90.1ZM521.3 89.3L521.3 89.3Q521.9 89.3 522.3 89.0Q522.7 88.6 522.9 88.1Q523.1 87.6 523.1 87.0L523.1 87.0Q523.1 86.4 522.9 85.9Q522.7 85.4 522.3 85.1Q521.9 84.8 521.3 84.8L521.3 84.8Q520.7 84.8 520.3 85.1Q519.9 85.4 519.7 85.9Q519.6 86.4 519.6 87.0L519.6 87.0Q519.6 87.6 519.7 88.1Q519.9 88.6 520.3 89.0Q520.7 89.3 521.3 89.3ZM526.4 86.4L526.4 86.4L526.4 90L525.5 90L525.5 84.0L526.4 84.0L526.4 85.1Q526.7 84.5 527.0 84.3L527.0 84.3Q527.6 83.9 528.2 83.9L528.2 83.9Q528.8 83.9 529.3 84.2Q529.8 84.4 530.0 84.9Q530.3 85.4 530.3 86.2L530.3 86.2L530.3 90L529.3 90L529.3 86.3Q529.3 85.6 528.9 85.2Q528.6 84.8 527.9 84.8L527.9 84.8Q527.5 84.8 527.2 85.0Q526.8 85.2 526.6 85.5Q526.4 85.9 526.4 86.4Z M536.0 92.2L535.1 92.2L535.1 84.0L536.0 84.0L536.0 85.0L536.1 85.0Q536.2 84.8 536.4 84.6Q536.6 84.3 536.9 84.1Q537.3 83.9 537.8 83.9L537.8 83.9Q538.6 83.9 539.2 84.3Q539.7 84.7 540.1 85.4Q540.4 86.1 540.4 87.0L540.4 87.0Q540.4 88.0 540.1 88.7Q539.7 89.4 539.2 89.7Q538.6 90.1 537.8 90.1L537.8 90.1Q537.3 90.1 536.9 89.9Q536.6 89.7 536.4 89.5Q536.2 89.2 536.1 89.1L536.1 89.1L536.0 89.1L536.0 92.2ZM537.7 89.3L537.7 89.3Q538.3 89.3 538.6 89.0Q539.0 88.7 539.2 88.1Q539.4 87.6 539.4 87.0L539.4 87.0Q539.4 86.4 539.2 85.9Q539.0 85.4 538.6 85.1Q538.3 84.8 537.7 84.8L537.7 84.8Q537.1 84.8 536.8 85.1Q536.4 85.3 536.2 85.8Q536.0 86.3 536.0 87.0L536.0 87.0Q536.0 87.7 536.2 88.2Q536.4 88.7 536.8 89.0Q537.2 89.3 537.7 89.3ZM542.8 90L541.8 90L541.8 84.0L542.7 84.0L542.7 84.9L542.8 84.9Q543.0 84.5 543.4 84.2Q543.8 83.9 544.3 83.9L544.3 83.9Q544.5 83.9 544.6 83.9Q544.8 83.9 544.8 83.9L544.8 83.9L544.8 84.9Q544.8 84.9 544.6 84.9Q544.5 84.8 544.3 84.8L544.3 84.8Q543.8 84.8 543.5 85.0Q543.1 85.2 543.0 85.5Q542.8 85.8 542.8 86.2L542.8 86.2L542.8 90ZM548.4 90.1L548.4 90.1Q547.6 90.1 546.9 89.7Q546.3 89.4 546.0 88.7Q545.6 88.0 545.6 87.0L545.6 87.0Q545.6 86.1 546.0 85.4Q546.3 84.7 546.9 84.3Q547.6 83.9 548.4 83.9L548.4 83.9Q549.2 83.9 549.8 84.3Q550.4 84.7 550.8 85.4Q551.1 86.1 551.1 87.0L551.1 87.0Q551.1 88.0 550.8 88.7Q550.4 89.4 549.8 89.7Q549.2 90.1 548.4 90.1ZM548.4 89.3L548.4 89.3Q549.0 89.3 549.4 89.0Q549.8 88.6 550.0 88.1Q550.1 87.6 550.1 87.0L550.1 87.0Q550.1 86.4 550.0 85.9Q549.8 85.4 549.4 85.1Q549.0 84.8 548.4 84.8L548.4 84.8Q547.8 84.8 547.4 85.1Q547.0 85.4 546.8 85.9Q546.6 86.4 546.6 87.0L546.6 87.0Q546.6 87.6 546.8 88.1Q547.0 88.6 547.4 89.0Q547.8 89.3 548.4 89.3ZM555.3 90L554.3 90L552.0 84.0L553.0 84.0L554.3 87.6Q554.5 88.1 554.7 88.7L554.7 88.7Q554.7 88.9 554.8 89.1L554.8 89.1Q554.8 88.9 554.9 88.7L554.9 88.7Q555.0 88.1 555.2 87.6L555.2 87.6L556.5 84.0L557.6 84.0L555.3 90ZM559.7 90L558.7 90L558.7 84.0L559.7 84.0L559.7 90ZM559.2 83.0L559.2 83.0Q558.9 83.0 558.7 82.8Q558.5 82.6 558.5 82.4L558.5 82.4Q558.5 82.1 558.7 81.9Q558.9 81.7 559.2 81.7L559.2 81.7Q559.5 81.7 559.7 81.9Q559.9 82.1 559.9 82.4L559.9 82.4Q559.9 82.6 559.7 82.8Q559.5 83.0 559.2 83.0ZM563.6 90.1L563.6 90.1Q562.9 90.1 562.3 89.7Q561.7 89.4 561.4 88.7Q561.1 88.0 561.1 87.0L561.1 87.0Q561.1 86.1 561.4 85.4Q561.7 84.7 562.3 84.3Q562.9 83.9 563.6 83.9L563.6 83.9Q564.2 83.9 564.6 84.1Q564.9 84.3 565.1 84.6Q565.3 84.8 565.4 85.0L565.4 85.0L565.4 85.0L565.4 82.0L566.4 82.0L566.4 90L565.5 90L565.5 89.1L565.4 89.1Q565.3 89.2 565.1 89.5Q564.9 89.7 564.5 89.9Q564.2 90.1 563.6 90.1ZM563.8 89.3L563.8 89.3Q564.3 89.3 564.7 89.0Q565.1 88.7 565.3 88.2Q565.5 87.7 565.5 87.0L565.5 87.0Q565.5 86.3 565.3 85.8Q565.1 85.3 564.7 85.1Q564.3 84.8 563.8 84.8L563.8 84.8Q563.2 84.8 562.8 85.1Q562.4 85.4 562.3 85.9Q562.1 86.4 562.1 87.0L562.1 87.0Q562.1 87.6 562.3 88.1Q562.4 88.7 562.8 89.0Q563.2 89.3 563.8 89.3ZM570.6 90.1L570.6 90.1Q569.8 90.1 569.1 89.7Q568.5 89.4 568.2 88.7Q567.8 88.0 567.8 87.0Q567.8 86.1 568.2 85.4Q568.5 84.7 569.1 84.3Q569.7 83.9 570.5 83.9L570.5 83.9Q571.0 83.9 571.5 84.1Q571.9 84.2 572.3 84.6Q572.7 84.9 572.9 85.5Q573.1 86.1 573.1 86.9L573.1 86.9L573.1 87.3L568.8 87.3Q568.8 87.9 569.0 88.3L569.0 88.3Q569.3 88.8 569.7 89.0Q570.1 89.3 570.6 89.3L570.6 89.3Q571.0 89.3 571.3 89.2Q571.6 89.1 571.8 88.9Q572.0 88.7 572.1 88.3L572.1 88.3L573.0 88.6Q572.9 89.1 572.6 89.4Q572.2 89.7 571.7 89.9Q571.3 90.1 570.6 90.1ZM568.8 86.5L568.8 86.5L572.2 86.5Q572.1 86.1 572.0 85.8L572.0 85.8Q571.8 85.3 571.4 85.0Q571.1 84.8 570.5 84.8Q570.0 84.8 569.6 85.0Q569.2 85.3 569.0 85.7L569.0 85.7Q568.8 86.1 568.8 86.5ZM576.8 90.1L576.8 90.1Q576.0 90.1 575.5 89.7Q574.9 89.4 574.6 88.7Q574.2 88.0 574.2 87.0L574.2 87.0Q574.2 86.1 574.6 85.4Q574.9 84.7 575.5 84.3Q576.0 83.9 576.8 83.9L576.8 83.9Q577.4 83.9 577.7 84.1Q578.1 84.3 578.2 84.6Q578.4 84.8 578.5 85.0L578.5 85.0L578.6 85.0L578.6 82.0L579.6 82.0L579.6 90L578.6 90L578.6 89.1L578.5 89.1Q578.4 89.2 578.2 89.5Q578.0 89.7 577.7 89.9Q577.3 90.1 576.8 90.1ZM576.9 89.3L576.9 89.3Q577.5 89.3 577.8 89.0Q578.2 88.7 578.4 88.2Q578.6 87.7 578.6 87.0L578.6 87.0Q578.6 86.3 578.4 85.8Q578.2 85.3 577.8 85.1Q577.5 84.8 576.9 84.8L576.9 84.8Q576.3 84.8 576.0 85.1Q575.6 85.4 575.4 85.9Q575.2 86.4 575.2 87.0L575.2 87.0Q575.2 87.6 575.4 88.1Q575.6 88.7 576.0 89.0Q576.4 89.3 576.9 89.3ZM582.0 90.1L582.0 90.1Q581.7 90.1 581.5 89.9Q581.3 89.6 581.3 89.3L581.3 89.3Q581.3 89.0 581.5 88.8Q581.7 88.6 582.0 88.6L582.0 88.6Q582.3 88.6 582.5 88.8Q582.7 89.0 582.7 89.3L582.7 89.3Q582.7 89.6 582.5 89.9Q582.3 90.1 582.0 90.1Z "/></g></svg>