<!-- Generated by readme-aura https://github.com/collectioneur/readme-aura -->
<svg width="860" height="140" viewBox="0 0 860 140" xmlns="http://www.w3.org/2000/svg"><defs><clipPath id="satori_bc-id"><path x="0" y="0" width="860" height="140" d="M16,0 h828 a16,16 0 0 1 16,16 v108 a16,16 0 0 1 -16,16 h-828 a16,16 0 0 1 -16,-16 v-108 a16,16 0 0 1 16,-16"/></clipPath></defs><clipPath id="satori_cp-id"><path x="0" y="0" width="860" height="140" d="M16,0 h828 a16,16 0 0 1 16,16 v108 a16,16 0 0 1 -16,16 h-828 a16,16 0 0 1 -16,-16 v-108 a16,16 0 0 1 16,-16"/></clipPath><mask id="satori_om-id"><rect x="1" y="1" width="858" height="138" fill="#fff"/><path width="860" height="140" fill="none" stroke="#000" stroke-width="2" d="M4.686,4.686 A16,16 0 0 1 16,0 h828 a16,16 0 0 1 16,16 v108 a16,16 0 0 1 -16,16 h-828 a16,16 0 0 1 -16,-16 v-108 A16,16 0 0 1 4.686,4.686"/></mask><path x="0" y="0" width="860" height="140" fill="#08080c" d="M16,0 h828 a16,16 0 0 1 16,16 v108 a16,16 0 0 1 -16,16 h-828 a16,16 0 0 1 -16,-16 v-108 a16,16 0 0 1 16,-16"/><path width="860" height="140" clip-path="url(#satori_bc-id)" fill="none" stroke="rgba(110,80,220,0.18)" stroke-width="2" d="M4.686,4.686 A16,16 0 0 1 16,0 h828 a16,16 0 0 1 16,16 v108 a16,16 0 0 1 -16,16 h-828 a16,16 0 0 1 -16,-16 v-108 A16,16 0 0 1 4.686,4.686"/><clipPath id="satori_cp-id-0" clip-path="url(#satori_cp-id)"><rect x="1" y="1" width="860" height="140"/></clipPath><mask id="satori_om-id-0"><rect x="1" y="1" width="860" height="140" fill="#fff" mask="url(#satori_om-id)"/></mask><svg x="1" y="1" width="860" height="140" preserveAspectRatio="none" clip-path="url(#satori_cp-id-0)" mask="url(#satori_om-id-0)"><defs><radialGradient id="g1" cx="50%" cy="50%" r="50%"><stop offset="0%" stop-color="rgba(110,20,210,0.65)"></stop><stop offset="45%" stop-color="rgba(80,15,170,0.28)"></stop><stop offset="70%" stop-color="rgba(80,15,170,0)"></stop></radialGradient><radialGradient id="g2" cx="50%" cy="50%" r="50%"><stop offset="0%" stop-color="rgba(40,70,255,0.55)"></stop><stop offset="45%" stop-color="rgba(20,50,200,0.22)"></stop><stop offset="70%" stop-color="rgba(20,50,200,0)"></stop></radialGradient><radialGradient id="g3" cx="50%" cy="50%" r="50%"><stop offset="0%" stop-color="rgba(0,140,255,0.42)"></stop><stop offset="70%" stop-color="rgba(0,140,255,0)"></stop></radialGradient><radialGradient id="g4" cx="50%" cy="50%" r="50%"><stop offset="0%" stop-color="rgba(0,195,235,0.30)"></stop><stop offset="70%" stop-color="rgba(0,195,235,0)"></stop></radialGradient><radialGradient id="g5" cx="50%" cy="50%" r="50%"><stop offset="0%" stop-color="rgba(100,30,210,0.40)"></stop><stop offset="70%" stop-color="rgba(100,30,210,0)"></stop></radialGradient></defs><ellipse id="glow-1" cx="710" cy="150" rx="210" ry="150" fill="url(#g1)"></ellipse><ellipse id="glow-2" cx="550" cy="140" rx="190" ry="140" fill="url(#g2)"></ellipse><ellipse id="glow-3" cx="400" cy="130" rx="170" ry="130" fill="url(#g3)"></ellipse><ellipse id="glow-4" cx="250" cy="140" rx="150" ry="120" fill="url(#g4)"></ellipse><ellipse id="glow-5" cx="100" cy="150" rx="130" ry="110" fill="url(#g5)"></ellipse><style>

         @keyframes float-slow {
           0%, 100% { transform: translateX(0px); opacity: 0.8; }
           50% { transform: translateX(350px); opacity: 1.2; }
         }
         @keyframes float-medium {
           0%, 100% { transform: translateX(0px); opacity: 0.7; }
           50% { transform: translateX(-250px); opacity: 1.1; }
         }
         @keyframes float-fast {
           0%, 100% { transform: translateX(0px); opacity: 0.9; }
           50% { transform: translateX(200px); opacity: 0.6; }
         }
         @keyframes float-diagonal {
           0%, 100% { transform: translate(0px, 0px); opacity: 0.75; }
           50% { transform: translate(120px, 30px); opacity: 1.0; }
         }
         @keyframes float-wave {
           0%, 100% { transform: translateX(0px); opacity: 0.65; }
           33% { transform: translateX(-160px); opacity: 0.9; }
           66% { transform: translateX(80px); opacity: 1.0; }
         }
         @keyframes float-pulse {
           0%, 100% { transform: scale(1); opacity: 0.8; }
           50% { transform: scale(1.3); opacity: 0.4; }
         }
         #glow-1 { animation: float-slow 8s ease-in-out infinite; }
         #glow-2 { animation: float-medium 12s ease-in-out infinite; }
         #glow-3 { animation: float-fast 9s ease-in-out infinite; }
         #glow-4 { animation: float-diagonal 10s ease-in-out infinite; }
         #glow-5 { animation: float-wave 14s ease-in-out infinite; }
       
</style>
</svg><mask id="satori_om-id-0-0"><rect x="1" y="1" width="0" height="140" fill="#fff" mask="url(#satori_om-id)"/></mask><mask id="satori_om-id-0-0-0"><rect x="1" y="1" width="0" height="140" fill="#fff" mask="url(#satori_om-id)"/></mask><mask id="satori_om-id-0-0-0-0"><rect x="1" y="1" width="0" height="140" fill="#fff" mask="url(#satori_om-id)"/></mask><mask id="satori_om-id-0-0-0-1"><rect x="1" y="1" width="0" height="140" fill="#fff" mask="url(#satori_om-id)"/></mask><mask id="satori_om-id-0-0-0-2"><rect x="1" y="1" width="0" height="140" fill="#fff" mask="url(#satori_om-id)"/></mask><mask id="satori_om-id-0-0-1"><rect x="1" y="1" width="0" height="140" fill="#fff" mask="url(#satori_om-id)"/></mask><mask id="satori_om-id-0-0-1-0"><rect x="1" y="1" width="0" height="140" fill="#fff" mask="url(#satori_om-id)"/></mask><mask id="satori_om-id-0-0-1-1"><rect x="1" y="1" width="0" height="140" fill="#fff" mask="url(#satori_om-id)"/></mask><mask id="satori_om-id-0-0-1-2"><rect x="1" y="1" width="0" height="140" fill="#fff" mask="url(#satori_om-id)"/></mask><mask id="satori_om-id-0-0-2"><rect x="1" y="1" width="0" height="140" fill="#fff" mask="url(#satori_om-id)"/></mask><mask id="satori_om-id-0-0-2-0"><rect x="1" y="1" width="0" height="140" fill="#fff" mask="url(#satori_om-id)"/></mask><mask id="satori_om-id-0-0-2-1"><rect x="1" y="1" width="0" height="140" fill="#fff" mask="url(#satori_om-id)"/></mask><mask id="satori_om-id-0-0-3"><rect x="1" y="1" width="0" height="140" fill="#fff" mask="url(#satori_om-id)"/></mask><mask id="satori_om-id-0-0-3-0"><rect x="1" y="1" width="0" height="140" fill="#fff" mask="url(#satori_om-id)"/></mask><mask id="satori_om-id-0-0-3-1"><rect x="1" y="1" width="0" height="140" fill="#fff" mask="url(#satori_om-id)"/></mask><mask id="satori_om-id-0-0-4"><rect x="1" y="1" width="0" height="140" fill="#fff" mask="url(#satori_om-id)"/></mask><mask id="satori_om-id-0-0-4-0"><rect x="1" y="1" width="0" height="140" fill="#fff" mask="url(#satori_om-id)"/></mask><mask id="satori_om-id-0-0-4-1"><rect x="1" y="1" width="0" height="140" fill="#fff" mask="url(#satori_om-id)"/></mask><mask id="satori_om-id-0-1"><rect x="1" y="1" width="0" height="140" fill="#fff" mask="url(#satori_om-id)"/></mask><mask id="satori_om-id-0-2"><rect x="1" y="1" width="0" height="140" fill="#fff" mask="url(#satori_om-id)"/></mask><mask id="satori_om-id-0-3"><rect x="1" y="1" width="0" height="140" fill="#fff" mask="url(#satori_om-id)"/></mask><mask id="satori_om-id-0-4"><rect x="1" y="1" width="0" height="140" fill="#fff" mask="url(#satori_om-id)"/></mask><mask id="satori_om-id-0-5"><rect x="1" y="1" width="0" height="140" fill="#fff" mask="url(#satori_om-id)"/></mask><defs><clipPath id="satori_bc-id-1" clip-path="url(#satori_cp-id)"><rect x="1" y="30" width="269" height="80"/></clipPath></defs><mask id="satori_om-id-1"><rect x="1" y="30" width="268" height="80" fill="#fff" mask="url(#satori_om-id)"/><path width="269" height="80" fill="none" stroke="#000" stroke-width="2" d="M270,30 A0,0 0 0 1 270,30 v80 A0,0 0 0 1 270,110"/></mask><path width="269" height="80" clip-path="url(#satori_bc-id-1)" fill="none" stroke="rgba(255,255,255,0.06)" stroke-width="2" d="M270,30 A0,0 0 0 1 270,30 v80 A0,0 0 0 1 270,110"/><mask id="satori_om-id-1-0"><rect x="119" y="46" width="33" height="30" fill="#fff" mask="url(#satori_om-id)"/></mask><g mask="url(#satori_om-id)" clip-path="url(#satori_cp-id)"><path fill="#a78bfa" d="M125.2 50.2L130.0 50.2L130.0 72L125.5 72L125.5 54.1L125.4 54.1L120.4 57.7L120.4 53.6L125.2 50.2ZM142.0 72.3L142.0 72.3Q140.3 72.3 138.7 71.7Q137.2 71.2 136.0 69.9Q134.7 68.7 134.0 66.7Q133.3 64.6 133.3 61.6L133.3 61.6Q133.3 58.8 133.9 56.7Q134.5 54.5 135.7 53.0Q136.9 51.5 138.5 50.7Q140.1 49.9 142.1 49.9L142.1 49.9Q144.3 49.9 145.9 50.7Q147.6 51.6 148.6 53.0Q149.6 54.4 149.8 56.2L149.8 56.2L145.4 56.2Q145.1 55.1 144.3 54.4Q143.4 53.7 142.1 53.7L142.1 53.7Q140.7 53.7 139.7 54.6Q138.7 55.4 138.2 57.0Q137.7 58.6 137.7 60.7L137.7 60.7L137.9 60.7Q138.4 59.8 139.2 59.1Q140.0 58.4 141.1 58.0Q142.1 57.7 143.3 57.7L143.3 57.7Q145.3 57.7 146.8 58.6Q148.3 59.5 149.2 61.1Q150.1 62.7 150.1 64.7L150.1 64.7Q150.1 66.9 149.0 68.6Q148.0 70.3 146.2 71.3Q144.4 72.3 142.0 72.3ZM141.9 68.7L141.9 68.7Q143.0 68.7 143.9 68.2Q144.7 67.7 145.2 66.8Q145.7 65.9 145.7 64.8L145.7 64.8Q145.7 63.7 145.2 62.8Q144.7 62.0 143.9 61.4Q143.0 60.9 142.0 60.9L142.0 60.9Q141.1 60.9 140.5 61.2Q139.8 61.5 139.3 62.1Q138.7 62.6 138.4 63.3Q138.2 64.0 138.2 64.8L138.2 64.8Q138.2 65.9 138.6 66.8Q139.1 67.7 140.0 68.2Q140.8 68.7 141.9 68.7Z "/></g><mask id="satori_om-id-1-1"><rect x="113" y="81" width="45" height="13" fill="#fff" mask="url(#satori_om-id)"/></mask><g mask="url(#satori_om-id)" clip-path="url(#satori_cp-id)"><path fill="rgba(200,195,225,0.45)" d="M115.4 92L113.7 92L113.7 84.0L116.8 84.0Q117.8 84.0 118.4 84.3Q119.0 84.6 119.4 85.2Q119.7 85.8 119.7 86.6Q119.7 87.4 119.4 88.0Q119.0 88.5 118.4 88.8L118.4 88.8Q118.3 88.9 118.3 88.9L118.3 88.9L120.0 92L118.2 92L116.6 89.1L115.4 89.1L115.4 92ZM115.4 85.4L115.4 87.8L116.5 87.8Q117.0 87.8 117.4 87.7Q117.7 87.5 117.9 87.3Q118.0 87.0 118.0 86.6L118.0 86.6Q118.0 86.2 117.9 85.9Q117.7 85.6 117.4 85.5Q117.0 85.4 116.5 85.4L116.5 85.4L115.4 85.4ZM127.8 92L122.4 92L122.4 84.0L127.8 84.0L127.8 85.4L124.1 85.4L124.1 87.3L127.5 87.3L127.5 88.6L124.1 88.6L124.1 90.6L127.8 90.6L127.8 92ZM132.3 92L130.6 92L130.6 84.0L133.8 84.0Q134.7 84.0 135.3 84.3Q135.9 84.7 136.3 85.3Q136.6 85.9 136.6 86.7L136.6 86.7Q136.6 87.5 136.3 88.1Q135.9 88.7 135.3 89.0Q134.6 89.4 133.7 89.4L133.7 89.4L132.3 89.4L132.3 92ZM132.3 85.4L132.3 88.1L133.5 88.1Q134.0 88.1 134.3 87.9Q134.6 87.7 134.8 87.4Q134.9 87.1 134.9 86.7Q134.9 86.3 134.8 86.0Q134.6 85.7 134.3 85.5Q134.0 85.4 133.4 85.4L133.4 85.4L132.3 85.4ZM142.8 92.1L142.8 92.1Q141.7 92.1 140.9 91.6Q140.0 91.1 139.5 90.2Q139.0 89.3 139.0 88.0L139.0 88.0Q139.0 86.7 139.5 85.8Q140.0 84.9 140.9 84.4Q141.7 83.9 142.8 83.9L142.8 83.9Q143.8 83.9 144.7 84.4Q145.5 84.9 146.0 85.8Q146.5 86.7 146.5 88.0L146.5 88.0Q146.5 89.3 146.0 90.2Q145.5 91.1 144.7 91.6Q143.8 92.1 142.8 92.1ZM142.8 90.7L142.8 90.7Q143.4 90.7 143.9 90.3Q144.3 90.0 144.6 89.5Q144.8 88.9 144.8 88.0L144.8 88.0Q144.8 87.1 144.6 86.5Q144.3 86.0 143.9 85.6Q143.4 85.3 142.8 85.3L142.8 85.3Q142.2 85.3 141.7 85.7Q141.2 86.0 141.0 86.6Q140.7 87.1 140.7 88.0L140.7 88.0Q140.7 88.9 141.0 89.4Q141.2 90.0 141.7 90.3Q142.2 90.7 142.8 90.7ZM152.2 92.1L152.2 92.1Q151.2 92.1 150.5 91.8Q149.8 91.5 149.4 90.9Q149.0 90.4 149.0 89.5L149.0 89.5L150.6 89.5Q150.6 89.9 150.8 90.2Q151.0 90.5 151.4 90.6Q151.7 90.7 152.2 90.7L152.2 90.7Q152.6 90.7 152.9 90.6Q153.2 90.5 153.4 90.2Q153.6 90.0 153.6 89.7L153.6 89.7Q153.6 89.4 153.4 89.3Q153.3 89.1 153.0 88.9Q152.7 88.8 152.2 88.7L152.2 88.7L151.3 88.5Q150.3 88.2 149.8 87.7Q149.2 87.2 149.2 86.3L149.2 86.3Q149.2 85.6 149.6 85.0Q150.0 84.5 150.6 84.2Q151.3 83.9 152.2 83.9L152.2 83.9Q153.1 83.9 153.7 84.2Q154.4 84.5 154.8 85.0Q155.1 85.6 155.1 86.3L155.1 86.3L153.6 86.3Q153.5 85.8 153.2 85.5Q152.8 85.3 152.2 85.3L152.2 85.3Q151.8 85.3 151.5 85.4Q151.2 85.5 151.0 85.7Q150.9 85.9 150.9 86.2L150.9 86.2Q150.9 86.5 151.0 86.7Q151.2 86.9 151.5 87.0Q151.8 87.1 152.1 87.2L152.1 87.2L152.9 87.4Q153.4 87.5 153.8 87.7Q154.2 87.9 154.6 88.2Q154.9 88.4 155.1 88.8Q155.3 89.2 155.3 89.7L155.3 89.7Q155.3 90.4 154.9 91.0Q154.5 91.5 153.8 91.8Q153.1 92.1 152.2 92.1Z "/></g><defs><clipPath id="satori_bc-id-2" clip-path="url(#satori_cp-id)"><rect x="270" y="30" width="269" height="80"/></clipPath></defs><mask id="satori_om-id-2"><rect x="270" y="30" width="268" height="80" fill="#fff" mask="url(#satori_om-id)"/><path width="269" height="80" fill="none" stroke="#000" stroke-width="2" d="M539,30 A0,0 0 0 1 539,30 v80 A0,0 0 0 1 539,110"/></mask><path width="269" height="80" clip-path="url(#satori_bc-id-2)" fill="none" stroke="rgba(255,255,255,0.06)" stroke-width="2" d="M539,30 A0,0 0 0 1 539,30 v80 A0,0 0 0 1 539,110"/><mask id="satori_om-id-2-0"><rect x="394" y="46" width="21" height="30" fill="#fff" mask="url(#satori_om-id)"/></mask><g mask="url(#satori_om-id)" clip-path="url(#satori_cp-id)"><path fill="#60a5fa" d="M405.9 68.1L395.5 68.1L395.5 64.6L404.6 50.2L410.2 50.2L410.2 64.5L412.9 64.5L412.9 68.1L410.2 68.1L410.2 72L405.9 72L405.9 68.1ZM400.0 64.5L406.0 64.5L406.0 55.1L405.8 55.1L400.0 64.3L400.0 64.5Z "/></g><mask id="satori_om-id-2-1"><rect x="382" y="81" width="45" height="13" fill="#fff" mask="url(#satori_om-id)"/></mask><g mask="url(#satori_om-id)" clip-path="url(#satori_cp-id)"><path fill="rgba(200,195,225,0.45)" d="M385.7 92.1L385.7 92.1Q384.7 92.1 384.0 91.8Q383.3 91.5 382.9 90.9Q382.5 90.4 382.5 89.5L382.5 89.5L384.1 89.5Q384.1 89.9 384.3 90.2Q384.5 90.5 384.9 90.6Q385.2 90.7 385.6 90.7L385.6 90.7Q386.1 90.7 386.4 90.6Q386.7 90.5 386.9 90.2Q387.1 90.0 387.1 89.7L387.1 89.7Q387.1 89.4 386.9 89.3Q386.8 89.1 386.5 88.9Q386.2 88.8 385.7 88.7L385.7 88.7L384.8 88.5Q383.8 88.2 383.2 87.7Q382.7 87.2 382.7 86.3L382.7 86.3Q382.7 85.6 383.1 85.0Q383.5 84.5 384.1 84.2Q384.8 83.9 385.7 83.9L385.7 83.9Q386.6 83.9 387.2 84.2Q387.9 84.5 388.3 85.0Q388.6 85.6 388.6 86.3L388.6 86.3L387.1 86.3Q387.0 85.8 386.6 85.5Q386.3 85.3 385.7 85.3L385.7 85.3Q385.2 85.3 385.0 85.4Q384.7 85.5 384.5 85.7Q384.4 85.9 384.4 86.2L384.4 86.2Q384.4 86.5 384.5 86.7Q384.7 86.9 385.0 87.0Q385.3 87.1 385.6 87.2L385.6 87.2L386.4 87.4Q386.9 87.5 387.3 87.7Q387.7 87.9 388.1 88.2Q388.4 88.4 388.6 88.8Q388.7 89.2 388.7 89.7L388.7 89.7Q388.7 90.4 388.4 91.0Q388.0 91.5 387.3 91.8Q386.6 92.1 385.7 92.1ZM393.6 85.4L391.1 85.4L391.1 84.0L397.6 84.0L397.6 85.4L395.2 85.4L395.2 92L393.6 92L393.6 85.4ZM401.6 92L399.8 92L402.5 84.0L404.7 84.0L407.5 92L405.7 92L405.1 90.1L402.2 90.1L401.6 92ZM402.6 88.9L404.6 88.9L404.4 88.1Q404.2 87.4 403.9 86.5L403.9 86.5Q403.8 85.9 403.6 85.3L403.6 85.3Q403.4 85.9 403.3 86.5L403.3 86.5Q403.1 87.4 402.9 88.1L402.9 88.1L402.6 88.9ZM411.6 92L410.0 92L410.0 84.0L413.1 84.0Q414.0 84.0 414.7 84.3Q415.3 84.6 415.6 85.2Q416.0 85.8 416.0 86.6Q416.0 87.4 415.6 88.0Q415.3 88.5 414.6 88.8L414.6 88.8Q414.6 88.9 414.5 88.9L414.5 88.9L416.3 92L414.4 92L412.9 89.1L411.6 89.1L411.6 92ZM411.6 85.4L411.6 87.8L412.8 87.8Q413.3 87.8 413.6 87.7Q414.0 87.5 414.1 87.3Q414.3 87.0 414.3 86.6L414.3 86.6Q414.3 86.2 414.1 85.9Q414.0 85.6 413.6 85.5Q413.3 85.4 412.8 85.4L412.8 85.4L411.6 85.4ZM421.6 92.1L421.6 92.1Q420.7 92.1 420.0 91.8Q419.3 91.5 418.9 90.9Q418.5 90.4 418.4 89.5L418.4 89.5L420.0 89.5Q420.1 89.9 420.3 90.2Q420.5 90.5 420.8 90.6Q421.2 90.7 421.6 90.7L421.6 90.7Q422.1 90.7 422.4 90.6Q422.7 90.5 422.9 90.2Q423.1 90.0 423.1 89.7L423.1 89.7Q423.1 89.4 422.9 89.3Q422.8 89.1 422.4 88.9Q422.1 88.8 421.7 88.7L421.7 88.7L420.8 88.5Q419.8 88.2 419.2 87.7Q418.7 87.2 418.7 86.3L418.7 86.3Q418.7 85.6 419.0 85.0Q419.4 84.5 420.1 84.2Q420.8 83.9 421.7 83.9L421.7 83.9Q422.5 83.9 423.2 84.2Q423.9 84.5 424.2 85.0Q424.6 85.6 424.6 86.3L424.6 86.3L423.0 86.3Q423.0 85.8 422.6 85.5Q422.3 85.3 421.6 85.3L421.6 85.3Q421.2 85.3 420.9 85.4Q420.6 85.5 420.5 85.7Q420.3 85.9 420.3 86.2L420.3 86.2Q420.3 86.5 420.5 86.7Q420.7 86.9 421.0 87.0Q421.3 87.1 421.6 87.2L421.6 87.2L422.3 87.4Q422.8 87.5 423.3 87.7Q423.7 87.9 424.0 88.2Q424.4 88.4 424.5 88.8Q424.7 89.2 424.7 89.7L424.7 89.7Q424.7 90.4 424.4 91.0Q424.0 91.5 423.3 91.8Q422.6 92.1 421.6 92.1Z "/></g><mask id="satori_om-id-3"><rect x="539" y="30" width="320" height="80" fill="#fff" mask="url(#satori_om-id)"/></mask><mask id="satori_om-id-3-0"><rect x="651" y="46" width="97" height="30" fill="#fff" mask="url(#satori_om-id)"/></mask><g mask="url(#satori_om-id)" clip-path="url(#satori_cp-id)"><path fill="#f59e0b" d="M668.3 72L652.8 72L652.8 68.8L660.6 61.5Q661.5 60.6 662.2 59.8Q662.9 59.0 663.3 58.2Q663.6 57.5 663.6 56.6L663.6 56.6Q663.6 55.6 663.2 54.9Q662.7 54.2 662.0 53.8Q661.2 53.5 660.2 53.5L660.2 53.5Q659.2 53.5 658.5 53.9Q657.7 54.3 657.3 55.0Q656.9 55.8 656.9 56.9L656.9 56.9L652.6 56.9Q652.6 54.7 653.6 53.2Q654.6 51.6 656.3 50.7Q658.0 49.9 660.3 49.9L660.3 49.9Q662.6 49.9 664.3 50.7Q666.0 51.5 667.0 53.0Q668.0 54.4 668.0 56.3L668.0 56.3Q668.0 57.5 667.5 58.7Q667.0 59.9 665.8 61.4Q664.6 62.9 662.3 64.9L662.3 64.9L659.0 68.2L659.0 68.3L668.3 68.3L668.3 72ZM679.1 72.3L679.1 72.3Q676.9 72.3 675.1 71.5Q673.4 70.6 672.3 69.2Q671.3 67.7 671.3 65.9L671.3 65.9L675.6 65.9Q675.7 66.7 676.1 67.4Q676.6 68.0 677.4 68.4Q678.2 68.7 679.1 68.7L679.1 68.7Q680.2 68.7 681.0 68.3Q681.9 67.8 682.4 66.9Q682.8 66.0 682.8 64.9L682.8 64.9Q682.8 63.7 682.4 62.8Q681.9 61.9 681.0 61.4Q680.2 60.9 679.0 60.9L679.0 60.9Q678.0 60.9 677.1 61.3Q676.2 61.7 675.7 62.3L675.7 62.3L671.7 61.6L672.8 50.2L686.0 50.2L686.0 53.9L676.5 53.9L675.9 59.4L676.0 59.4Q676.6 58.6 677.8 58.1Q678.9 57.6 680.3 57.6L680.3 57.6Q681.8 57.6 683.1 58.1Q684.3 58.6 685.2 59.6Q686.2 60.5 686.7 61.9Q687.2 63.2 687.2 64.7L687.2 64.7Q687.2 66.9 686.2 68.6Q685.1 70.3 683.3 71.3Q681.5 72.3 679.1 72.3ZM698.7 72.3L698.7 72.3Q695.9 72.3 694.0 71.0Q692.0 69.6 691.0 67.1Q689.9 64.6 689.9 61.1L689.9 61.1Q689.9 57.6 691.0 55.1Q692.0 52.5 694.0 51.2Q695.9 49.9 698.7 49.9L698.7 49.9Q701.4 49.9 703.4 51.2Q705.3 52.6 706.4 55.1Q707.4 57.6 707.4 61.1L707.4 61.1Q707.4 64.6 706.4 67.1Q705.3 69.6 703.4 71.0Q701.4 72.3 698.7 72.3ZM698.7 68.6L698.7 68.6Q700.0 68.6 700.9 67.7Q701.9 66.8 702.4 65.2Q702.9 63.5 702.9 61.1L702.9 61.1Q702.9 58.7 702.4 57.0Q701.9 55.3 700.9 54.5Q700.0 53.6 698.7 53.6L698.7 53.6Q697.3 53.6 696.4 54.5Q695.5 55.3 695.0 57.0Q694.5 58.7 694.5 61.1L694.5 61.1Q694.5 63.5 695.0 65.2Q695.5 66.8 696.4 67.7Q697.3 68.6 698.7 68.6ZM718.4 72.3L718.4 72.3Q716.1 72.3 714.2 71.5Q712.4 70.7 711.3 69.2Q710.3 67.8 710.2 65.9L710.2 65.9L714.7 65.9Q714.8 66.7 715.3 67.3Q715.8 67.9 716.6 68.3Q717.4 68.6 718.5 68.6L718.5 68.6Q719.5 68.6 720.4 68.2Q721.2 67.8 721.6 67.2Q722.1 66.5 722.1 65.6L722.1 65.6Q722.1 64.7 721.6 64.0Q721.1 63.3 720.2 62.9Q719.3 62.5 718.0 62.5L718.0 62.5L716.0 62.5L716.0 59.2L718.0 59.2Q719.1 59.2 719.9 58.8Q720.7 58.5 721.2 57.8Q721.6 57.2 721.6 56.3L721.6 56.3Q721.6 55.4 721.3 54.8Q720.9 54.2 720.1 53.8Q719.4 53.5 718.5 53.5L718.5 53.5Q717.5 53.5 716.7 53.8Q716.0 54.1 715.5 54.8Q715.0 55.4 715.0 56.2L715.0 56.2L710.7 56.2Q710.7 54.4 711.7 52.9Q712.8 51.5 714.5 50.7Q716.3 49.9 718.5 49.9L718.5 49.9Q720.8 49.9 722.4 50.7Q724.1 51.5 725.1 52.9Q726.0 54.3 726.0 56.0L726.0 56.0Q726.0 57.8 724.9 59.1Q723.7 60.3 721.9 60.6L721.9 60.6L721.9 60.8Q723.5 61.0 724.6 61.7Q725.7 62.4 726.2 63.5Q726.8 64.5 726.8 65.9L726.8 65.9Q726.8 67.7 725.7 69.2Q724.6 70.6 722.8 71.5Q720.9 72.3 718.4 72.3ZM745.4 72L730.0 72L730.0 68.8L737.7 61.5Q738.7 60.6 739.4 59.8Q740.1 59.0 740.4 58.2Q740.8 57.5 740.8 56.6L740.8 56.6Q740.8 55.6 740.3 54.9Q739.9 54.2 739.1 53.8Q738.4 53.5 737.4 53.5L737.4 53.5Q736.4 53.5 735.6 53.9Q734.9 54.3 734.5 55.0Q734.0 55.8 734.0 56.9L734.0 56.9L729.8 56.9Q729.8 54.7 730.7 53.2Q731.7 51.6 733.4 50.7Q735.2 49.9 737.4 49.9L737.4 49.9Q739.7 49.9 741.5 50.7Q743.2 51.5 744.2 53.0Q745.1 54.4 745.1 56.3L745.1 56.3Q745.1 57.5 744.6 58.7Q744.2 59.9 742.9 61.4Q741.7 62.9 739.5 64.9L739.5 64.9L736.2 68.2L736.2 68.3L745.4 68.3L745.4 72Z "/></g><mask id="satori_om-id-3-1"><rect x="666" y="81" width="66" height="13" fill="#fff" mask="url(#satori_om-id)"/></mask><g mask="url(#satori_om-id)" clip-path="url(#satori_cp-id)"><path fill="rgba(200,195,225,0.45)" d="M670.2 92.1L670.2 92.1Q669.2 92.1 668.3 91.6Q667.5 91.1 667.0 90.2Q666.5 89.3 666.5 88.0L666.5 88.0Q666.5 86.7 667.0 85.8Q667.5 84.9 668.3 84.4Q669.2 83.9 670.2 83.9L670.2 83.9Q670.9 83.9 671.5 84.1Q672.1 84.3 672.5 84.6Q673.0 85.0 673.3 85.5Q673.6 86.1 673.7 86.7L673.7 86.7L672.0 86.7Q672.0 86.4 671.8 86.1Q671.6 85.9 671.4 85.7Q671.2 85.5 670.9 85.4Q670.6 85.3 670.3 85.3L670.3 85.3Q669.6 85.3 669.2 85.7Q668.7 86.0 668.4 86.6Q668.2 87.2 668.2 88.0L668.2 88.0Q668.2 88.9 668.4 89.5Q668.7 90.1 669.2 90.4Q669.6 90.7 670.2 90.7L670.2 90.7Q670.6 90.7 670.9 90.6Q671.2 90.5 671.4 90.3Q671.6 90.1 671.8 89.8Q672.0 89.6 672.0 89.3L672.0 89.3L673.7 89.3Q673.6 89.8 673.3 90.3Q673.1 90.8 672.6 91.2Q672.2 91.6 671.6 91.9Q671.0 92.1 670.2 92.1ZM679.9 92.1L679.9 92.1Q678.8 92.1 678.0 91.6Q677.1 91.1 676.6 90.2Q676.1 89.3 676.1 88.0L676.1 88.0Q676.1 86.7 676.6 85.8Q677.1 84.9 678.0 84.4Q678.8 83.9 679.9 83.9L679.9 83.9Q680.9 83.9 681.8 84.4Q682.6 84.9 683.1 85.8Q683.6 86.7 683.6 88.0L683.6 88.0Q683.6 89.3 683.1 90.2Q682.6 91.1 681.8 91.6Q680.9 92.1 679.9 92.1ZM679.9 90.7L679.9 90.7Q680.5 90.7 681.0 90.3Q681.4 90.0 681.7 89.5Q681.9 88.9 681.9 88.0L681.9 88.0Q681.9 87.1 681.7 86.5Q681.4 86.0 681.0 85.6Q680.5 85.3 679.9 85.3L679.9 85.3Q679.3 85.3 678.8 85.7Q678.3 86.0 678.1 86.6Q677.8 87.1 677.8 88.0L677.8 88.0Q677.8 88.9 678.1 89.4Q678.3 90.0 678.8 90.3Q679.3 90.7 679.9 90.7ZM688.0 92L686.3 92L686.3 84.0L688.9 84.0L690.2 87.7Q690.2 87.9 690.3 88.3Q690.4 88.7 690.5 89.2L690.5 89.2Q690.7 89.7 690.7 90.1L690.7 90.1Q690.8 89.7 690.9 89.2L690.9 89.2Q691.0 88.8 691.2 88.3Q691.3 87.9 691.3 87.7L691.3 87.7L692.6 84.0L695.1 84.0L695.1 92L693.5 92L693.5 88.2Q693.5 88.0 693.5 87.6Q693.5 87.2 693.5 86.7Q693.5 86.3 693.5 85.8L693.5 85.8Q693.6 85.6 693.6 85.4L693.6 85.4Q693.5 85.6 693.4 85.9L693.4 85.9Q693.3 86.3 693.2 86.8Q693.1 87.2 692.9 87.6Q692.8 88.0 692.8 88.2L692.8 88.2L691.4 92L690.0 92L688.7 88.2Q688.6 88.0 688.5 87.6Q688.4 87.2 688.3 86.8Q688.1 86.4 688.0 85.9L688.0 85.9Q688.0 85.7 687.9 85.5L687.9 85.5Q687.9 85.6 687.9 85.8L687.9 85.8Q687.9 86.2 687.9 86.7Q687.9 87.2 688.0 87.6Q688.0 88.0 688.0 88.2L688.0 88.2L688.0 92ZM699.7 92L698.1 92L698.1 84.0L700.6 84.0L701.9 87.7Q702.0 87.9 702.1 88.3Q702.2 88.7 702.3 89.2L702.3 89.2Q702.4 89.7 702.5 90.1L702.5 90.1Q702.6 89.7 702.7 89.2L702.7 89.2Q702.8 88.8 702.9 88.3Q703.0 87.9 703.1 87.7L703.1 87.7L704.4 84.0L706.9 84.0L706.9 92L705.2 92L705.2 88.2Q705.2 88.0 705.2 87.6Q705.3 87.2 705.3 86.7Q705.3 86.3 705.3 85.8L705.3 85.8Q705.3 85.6 705.3 85.4L705.3 85.4Q705.2 85.6 705.2 85.9L705.2 85.9Q705.1 86.3 704.9 86.8Q704.8 87.2 704.7 87.6Q704.6 88.0 704.5 88.2L704.5 88.2L703.2 92L701.8 92L700.4 88.2Q700.4 88.0 700.3 87.6Q700.1 87.2 700.0 86.8Q699.9 86.4 699.8 85.9L699.8 85.9Q699.7 85.7 699.7 85.5L699.7 85.5Q699.7 85.6 699.7 85.8L699.7 85.8Q699.7 86.2 699.7 86.7Q699.7 87.2 699.7 87.6Q699.7 88.0 699.7 88.2L699.7 88.2L699.7 92ZM709.8 84.0L711.5 84.0L711.5 92L709.8 92L709.8 84.0ZM716.5 85.4L714.1 85.4L714.1 84.0L720.6 84.0L720.6 85.4L718.2 85.4L718.2 92L716.5 92L716.5 85.4ZM726.2 92.1L726.2 92.1Q725.2 92.1 724.5 91.8Q723.8 91.5 723.4 90.9Q723.0 90.4 723.0 89.5L723.0 89.5L724.6 89.5Q724.6 89.9 724.8 90.2Q725.0 90.5 725.4 90.6Q725.7 90.7 726.2 90.7L726.2 90.7Q726.6 90.7 726.9 90.6Q727.3 90.5 727.5 90.2Q727.6 90.0 727.6 89.7L727.6 89.7Q727.6 89.4 727.5 89.3Q727.3 89.1 727.0 88.9Q726.7 88.8 726.3 88.7L726.3 88.7L725.4 88.5Q724.4 88.2 723.8 87.7Q723.2 87.2 723.2 86.3L723.2 86.3Q723.2 85.6 723.6 85.0Q724.0 84.5 724.7 84.2Q725.3 83.9 726.2 83.9L726.2 83.9Q727.1 83.9 727.8 84.2Q728.4 84.5 728.8 85.0Q729.2 85.6 729.2 86.3L729.2 86.3L727.6 86.3Q727.6 85.8 727.2 85.5Q726.8 85.3 726.2 85.3L726.2 85.3Q725.8 85.3 725.5 85.4Q725.2 85.5 725.0 85.7Q724.9 85.9 724.9 86.2L724.9 86.2Q724.9 86.5 725.1 86.7Q725.2 86.9 725.5 87.0Q725.8 87.1 726.2 87.2L726.2 87.2L726.9 87.4Q727.4 87.5 727.8 87.7Q728.3 87.9 728.6 88.2Q728.9 88.4 729.1 88.8Q729.3 89.2 729.3 89.7L729.3 89.7Q729.3 90.4 728.9 91.0Q728.6 91.5 727.9 91.8Q727.2 92.1 726.2 92.1Z "/></g></svg>