<!-- Generated by readme-aura https://github.com/collectioneur/readme-aura -->
<svg width="860" height="200" viewBox="0 0 860 200" xmlns="http://www.w3.org/2000/svg"><defs><clipPath id="satori_bc-id"><path x="0" y="0" width="860" height="200" d="M16,0 h828 a16,16 0 0 1 16,16 v168 a16,16 0 0 1 -16,16 h-828 a16,16 0 0 1 -16,-16 v-168 a16,16 0 0 1 16,-16"/></clipPath></defs><clipPath id="satori_cp-id"><path x="0" y="0" width="860" height="200" d="M16,0 h828 a16,16 0 0 1 16,16 v168 a16,16 0 0 1 -16,16 h-828 a16,16 0 0 1 -16,-16 v-168 a16,16 0 0 1 16,-16"/></clipPath><mask id="satori_om-id"><rect x="1" y="1" width="858" height="198" fill="#fff"/><path width="860" height="200" fill="none" stroke="#000" stroke-width="2" d="M4.686,4.686 A16,16 0 0 1 16,0 h828 a16,16 0 0 1 16,16 v168 a16,16 0 0 1 -16,16 h-828 a16,16 0 0 1 -16,-16 v-168 A16,16 0 0 1 4.686,4.686"/></mask><path x="0" y="0" width="860" height="200" fill="#08080c" d="M16,0 h828 a16,16 0 0 1 16,16 v168 a16,16 0 0 1 -16,16 h-828 a16,16 0 0 1 -16,-16 v-168 a16,16 0 0 1 16,-16"/><path width="860" height="200" clip-path="url(#satori_bc-id)" fill="none" stroke="rgba(110,80,220,0.18)" stroke-width="2" d="M4.686,4.686 A16,16 0 0 1 16,0 h828 a16,16 0 0 1 16,16 v168 a16,16 0 0 1 -16,16 h-828 a16,16 0 0 1 -16,-16 v-168 A16,16 0 0 1 4.686,4.686"/><clipPath id="satori_cp-id-0" clip-path="url(#satori_cp-id)"><rect x="1" y="1" width="860" height="200"/></clipPath><mask id="satori_om-id-0"><rect x="1" y="1" width="860" height="200" fill="#fff" mask="url(#satori_om-id)"/></mask><svg x="1" y="1" width="860" height="200" preserveAspectRatio="none" clip-path="url(#satori_cp-id-0)" mask="url(#satori_om-id-0)"><defs><radialGradient id="pg1" cx="50%" cy="50%" r="50%"><stop offset="0%" stop-color="rgba(110,20,210,0.5)"></stop><stop offset="70%" stop-color="rgba(110,20,210,0)"></stop></radialGradient><radialGradient id="pg2" cx="50%" cy="50%" r="50%"><stop offset="0%" stop-color="rgba(0,140,255,0.35)"></stop><stop offset="70%" stop-color="rgba(0,140,255,0)"></stop></radialGradient></defs><ellipse cx="100" cy="200" rx="240" ry="160" fill="url(#pg1)"></ellipse><ellipse cx="750" cy="200" rx="200" ry="140" fill="url(#pg2)"></ellipse></svg><mask id="satori_om-id-0-0"><rect x="1" y="1" width="0" height="200" fill="#fff" mask="url(#satori_om-id)"/></mask><mask id="satori_om-id-0-0-0"><rect x="1" y="1" width="0" height="200" fill="#fff" mask="url(#satori_om-id)"/></mask><mask id="satori_om-id-0-0-0-0"><rect x="1" y="1" width="0" height="200" fill="#fff" mask="url(#satori_om-id)"/></mask><mask id="satori_om-id-0-0-0-1"><rect x="1" y="1" width="0" height="200" fill="#fff" mask="url(#satori_om-id)"/></mask><mask id="satori_om-id-0-0-1"><rect x="1" y="1" width="0" height="200" fill="#fff" mask="url(#satori_om-id)"/></mask><mask id="satori_om-id-0-0-1-0"><rect x="1" y="1" width="0" height="200" fill="#fff" mask="url(#satori_om-id)"/></mask><mask id="satori_om-id-0-0-1-1"><rect x="1" y="1" width="0" height="200" fill="#fff" mask="url(#satori_om-id)"/></mask><mask id="satori_om-id-0-1"><rect x="1" y="1" width="0" height="200" fill="#fff" mask="url(#satori_om-id)"/></mask><mask id="satori_om-id-0-2"><rect x="1" y="1" width="0" height="200" fill="#fff" mask="url(#satori_om-id)"/></mask><mask id="satori_om-id-1"><rect x="33" y="19" width="794" height="12" fill="#fff" mask="url(#satori_om-id)"/></mask><g mask="url(#satori_om-id)" clip-path="url(#satori_cp-id)"><path fill="rgba(155,140,210,0.5)" d="M35.1 29L33.7 29L33.7 21.7L38.4 21.7L38.4 23.0L35.1 23.0L35.1 25.0L38.1 25.0L38.1 26.2L35.1 26.2L35.1 29ZM47.4 29L42.5 29L42.5 21.7L47.4 21.7L47.4 23.0L44.0 23.0L44.0 24.7L47.1 24.7L47.1 25.9L44.0 25.9L44.0 27.8L47.4 27.8L47.4 29ZM52.8 29L51.2 29L53.7 21.7L55.6 21.7L58.2 29L56.5 29L56.0 27.3L53.4 27.3L52.8 29ZM53.7 26.1L55.6 26.1L55.3 25.5Q55.1 24.8 54.9 24L54.9 24Q54.8 23.5 54.6 22.9L54.6 22.9Q54.5 23.5 54.4 24.0L54.4 24.0Q54.2 24.8 54.0 25.5L54.0 25.5L53.7 26.1ZM64.0 23.0L61.8 23.0L61.8 21.7L67.7 21.7L67.7 23.0L65.5 23.0L65.5 29L64.0 29L64.0 23.0ZM74.7 29.1L74.7 29.1Q73.8 29.1 73.2 28.8Q72.5 28.4 72.1 27.8Q71.7 27.2 71.7 26.4L71.7 26.4L71.7 21.7L73.2 21.7L73.2 26.3Q73.2 26.7 73.4 27.1Q73.6 27.4 73.9 27.6Q74.3 27.8 74.7 27.8L74.7 27.8Q75.2 27.8 75.5 27.6Q75.9 27.4 76.1 27.1Q76.3 26.7 76.3 26.3L76.3 26.3L76.3 21.7L77.7 21.7L77.7 26.4Q77.7 27.2 77.4 27.8Q77.0 28.4 76.3 28.8Q75.6 29.1 74.7 29.1ZM83.6 29L82.1 29L82.1 21.7L84.9 21.7Q85.7 21.7 86.3 22.0Q86.9 22.3 87.2 22.8Q87.5 23.4 87.5 24.1Q87.5 24.8 87.2 25.3Q86.9 25.9 86.3 26.1L86.3 26.1Q86.3 26.1 86.2 26.2L86.2 26.2L87.8 29L86.1 29L84.7 26.4L83.6 26.4L83.6 29ZM83.6 23.0L83.6 25.2L84.6 25.2Q85.1 25.2 85.4 25.1Q85.7 24.9 85.8 24.7Q86.0 24.5 86.0 24.1L86.0 24.1Q86.0 23.7 85.8 23.5Q85.7 23.2 85.4 23.1Q85.1 23.0 84.6 23.0L84.6 23.0L83.6 23.0ZM96.5 29L91.6 29L91.6 21.7L96.5 21.7L96.5 23.0L93.1 23.0L93.1 24.7L96.2 24.7L96.2 25.9L93.1 25.9L93.1 27.8L96.5 27.8L96.5 29ZM103.3 29L103.3 29L100.7 29L100.7 21.7L103.3 21.7Q104.4 21.7 105.2 22.2Q106.0 22.6 106.4 23.4Q106.8 24.2 106.8 25.4L106.8 25.4Q106.8 26.5 106.4 27.3Q106.0 28.1 105.2 28.6Q104.4 29 103.3 29ZM102.2 23.0L102.2 27.7L103.2 27.7Q103.9 27.7 104.4 27.5Q104.8 27.2 105.1 26.7Q105.3 26.2 105.3 25.4L105.3 25.4Q105.3 24.5 105.1 24.0Q104.8 23.5 104.4 23.3Q103.9 23.0 103.2 23.0L103.2 23.0L102.2 23.0Z M117.8 29L116.3 29L116.3 21.7L119.1 21.7Q120.0 21.7 120.5 22.0Q121.1 22.4 121.4 22.9Q121.7 23.5 121.7 24.2L121.7 24.2Q121.7 24.9 121.4 25.5Q121.1 26.0 120.5 26.3Q119.9 26.6 119.1 26.6L119.1 26.6L117.8 26.6L117.8 29ZM117.8 23.0L117.8 25.4L118.9 25.4Q119.3 25.4 119.6 25.3Q119.9 25.1 120.1 24.8Q120.2 24.5 120.2 24.2Q120.2 23.8 120.1 23.5Q119.9 23.3 119.6 23.1Q119.3 23.0 118.9 23.0L118.9 23.0L117.8 23.0ZM127.3 29L125.8 29L125.8 21.7L128.6 21.7Q129.4 21.7 130.0 22.0Q130.6 22.3 130.9 22.8Q131.2 23.4 131.2 24.1Q131.2 24.8 130.9 25.3Q130.6 25.9 130.0 26.1L130.0 26.1Q130.0 26.1 129.9 26.2L129.9 26.2L131.5 29L129.8 29L128.4 26.4L127.3 26.4L127.3 29ZM127.3 23.0L127.3 25.2L128.3 25.2Q128.8 25.2 129.1 25.1Q129.4 24.9 129.5 24.7Q129.7 24.5 129.7 24.1L129.7 24.1Q129.7 23.7 129.5 23.5Q129.4 23.2 129.1 23.1Q128.8 23.0 128.3 23.0L128.3 23.0L127.3 23.0ZM138.5 29.1L138.5 29.1Q137.6 29.1 136.8 28.7Q136.0 28.2 135.6 27.4Q135.1 26.5 135.1 25.4L135.1 25.4Q135.1 24.2 135.6 23.3Q136.0 22.5 136.8 22.1Q137.6 21.6 138.5 21.6L138.5 21.6Q139.5 21.6 140.3 22.1Q141.0 22.5 141.5 23.3Q141.9 24.2 141.9 25.4L141.9 25.4Q141.9 26.5 141.5 27.4Q141.0 28.2 140.3 28.7Q139.5 29.1 138.5 29.1ZM138.5 27.8L138.5 27.8Q139.1 27.8 139.5 27.5Q139.9 27.2 140.2 26.7Q140.4 26.1 140.4 25.4L140.4 25.4Q140.4 24.6 140.2 24.0Q139.9 23.5 139.5 23.2Q139.1 23.0 138.5 23.0L138.5 23.0Q138.0 23.0 137.5 23.2Q137.1 23.5 136.9 24.0Q136.7 24.6 136.7 25.4L136.7 25.4Q136.7 26.1 136.9 26.7Q137.1 27.2 137.5 27.5Q138.0 27.8 138.5 27.8ZM148.2 29.1L148.2 29.1Q147.0 29.1 146.4 28.5Q145.7 27.9 145.7 26.8L145.7 26.8L145.7 26.4L147.2 26.4L147.2 26.8Q147.2 27.4 147.5 27.6Q147.7 27.9 148.2 27.9L148.2 27.9Q148.6 27.9 148.8 27.6Q149.1 27.4 149.1 26.8L149.1 26.8L149.1 21.7L150.6 21.7L150.6 26.8Q150.6 27.9 149.9 28.5Q149.3 29.1 148.2 29.1ZM159.8 29L154.9 29L154.9 21.7L159.8 21.7L159.8 23.0L156.4 23.0L156.4 24.7L159.5 24.7L159.5 25.9L156.4 25.9L156.4 27.8L159.8 27.8L159.8 29ZM167.1 29.1L167.1 29.1Q166.2 29.1 165.4 28.7Q164.6 28.2 164.2 27.4Q163.8 26.5 163.8 25.4L163.8 25.4Q163.8 24.2 164.2 23.3Q164.7 22.5 165.4 22.1Q166.2 21.6 167.1 21.6L167.1 21.6Q167.8 21.6 168.3 21.8Q168.8 22.0 169.2 22.3Q169.7 22.6 169.9 23.1Q170.2 23.6 170.3 24.2L170.3 24.2L168.8 24.2Q168.7 23.9 168.6 23.7Q168.4 23.4 168.2 23.3Q168.0 23.1 167.8 23.0Q167.5 23.0 167.2 23.0L167.2 23.0Q166.6 23.0 166.2 23.2Q165.8 23.5 165.5 24.1Q165.3 24.6 165.3 25.4L165.3 25.4Q165.3 26.2 165.5 26.7Q165.8 27.2 166.2 27.5Q166.6 27.8 167.2 27.8L167.2 27.8Q167.5 27.8 167.7 27.7Q168.0 27.6 168.2 27.4Q168.4 27.3 168.6 27.0Q168.7 26.8 168.8 26.5L168.8 26.5L170.3 26.5Q170.2 27.0 170.0 27.5Q169.7 27.9 169.3 28.3Q168.9 28.7 168.4 28.9Q167.8 29.1 167.1 29.1ZM176.3 23.0L174.1 23.0L174.1 21.7L180.0 21.7L180.0 23.0L177.8 23.0L177.8 29L176.3 29L176.3 23.0ZM186.7 29.1L186.7 29.1Q185.8 29.1 185.2 28.8Q184.5 28.6 184.2 28.0Q183.8 27.5 183.8 26.7L183.8 26.7L185.2 26.7Q185.3 27.1 185.5 27.4Q185.7 27.6 186.0 27.7Q186.3 27.8 186.7 27.8L186.7 27.8Q187.1 27.8 187.4 27.7Q187.7 27.6 187.8 27.4Q188.0 27.2 188.0 26.9L188.0 26.9Q188.0 26.7 187.9 26.5Q187.7 26.3 187.4 26.2Q187.2 26.1 186.8 26.0L186.8 26.0L186.0 25.8Q185.0 25.6 184.5 25.1Q184.0 24.6 184.0 23.8L184.0 23.8Q184.0 23.2 184.3 22.7Q184.7 22.2 185.3 21.9Q185.9 21.6 186.7 21.6L186.7 21.6Q187.5 21.6 188.1 21.9Q188.7 22.2 189.1 22.7Q189.4 23.2 189.4 23.8L189.4 23.8L188.0 23.8Q187.9 23.4 187.6 23.1Q187.3 22.9 186.7 22.9L186.7 22.9Q186.3 22.9 186.1 23.0Q185.8 23.1 185.7 23.3Q185.5 23.5 185.5 23.7L185.5 23.7Q185.5 24.0 185.7 24.2Q185.8 24.3 186.1 24.5Q186.4 24.6 186.7 24.6L186.7 24.6L187.3 24.8Q187.8 24.9 188.2 25.1Q188.6 25.3 188.9 25.5Q189.2 25.8 189.3 26.1Q189.5 26.5 189.5 26.9L189.5 26.9Q189.5 27.6 189.2 28.1Q188.8 28.6 188.2 28.8Q187.6 29.1 186.7 29.1Z "/></g><mask id="satori_om-id-2"><rect x="33" y="41" width="794" height="67" fill="#fff" mask="url(#satori_om-id)"/></mask><defs><clipPath id="satori_bc-id-2-0" clip-path="url(#satori_cp-id)"><path x="33" y="41" width="794" height="67" d="M43,41 h774 a10,10 0 0 1 10,10 v47 a10,10 0 0 1 -10,10 h-774 a10,10 0 0 1 -10,-10 v-47 a10,10 0 0 1 10,-10"/></clipPath></defs><mask id="satori_om-id-2-0"><rect x="34" y="42" width="792" height="65" fill="#fff" mask="url(#satori_om-id)"/><path width="794" height="67" fill="none" stroke="#000" stroke-width="2" d="M35.929,43.929 A10,10 0 0 1 43,41 h774 a10,10 0 0 1 10,10 v47 a10,10 0 0 1 -10,10 h-774 a10,10 0 0 1 -10,-10 v-47 A10,10 0 0 1 35.929,43.929"/></mask><path x="33" y="41" width="794" height="67" fill="rgba(255,255,255,0.03)" d="M43,41 h774 a10,10 0 0 1 10,10 v47 a10,10 0 0 1 -10,10 h-774 a10,10 0 0 1 -10,-10 v-47 a10,10 0 0 1 10,-10" clip-path="url(#satori_cp-id)" mask="url(#satori_om-id)"/><path width="794" height="67" clip-path="url(#satori_bc-id-2-0)" fill="none" stroke="rgba(110,80,220,0.15)" stroke-width="2" d="M35.929,43.929 A10,10 0 0 1 43,41 h774 a10,10 0 0 1 10,10 v47 a10,10 0 0 1 -10,10 h-774 a10,10 0 0 1 -10,-10 v-47 A10,10 0 0 1 35.929,43.929"/><mask id="satori_om-id-2-0-0"><rect x="50" y="54" width="760" height="18" fill="#fff" mask="url(#satori_om-id)"/></mask><mask id="satori_om-id-2-0-0-0"><rect x="50" y="55" width="60" height="16" fill="#fff" mask="url(#satori_om-id)"/></mask><g mask="url(#satori_om-id)" clip-path="url(#satori_cp-id)"><path fill="#e0d8ff" d="M52.8 68L50.9 68L50.9 58.5L57.1 58.5L57.1 60.1L52.8 60.1L52.8 62.8L56.7 62.8L56.7 64.4L52.8 64.4L52.8 68ZM60.3 68L58.4 68L58.4 60.9L60.3 60.9L60.3 68ZM59.4 60.0L59.4 60.0Q59.0 60.0 58.7 59.7Q58.4 59.4 58.4 59.0L58.4 59.0Q58.4 58.6 58.7 58.3Q59.0 58.0 59.4 58.0L59.4 58.0Q59.8 58.0 60.1 58.3Q60.4 58.6 60.4 59.0L60.4 59.0Q60.4 59.4 60.1 59.7Q59.8 60.0 59.4 60.0ZM62.0 58.5L63.9 58.5L63.9 68L62.0 68L62.0 58.5ZM68.7 68.1L68.7 68.1Q67.6 68.1 66.8 67.7Q66.0 67.3 65.6 66.4Q65.2 65.6 65.2 64.5L65.2 64.5Q65.2 63.4 65.6 62.6Q66.0 61.7 66.8 61.3Q67.6 60.8 68.6 60.8L68.6 60.8Q69.3 60.8 69.9 61.0Q70.5 61.3 71.0 61.7Q71.4 62.2 71.7 62.8Q71.9 63.5 71.9 64.4L71.9 64.4L71.9 64.9L67.1 64.9Q67.1 65.5 67.3 65.9L67.3 65.9Q67.5 66.3 67.9 66.5Q68.2 66.7 68.7 66.7L68.7 66.7Q69.1 66.7 69.3 66.6Q69.6 66.5 69.8 66.3Q70.0 66.1 70.1 65.9L70.1 65.9L71.8 66.2Q71.7 66.8 71.2 67.2Q70.8 67.7 70.2 67.9Q69.5 68.1 68.7 68.1ZM67.1 63.8L67.1 63.8L70.1 63.8Q70.1 63.4 69.9 63.1L69.9 63.1Q69.8 62.7 69.4 62.5Q69.1 62.2 68.6 62.2L68.6 62.2Q68.1 62.2 67.8 62.5Q67.4 62.7 67.3 63.1L67.3 63.1Q67.1 63.4 67.1 63.8ZM76.7 68.1L76.7 68.1Q75.6 68.1 74.8 67.8Q73.9 67.4 73.5 66.8Q73.0 66.1 73.0 65.1L73.0 65.1L74.8 65.1Q74.9 65.5 75.1 65.9Q75.4 66.2 75.8 66.3Q76.2 66.5 76.7 66.5L76.7 66.5Q77.2 66.5 77.6 66.4Q78.0 66.2 78.2 65.9Q78.4 65.7 78.4 65.3L78.4 65.3Q78.4 65.0 78.3 64.8Q78.1 64.5 77.7 64.4Q77.3 64.2 76.8 64.1L76.8 64.1L75.8 63.8Q74.6 63.5 73.9 62.9Q73.2 62.3 73.2 61.3L73.2 61.3Q73.2 60.4 73.7 59.8Q74.1 59.1 74.9 58.8Q75.7 58.4 76.8 58.4L76.8 58.4Q77.8 58.4 78.6 58.8Q79.4 59.1 79.8 59.8Q80.3 60.4 80.3 61.2L80.3 61.2L78.4 61.2Q78.3 60.7 77.9 60.4Q77.5 60.0 76.7 60.0L76.7 60.0Q76.3 60.0 75.9 60.2Q75.6 60.3 75.4 60.6Q75.2 60.8 75.2 61.1L75.2 61.1Q75.2 61.5 75.4 61.7Q75.6 62.0 76.0 62.1Q76.3 62.2 76.7 62.3L76.7 62.3L77.6 62.5Q78.2 62.7 78.7 62.9Q79.2 63.1 79.6 63.5Q80.0 63.8 80.2 64.3Q80.4 64.7 80.4 65.3L80.4 65.3Q80.4 66.2 80.0 66.8Q79.5 67.4 78.7 67.8Q77.9 68.1 76.7 68.1ZM83.6 63.9L83.6 63.9L83.6 68L81.7 68L81.7 58.5L83.6 58.5L83.6 62.3Q83.9 61.7 84.3 61.3L84.3 61.3Q84.9 60.8 85.8 60.8L85.8 60.8Q86.5 60.8 87.1 61.1Q87.6 61.5 87.9 62.1Q88.2 62.7 88.2 63.5L88.2 63.5L88.2 68L86.3 68L86.3 63.8Q86.3 63.2 86.0 62.8Q85.6 62.4 85.0 62.4L85.0 62.4Q84.6 62.4 84.3 62.6Q84.0 62.8 83.8 63.1Q83.6 63.4 83.6 63.9ZM91.8 68.1L91.8 68.1Q91.1 68.1 90.6 67.9Q90.1 67.7 89.8 67.2Q89.5 66.7 89.5 66.0L89.5 66.0Q89.5 65.4 89.7 65.0Q89.9 64.6 90.3 64.4Q90.7 64.1 91.1 64.0Q91.6 63.9 92.1 63.8L92.1 63.8Q92.8 63.8 93.1 63.7Q93.5 63.7 93.7 63.5Q93.9 63.4 93.9 63.2L93.9 63.2L93.9 63.2Q93.9 62.9 93.7 62.7Q93.6 62.4 93.4 62.3Q93.1 62.2 92.7 62.2L92.7 62.2Q92.4 62.2 92.1 62.3Q91.8 62.4 91.7 62.6Q91.5 62.8 91.4 63.0L91.4 63.0L89.7 62.8Q89.8 62.1 90.3 61.7Q90.7 61.3 91.3 61.0Q92.0 60.8 92.8 60.8L92.8 60.8Q93.3 60.8 93.9 61.0Q94.4 61.1 94.8 61.4Q95.3 61.7 95.5 62.1Q95.8 62.6 95.8 63.2L95.8 63.2L95.8 68L94.0 68L94.0 67.0L93.9 67.0Q93.7 67.3 93.4 67.6Q93.2 67.8 92.7 68.0Q92.3 68.1 91.8 68.1ZM92.4 66.8L92.4 66.8Q92.8 66.8 93.1 66.6Q93.5 66.4 93.7 66.1Q93.9 65.8 93.9 65.5L93.9 65.5L93.9 64.7Q93.8 64.8 93.6 64.8Q93.4 64.9 93.2 64.9Q93.0 64.9 92.8 65.0Q92.6 65.0 92.5 65.0L92.5 65.0Q92.1 65.1 91.8 65.2Q91.6 65.3 91.4 65.5Q91.3 65.7 91.3 66.0L91.3 66.0Q91.3 66.2 91.4 66.4Q91.6 66.6 91.8 66.7Q92.0 66.8 92.4 66.8ZM99.3 68L97.4 68L97.4 60.9L99.2 60.9L99.2 62.1L99.3 62.1Q99.5 61.5 100.0 61.1Q100.4 60.8 101.0 60.8L101.0 60.8Q101.2 60.8 101.3 60.8Q101.5 60.8 101.6 60.9L101.6 60.9L101.6 62.6Q101.5 62.5 101.3 62.5Q101.0 62.5 100.8 62.5L100.8 62.5Q100.4 62.5 100.0 62.7Q99.7 62.9 99.5 63.2Q99.3 63.5 99.3 64.0L99.3 64.0L99.3 68ZM105.9 68.1L105.9 68.1Q104.8 68.1 104.0 67.7Q103.2 67.3 102.8 66.4Q102.4 65.6 102.4 64.5L102.4 64.5Q102.4 63.4 102.8 62.6Q103.2 61.7 104.0 61.3Q104.8 60.8 105.8 60.8L105.8 60.8Q106.5 60.8 107.1 61.0Q107.7 61.3 108.2 61.7Q108.6 62.2 108.9 62.8Q109.1 63.5 109.1 64.4L109.1 64.4L109.1 64.9L104.3 64.9Q104.3 65.5 104.5 65.9L104.5 65.9Q104.7 66.3 105.1 66.5Q105.4 66.7 105.9 66.7L105.9 66.7Q106.3 66.7 106.5 66.6Q106.8 66.5 107.0 66.3Q107.2 66.1 107.3 65.9L107.3 65.9L109.0 66.2Q108.8 66.8 108.4 67.2Q108.0 67.7 107.4 67.9Q106.7 68.1 105.9 68.1ZM104.3 63.8L104.3 63.8L107.3 63.8Q107.2 63.4 107.1 63.1L107.1 63.1Q107.0 62.7 106.6 62.5Q106.3 62.2 105.8 62.2L105.8 62.2Q105.3 62.2 105.0 62.5Q104.6 62.7 104.4 63.1L104.4 63.1Q104.3 63.4 104.3 63.8Z "/></g><defs><clipPath id="satori_bc-id-2-0-0-1" clip-path="url(#satori_cp-id)"><path x="760" y="54" width="50" height="18" d="M769,54 h32 a9,9 0 0 1 9,9 v0 a9,9 0 0 1 -9,9 h-32 a9,9 0 0 1 -9,-9 v0 a9,9 0 0 1 9,-9"/></clipPath></defs><mask id="satori_om-id-2-0-0-1"><rect x="761" y="55" width="48" height="16" fill="#fff" mask="url(#satori_om-id)"/><path width="50" height="18" fill="none" stroke="#000" stroke-width="2" d="M762.636,56.636 A9,9 0 0 1 769,54 h32 a9,9 0 0 1 9,9 v0 a9,9 0 0 1 -9,9 h-32 a9,9 0 0 1 -9,-9 v0 A9,9 0 0 1 762.636,56.636"/></mask><path x="760" y="54" width="50" height="18" fill="#e34c2622" d="M769,54 h32 a9,9 0 0 1 9,9 v0 a9,9 0 0 1 -9,9 h-32 a9,9 0 0 1 -9,-9 v0 a9,9 0 0 1 9,-9" clip-path="url(#satori_cp-id)" mask="url(#satori_om-id)"/><path width="50" height="18" clip-path="url(#satori_bc-id-2-0-0-1)" fill="none" stroke="#e34c2655" stroke-width="2" d="M762.636,56.636 A9,9 0 0 1 769,54 h32 a9,9 0 0 1 9,9 v0 a9,9 0 0 1 -9,9 h-32 a9,9 0 0 1 -9,-9 v0 A9,9 0 0 1 762.636,56.636"/><g mask="url(#satori_om-id)" clip-path="url(#satori_cp-id)"><path fill="#e34c26" d="M772.1 67L770.7 67L770.7 59.7L772.1 59.7L772.1 62.7L775.3 62.7L775.3 59.7L776.8 59.7L776.8 67L775.3 67L775.3 63.9L772.1 63.9L772.1 67ZM780.1 61.0L777.8 61.0L777.8 59.7L783.8 59.7L783.8 61.0L781.6 61.0L781.6 67L780.1 67L780.1 61.0ZM786.3 67L784.8 67L784.8 59.7L787.1 59.7L788.3 63.1Q788.3 63.3 788.4 63.7Q788.5 64.0 788.6 64.5L788.6 64.5Q788.7 64.9 788.8 65.3L788.8 65.3Q788.9 64.9 789.0 64.5L789.0 64.5Q789.1 64.1 789.2 63.7Q789.3 63.3 789.4 63.1L789.4 63.1L790.5 59.7L792.8 59.7L792.8 67L791.3 67L791.3 63.6Q791.3 63.3 791.3 63.0Q791.3 62.6 791.3 62.2Q791.3 61.8 791.4 61.4L791.4 61.4Q791.4 61.2 791.4 61.0L791.4 61.0Q791.3 61.2 791.3 61.4L791.3 61.4Q791.1 61.9 791.0 62.3Q790.9 62.7 790.8 63.0Q790.7 63.3 790.6 63.6L790.6 63.6L789.4 67L788.2 67L787.0 63.6Q786.9 63.3 786.8 63.0Q786.7 62.7 786.6 62.3Q786.4 61.9 786.3 61.4L786.3 61.4Q786.3 61.2 786.2 61.1L786.2 61.1Q786.2 61.2 786.2 61.4L786.2 61.4Q786.2 61.8 786.3 62.2Q786.3 62.6 786.3 63.0Q786.3 63.3 786.3 63.6L786.3 63.6L786.3 67ZM798.8 67L794.1 67L794.1 59.7L795.6 59.7L795.6 65.8L798.8 65.8L798.8 67Z "/></g><mask id="satori_om-id-2-0-1"><rect x="50" y="78" width="760" height="17" fill="#fff" mask="url(#satori_om-id)"/></mask><g mask="url(#satori_om-id)" clip-path="url(#satori_cp-id)"><path fill="rgba(180,170,220,0.6)" d="M53.0 82.9L50.5 82.9L50.5 82.0L56.6 82.0L56.6 82.9L54.1 82.9L54.1 90L53.0 90L53.0 82.9ZM58.9 86.4L58.9 86.4L58.9 90L57.9 90L57.9 82.0L58.9 82.0L58.9 85.0Q59.2 84.5 59.5 84.3L59.5 84.3Q60.0 83.9 60.7 83.9L60.7 83.9Q61.3 83.9 61.8 84.2Q62.2 84.4 62.5 84.9Q62.8 85.4 62.8 86.2L62.8 86.2L62.8 90L61.8 90L61.8 86.3Q61.8 85.6 61.4 85.2Q61.1 84.8 60.4 84.8L60.4 84.8Q60.0 84.8 59.7 85.0Q59.3 85.2 59.1 85.5Q58.9 85.9 58.9 86.4ZM67.0 90.1L67.0 90.1Q66.1 90.1 65.5 89.7Q64.8 89.4 64.5 88.7Q64.2 88.0 64.2 87.0Q64.2 86.1 64.5 85.4Q64.8 84.7 65.4 84.3Q66.0 83.9 66.9 83.9L66.9 83.9Q67.3 83.9 67.8 84.1Q68.3 84.2 68.7 84.6Q69.0 84.9 69.3 85.5Q69.5 86.1 69.5 86.9L69.5 86.9L69.5 87.3L65.1 87.3Q65.2 87.9 65.4 88.3L65.4 88.3Q65.6 88.8 66.0 89.0Q66.4 89.3 67.0 89.3L67.0 89.3Q67.3 89.3 67.6 89.2Q67.9 89.1 68.1 88.9Q68.3 88.7 68.4 88.3L68.4 88.3L69.4 88.6Q69.2 89.1 68.9 89.4Q68.6 89.7 68.1 89.9Q67.6 90.1 67.0 90.1ZM65.1 86.5L65.1 86.5L68.5 86.5Q68.5 86.1 68.3 85.8L68.3 85.8Q68.1 85.3 67.8 85.0Q67.4 84.8 66.9 84.8Q66.3 84.8 65.9 85.0Q65.5 85.3 65.3 85.7L65.3 85.7Q65.2 86.1 65.1 86.5Z M74.9 92.2L74.0 92.2L74.0 84.0L74.9 84.0L74.9 85.0L75.0 85.0Q75.1 84.8 75.3 84.6Q75.5 84.3 75.8 84.1Q76.2 83.9 76.7 83.9L76.7 83.9Q77.5 83.9 78.1 84.3Q78.6 84.7 79.0 85.4Q79.3 86.1 79.3 87.0L79.3 87.0Q79.3 88.0 79.0 88.7Q78.6 89.4 78.1 89.7Q77.5 90.1 76.7 90.1L76.7 90.1Q76.2 90.1 75.8 89.9Q75.5 89.7 75.3 89.5Q75.1 89.2 75.0 89.1L75.0 89.1L74.9 89.1L74.9 92.2ZM76.6 89.3L76.6 89.3Q77.2 89.3 77.5 89.0Q77.9 88.7 78.1 88.1Q78.3 87.6 78.3 87.0L78.3 87.0Q78.3 86.4 78.1 85.9Q77.9 85.4 77.6 85.1Q77.2 84.8 76.6 84.8L76.6 84.8Q76.0 84.8 75.7 85.1Q75.3 85.3 75.1 85.8Q74.9 86.3 74.9 87.0L74.9 87.0Q74.9 87.7 75.1 88.2Q75.3 88.7 75.7 89.0Q76.1 89.3 76.6 89.3ZM82.7 90.1L82.7 90.1Q82.1 90.1 81.7 89.8Q81.2 89.6 81.0 89.1Q80.7 88.6 80.7 87.8L80.7 87.8L80.7 84.0L81.7 84.0L81.7 87.7Q81.7 88.4 82.0 88.8Q82.4 89.2 83.0 89.2L83.0 89.2Q83.5 89.2 83.8 89.0Q84.1 88.8 84.3 88.5Q84.5 88.1 84.5 87.6L84.5 87.6L84.5 84.0L85.5 84.0L85.5 90L84.6 90L84.6 88.9Q84.3 89.5 83.9 89.7L83.9 89.7Q83.4 90.1 82.7 90.1ZM88.2 90L87.2 90L87.2 84.0L88.1 84.0L88.1 84.9L88.2 84.9Q88.4 84.5 88.8 84.2Q89.2 83.9 89.8 83.9L89.8 83.9Q89.9 83.9 90.0 83.9Q90.2 83.9 90.2 83.9L90.2 83.9L90.2 84.9Q90.2 84.9 90.0 84.9Q89.9 84.8 89.7 84.8L89.7 84.8Q89.2 84.8 88.9 85.0Q88.6 85.2 88.4 85.5Q88.2 85.8 88.2 86.2L88.2 86.2L88.2 90ZM92.3 92.2L91.3 92.2L91.3 84.0L92.3 84.0L92.3 85.0L92.4 85.0Q92.5 84.8 92.7 84.6Q92.9 84.3 93.2 84.1Q93.5 83.9 94.1 83.9L94.1 83.9Q94.9 83.9 95.4 84.3Q96.0 84.7 96.3 85.4Q96.7 86.1 96.7 87.0L96.7 87.0Q96.7 88.0 96.3 88.7Q96.0 89.4 95.5 89.7Q94.9 90.1 94.1 90.1L94.1 90.1Q93.6 90.1 93.2 89.9Q92.9 89.7 92.7 89.5Q92.5 89.2 92.4 89.1L92.4 89.1L92.3 89.1L92.3 92.2ZM94.0 89.3L94.0 89.3Q94.5 89.3 94.9 89.0Q95.3 88.7 95.5 88.1Q95.7 87.6 95.7 87.0L95.7 87.0Q95.7 86.4 95.5 85.9Q95.3 85.4 94.9 85.1Q94.6 84.8 94.0 84.8L94.0 84.8Q93.4 84.8 93.1 85.1Q92.7 85.3 92.5 85.8Q92.3 86.3 92.3 87.0L92.3 87.0Q92.3 87.7 92.5 88.2Q92.7 88.7 93.1 89.0Q93.4 89.3 94.0 89.3ZM100.5 90.1L100.5 90.1Q99.7 90.1 99.1 89.7Q98.5 89.4 98.1 88.7Q97.8 88.0 97.8 87.0L97.8 87.0Q97.8 86.1 98.1 85.4Q98.5 84.7 99.1 84.3Q99.7 83.9 100.5 83.9L100.5 83.9Q101.3 83.9 102.0 84.3Q102.6 84.7 102.9 85.4Q103.3 86.1 103.3 87.0L103.3 87.0Q103.3 88.0 102.9 88.7Q102.6 89.4 102.0 89.7Q101.3 90.1 100.5 90.1ZM100.5 89.3L100.5 89.3Q101.1 89.3 101.5 89.0Q101.9 88.6 102.1 88.1Q102.3 87.6 102.3 87.0L102.3 87.0Q102.3 86.4 102.1 85.9Q101.9 85.4 101.5 85.1Q101.1 84.8 100.5 84.8L100.5 84.8Q99.9 84.8 99.5 85.1Q99.1 85.4 99.0 85.9Q98.8 86.4 98.8 87.0L98.8 87.0Q98.8 87.6 99.0 88.1Q99.1 88.6 99.5 89.0Q99.9 89.3 100.5 89.3ZM106.7 90.1L106.7 90.1Q106.1 90.1 105.6 89.9Q105.1 89.8 104.8 89.4Q104.5 89.1 104.4 88.5L104.4 88.5L105.3 88.3Q105.5 88.8 105.8 89.0Q106.2 89.3 106.7 89.3L106.7 89.3Q107.3 89.3 107.7 89.0Q108.1 88.7 108.1 88.4L108.1 88.4Q108.1 88.1 107.9 87.9Q107.6 87.6 107.2 87.5L107.2 87.5L106.2 87.3Q105.4 87.1 105.0 86.7Q104.6 86.3 104.6 85.7L104.6 85.7Q104.6 85.2 104.9 84.8Q105.2 84.4 105.7 84.1Q106.2 83.9 106.8 83.9L106.8 83.9Q107.4 83.9 107.9 84.1Q108.3 84.3 108.6 84.6Q108.8 84.9 109.0 85.4L109.0 85.4L108.1 85.6Q108.0 85.3 107.7 85.0Q107.4 84.7 106.8 84.7L106.8 84.7Q106.3 84.7 105.9 85.0Q105.6 85.2 105.6 85.6L105.6 85.6Q105.6 85.9 105.8 86.1Q106.0 86.3 106.6 86.5L106.6 86.5L107.5 86.7Q108.3 86.9 108.7 87.3Q109.1 87.7 109.1 88.3L109.1 88.3Q109.1 88.8 108.8 89.2Q108.5 89.7 108.0 89.9Q107.4 90.1 106.7 90.1ZM113.0 90.1L113.0 90.1Q112.1 90.1 111.5 89.7Q110.9 89.4 110.5 88.7Q110.2 88.0 110.2 87.0Q110.2 86.1 110.5 85.4Q110.9 84.7 111.5 84.3Q112.1 83.9 112.9 83.9L112.9 83.9Q113.4 83.9 113.8 84.1Q114.3 84.2 114.7 84.6Q115.1 84.9 115.3 85.5Q115.5 86.1 115.5 86.9L115.5 86.9L115.5 87.3L111.2 87.3Q111.2 87.9 111.4 88.3L111.4 88.3Q111.6 88.8 112.0 89.0Q112.5 89.3 113.0 89.3L113.0 89.3Q113.4 89.3 113.7 89.2Q113.9 89.1 114.2 88.9Q114.4 88.7 114.5 88.3L114.5 88.3L115.4 88.6Q115.3 89.1 114.9 89.4Q114.6 89.7 114.1 89.9Q113.6 90.1 113.0 90.1ZM111.2 86.5L111.2 86.5L114.5 86.5Q114.5 86.1 114.4 85.8L114.4 85.8Q114.2 85.3 113.8 85.0Q113.4 84.8 112.9 84.8Q112.3 84.8 112.0 85.0Q111.6 85.3 111.4 85.7L111.4 85.7Q111.2 86.1 111.2 86.5Z M122.4 90.1L122.4 90.1Q121.6 90.1 121.0 89.7Q120.4 89.4 120.0 88.7Q119.7 88.0 119.7 87.0L119.7 87.0Q119.7 86.1 120.0 85.4Q120.4 84.7 121.0 84.3Q121.6 83.9 122.4 83.9L122.4 83.9Q123.3 83.9 123.9 84.3Q124.5 84.7 124.8 85.4Q125.2 86.1 125.2 87.0L125.2 87.0Q125.2 88.0 124.8 88.7Q124.5 89.4 123.9 89.7Q123.3 90.1 122.4 90.1ZM122.4 89.3L122.4 89.3Q123.0 89.3 123.4 89.0Q123.8 88.6 124.0 88.1Q124.2 87.6 124.2 87.0L124.2 87.0Q124.2 86.4 124.0 85.9Q123.8 85.4 123.4 85.1Q123.0 84.8 122.4 84.8L122.4 84.8Q121.8 84.8 121.4 85.1Q121.1 85.4 120.9 85.9Q120.7 86.4 120.7 87.0L120.7 87.0Q120.7 87.6 120.9 88.1Q121.1 88.6 121.4 89.0Q121.8 89.3 122.4 89.3ZM128.0 84.0L129.4 84.0L129.4 84.8L128.0 84.8L128.0 90L127.0 90L127.0 84.8L125.8 84.8L125.8 84.0L127.0 84.0L127.0 83.2Q127.0 82.7 127.3 82.3Q127.5 82.0 127.9 81.8Q128.3 81.6 128.7 81.6L128.7 81.6Q129.1 81.6 129.3 81.7Q129.5 81.7 129.6 81.8L129.6 81.8L129.4 82.6Q129.3 82.6 129.2 82.6Q129.0 82.5 128.8 82.5L128.8 82.5Q128.4 82.5 128.2 82.7Q128.0 83.0 128.0 83.4L128.0 83.4L128.0 84.0Z M134.9 84.0L136.1 84.0L136.1 84.8L134.9 84.8L134.9 88.4Q134.9 88.8 135.0 89.0Q135.2 89.2 135.6 89.2L135.6 89.2Q135.7 89.2 135.8 89.2Q136.0 89.2 136.1 89.2L136.1 89.2L136.3 90.0Q136.1 90.0 135.9 90.0Q135.7 90.1 135.6 90.1L135.6 90.1Q134.8 90.1 134.3 89.7Q133.9 89.3 133.9 88.5L133.9 88.5L133.9 84.8L133.0 84.8L133.0 84.0L133.9 84.0L133.9 82.6L134.9 82.6L134.9 84.0ZM138.3 86.4L138.3 86.4L138.3 90L137.3 90L137.3 82.0L138.3 82.0L138.3 85.0Q138.6 84.5 138.9 84.3L138.9 84.3Q139.4 83.9 140.1 83.9L140.1 83.9Q140.7 83.9 141.2 84.2Q141.6 84.4 141.9 84.9Q142.2 85.4 142.2 86.2L142.2 86.2L142.2 90L141.2 90L141.2 86.3Q141.2 85.6 140.8 85.2Q140.5 84.8 139.8 84.8L139.8 84.8Q139.4 84.8 139.1 85.0Q138.7 85.2 138.5 85.5Q138.3 85.9 138.3 86.4ZM144.8 90L143.8 90L143.8 84.0L144.8 84.0L144.8 90ZM144.3 83.0L144.3 83.0Q144.1 83.0 143.9 82.8Q143.7 82.6 143.7 82.4L143.7 82.4Q143.7 82.1 143.9 81.9Q144.1 81.7 144.3 81.7L144.3 81.7Q144.6 81.7 144.8 81.9Q145.0 82.1 145.0 82.4L145.0 82.4Q145.0 82.6 144.8 82.8Q144.6 83.0 144.3 83.0ZM148.6 90.1L148.6 90.1Q147.9 90.1 147.5 89.9Q147.0 89.8 146.7 89.4Q146.4 89.1 146.2 88.5L146.2 88.5L147.2 88.3Q147.3 88.8 147.6 89.0Q148.0 89.3 148.5 89.3L148.5 89.3Q149.2 89.3 149.5 89.0Q149.9 88.7 149.9 88.4L149.9 88.4Q149.9 88.1 149.7 87.9Q149.5 87.6 149.0 87.5L149.0 87.5L148.0 87.3Q147.2 87.1 146.8 86.7Q146.4 86.3 146.4 85.7L146.4 85.7Q146.4 85.2 146.7 84.8Q147.0 84.4 147.5 84.1Q148.0 83.9 148.7 83.9L148.7 83.9Q149.3 83.9 149.7 84.1Q150.1 84.3 150.4 84.6Q150.7 84.9 150.8 85.4L150.8 85.4L149.9 85.6Q149.8 85.3 149.5 85.0Q149.2 84.7 148.7 84.7L148.7 84.7Q148.1 84.7 147.8 85.0Q147.4 85.2 147.4 85.6L147.4 85.6Q147.4 85.9 147.6 86.1Q147.9 86.3 148.4 86.5L148.4 86.5L149.3 86.7Q150.1 86.9 150.5 87.3Q150.9 87.7 150.9 88.3L150.9 88.3Q150.9 88.8 150.6 89.2Q150.3 89.7 149.8 89.9Q149.3 90.1 148.6 90.1Z M157.7 90L156.8 90L154.9 84.0L156.0 84.0L156.7 86.6Q156.8 87.2 157.0 87.8L157.0 87.8Q157.1 88.3 157.3 89.0L157.3 89.0Q157.4 88.4 157.5 87.9L157.5 87.9Q157.7 87.2 157.8 86.6L157.8 86.6L158.6 84.0L159.6 84.0L160.3 86.6Q160.5 87.2 160.6 87.8L160.6 87.8Q160.7 88.4 160.9 88.9L160.9 88.9Q161.0 88.4 161.1 87.9L161.1 87.9Q161.3 87.2 161.4 86.6L161.4 86.6L162.2 84.0L163.2 84.0L161.4 90L160.4 90L159.6 87.3Q159.5 86.9 159.4 86.4Q159.3 86.0 159.2 85.6L159.2 85.6Q159.1 85.3 159.1 85.1L159.1 85.1Q159.0 85.3 159.0 85.6L159.0 85.6Q158.8 86.0 158.7 86.4Q158.6 86.9 158.5 87.3L158.5 87.3L157.7 90ZM166.9 90.1L166.9 90.1Q166.1 90.1 165.4 89.7Q164.8 89.4 164.5 88.7Q164.1 88.0 164.1 87.0Q164.1 86.1 164.5 85.4Q164.8 84.7 165.4 84.3Q166.0 83.9 166.8 83.9L166.8 83.9Q167.3 83.9 167.8 84.1Q168.2 84.2 168.6 84.6Q169.0 84.9 169.2 85.5Q169.4 86.1 169.4 86.9L169.4 86.9L169.4 87.3L165.1 87.3Q165.1 87.9 165.3 88.3L165.3 88.3Q165.6 88.8 166.0 89.0Q166.4 89.3 166.9 89.3L166.9 89.3Q167.3 89.3 167.6 89.2Q167.9 89.1 168.1 88.9Q168.3 88.7 168.4 88.3L168.4 88.3L169.3 88.6Q169.2 89.1 168.9 89.4Q168.5 89.7 168.0 89.9Q167.6 90.1 166.9 90.1ZM165.1 86.5L165.1 86.5L168.5 86.5Q168.4 86.1 168.3 85.8L168.3 85.8Q168.1 85.3 167.7 85.0Q167.4 84.8 166.8 84.8Q166.3 84.8 165.9 85.0Q165.5 85.3 165.3 85.7L165.3 85.7Q165.1 86.1 165.1 86.5ZM173.6 90.1L173.6 90.1Q173.0 90.1 172.7 89.9Q172.3 89.7 172.2 89.5Q172.0 89.2 171.9 89.1L171.9 89.1L171.8 89.1L171.8 90L170.8 90L170.8 82.0L171.8 82.0L171.8 85.0L171.9 85.0Q172.0 84.8 172.2 84.6Q172.3 84.3 172.7 84.1Q173.0 83.9 173.6 83.9L173.6 83.9Q174.4 83.9 174.9 84.3Q175.5 84.7 175.8 85.4Q176.2 86.1 176.2 87.0L176.2 87.0Q176.2 88.0 175.8 88.7Q175.5 89.4 174.9 89.7Q174.4 90.1 173.6 90.1ZM173.5 89.3L173.5 89.3Q174.0 89.3 174.4 89.0Q174.8 88.7 175.0 88.1Q175.2 87.6 175.2 87.0L175.2 87.0Q175.2 86.4 175.0 85.9Q174.8 85.4 174.4 85.1Q174.0 84.8 173.5 84.8L173.5 84.8Q172.9 84.8 172.5 85.1Q172.2 85.3 172.0 85.8Q171.8 86.3 171.8 87.0L171.8 87.0Q171.8 87.7 172.0 88.2Q172.2 88.7 172.5 89.0Q172.9 89.3 173.5 89.3ZM179.6 90.1L179.6 90.1Q179.0 90.1 178.5 89.9Q178.0 89.8 177.7 89.4Q177.4 89.1 177.3 88.5L177.3 88.5L178.2 88.3Q178.3 88.8 178.7 89.0Q179.1 89.3 179.6 89.3L179.6 89.3Q180.2 89.3 180.6 89.0Q181.0 88.7 181.0 88.4L181.0 88.4Q181.0 88.1 180.8 87.9Q180.5 87.6 180.1 87.5L180.1 87.5L179.1 87.3Q178.3 87.1 177.9 86.7Q177.5 86.3 177.5 85.7L177.5 85.7Q177.5 85.2 177.8 84.8Q178.1 84.4 178.6 84.1Q179.1 83.9 179.7 83.9L179.7 83.9Q180.3 83.9 180.8 84.1Q181.2 84.3 181.5 84.6Q181.7 84.9 181.9 85.4L181.9 85.4L181.0 85.6Q180.9 85.3 180.6 85.0Q180.3 84.7 179.7 84.7L179.7 84.7Q179.2 84.7 178.8 85.0Q178.5 85.2 178.5 85.6L178.5 85.6Q178.5 85.9 178.7 86.1Q178.9 86.3 179.5 86.5L179.5 86.5L180.4 86.7Q181.2 86.9 181.6 87.3Q182.0 87.7 182.0 88.3L182.0 88.3Q182.0 88.8 181.7 89.2Q181.4 89.7 180.8 89.9Q180.3 90.1 179.6 90.1ZM184.3 90L183.4 90L183.4 84.0L184.3 84.0L184.3 90ZM183.9 83.0L183.9 83.0Q183.6 83.0 183.4 82.8Q183.2 82.6 183.2 82.4L183.2 82.4Q183.2 82.1 183.4 81.9Q183.6 81.7 183.9 81.7L183.9 81.7Q184.1 81.7 184.3 81.9Q184.5 82.1 184.5 82.4L184.5 82.4Q184.5 82.6 184.3 82.8Q184.1 83.0 183.9 83.0ZM187.2 84.0L188.4 84.0L188.4 84.8L187.2 84.8L187.2 88.4Q187.2 88.8 187.3 89.0Q187.5 89.2 187.9 89.2L187.9 89.2Q188.0 89.2 188.1 89.2Q188.2 89.2 188.4 89.2L188.4 89.2L188.6 90.0Q188.4 90.0 188.2 90.0Q188.0 90.1 187.8 90.1L187.8 90.1Q187.1 90.1 186.6 89.7Q186.2 89.3 186.2 88.5L186.2 88.5L186.2 84.8L185.3 84.8L185.3 84.0L186.2 84.0L186.2 82.6L187.2 82.6L187.2 84.0ZM192.2 90.1L192.2 90.1Q191.3 90.1 190.7 89.7Q190.0 89.4 189.7 88.7Q189.3 88.0 189.3 87.0Q189.3 86.1 189.7 85.4Q190.0 84.7 190.6 84.3Q191.2 83.9 192.0 83.9L192.0 83.9Q192.5 83.9 193.0 84.1Q193.5 84.2 193.8 84.6Q194.2 84.9 194.4 85.5Q194.7 86.1 194.7 86.9L194.7 86.9L194.7 87.3L190.3 87.3Q190.3 87.9 190.6 88.3L190.6 88.3Q190.8 88.8 191.2 89.0Q191.6 89.3 192.2 89.3L192.2 89.3Q192.5 89.3 192.8 89.2Q193.1 89.1 193.3 88.9Q193.5 88.7 193.6 88.3L193.6 88.3L194.6 88.6Q194.4 89.1 194.1 89.4Q193.8 89.7 193.3 89.9Q192.8 90.1 192.2 90.1ZM190.3 86.5L190.3 86.5L193.7 86.5Q193.6 86.1 193.5 85.8L193.5 85.8Q193.3 85.3 193.0 85.0Q192.6 84.8 192.0 84.8Q191.5 84.8 191.1 85.0Q190.7 85.3 190.5 85.7L190.5 85.7Q190.4 86.1 190.3 86.5Z M200.1 90L199.1 90L199.1 84.0L200.1 84.0L200.1 90ZM199.6 83.0L199.6 83.0Q199.4 83.0 199.2 82.8Q199.0 82.6 199.0 82.4L199.0 82.4Q199.0 82.1 199.2 81.9Q199.4 81.7 199.6 81.7L199.6 81.7Q199.9 81.7 200.1 81.9Q200.3 82.1 200.3 82.4L200.3 82.4Q200.3 82.6 200.1 82.8Q199.9 83.0 199.6 83.0ZM203.8 90.1L203.8 90.1Q203.2 90.1 202.7 89.9Q202.3 89.8 202.0 89.4Q201.6 89.1 201.5 88.5L201.5 88.5L202.5 88.3Q202.6 88.8 202.9 89.0Q203.3 89.3 203.8 89.3L203.8 89.3Q204.5 89.3 204.8 89.0Q205.2 88.7 205.2 88.4L205.2 88.4Q205.2 88.1 205.0 87.9Q204.8 87.6 204.3 87.5L204.3 87.5L203.3 87.3Q202.5 87.1 202.1 86.7Q201.7 86.3 201.7 85.7L201.7 85.7Q201.7 85.2 202.0 84.8Q202.3 84.4 202.8 84.1Q203.3 83.9 203.9 83.9L203.9 83.9Q204.6 83.9 205.0 84.1Q205.4 84.3 205.7 84.6Q206.0 84.9 206.1 85.4L206.1 85.4L205.2 85.6Q205.1 85.3 204.8 85.0Q204.5 84.7 203.9 84.7L203.9 84.7Q203.4 84.7 203.1 85.0Q202.7 85.2 202.7 85.6L202.7 85.6Q202.7 85.9 202.9 86.1Q203.2 86.3 203.7 86.5L203.7 86.5L204.6 86.7Q205.4 86.9 205.8 87.3Q206.2 87.7 206.2 88.3L206.2 88.3Q206.2 88.8 205.9 89.2Q205.6 89.7 205.1 89.9Q204.5 90.1 203.8 90.1Z M211.8 84.0L213.1 84.0L213.1 84.8L211.8 84.8L211.8 88.4Q211.8 88.8 212.0 89.0Q212.2 89.2 212.5 89.2L212.5 89.2Q212.6 89.2 212.8 89.2Q212.9 89.2 213.0 89.2L213.0 89.2L213.2 90.0Q213.1 90.0 212.9 90.0Q212.7 90.1 212.5 90.1L212.5 90.1Q211.7 90.1 211.3 89.7Q210.9 89.3 210.9 88.5L210.9 88.5L210.9 84.8L210.0 84.8L210.0 84.0L210.9 84.0L210.9 82.6L211.8 82.6L211.8 84.0ZM216.7 90.1L216.7 90.1Q215.9 90.1 215.3 89.7Q214.7 89.4 214.4 88.7Q214.0 88.0 214.0 87.0L214.0 87.0Q214.0 86.1 214.4 85.4Q214.7 84.7 215.3 84.3Q215.9 83.9 216.7 83.9L216.7 83.9Q217.6 83.9 218.2 84.3Q218.8 84.7 219.1 85.4Q219.5 86.1 219.5 87.0L219.5 87.0Q219.5 88.0 219.1 88.7Q218.8 89.4 218.2 89.7Q217.6 90.1 216.7 90.1ZM216.7 89.3L216.7 89.3Q217.4 89.3 217.7 89.0Q218.1 88.6 218.3 88.1Q218.5 87.6 218.5 87.0L218.5 87.0Q218.5 86.4 218.3 85.9Q218.1 85.4 217.7 85.1Q217.4 84.8 216.7 84.8L216.7 84.8Q216.1 84.8 215.8 85.1Q215.4 85.4 215.2 85.9Q215.0 86.4 215.0 87.0L215.0 87.0Q215.0 87.6 215.2 88.1Q215.4 88.6 215.8 89.0Q216.1 89.3 216.7 89.3Z M226.7 90.1L226.7 90.1Q225.8 90.1 225.2 89.9Q224.5 89.6 224.2 89.1Q223.8 88.6 223.8 87.9L223.8 87.9L224.8 87.9Q224.9 88.4 225.1 88.6Q225.4 88.9 225.8 89.1Q226.2 89.2 226.7 89.2L226.7 89.2Q227.2 89.2 227.6 89.0Q228.1 88.9 228.3 88.5Q228.6 88.2 228.6 87.8L228.6 87.8Q228.6 87.4 228.4 87.2Q228.1 86.9 227.8 86.8Q227.4 86.6 227.0 86.5L227.0 86.5L226.0 86.2Q225.1 86.0 224.5 85.4Q224.0 84.9 224.0 84.1L224.0 84.1Q224.0 83.5 224.4 83.0Q224.7 82.4 225.3 82.2Q226.0 81.9 226.7 81.9L226.7 81.9Q227.5 81.9 228.1 82.2Q228.7 82.4 229.1 82.9Q229.4 83.4 229.5 84.0L229.5 84.0L228.5 84.0Q228.4 83.4 227.9 83.1Q227.4 82.8 226.7 82.8L226.7 82.8Q226.2 82.8 225.8 83.0Q225.4 83.1 225.2 83.4Q225.0 83.7 225.0 84.1L225.0 84.1Q225.0 84.5 225.2 84.8Q225.5 85.0 225.9 85.2Q226.2 85.3 226.5 85.4L226.5 85.4L227.3 85.6Q227.6 85.7 228.0 85.8Q228.4 86.0 228.8 86.2Q229.1 86.5 229.3 86.9Q229.6 87.3 229.6 87.8L229.6 87.8Q229.6 88.5 229.2 89.0Q228.9 89.5 228.2 89.8Q227.6 90.1 226.7 90.1ZM232.0 86.4L232.0 86.4L232.0 90L231.0 90L231.0 82.0L232.0 82.0L232.0 85.0Q232.3 84.5 232.6 84.3L232.6 84.3Q233.1 83.9 233.8 83.9L233.8 83.9Q234.4 83.9 234.9 84.2Q235.3 84.4 235.6 84.9Q235.9 85.4 235.9 86.2L235.9 86.2L235.9 90L234.9 90L234.9 86.3Q234.9 85.6 234.5 85.2Q234.2 84.8 233.5 84.8L233.5 84.8Q233.1 84.8 232.8 85.0Q232.4 85.2 232.2 85.5Q232.0 85.9 232.0 86.4ZM239.2 90.1L239.2 90.1Q238.7 90.1 238.2 89.9Q237.7 89.7 237.5 89.3Q237.2 88.9 237.2 88.3L237.2 88.3Q237.2 87.8 237.4 87.5Q237.6 87.1 237.9 86.9Q238.3 86.8 238.7 86.7Q239.1 86.6 239.5 86.5L239.5 86.5Q240.1 86.5 240.4 86.4Q240.7 86.4 240.9 86.3Q241.1 86.2 241.1 86.0L241.1 86.0L241.1 85.9Q241.1 85.6 240.9 85.3Q240.8 85.0 240.5 84.9Q240.2 84.8 239.8 84.8L239.8 84.8Q239.4 84.8 239.1 84.9Q238.8 85.0 238.6 85.2Q238.4 85.4 238.3 85.6L238.3 85.6L237.4 85.3Q237.6 84.8 238.0 84.5Q238.4 84.2 238.8 84.0Q239.3 83.9 239.8 83.9L239.8 83.9Q240.1 83.9 240.5 84.0Q240.9 84.1 241.2 84.3Q241.6 84.5 241.8 84.9Q242.0 85.3 242.0 86.0L242.0 86.0L242.0 90L241.1 90L241.1 89.2L241.0 89.2Q240.9 89.4 240.7 89.6Q240.5 89.8 240.1 90.0Q239.7 90.1 239.2 90.1ZM239.4 89.3L239.4 89.3Q239.9 89.3 240.3 89.1Q240.7 88.9 240.9 88.5Q241.1 88.2 241.1 87.8L241.1 87.8L241.1 87.0Q241.0 87.1 240.8 87.1Q240.6 87.2 240.4 87.2Q240.1 87.3 239.9 87.3Q239.6 87.3 239.5 87.3L239.5 87.3Q239.1 87.4 238.8 87.5Q238.5 87.6 238.3 87.8Q238.2 88.0 238.2 88.3L238.2 88.3Q238.2 88.7 238.3 88.9Q238.5 89.1 238.8 89.2Q239.0 89.3 239.4 89.3ZM244.7 90L243.7 90L243.7 84.0L244.7 84.0L244.7 84.9L244.7 84.9Q244.9 84.5 245.3 84.2Q245.7 83.9 246.3 83.9L246.3 83.9Q246.4 83.9 246.5 83.9Q246.7 83.9 246.8 83.9L246.8 83.9L246.8 84.9Q246.7 84.9 246.6 84.9Q246.4 84.8 246.2 84.8L246.2 84.8Q245.8 84.8 245.4 85.0Q245.1 85.2 244.9 85.5Q244.7 85.8 244.7 86.2L244.7 86.2L244.7 90ZM250.4 90.1L250.4 90.1Q249.5 90.1 248.9 89.7Q248.3 89.4 247.9 88.7Q247.6 88.0 247.6 87.0Q247.6 86.1 247.9 85.4Q248.2 84.7 248.9 84.3Q249.5 83.9 250.3 83.9L250.3 83.9Q250.8 83.9 251.2 84.1Q251.7 84.2 252.1 84.6Q252.4 84.9 252.7 85.5Q252.9 86.1 252.9 86.9L252.9 86.9L252.9 87.3L248.6 87.3Q248.6 87.9 248.8 88.3L248.8 88.3Q249.0 88.8 249.4 89.0Q249.9 89.3 250.4 89.3L250.4 89.3Q250.8 89.3 251.0 89.2Q251.3 89.1 251.5 88.9Q251.8 88.7 251.9 88.3L251.9 88.3L252.8 88.6Q252.7 89.1 252.3 89.4Q252.0 89.7 251.5 89.9Q251.0 90.1 250.4 90.1ZM248.6 86.5L248.6 86.5L251.9 86.5Q251.9 86.1 251.7 85.8L251.7 85.8Q251.6 85.3 251.2 85.0Q250.8 84.8 250.3 84.8Q249.7 84.8 249.4 85.0Q249.0 85.3 248.8 85.7L248.8 85.7Q248.6 86.1 248.6 86.5Z M258.5 84.0L259.7 84.0L259.7 84.8L258.5 84.8L258.5 88.4Q258.5 88.8 258.7 89.0Q258.8 89.2 259.2 89.2L259.2 89.2Q259.3 89.2 259.4 89.2Q259.6 89.2 259.7 89.2L259.7 89.2L259.9 90.0Q259.8 90.0 259.6 90.0Q259.4 90.1 259.2 90.1L259.2 90.1Q258.4 90.1 258.0 89.7Q257.5 89.3 257.5 88.5L257.5 88.5L257.5 84.8L256.6 84.8L256.6 84.0L257.5 84.0L257.5 82.6L258.5 82.6L258.5 84.0ZM261.9 86.4L261.9 86.4L261.9 90L261.0 90L261.0 82.0L261.9 82.0L261.9 85.0Q262.2 84.5 262.6 84.3L262.6 84.3Q263.1 83.9 263.7 83.9L263.7 83.9Q264.4 83.9 264.8 84.2Q265.3 84.4 265.5 84.9Q265.8 85.4 265.8 86.2L265.8 86.2L265.8 90L264.8 90L264.8 86.3Q264.8 85.6 264.4 85.2Q264.1 84.8 263.5 84.8L263.5 84.8Q263.0 84.8 262.7 85.0Q262.3 85.2 262.1 85.5Q261.9 85.9 261.9 86.4ZM270.0 90.1L270.0 90.1Q269.1 90.1 268.5 89.7Q267.9 89.4 267.5 88.7Q267.2 88.0 267.2 87.0Q267.2 86.1 267.5 85.4Q267.9 84.7 268.5 84.3Q269.1 83.9 269.9 83.9L269.9 83.9Q270.4 83.9 270.8 84.1Q271.3 84.2 271.7 84.6Q272.1 84.9 272.3 85.5Q272.5 86.1 272.5 86.9L272.5 86.9L272.5 87.3L268.2 87.3Q268.2 87.9 268.4 88.3L268.4 88.3Q268.6 88.8 269.0 89.0Q269.5 89.3 270.0 89.3L270.0 89.3Q270.4 89.3 270.7 89.2Q270.9 89.1 271.2 88.9Q271.4 88.7 271.5 88.3L271.5 88.3L272.4 88.6Q272.3 89.1 271.9 89.4Q271.6 89.7 271.1 89.9Q270.6 90.1 270.0 90.1ZM268.2 86.5L268.2 86.5L271.5 86.5Q271.5 86.1 271.4 85.8L271.4 85.8Q271.2 85.3 270.8 85.0Q270.4 84.8 269.9 84.8Q269.4 84.8 269.0 85.0Q268.6 85.3 268.4 85.7L268.4 85.7Q268.2 86.1 268.2 86.5Z M278.4 84.0L279.8 84.0L279.8 84.8L278.4 84.8L278.4 90L277.4 90L277.4 84.8L276.2 84.8L276.2 84.0L277.4 84.0L277.4 83.2Q277.4 82.7 277.7 82.3Q277.9 82.0 278.3 81.8Q278.7 81.6 279.1 81.6L279.1 81.6Q279.5 81.6 279.7 81.7Q279.9 81.7 280.0 81.8L280.0 81.8L279.8 82.6Q279.7 82.6 279.6 82.6Q279.5 82.5 279.2 82.5L279.2 82.5Q278.8 82.5 278.6 82.7Q278.4 83.0 278.4 83.4L278.4 83.4L278.4 84.0ZM282.0 90L281.1 90L281.1 84.0L282.0 84.0L282.0 90ZM281.5 83.0L281.5 83.0Q281.3 83.0 281.1 82.8Q280.9 82.6 280.9 82.4L280.9 82.4Q280.9 82.1 281.1 81.9Q281.3 81.7 281.5 81.7L281.5 81.7Q281.8 81.7 282.0 81.9Q282.2 82.1 282.2 82.4L282.2 82.4Q282.2 82.6 282.0 82.8Q281.8 83.0 281.5 83.0ZM283.7 82.0L284.7 82.0L284.7 90L283.7 90L283.7 82.0ZM288.9 90.1L288.9 90.1Q288.0 90.1 287.4 89.7Q286.8 89.4 286.4 88.7Q286.1 88.0 286.1 87.0Q286.1 86.1 286.4 85.4Q286.8 84.7 287.4 84.3Q288.0 83.9 288.8 83.9L288.8 83.9Q289.3 83.9 289.7 84.1Q290.2 84.2 290.6 84.6Q291.0 84.9 291.2 85.5Q291.4 86.1 291.4 86.9L291.4 86.9L291.4 87.3L287.1 87.3Q287.1 87.9 287.3 88.3L287.3 88.3Q287.5 88.8 288.0 89.0Q288.4 89.3 288.9 89.3L288.9 89.3Q289.3 89.3 289.6 89.2Q289.9 89.1 290.1 88.9Q290.3 88.7 290.4 88.3L290.4 88.3L291.3 88.6Q291.2 89.1 290.8 89.4Q290.5 89.7 290.0 89.9Q289.5 90.1 288.9 90.1ZM287.1 86.5L287.1 86.5L290.4 86.5Q290.4 86.1 290.3 85.8L290.3 85.8Q290.1 85.3 289.7 85.0Q289.3 84.8 288.8 84.8Q288.3 84.8 287.9 85.0Q287.5 85.3 287.3 85.7L287.3 85.7Q287.1 86.1 287.1 86.5Z M297.6 90.1L297.6 90.1Q297.0 90.1 296.5 89.9Q296.1 89.7 295.8 89.3Q295.5 88.9 295.5 88.3L295.5 88.3Q295.5 87.8 295.7 87.5Q295.9 87.1 296.3 86.9Q296.6 86.8 297.0 86.7Q297.4 86.6 297.9 86.5L297.9 86.5Q298.4 86.5 298.7 86.4Q299.1 86.4 299.2 86.3Q299.4 86.2 299.4 86.0L299.4 86.0L299.4 85.9Q299.4 85.6 299.3 85.3Q299.1 85.0 298.8 84.9Q298.6 84.8 298.1 84.8L298.1 84.8Q297.7 84.8 297.4 84.9Q297.1 85.0 296.9 85.2Q296.7 85.4 296.6 85.6L296.6 85.6L295.7 85.3Q295.9 84.8 296.3 84.5Q296.7 84.2 297.2 84.0Q297.7 83.9 298.1 83.9L298.1 83.9Q298.4 83.9 298.8 84.0Q299.2 84.1 299.5 84.3Q299.9 84.5 300.1 84.9Q300.4 85.3 300.4 86.0L300.4 86.0L300.4 90L299.4 90L299.4 89.2L299.4 89.2Q299.3 89.4 299.0 89.6Q298.8 89.8 298.4 90.0Q298.1 90.1 297.6 90.1ZM297.7 89.3L297.7 89.3Q298.3 89.3 298.6 89.1Q299.0 88.9 299.2 88.5Q299.4 88.2 299.4 87.8L299.4 87.8L299.4 87.0Q299.3 87.1 299.1 87.1Q299.0 87.2 298.7 87.2Q298.4 87.3 298.2 87.3Q298.0 87.3 297.8 87.3L297.8 87.3Q297.5 87.4 297.2 87.5Q296.9 87.6 296.7 87.8Q296.5 88.0 296.5 88.3L296.5 88.3Q296.5 88.7 296.7 88.9Q296.8 89.1 297.1 89.2Q297.4 89.3 297.7 89.3ZM303.0 90L302.1 90L302.1 84.0L303.0 84.0L303.0 85.1Q303.1 84.8 303.3 84.5L303.3 84.5Q303.6 84.2 304.0 84.0Q304.3 83.9 304.7 83.9L304.7 83.9Q305.4 83.9 305.8 84.3L305.8 84.3Q306.1 84.6 306.2 85.1L306.2 85.1Q306.3 84.8 306.5 84.6L306.5 84.6Q306.8 84.2 307.2 84.1Q307.6 83.9 308.1 83.9L308.1 83.9Q308.6 83.9 309.1 84.1Q309.5 84.3 309.8 84.8Q310.0 85.3 310.0 86.0L310.0 86.0L310.0 90L309.0 90L309.0 86.0Q309.0 85.3 308.7 85.0Q308.3 84.8 307.8 84.8L307.8 84.8Q307.4 84.8 307.1 84.9Q306.8 85.1 306.7 85.4Q306.5 85.7 306.5 86.1L306.5 86.1L306.5 90L305.6 90L305.6 85.9Q305.6 85.4 305.2 85.1Q304.9 84.8 304.4 84.8L304.4 84.8Q304.0 84.8 303.7 84.9Q303.4 85.1 303.2 85.4Q303.0 85.7 303.0 86.2L303.0 86.2L303.0 90ZM314.2 90.1L314.2 90.1Q313.3 90.1 312.7 89.7Q312.1 89.4 311.8 88.7Q311.4 88.0 311.4 87.0L311.4 87.0Q311.4 86.1 311.8 85.4Q312.1 84.7 312.7 84.3Q313.3 83.9 314.2 83.9L314.2 83.9Q315.0 83.9 315.6 84.3Q316.2 84.7 316.6 85.4Q316.9 86.1 316.9 87.0L316.9 87.0Q316.9 88.0 316.6 88.7Q316.2 89.4 315.6 89.7Q315.0 90.1 314.2 90.1ZM314.2 89.3L314.2 89.3Q314.8 89.3 315.1 89.0Q315.5 88.6 315.7 88.1Q315.9 87.6 315.9 87.0L315.9 87.0Q315.9 86.4 315.7 85.9Q315.5 85.4 315.1 85.1Q314.8 84.8 314.2 84.8L314.2 84.8Q313.5 84.8 313.2 85.1Q312.8 85.4 312.6 85.9Q312.4 86.4 312.4 87.0L312.4 87.0Q312.4 87.6 312.6 88.1Q312.8 88.6 313.2 89.0Q313.5 89.3 314.2 89.3ZM319.3 86.4L319.3 86.4L319.3 90L318.3 90L318.3 84.0L319.2 84.0L319.2 85.1Q319.5 84.5 319.9 84.3L319.9 84.3Q320.4 83.9 321.1 83.9L321.1 83.9Q321.7 83.9 322.1 84.2Q322.6 84.4 322.8 84.9Q323.1 85.4 323.1 86.2L323.1 86.2L323.1 90L322.1 90L322.1 86.3Q322.1 85.6 321.8 85.2Q321.4 84.8 320.8 84.8L320.8 84.8Q320.4 84.8 320.0 85.0Q319.7 85.2 319.5 85.5Q319.3 85.9 319.3 86.4ZM327.2 92.4L327.2 92.4Q326.6 92.4 326.1 92.2Q325.6 92.0 325.3 91.8Q325.0 91.5 324.8 91.1L324.8 91.1L325.5 90.6Q325.7 90.8 325.9 91.0Q326.1 91.2 326.4 91.4Q326.7 91.5 327.2 91.5L327.2 91.5Q328.0 91.5 328.4 91.2Q328.9 90.8 328.9 90.1L328.9 90.1L328.9 88.9L328.8 88.9Q328.7 89.1 328.5 89.3Q328.3 89.5 328.0 89.7Q327.6 89.9 327.0 89.9L327.0 89.9Q326.3 89.9 325.8 89.6Q325.2 89.2 324.8 88.6Q324.5 87.9 324.5 87.0L324.5 87.0Q324.5 86.0 324.8 85.4Q325.2 84.7 325.7 84.3Q326.3 83.9 327.1 83.9L327.1 83.9Q327.6 83.9 328.0 84.1Q328.3 84.3 328.5 84.5Q328.7 84.8 328.8 85.0L328.8 85.0L328.9 85.0L328.9 84.0L329.9 84.0L329.9 90.2Q329.9 90.9 329.5 91.4Q329.2 91.9 328.6 92.1Q328.0 92.4 327.2 92.4ZM327.2 89.0L327.2 89.0Q327.8 89.0 328.1 88.8Q328.5 88.5 328.7 88.1Q328.9 87.6 328.9 86.9L328.9 86.9Q328.9 86.3 328.7 85.8Q328.5 85.3 328.1 85.1Q327.8 84.8 327.2 84.8L327.2 84.8Q326.6 84.8 326.3 85.1Q325.9 85.4 325.7 85.9Q325.5 86.3 325.5 86.9L325.5 86.9Q325.5 87.6 325.7 88.0Q325.9 88.5 326.3 88.8Q326.6 89.0 327.2 89.0Z M335.6 90L334.6 90L334.6 84.0L335.6 84.0L335.6 85.1Q335.7 84.8 335.9 84.5L335.9 84.5Q336.2 84.2 336.5 84.0Q336.9 83.9 337.3 83.9L337.3 83.9Q337.9 83.9 338.3 84.3L338.3 84.3Q338.7 84.6 338.8 85.1L338.8 85.1Q338.9 84.8 339.1 84.6L339.1 84.6Q339.4 84.2 339.8 84.1Q340.2 83.9 340.7 83.9L340.7 83.9Q341.2 83.9 341.6 84.1Q342.1 84.3 342.3 84.8Q342.6 85.3 342.6 86.0L342.6 86.0L342.6 90L341.6 90L341.6 86.0Q341.6 85.3 341.2 85.0Q340.9 84.8 340.4 84.8L340.4 84.8Q340.0 84.8 339.7 84.9Q339.4 85.1 339.3 85.4Q339.1 85.7 339.1 86.1L339.1 86.1L339.1 90L338.1 90L338.1 85.9Q338.1 85.4 337.8 85.1Q337.5 84.8 337.0 84.8L337.0 84.8Q336.6 84.8 336.3 84.9Q336.0 85.1 335.8 85.4Q335.6 85.7 335.6 86.2L335.6 86.2L335.6 90ZM346.0 90.1L346.0 90.1Q345.4 90.1 344.9 89.9Q344.5 89.7 344.2 89.3Q343.9 88.9 343.9 88.3L343.9 88.3Q343.9 87.8 344.1 87.5Q344.3 87.1 344.7 86.9Q345.0 86.8 345.4 86.7Q345.8 86.6 346.2 86.5L346.2 86.5Q346.8 86.5 347.1 86.4Q347.5 86.4 347.6 86.3Q347.8 86.2 347.8 86.0L347.8 86.0L347.8 85.9Q347.8 85.6 347.6 85.3Q347.5 85.0 347.2 84.9Q347.0 84.8 346.5 84.8L346.5 84.8Q346.1 84.8 345.8 84.9Q345.5 85.0 345.3 85.2Q345.1 85.4 345.0 85.6L345.0 85.6L344.1 85.3Q344.3 84.8 344.7 84.5Q345.1 84.2 345.6 84.0Q346.0 83.9 346.5 83.9L346.5 83.9Q346.8 83.9 347.2 84.0Q347.6 84.1 347.9 84.3Q348.3 84.5 348.5 84.9Q348.8 85.3 348.8 86.0L348.8 86.0L348.8 90L347.8 90L347.8 89.2L347.7 89.2Q347.6 89.4 347.4 89.6Q347.2 89.8 346.8 90.0Q346.5 90.1 346.0 90.1ZM346.1 89.3L346.1 89.3Q346.7 89.3 347.0 89.1Q347.4 88.9 347.6 88.5Q347.8 88.2 347.8 87.8L347.8 87.8L347.8 87.0Q347.7 87.1 347.5 87.1Q347.3 87.2 347.1 87.2Q346.8 87.3 346.6 87.3Q346.3 87.3 346.2 87.3L346.2 87.3Q345.9 87.4 345.6 87.5Q345.2 87.6 345.1 87.8Q344.9 88.0 344.9 88.3L344.9 88.3Q344.9 88.7 345.0 88.9Q345.2 89.1 345.5 89.2Q345.8 89.3 346.1 89.3ZM351.4 86.4L351.4 86.4L351.4 90L350.5 90L350.5 84.0L351.4 84.0L351.4 85.1Q351.6 84.5 352.0 84.3L352.0 84.3Q352.5 83.9 353.2 83.9L353.2 83.9Q353.8 83.9 354.3 84.2Q354.7 84.4 355.0 84.9Q355.3 85.4 355.3 86.2L355.3 86.2L355.3 90L354.3 90L354.3 86.3Q354.3 85.6 353.9 85.2Q353.6 84.8 352.9 84.8L352.9 84.8Q352.5 84.8 352.2 85.0Q351.8 85.2 351.6 85.5Q351.4 85.9 351.4 86.4ZM356.9 92.2L356.9 92.2L357.1 91.3L357.2 91.4Q357.5 91.4 357.7 91.4Q358.0 91.4 358.2 91.2Q358.4 91.0 358.5 90.5L358.5 90.5L358.7 90.0L356.4 84.0L357.5 84.0L358.7 87.6Q358.9 88.1 359.1 88.7L359.1 88.7Q359.1 88.9 359.2 89.1L359.2 89.1Q359.3 88.9 359.3 88.7L359.3 88.7Q359.5 88.1 359.7 87.6L359.7 87.6L360.9 84.0L362.0 84.0L359.4 90.9Q359.2 91.4 358.9 91.7Q358.7 92.0 358.3 92.1Q358.0 92.3 357.6 92.3L357.6 92.3Q357.3 92.3 357.1 92.3Q356.9 92.2 356.9 92.2Z M368.3 90.1L368.3 90.1Q367.7 90.1 367.2 89.8Q366.7 89.6 366.5 89.1Q366.2 88.6 366.2 87.8L366.2 87.8L366.2 84.0L367.2 84.0L367.2 87.7Q367.2 88.4 367.6 88.8Q367.9 89.2 368.6 89.2L368.6 89.2Q369.0 89.2 369.3 89.0Q369.7 88.8 369.9 88.5Q370.1 88.1 370.1 87.6L370.1 87.6L370.1 84.0L371.0 84.0L371.0 90L370.1 90L370.1 88.9Q369.8 89.5 369.4 89.7L369.4 89.7Q368.9 90.1 368.3 90.1ZM374.8 90.1L374.8 90.1Q374.2 90.1 373.7 89.9Q373.2 89.8 372.9 89.4Q372.6 89.1 372.5 88.5L372.5 88.5L373.4 88.3Q373.5 88.8 373.9 89.0Q374.2 89.3 374.8 89.3L374.8 89.3Q375.4 89.3 375.8 89.0Q376.1 88.7 376.1 88.4L376.1 88.4Q376.1 88.1 375.9 87.9Q375.7 87.6 375.3 87.5L375.3 87.5L374.3 87.3Q373.4 87.1 373.0 86.7Q372.6 86.3 372.6 85.7L372.6 85.7Q372.6 85.2 372.9 84.8Q373.2 84.4 373.7 84.1Q374.2 83.9 374.9 83.9L374.9 83.9Q375.5 83.9 375.9 84.1Q376.4 84.3 376.6 84.6Q376.9 84.9 377.0 85.4L377.0 85.4L376.2 85.6Q376.0 85.3 375.7 85.0Q375.5 84.7 374.9 84.7L374.9 84.7Q374.3 84.7 374.0 85.0Q373.6 85.2 373.6 85.6L373.6 85.6Q373.6 85.9 373.9 86.1Q374.1 86.3 374.6 86.5L374.6 86.5L375.5 86.7Q376.4 86.9 376.8 87.3Q377.1 87.7 377.1 88.3L377.1 88.3Q377.1 88.8 376.8 89.2Q376.5 89.7 376.0 89.9Q375.5 90.1 374.8 90.1ZM381.1 90.1L381.1 90.1Q380.2 90.1 379.6 89.7Q378.9 89.4 378.6 88.7Q378.2 88.0 378.2 87.0Q378.2 86.1 378.6 85.4Q378.9 84.7 379.5 84.3Q380.1 83.9 381.0 83.9L381.0 83.9Q381.4 83.9 381.9 84.1Q382.4 84.2 382.7 84.6Q383.1 84.9 383.3 85.5Q383.6 86.1 383.6 86.9L383.6 86.9L383.6 87.3L379.2 87.3Q379.2 87.9 379.5 88.3L379.5 88.3Q379.7 88.8 380.1 89.0Q380.5 89.3 381.1 89.3L381.1 89.3Q381.4 89.3 381.7 89.2Q382.0 89.1 382.2 88.9Q382.4 88.7 382.5 88.3L382.5 88.3L383.5 88.6Q383.3 89.1 383.0 89.4Q382.7 89.7 382.2 89.9Q381.7 90.1 381.1 90.1ZM379.2 86.5L379.2 86.5L382.6 86.5Q382.5 86.1 382.4 85.8L382.4 85.8Q382.2 85.3 381.9 85.0Q381.5 84.8 381.0 84.8Q380.4 84.8 380.0 85.0Q379.6 85.3 379.4 85.7L379.4 85.7Q379.3 86.1 379.2 86.5ZM385.9 90L385.0 90L385.0 84.0L385.9 84.0L385.9 84.9L386.0 84.9Q386.1 84.5 386.5 84.2Q387.0 83.9 387.5 83.9L387.5 83.9Q387.6 83.9 387.8 83.9Q387.9 83.9 388.0 83.9L388.0 83.9L388.0 84.9Q388.0 84.9 387.8 84.9Q387.6 84.8 387.4 84.8L387.4 84.8Q387.0 84.8 386.6 85.0Q386.3 85.2 386.1 85.5Q385.9 85.8 385.9 86.2L385.9 86.2L385.9 90Z M393.9 90.1L393.9 90.1Q393.3 90.1 392.8 89.9Q392.4 89.7 392.1 89.3Q391.8 88.9 391.8 88.3L391.8 88.3Q391.8 87.8 392.0 87.5Q392.2 87.1 392.6 86.9Q392.9 86.8 393.3 86.7Q393.7 86.6 394.2 86.5L394.2 86.5Q394.7 86.5 395.0 86.4Q395.4 86.4 395.5 86.3Q395.7 86.2 395.7 86.0L395.7 86.0L395.7 85.9Q395.7 85.6 395.6 85.3Q395.4 85.0 395.1 84.9Q394.9 84.8 394.4 84.8L394.4 84.8Q394.0 84.8 393.7 84.9Q393.4 85.0 393.2 85.2Q393.0 85.4 392.9 85.6L392.9 85.6L392.0 85.3Q392.2 84.8 392.6 84.5Q393.0 84.2 393.5 84.0Q394.0 83.9 394.4 83.9L394.4 83.9Q394.7 83.9 395.1 84.0Q395.5 84.1 395.8 84.3Q396.2 84.5 396.4 84.9Q396.7 85.3 396.7 86.0L396.7 86.0L396.7 90L395.7 90L395.7 89.2L395.7 89.2Q395.5 89.4 395.3 89.6Q395.1 89.8 394.7 90.0Q394.4 90.1 393.9 90.1ZM394.0 89.3L394.0 89.3Q394.6 89.3 394.9 89.1Q395.3 88.9 395.5 88.5Q395.7 88.2 395.7 87.8L395.7 87.8L395.7 87.0Q395.6 87.1 395.4 87.1Q395.2 87.2 395.0 87.2Q394.7 87.3 394.5 87.3Q394.3 87.3 394.1 87.3L394.1 87.3Q393.8 87.4 393.5 87.5Q393.2 87.6 393.0 87.8Q392.8 88.0 392.8 88.3L392.8 88.3Q392.8 88.7 393.0 88.9Q393.1 89.1 393.4 89.2Q393.7 89.3 394.0 89.3ZM399.5 84.0L400.7 84.0L400.7 84.8L399.5 84.8L399.5 88.4Q399.5 88.8 399.7 89.0Q399.8 89.2 400.2 89.2L400.2 89.2Q400.3 89.2 400.4 89.2Q400.6 89.2 400.7 89.2L400.7 89.2L400.9 90.0Q400.7 90.0 400.6 90.0Q400.4 90.1 400.2 90.1L400.2 90.1Q399.4 90.1 399.0 89.7Q398.5 89.3 398.5 88.5L398.5 88.5L398.5 84.8L397.6 84.8L397.6 84.0L398.5 84.0L398.5 82.6L399.5 82.6L399.5 84.0Z M407.1 90.1L407.1 90.1Q406.5 90.1 406.0 89.9Q405.5 89.8 405.2 89.4Q404.9 89.1 404.8 88.5L404.8 88.5L405.7 88.3Q405.8 88.8 406.2 89.0Q406.5 89.3 407.1 89.3L407.1 89.3Q407.7 89.3 408.1 89.0Q408.5 88.7 408.5 88.4L408.5 88.4Q408.5 88.1 408.2 87.9Q408.0 87.6 407.6 87.5L407.6 87.5L406.6 87.3Q405.8 87.1 405.4 86.7Q405.0 86.3 405.0 85.7L405.0 85.7Q405.0 85.2 405.3 84.8Q405.6 84.4 406.1 84.1Q406.6 83.9 407.2 83.9L407.2 83.9Q407.8 83.9 408.2 84.1Q408.7 84.3 408.9 84.6Q409.2 84.9 409.4 85.4L409.4 85.4L408.5 85.6Q408.4 85.3 408.1 85.0Q407.8 84.7 407.2 84.7L407.2 84.7Q406.7 84.7 406.3 85.0Q405.9 85.2 405.9 85.6L405.9 85.6Q405.9 85.9 406.2 86.1Q406.4 86.3 407.0 86.5L407.0 86.5L407.9 86.7Q408.7 86.9 409.1 87.3Q409.5 87.7 409.5 88.3L409.5 88.3Q409.5 88.8 409.2 89.2Q408.9 89.7 408.3 89.9Q407.8 90.1 407.1 90.1ZM412.5 90.1L412.5 90.1Q412.0 90.1 411.5 89.9Q411.0 89.7 410.8 89.3Q410.5 88.9 410.5 88.3L410.5 88.3Q410.5 87.8 410.7 87.5Q410.9 87.1 411.2 86.9Q411.6 86.8 412.0 86.7Q412.4 86.6 412.8 86.5L412.8 86.5Q413.4 86.5 413.7 86.4Q414.0 86.4 414.2 86.3Q414.4 86.2 414.4 86.0L414.4 86.0L414.4 85.9Q414.4 85.6 414.2 85.3Q414.1 85.0 413.8 84.9Q413.5 84.8 413.1 84.8L413.1 84.8Q412.7 84.8 412.4 84.9Q412.1 85.0 411.9 85.2Q411.7 85.4 411.6 85.6L411.6 85.6L410.7 85.3Q410.9 84.8 411.3 84.5Q411.7 84.2 412.2 84.0Q412.6 83.9 413.1 83.9L413.1 83.9Q413.4 83.9 413.8 84.0Q414.2 84.1 414.5 84.3Q414.9 84.5 415.1 84.9Q415.3 85.3 415.3 86.0L415.3 86.0L415.3 90L414.4 90L414.4 89.2L414.3 89.2Q414.2 89.4 414.0 89.6Q413.8 89.8 413.4 90.0Q413.1 90.1 412.5 90.1ZM412.7 89.3L412.7 89.3Q413.2 89.3 413.6 89.1Q414.0 88.9 414.2 88.5Q414.4 88.2 414.4 87.8L414.4 87.8L414.4 87.0Q414.3 87.1 414.1 87.1Q413.9 87.2 413.7 87.2Q413.4 87.3 413.2 87.3Q412.9 87.3 412.8 87.3L412.8 87.3Q412.4 87.4 412.1 87.5Q411.8 87.6 411.7 87.8Q411.5 88.0 411.5 88.3L411.5 88.3Q411.5 88.7 411.6 88.9Q411.8 89.1 412.1 89.2Q412.4 89.3 412.7 89.3ZM418.0 90L417.0 90L417.0 84.0L418.0 84.0L418.0 85.1Q418.1 84.8 418.3 84.5L418.3 84.5Q418.6 84.2 418.9 84.0Q419.3 83.9 419.7 83.9L419.7 83.9Q420.3 83.9 420.7 84.3L420.7 84.3Q421.1 84.6 421.2 85.1L421.2 85.1Q421.3 84.8 421.5 84.6L421.5 84.6Q421.8 84.2 422.2 84.1Q422.6 83.9 423.1 83.9L423.1 83.9Q423.6 83.9 424.0 84.1Q424.5 84.3 424.7 84.8Q425.0 85.3 425.0 86.0L425.0 86.0L425.0 90L424.0 90L424.0 86.0Q424.0 85.3 423.6 85.0Q423.3 84.8 422.8 84.8L422.8 84.8Q422.4 84.8 422.1 84.9Q421.8 85.1 421.7 85.4Q421.5 85.7 421.5 86.1L421.5 86.1L421.5 90L420.5 90L420.5 85.9Q420.5 85.4 420.2 85.1Q419.9 84.8 419.3 84.8L419.3 84.8Q419.0 84.8 418.7 84.9Q418.4 85.1 418.2 85.4Q418.0 85.7 418.0 86.2L418.0 86.2L418.0 90ZM429.2 90.1L429.2 90.1Q428.3 90.1 427.7 89.7Q427.1 89.4 426.7 88.7Q426.4 88.0 426.4 87.0Q426.4 86.1 426.7 85.4Q427.1 84.7 427.7 84.3Q428.3 83.9 429.1 83.9L429.1 83.9Q429.6 83.9 430.0 84.1Q430.5 84.2 430.9 84.6Q431.3 84.9 431.5 85.5Q431.7 86.1 431.7 86.9L431.7 86.9L431.7 87.3L427.4 87.3Q427.4 87.9 427.6 88.3L427.6 88.3Q427.8 88.8 428.2 89.0Q428.7 89.3 429.2 89.3L429.2 89.3Q429.6 89.3 429.8 89.2Q430.1 89.1 430.3 88.9Q430.6 88.7 430.7 88.3L430.7 88.3L431.6 88.6Q431.5 89.1 431.1 89.4Q430.8 89.7 430.3 89.9Q429.8 90.1 429.2 90.1ZM427.4 86.5L427.4 86.5L430.7 86.5Q430.7 86.1 430.5 85.8L430.5 85.8Q430.4 85.3 430.0 85.0Q429.6 84.8 429.1 84.8Q428.5 84.8 428.2 85.0Q427.8 85.3 427.6 85.7L427.6 85.7Q427.4 86.1 427.4 86.5Z M437.3 84.0L438.5 84.0L438.5 84.8L437.3 84.8L437.3 88.4Q437.3 88.8 437.5 89.0Q437.6 89.2 438.0 89.2L438.0 89.2Q438.1 89.2 438.3 89.2Q438.4 89.2 438.5 89.2L438.5 89.2L438.7 90.0Q438.6 90.0 438.4 90.0Q438.2 90.1 438.0 90.1L438.0 90.1Q437.2 90.1 436.8 89.7Q436.3 89.3 436.3 88.5L436.3 88.5L436.3 84.8L435.4 84.8L435.4 84.0L436.3 84.0L436.3 82.6L437.3 82.6L437.3 84.0ZM440.7 90L439.8 90L439.8 84.0L440.7 84.0L440.7 90ZM440.3 83.0L440.3 83.0Q440.0 83.0 439.8 82.8Q439.6 82.6 439.6 82.4L439.6 82.4Q439.6 82.1 439.8 81.9Q440.0 81.7 440.3 81.7L440.3 81.7Q440.5 81.7 440.7 81.9Q440.9 82.1 440.9 82.4L440.9 82.4Q440.9 82.6 440.7 82.8Q440.5 83.0 440.3 83.0ZM443.4 90L442.4 90L442.4 84.0L443.4 84.0L443.4 85.1Q443.5 84.8 443.7 84.5L443.7 84.5Q444.0 84.2 444.3 84.0Q444.7 83.9 445.1 83.9L445.1 83.9Q445.7 83.9 446.1 84.3L446.1 84.3Q446.5 84.6 446.6 85.1L446.6 85.1Q446.7 84.8 446.9 84.6L446.9 84.6Q447.2 84.2 447.6 84.1Q448.0 83.9 448.5 83.9L448.5 83.9Q449.0 83.9 449.4 84.1Q449.9 84.3 450.1 84.8Q450.4 85.3 450.4 86.0L450.4 86.0L450.4 90L449.4 90L449.4 86.0Q449.4 85.3 449.1 85.0Q448.7 84.8 448.2 84.8L448.2 84.8Q447.8 84.8 447.5 84.9Q447.2 85.1 447.1 85.4Q446.9 85.7 446.9 86.1L446.9 86.1L446.9 90L445.9 90L445.9 85.9Q445.9 85.4 445.6 85.1Q445.3 84.8 444.8 84.8L444.8 84.8Q444.4 84.8 444.1 84.9Q443.8 85.1 443.6 85.4Q443.4 85.7 443.4 86.2L443.4 86.2L443.4 90ZM454.6 90.1L454.6 90.1Q453.7 90.1 453.1 89.7Q452.5 89.4 452.1 88.7Q451.8 88.0 451.8 87.0Q451.8 86.1 452.1 85.4Q452.5 84.7 453.1 84.3Q453.7 83.9 454.5 83.9L454.5 83.9Q455.0 83.9 455.4 84.1Q455.9 84.2 456.3 84.6Q456.7 84.9 456.9 85.5Q457.1 86.1 457.1 86.9L457.1 86.9L457.1 87.3L452.8 87.3Q452.8 87.9 453.0 88.3L453.0 88.3Q453.2 88.8 453.6 89.0Q454.1 89.3 454.6 89.3L454.6 89.3Q455.0 89.3 455.3 89.2Q455.5 89.1 455.8 88.9Q456.0 88.7 456.1 88.3L456.1 88.3L457.0 88.6Q456.9 89.1 456.5 89.4Q456.2 89.7 455.7 89.9Q455.2 90.1 454.6 90.1ZM452.8 86.5L452.8 86.5L456.1 86.5Q456.1 86.1 456.0 85.8L456.0 85.8Q455.8 85.3 455.4 85.0Q455.0 84.8 454.5 84.8Q453.9 84.8 453.6 85.0Q453.2 85.3 453.0 85.7L453.0 85.7Q452.8 86.1 452.8 86.5ZM459.2 90.1L459.2 90.1Q458.9 90.1 458.7 89.9Q458.5 89.6 458.5 89.3L458.5 89.3Q458.5 89.0 458.7 88.8Q458.9 88.6 459.2 88.6L459.2 88.6Q459.5 88.6 459.7 88.8Q460.0 89.0 460.0 89.3L460.0 89.3Q460.0 89.6 459.7 89.9Q459.5 90.1 459.2 90.1Z M467.8 90L464.9 90L464.9 82.0L467.7 82.0Q468.5 82.0 469.1 82.3Q469.6 82.6 469.9 83.1Q470.2 83.5 470.2 84.1L470.2 84.1Q470.2 84.6 470.0 85.0Q469.8 85.3 469.5 85.5Q469.2 85.7 468.9 85.8L468.9 85.8L468.9 85.9Q469.2 85.9 469.6 86.1Q470.0 86.4 470.2 86.8Q470.5 87.2 470.5 87.9L470.5 87.9Q470.5 88.5 470.2 89.0Q469.9 89.4 469.3 89.7Q468.7 90 467.8 90L467.8 90ZM465.9 86.4L465.9 89.1L467.8 89.1Q468.7 89.1 469.1 88.7Q469.5 88.4 469.5 87.9L469.5 87.9Q469.5 87.5 469.3 87.1Q469.1 86.8 468.7 86.6Q468.3 86.4 467.8 86.4L467.8 86.4L465.9 86.4ZM465.9 82.9L465.9 85.5L467.7 85.5Q468.1 85.5 468.4 85.3Q468.8 85.2 469.0 84.9Q469.2 84.6 469.2 84.1L469.2 84.1Q469.2 83.6 468.8 83.3Q468.5 82.9 467.7 82.9L467.7 82.9L465.9 82.9ZM474.0 90.1L474.0 90.1Q473.4 90.1 472.9 89.8Q472.5 89.6 472.2 89.1Q472.0 88.6 472.0 87.8L472.0 87.8L472.0 84.0L472.9 84.0L472.9 87.7Q472.9 88.4 473.3 88.8Q473.7 89.2 474.3 89.2L474.3 89.2Q474.7 89.2 475.0 89.0Q475.4 88.8 475.6 88.5Q475.8 88.1 475.8 87.6L475.8 87.6L475.8 84.0L476.8 84.0L476.8 90L475.8 90L475.8 88.9Q475.6 89.5 475.2 89.7L475.2 89.7Q474.6 90.1 474.0 90.1ZM479.4 90L478.5 90L478.5 84.0L479.4 84.0L479.4 90ZM478.9 83.0L478.9 83.0Q478.7 83.0 478.5 82.8Q478.3 82.6 478.3 82.4L478.3 82.4Q478.3 82.1 478.5 81.9Q478.7 81.7 478.9 81.7L478.9 81.7Q479.2 81.7 479.4 81.9Q479.6 82.1 479.6 82.4L479.6 82.4Q479.6 82.6 479.4 82.8Q479.2 83.0 478.9 83.0ZM481.1 82.0L482.1 82.0L482.1 90L481.1 90L481.1 82.0ZM484.9 84.0L486.1 84.0L486.1 84.8L484.9 84.8L484.9 88.4Q484.9 88.8 485.1 89.0Q485.2 89.2 485.6 89.2L485.6 89.2Q485.7 89.2 485.9 89.2Q486.0 89.2 486.1 89.2L486.1 89.2L486.3 90.0Q486.2 90.0 486.0 90.0Q485.8 90.1 485.6 90.1L485.6 90.1Q484.8 90.1 484.4 89.7Q483.9 89.3 483.9 88.5L483.9 88.5L483.9 84.8L483.0 84.8L483.0 84.0L483.9 84.0L483.9 82.6L484.9 82.6L484.9 84.0Z M491.4 90L490.5 90L490.5 84.0L491.4 84.0L491.4 90ZM491.0 83.0L491.0 83.0Q490.7 83.0 490.5 82.8Q490.3 82.6 490.3 82.4L490.3 82.4Q490.3 82.1 490.5 81.9Q490.7 81.7 491.0 81.7L491.0 81.7Q491.2 81.7 491.4 81.9Q491.6 82.1 491.6 82.4L491.6 82.4Q491.6 82.6 491.4 82.8Q491.2 83.0 491.0 83.0ZM494.1 86.4L494.1 86.4L494.1 90L493.1 90L493.1 84.0L494.1 84.0L494.1 85.1Q494.3 84.5 494.7 84.3L494.7 84.3Q495.2 83.9 495.9 83.9L495.9 83.9Q496.5 83.9 497.0 84.2Q497.4 84.4 497.7 84.9Q497.9 85.4 497.9 86.2L497.9 86.2L497.9 90L497.0 90L497.0 86.3Q497.0 85.6 496.6 85.2Q496.3 84.8 495.6 84.8L495.6 84.8Q495.2 84.8 494.9 85.0Q494.5 85.2 494.3 85.5Q494.1 85.9 494.1 86.4Z M503.9 90L502.9 90L502.9 82.0L504.1 82.0L507.3 87.1Q507.4 87.3 507.6 87.6Q507.8 87.9 508.0 88.3L508.0 88.3Q508.1 88.5 508.3 88.8L508.3 88.8Q508.2 88.5 508.2 88.3L508.2 88.3Q508.2 87.9 508.2 87.5Q508.2 87.2 508.2 86.9L508.2 86.9L508.2 82.0L509.2 82.0L509.2 90L508.0 90L505.1 85.4Q504.9 85.1 504.7 84.8Q504.5 84.5 504.2 84.0L504.2 84.0Q504.0 83.7 503.8 83.2L503.8 83.2Q503.8 83.6 503.8 84.0L503.8 84.0Q503.9 84.5 503.9 84.8Q503.9 85.2 503.9 85.4L503.9 85.4L503.9 90ZM513.5 90.1L513.5 90.1Q512.6 90.1 512.0 89.7Q511.4 89.4 511.1 88.7Q510.7 88.0 510.7 87.0L510.7 87.0Q510.7 86.1 511.1 85.4Q511.4 84.7 512.0 84.3Q512.6 83.9 513.5 83.9L513.5 83.9Q514.3 83.9 514.9 84.3Q515.5 84.7 515.9 85.4Q516.2 86.1 516.2 87.0L516.2 87.0Q516.2 88.0 515.9 88.7Q515.5 89.4 514.9 89.7Q514.3 90.1 513.5 90.1ZM513.5 89.3L513.5 89.3Q514.1 89.3 514.5 89.0Q514.9 88.6 515.0 88.1Q515.2 87.6 515.2 87.0L515.2 87.0Q515.2 86.4 515.0 85.9Q514.9 85.4 514.5 85.1Q514.1 84.8 513.5 84.8L513.5 84.8Q512.9 84.8 512.5 85.1Q512.1 85.4 511.9 85.9Q511.7 86.4 511.7 87.0L511.7 87.0Q511.7 87.6 511.9 88.1Q512.1 88.6 512.5 89.0Q512.9 89.3 513.5 89.3ZM519.9 90.1L519.9 90.1Q519.1 90.1 518.5 89.7Q518.0 89.4 517.7 88.7Q517.3 88.0 517.3 87.0L517.3 87.0Q517.3 86.1 517.7 85.4Q518.0 84.7 518.6 84.3Q519.1 83.9 519.9 83.9L519.9 83.9Q520.5 83.9 520.8 84.1Q521.1 84.3 521.3 84.6Q521.5 84.8 521.6 85.0L521.6 85.0L521.7 85.0L521.7 82.0L522.7 82.0L522.7 90L521.7 90L521.7 89.1L521.6 89.1Q521.5 89.2 521.3 89.5Q521.1 89.7 520.8 89.9Q520.4 90.1 519.9 90.1ZM520.0 89.3L520.0 89.3Q520.6 89.3 520.9 89.0Q521.3 88.7 521.5 88.2Q521.7 87.7 521.7 87.0L521.7 87.0Q521.7 86.3 521.5 85.8Q521.3 85.3 520.9 85.1Q520.6 84.8 520.0 84.8L520.0 84.8Q519.4 84.8 519.1 85.1Q518.7 85.4 518.5 85.9Q518.3 86.4 518.3 87.0L518.3 87.0Q518.3 87.6 518.5 88.1Q518.7 88.7 519.1 89.0Q519.5 89.3 520.0 89.3ZM526.9 90.1L526.9 90.1Q526.0 90.1 525.4 89.7Q524.7 89.4 524.4 88.7Q524.1 88.0 524.1 87.0Q524.1 86.1 524.4 85.4Q524.7 84.7 525.3 84.3Q525.9 83.9 526.8 83.9L526.8 83.9Q527.2 83.9 527.7 84.1Q528.2 84.2 528.6 84.6Q528.9 84.9 529.2 85.5Q529.4 86.1 529.4 86.9L529.4 86.9L529.4 87.3L525.0 87.3Q525.1 87.9 525.3 88.3L525.3 88.3Q525.5 88.8 525.9 89.0Q526.3 89.3 526.9 89.3L526.9 89.3Q527.2 89.3 527.5 89.2Q527.8 89.1 528.0 88.9Q528.2 88.7 528.3 88.3L528.3 88.3L529.3 88.6Q529.1 89.1 528.8 89.4Q528.5 89.7 528.0 89.9Q527.5 90.1 526.9 90.1ZM525.0 86.5L525.0 86.5L528.4 86.5Q528.4 86.1 528.2 85.8L528.2 85.8Q528.0 85.3 527.7 85.0Q527.3 84.8 526.8 84.8Q526.2 84.8 525.8 85.0Q525.4 85.3 525.2 85.7L525.2 85.7Q525.1 86.1 525.0 86.5ZM531.5 90.1L531.5 90.1Q531.2 90.1 531.0 89.9Q530.8 89.6 530.8 89.3L530.8 89.3Q530.8 89.0 531.0 88.8Q531.2 88.6 531.5 88.6L531.5 88.6Q531.8 88.6 532.0 88.8Q532.2 89.0 532.2 89.3L532.2 89.3Q532.2 89.6 532.0 89.9Q531.8 90.1 531.5 90.1ZM533.9 90.4L533.9 84.0L534.9 84.0L534.9 90.4Q534.9 91.0 534.7 91.4Q534.5 91.8 534.1 92.0Q533.7 92.2 533.1 92.2L533.1 92.2L532.9 92.2L532.9 91.4L533.1 91.4Q533.5 91.4 533.7 91.1Q533.9 90.9 533.9 90.4L533.9 90.4ZM534.4 83.0L534.4 83.0Q534.1 83.0 533.9 82.8Q533.7 82.6 533.7 82.4L533.7 82.4Q533.7 82.1 533.9 81.9Q534.1 81.7 534.4 81.7L534.4 81.7Q534.7 81.7 534.9 81.9Q535.1 82.1 535.1 82.4L535.1 82.4Q535.1 82.6 534.9 82.8Q534.7 83.0 534.4 83.0ZM538.6 90.1L538.6 90.1Q538.0 90.1 537.5 89.9Q537.1 89.8 536.8 89.4Q536.4 89.1 536.3 88.5L536.3 88.5L537.2 88.3Q537.4 88.8 537.7 89.0Q538.1 89.3 538.6 89.3L538.6 89.3Q539.3 89.3 539.6 89.0Q540.0 88.7 540.0 88.4L540.0 88.4Q540.0 88.1 539.8 87.9Q539.6 87.6 539.1 87.5L539.1 87.5L538.1 87.3Q537.3 87.1 536.9 86.7Q536.5 86.3 536.5 85.7L536.5 85.7Q536.5 85.2 536.8 84.8Q537.1 84.4 537.6 84.1Q538.1 83.9 538.7 83.9L538.7 83.9Q539.4 83.9 539.8 84.1Q540.2 84.3 540.5 84.6Q540.8 84.9 540.9 85.4L540.9 85.4L540.0 85.6Q539.9 85.3 539.6 85.0Q539.3 84.7 538.7 84.7L538.7 84.7Q538.2 84.7 537.8 85.0Q537.5 85.2 537.5 85.6L537.5 85.6Q537.5 85.9 537.7 86.1Q538.0 86.3 538.5 86.5L538.5 86.5L539.4 86.7Q540.2 86.9 540.6 87.3Q541.0 87.7 541.0 88.3L541.0 88.3Q541.0 88.8 540.7 89.2Q540.4 89.7 539.9 89.9Q539.3 90.1 538.6 90.1ZM543.0 91.9L542.2 91.9L542.7 88.9L543.8 88.9L543.0 91.9Z M549.8 90L548.8 90L548.8 82.0L549.8 82.0L549.8 85.5L554.0 85.5L554.0 82.0L555.0 82.0L555.0 90L554.0 90L554.0 86.4L549.8 86.4L549.8 90ZM559.0 82.9L556.5 82.9L556.5 82.0L562.6 82.0L562.6 82.9L560.1 82.9L560.1 90L559.0 90L559.0 82.9ZM565.0 90L564.1 90L564.1 82.0L565.5 82.0L567.5 87.0Q567.6 87.2 567.6 87.5Q567.7 87.8 567.8 88.1Q567.9 88.4 568.0 88.7L568.0 88.7Q568.0 88.8 568.1 88.9L568.1 88.9Q568.1 88.8 568.1 88.7L568.1 88.7Q568.2 88.4 568.3 88.1Q568.4 87.8 568.5 87.5Q568.6 87.2 568.7 87.0L568.7 87.0L570.6 82.0L572.1 82.0L572.1 90L571.1 90L571.1 85.4Q571.1 85.2 571.1 84.9Q571.1 84.5 571.1 84.2Q571.1 83.9 571.1 83.5L571.1 83.5Q571.1 83.3 571.1 83.1L571.1 83.1Q571.0 83.3 571.0 83.5L571.0 83.5Q570.8 83.9 570.7 84.3Q570.6 84.6 570.5 84.9Q570.4 85.2 570.3 85.4L570.3 85.4L568.5 90L567.6 90L565.8 85.4Q565.7 85.2 565.6 85.0Q565.5 84.7 565.4 84.3Q565.3 84.0 565.2 83.6L565.2 83.6Q565.1 83.3 565.0 83.1L565.0 83.1Q565.0 83.3 565.0 83.4L565.0 83.4Q565.0 83.8 565.0 84.1Q565.0 84.5 565.0 84.8Q565.0 85.2 565.0 85.4L565.0 85.4L565.0 90ZM578.7 90L574.0 90L574.0 82.0L575.0 82.0L575.0 89.1L578.7 89.1L578.7 90ZM580.7 91.9L579.9 91.9L580.4 88.9L581.5 88.9L580.7 91.9Z M589.7 90.1L589.7 90.1Q588.7 90.1 587.9 89.6Q587.1 89.1 586.6 88.2Q586.2 87.3 586.2 86.0L586.2 86.0Q586.2 84.7 586.6 83.8Q587.1 82.9 587.9 82.4Q588.7 81.9 589.7 81.9L589.7 81.9Q590.3 81.9 590.9 82.1Q591.4 82.2 591.8 82.6Q592.3 82.9 592.6 83.4Q592.8 83.9 592.9 84.5L592.9 84.5L591.9 84.5Q591.8 84.1 591.6 83.8Q591.4 83.5 591.1 83.3Q590.8 83.0 590.5 82.9Q590.1 82.8 589.7 82.8L589.7 82.8Q589 82.8 588.4 83.2Q587.8 83.6 587.5 84.3Q587.2 85.0 587.2 86.0L587.2 86.0Q587.2 87.0 587.5 87.7Q587.8 88.4 588.4 88.8Q589.0 89.2 589.7 89.2L589.7 89.2Q590.1 89.2 590.5 89.1Q590.8 88.9 591.1 88.7Q591.4 88.5 591.6 88.2Q591.8 87.9 591.9 87.5L591.9 87.5L592.9 87.5Q592.8 88.1 592.6 88.6Q592.3 89.1 591.8 89.4Q591.4 89.7 590.9 89.9Q590.3 90.1 589.7 90.1ZM597.1 90.1L597.1 90.1Q596.2 90.1 595.6 89.9Q594.9 89.6 594.6 89.1Q594.2 88.6 594.2 87.9L594.2 87.9L595.2 87.9Q595.3 88.4 595.5 88.6Q595.8 88.9 596.2 89.1Q596.6 89.2 597.1 89.2L597.1 89.2Q597.6 89.2 598.1 89.0Q598.5 88.9 598.7 88.5Q599.0 88.2 599.0 87.8L599.0 87.8Q599.0 87.4 598.8 87.2Q598.6 86.9 598.2 86.8Q597.8 86.6 597.4 86.5L597.4 86.5L596.4 86.2Q595.5 86.0 594.9 85.4Q594.4 84.9 594.4 84.1L594.4 84.1Q594.4 83.5 594.8 83.0Q595.1 82.4 595.8 82.2Q596.4 81.9 597.1 81.9L597.1 81.9Q597.9 81.9 598.5 82.2Q599.2 82.4 599.5 82.9Q599.9 83.4 599.9 84.0L599.9 84.0L598.9 84.0Q598.8 83.4 598.3 83.1Q597.8 82.8 597.1 82.8L597.1 82.8Q596.6 82.8 596.2 83.0Q595.8 83.1 595.6 83.4Q595.4 83.7 595.4 84.1L595.4 84.1Q595.4 84.5 595.7 84.8Q595.9 85.0 596.3 85.2Q596.6 85.3 596.9 85.4L596.9 85.4L597.7 85.6Q598.0 85.7 598.4 85.8Q598.8 86.0 599.2 86.2Q599.5 86.5 599.8 86.9Q600.0 87.3 600.0 87.8L600.0 87.8Q600.0 88.5 599.6 89.0Q599.3 89.5 598.7 89.8Q598.0 90.1 597.1 90.1ZM604.1 90.1L604.1 90.1Q603.3 90.1 602.6 89.9Q602.0 89.6 601.6 89.1Q601.3 88.6 601.2 87.9L601.2 87.9L602.3 87.9Q602.3 88.4 602.6 88.6Q602.8 88.9 603.3 89.1Q603.7 89.2 604.1 89.2L604.1 89.2Q604.7 89.2 605.1 89.0Q605.5 88.9 605.8 88.5Q606.0 88.2 606.0 87.8L606.0 87.8Q606.0 87.4 605.8 87.2Q605.6 86.9 605.3 86.8Q604.9 86.6 604.5 86.5L604.5 86.5L603.5 86.2Q602.5 86.0 602.0 85.4Q601.5 84.9 601.5 84.1L601.5 84.1Q601.5 83.5 601.8 83.0Q602.2 82.4 602.8 82.2Q603.4 81.9 604.2 81.9L604.2 81.9Q605.0 81.9 605.6 82.2Q606.2 82.4 606.6 82.9Q606.9 83.4 606.9 84.0L606.9 84.0L605.9 84.0Q605.9 83.4 605.4 83.1Q604.9 82.8 604.2 82.8L604.2 82.8Q603.7 82.8 603.3 83.0Q602.9 83.1 602.7 83.4Q602.4 83.7 602.4 84.1L602.4 84.1Q602.4 84.5 602.7 84.8Q603.0 85.0 603.3 85.2Q603.7 85.3 604.0 85.4L604.0 85.4L604.8 85.6Q605.1 85.7 605.5 85.8Q605.9 86.0 606.2 86.2Q606.6 86.5 606.8 86.9Q607.0 87.3 607.0 87.8L607.0 87.8Q607.0 88.5 606.7 89.0Q606.4 89.5 605.7 89.8Q605.1 90.1 604.1 90.1Z M613.9 90.1L613.9 90.1Q613.1 90.1 612.5 89.8Q611.9 89.5 611.6 89.0Q611.3 88.5 611.3 87.9L611.3 87.9Q611.3 87.4 611.5 87.0Q611.7 86.6 612.1 86.3L612.1 86.3Q612.5 86.0 612.9 85.7L612.9 85.7Q612.8 85.5 612.7 85.4L612.7 85.4Q612.4 85.0 612.2 84.6Q612.0 84.2 612.0 83.7L612.0 83.7Q612.0 83.2 612.2 82.8Q612.5 82.4 612.9 82.2Q613.3 81.9 613.9 81.9L613.9 81.9Q614.5 81.9 615.0 82.2Q615.4 82.4 615.6 82.8Q615.9 83.2 615.9 83.6L615.9 83.6Q615.9 84.0 615.7 84.3Q615.6 84.6 615.4 84.9Q615.1 85.2 614.8 85.4L614.8 85.4L614.2 85.8L615.9 87.9Q616.0 87.8 616.1 87.6L616.1 87.6Q616.3 87.1 616.3 86.5L616.3 86.5L617.2 86.5Q617.2 87.3 617.0 87.8Q616.8 88.3 616.6 88.6L616.6 88.6Q616.6 88.6 616.5 88.6L616.5 88.6L617.7 90L616.5 90L616.0 89.3Q615.6 89.7 615.0 89.9L615.0 89.9Q614.4 90.1 613.9 90.1ZM615.4 88.6L613.5 86.4L613.2 86.6Q612.7 86.9 612.5 87.3Q612.3 87.6 612.3 87.9L612.3 87.9Q612.3 88.3 612.5 88.6Q612.7 88.9 613.0 89.1Q613.4 89.3 613.8 89.3L613.8 89.3Q614.3 89.3 614.7 89.1L614.7 89.1Q615.1 88.9 615.4 88.6L615.4 88.6ZM613.6 85.1L613.6 85.1L614.2 84.7Q614.3 84.6 614.5 84.5Q614.7 84.3 614.8 84.1Q614.9 83.9 614.9 83.6L614.9 83.6Q614.9 83.2 614.6 83.0Q614.4 82.8 614.0 82.8L614.0 82.8Q613.7 82.8 613.4 82.9Q613.2 83.0 613.1 83.2Q612.9 83.4 612.9 83.7L612.9 83.7Q612.9 84.0 613.1 84.3Q613.2 84.6 613.4 84.9L613.4 84.9Q613.5 85.0 613.6 85.1Z M623.9 90.1L623.9 90.1Q622.8 90.1 622.1 89.5Q621.5 88.9 621.5 87.7L621.5 87.7L621.5 87.3L622.5 87.3L622.5 87.7Q622.5 88.4 622.9 88.8Q623.2 89.2 623.9 89.2L623.9 89.2Q624.5 89.2 624.9 88.8Q625.2 88.4 625.2 87.7L625.2 87.7L625.2 82.0L626.2 82.0L626.2 87.7Q626.2 88.9 625.6 89.5Q624.9 90.1 623.9 90.1ZM629.7 90.1L629.7 90.1Q629.2 90.1 628.7 89.9Q628.2 89.7 628.0 89.3Q627.7 88.9 627.7 88.3L627.7 88.3Q627.7 87.8 627.9 87.5Q628.1 87.1 628.4 86.9Q628.8 86.8 629.2 86.7Q629.6 86.6 630.0 86.5L630.0 86.5Q630.6 86.5 630.9 86.4Q631.2 86.4 631.4 86.3Q631.6 86.2 631.6 86.0L631.6 86.0L631.6 85.9Q631.6 85.6 631.4 85.3Q631.3 85.0 631.0 84.9Q630.7 84.8 630.3 84.8L630.3 84.8Q629.9 84.8 629.6 84.9Q629.3 85.0 629.1 85.2Q628.9 85.4 628.8 85.6L628.8 85.6L627.9 85.3Q628.1 84.8 628.5 84.5Q628.9 84.2 629.4 84.0Q629.8 83.9 630.3 83.9L630.3 83.9Q630.6 83.9 631.0 84.0Q631.4 84.1 631.7 84.3Q632.1 84.5 632.3 84.9Q632.5 85.3 632.5 86.0L632.5 86.0L632.5 90L631.6 90L631.6 89.2L631.5 89.2Q631.4 89.4 631.2 89.6Q631.0 89.8 630.6 90.0Q630.3 90.1 629.7 90.1ZM629.9 89.3L629.9 89.3Q630.4 89.3 630.8 89.1Q631.2 88.9 631.4 88.5Q631.6 88.2 631.6 87.8L631.6 87.8L631.6 87.0Q631.5 87.1 631.3 87.1Q631.1 87.2 630.9 87.2Q630.6 87.3 630.4 87.3Q630.1 87.3 630.0 87.3L630.0 87.3Q629.6 87.4 629.3 87.5Q629.0 87.6 628.9 87.8Q628.7 88.0 628.7 88.3L628.7 88.3Q628.7 88.7 628.8 88.9Q629.0 89.1 629.3 89.2Q629.6 89.3 629.9 89.3ZM637.0 90L636.0 90L633.7 84.0L634.7 84.0L636.0 87.6Q636.2 88.1 636.4 88.7L636.4 88.7Q636.4 88.9 636.5 89.1L636.5 89.1Q636.5 88.9 636.6 88.7L636.6 88.7Q636.7 88.1 636.9 87.6L636.9 87.6L638.2 84.0L639.3 84.0L637.0 90ZM642.1 90.1L642.1 90.1Q641.5 90.1 641.1 89.9Q640.6 89.7 640.3 89.3Q640.1 88.9 640.1 88.3L640.1 88.3Q640.1 87.8 640.3 87.5Q640.5 87.1 640.8 86.9Q641.1 86.8 641.6 86.7Q642.0 86.6 642.4 86.5L642.4 86.5Q642.9 86.5 643.3 86.4Q643.6 86.4 643.8 86.3Q643.9 86.2 643.9 86.0L643.9 86.0L643.9 85.9Q643.9 85.6 643.8 85.3Q643.7 85.0 643.4 84.9Q643.1 84.8 642.7 84.8L642.7 84.8Q642.2 84.8 641.9 84.9Q641.6 85.0 641.4 85.2Q641.3 85.4 641.2 85.6L641.2 85.6L640.2 85.3Q640.5 84.8 640.9 84.5Q641.2 84.2 641.7 84.0Q642.2 83.9 642.7 83.9L642.7 83.9Q643.0 83.9 643.3 84.0Q643.7 84.1 644.1 84.3Q644.4 84.5 644.7 84.9Q644.9 85.3 644.9 86.0L644.9 86.0L644.9 90L644.0 90L644.0 89.2L643.9 89.2Q643.8 89.4 643.6 89.6Q643.3 89.8 643.0 90.0Q642.6 90.1 642.1 90.1ZM642.3 89.3L642.3 89.3Q642.8 89.3 643.2 89.1Q643.5 88.9 643.7 88.5Q643.9 88.2 643.9 87.8L643.9 87.8L643.9 87.0Q643.9 87.1 643.7 87.1Q643.5 87.2 643.2 87.2Q643.0 87.3 642.7 87.3Q642.5 87.3 642.4 87.3L642.4 87.3Q642.0 87.4 641.7 87.5Q641.4 87.6 641.2 87.8Q641.0 88.0 641.0 88.3L641.0 88.3Q641.0 88.7 641.2 88.9Q641.4 89.1 641.6 89.2Q641.9 89.3 642.3 89.3ZM649.3 90.1L649.3 90.1Q648.4 90.1 647.8 89.9Q647.1 89.6 646.8 89.1Q646.4 88.6 646.4 87.9L646.4 87.9L647.4 87.9Q647.5 88.4 647.7 88.6Q648.0 88.9 648.4 89.1Q648.8 89.2 649.3 89.2L649.3 89.2Q649.8 89.2 650.3 89.0Q650.7 88.9 650.9 88.5Q651.2 88.2 651.2 87.8L651.2 87.8Q651.2 87.4 651.0 87.2Q650.8 86.9 650.4 86.8Q650.0 86.6 649.6 86.5L649.6 86.5L648.6 86.2Q647.7 86.0 647.1 85.4Q646.6 84.9 646.6 84.1L646.6 84.1Q646.6 83.5 647.0 83.0Q647.3 82.4 648.0 82.2Q648.6 81.9 649.3 81.9L649.3 81.9Q650.1 81.9 650.7 82.2Q651.4 82.4 651.7 82.9Q652.1 83.4 652.1 84.0L652.1 84.0L651.1 84.0Q651.0 83.4 650.5 83.1Q650.0 82.8 649.3 82.8L649.3 82.8Q648.8 82.8 648.4 83.0Q648.0 83.1 647.8 83.4Q647.6 83.7 647.6 84.1L647.6 84.1Q647.6 84.5 647.9 84.8Q648.1 85.0 648.5 85.2Q648.8 85.3 649.1 85.4L649.1 85.4L649.9 85.6Q650.2 85.7 650.6 85.8Q651.0 86.0 651.4 86.2Q651.7 86.5 652.0 86.9Q652.2 87.3 652.2 87.8L652.2 87.8Q652.2 88.5 651.8 89.0Q651.5 89.5 650.9 89.8Q650.2 90.1 649.3 90.1ZM656.1 90.1L656.1 90.1Q655.3 90.1 654.7 89.7Q654.1 89.4 653.7 88.7Q653.4 88.0 653.4 87.0L653.4 87.0Q653.4 86.1 653.7 85.4Q654.1 84.7 654.7 84.3Q655.3 83.9 656.1 83.9L656.1 83.9Q656.5 83.9 656.9 84.0Q657.3 84.1 657.6 84.4Q657.9 84.6 658.2 84.9Q658.4 85.2 658.5 85.6L658.5 85.6L657.6 85.8Q657.5 85.6 657.4 85.4Q657.3 85.2 657.1 85.1Q656.9 84.9 656.6 84.9Q656.4 84.8 656.1 84.8L656.1 84.8Q655.5 84.8 655.1 85.1Q654.7 85.4 654.5 85.9Q654.4 86.4 654.4 87.0L654.4 87.0Q654.4 87.6 654.5 88.1Q654.7 88.6 655.1 89.0Q655.5 89.3 656.1 89.3L656.1 89.3Q656.4 89.3 656.7 89.2Q656.9 89.1 657.1 89.0Q657.3 88.8 657.4 88.6Q657.6 88.4 657.6 88.2L657.6 88.2L658.6 88.4Q658.4 88.8 658.2 89.1Q658.0 89.5 657.6 89.7Q657.3 89.9 656.9 90.0Q656.5 90.1 656.1 90.1ZM660.9 90L659.9 90L659.9 84.0L660.9 84.0L660.9 84.9L660.9 84.9Q661.1 84.5 661.5 84.2Q662.0 83.9 662.5 83.9L662.5 83.9Q662.6 83.9 662.8 83.9Q662.9 83.9 663.0 83.9L663.0 83.9L663.0 84.9Q662.9 84.9 662.8 84.9Q662.6 84.8 662.4 84.8L662.4 84.8Q662.0 84.8 661.6 85.0Q661.3 85.2 661.1 85.5Q660.9 85.8 660.9 86.2L660.9 86.2L660.9 90ZM665.0 90L664.1 90L664.1 84.0L665.0 84.0L665.0 90ZM664.6 83.0L664.6 83.0Q664.3 83.0 664.1 82.8Q663.9 82.6 663.9 82.4L663.9 82.4Q663.9 82.1 664.1 81.9Q664.3 81.7 664.6 81.7L664.6 81.7Q664.9 81.7 665.0 81.9Q665.2 82.1 665.2 82.4L665.2 82.4Q665.2 82.6 665.0 82.8Q664.9 83.0 664.6 83.0ZM667.7 92.2L666.7 92.2L666.7 84.0L667.7 84.0L667.7 85.0L667.8 85.0Q667.9 84.8 668.1 84.6Q668.3 84.3 668.6 84.1Q668.9 83.9 669.5 83.9L669.5 83.9Q670.3 83.9 670.9 84.3Q671.4 84.7 671.7 85.4Q672.1 86.1 672.1 87.0L672.1 87.0Q672.1 88.0 671.8 88.7Q671.4 89.4 670.9 89.7Q670.3 90.1 669.5 90.1L669.5 90.1Q669.0 90.1 668.6 89.9Q668.3 89.7 668.1 89.5Q667.9 89.2 667.8 89.1L667.8 89.1L667.7 89.1L667.7 92.2ZM669.4 89.3L669.4 89.3Q670.0 89.3 670.3 89.0Q670.7 88.7 670.9 88.1Q671.1 87.6 671.1 87.0L671.1 87.0Q671.1 86.4 670.9 85.9Q670.7 85.4 670.3 85.1Q670.0 84.8 669.4 84.8L669.4 84.8Q668.8 84.8 668.5 85.1Q668.1 85.3 667.9 85.8Q667.7 86.3 667.7 87.0L667.7 87.0Q667.7 87.7 667.9 88.2Q668.1 88.7 668.5 89.0Q668.8 89.3 669.4 89.3ZM674.6 84.0L675.8 84.0L675.8 84.8L674.6 84.8L674.6 88.4Q674.6 88.8 674.8 89.0Q674.9 89.2 675.3 89.2L675.3 89.2Q675.4 89.2 675.6 89.2Q675.7 89.2 675.8 89.2L675.8 89.2L676.0 90.0Q675.9 90.0 675.7 90.0Q675.5 90.1 675.3 90.1L675.3 90.1Q674.5 90.1 674.1 89.7Q673.6 89.3 673.6 88.5L673.6 88.5L673.6 84.8L672.7 84.8L672.7 84.0L673.6 84.0L673.6 82.6L674.6 82.6L674.6 84.0ZM677.8 90.1L677.8 90.1Q677.5 90.1 677.3 89.9Q677.1 89.6 677.1 89.3L677.1 89.3Q677.1 89.0 677.3 88.8Q677.5 88.6 677.8 88.6L677.8 88.6Q678.1 88.6 678.3 88.8Q678.5 89.0 678.5 89.3L678.5 89.3Q678.5 89.6 678.3 89.9Q678.1 90.1 677.8 90.1Z "/></g></svg>