<!-- Generated by readme-aura https://github.com/collectioneur/readme-aura -->
<svg width="860" height="140" viewBox="0 0 860 140" xmlns="http://www.w3.org/2000/svg"><defs><clipPath id="satori_bc-id"><path x="0" y="0" width="860" height="140" d="M16,0 h828 a16,16 0 0 1 16,16 v108 a16,16 0 0 1 -16,16 h-828 a16,16 0 0 1 -16,-16 v-108 a16,16 0 0 1 16,-16"/></clipPath></defs><clipPath id="satori_cp-id"><path x="0" y="0" width="860" height="140" d="M16,0 h828 a16,16 0 0 1 16,16 v108 a16,16 0 0 1 -16,16 h-828 a16,16 0 0 1 -16,-16 v-108 a16,16 0 0 1 16,-16"/></clipPath><mask id="satori_om-id"><rect x="1" y="1" width="858" height="138" fill="#fff"/><path width="860" height="140" fill="none" stroke="#000" stroke-width="2" d="M4.686,4.686 A16,16 0 0 1 16,0 h828 a16,16 0 0 1 16,16 v108 a16,16 0 0 1 -16,16 h-828 a16,16 0 0 1 -16,-16 v-108 A16,16 0 0 1 4.686,4.686"/></mask><path x="0" y="0" width="860" height="140" fill="#08080c" d="M16,0 h828 a16,16 0 0 1 16,16 v108 a16,16 0 0 1 -16,16 h-828 a16,16 0 0 1 -16,-16 v-108 a16,16 0 0 1 16,-16"/><path width="860" height="140" clip-path="url(#satori_bc-id)" fill="none" stroke="rgba(110,80,220,0.18)" stroke-width="2" d="M4.686,4.686 A16,16 0 0 1 16,0 h828 a16,16 0 0 1 16,16 v108 a16,16 0 0 1 -16,16 h-828 a16,16 0 0 1 -16,-16 v-108 A16,16 0 0 1 4.686,4.686"/><clipPath id="satori_cp-id-0" clip-path="url(#satori_cp-id)"><rect x="1" y="1" width="860" height="140"/></clipPath><mask id="satori_om-id-0"><rect x="1" y="1" width="860" height="140" fill="#fff" mask="url(#satori_om-id)"/></mask><svg x="1" y="1" width="860" height="140" preserveAspectRatio="none" clip-path="url(#satori_cp-id-0)" mask="url(#satori_om-id-0)"><defs><radialGradient id="g1" cx="50%" cy="50%" r="50%"><stop offset="0%" stop-color="rgba(110,20,210,0.65)"></stop><stop offset="45%" stop-color="rgba(80,15,170,0.28)"></stop><stop offset="70%" stop-color="rgba(80,15,170,0)"></stop></radialGradient><radialGradient id="g2" cx="50%" cy="50%" r="50%"><stop offset="0%" stop-color="rgba(40,70,255,0.55)"></stop><stop offset="45%" stop-color="rgba(20,50,200,0.22)"></stop><stop offset="70%" stop-color="rgba(20,50,200,0)"></stop></radialGradient><radialGradient id="g3" cx="50%" cy="50%" r="50%"><stop offset="0%" stop-color="rgba(0,140,255,0.42)"></stop><stop offset="70%" stop-color="rgba(0,140,255,0)"></stop></radialGradient><radialGradient id="g4" cx="50%" cy="50%" r="50%"><stop offset="0%" stop-color="rgba(0,195,235,0.30)"></stop><stop offset="70%" stop-color="rgba(0,195,235,0)"></stop></radialGradient><radialGradient id="g5" cx="50%" cy="50%" r="50%"><stop offset="0%" stop-color="rgba(100,30,210,0.40)"></stop><stop offset="70%" stop-color="rgba(100,30,210,0)"></stop></radialGradient></defs><ellipse id="glow-1" cx="710" cy="150" rx="210" ry="150" fill="url(#g1)"></ellipse><ellipse id="glow-2" cx="550" cy="140" rx="190" ry="140" fill="url(#g2)"></ellipse><ellipse id="glow-3" cx="400" cy="130" rx="170" ry="130" fill="url(#g3)"></ellipse><ellipse id="glow-4" cx="250" cy="140" rx="150" ry="120" fill="url(#g4)"></ellipse><ellipse id="glow-5" cx="100" cy="150" rx="130" ry="110" fill="url(#g5)"></ellipse><style>

         @keyframes float-slow {
           0%, 100% { transform: translateX(0px); opacity: 0.8; }
           50% { transform: translateX(350px); opacity: 1.2; }
         }
         @keyframes float-medium {
           0%, 100% { transform: translateX(0px); opacity: 0.7; }
           50% { transform: translateX(-250px); opacity: 1.1; }
         }
         @keyframes float-fast {
           0%, 100% { transform: translateX(0px); opacity: 0.9; }
           50% { transform: translateX(200px); opacity: 0.6; }
         }
         @keyframes float-diagonal {
           0%, 100% { transform: translate(0px, 0px); opacity: 0.75; }
           50% { transform: translate(120px, 30px); opacity: 1.0; }
         }
         @keyframes float-wave {
           0%, 100% { transform: translateX(0px); opacity: 0.65; }
           33% { transform: translateX(-160px); opacity: 0.9; }
           66% { transform: translateX(80px); opacity: 1.0; }
         }
         @keyframes float-pulse {
           0%, 100% { transform: scale(1); opacity: 0.8; }
           50% { transform: scale(1.3); opacity: 0.4; }
         }
         #glow-1 { animation: float-slow 8s ease-in-out infinite; }
         #glow-2 { animation: float-medium 12s ease-in-out infinite; }
         #glow-3 { animation: float-fast 9s ease-in-out infinite; }
         #glow-4 { animation: float-diagonal 10s ease-in-out infinite; }
         #glow-5 { animation: float-wave 14s ease-in-out infinite; }
       
</style>
</svg><mask id="satori_om-id-0-0"><rect x="1" y="1" width="0" height="140" fill="#fff" mask="url(#satori_om-id)"/></mask><mask id="satori_om-id-0-0-0"><rect x="1" y="1" width="0" height="140" fill="#fff" mask="url(#satori_om-id)"/></mask><mask id="satori_om-id-0-0-0-0"><rect x="1" y="1" width="0" height="140" fill="#fff" mask="url(#satori_om-id)"/></mask><mask id="satori_om-id-0-0-0-1"><rect x="1" y="1" width="0" height="140" fill="#fff" mask="url(#satori_om-id)"/></mask><mask id="satori_om-id-0-0-0-2"><rect x="1" y="1" width="0" height="140" fill="#fff" mask="url(#satori_om-id)"/></mask><mask id="satori_om-id-0-0-1"><rect x="1" y="1" width="0" height="140" fill="#fff" mask="url(#satori_om-id)"/></mask><mask id="satori_om-id-0-0-1-0"><rect x="1" y="1" width="0" height="140" fill="#fff" mask="url(#satori_om-id)"/></mask><mask id="satori_om-id-0-0-1-1"><rect x="1" y="1" width="0" height="140" fill="#fff" mask="url(#satori_om-id)"/></mask><mask id="satori_om-id-0-0-1-2"><rect x="1" y="1" width="0" height="140" fill="#fff" mask="url(#satori_om-id)"/></mask><mask id="satori_om-id-0-0-2"><rect x="1" y="1" width="0" height="140" fill="#fff" mask="url(#satori_om-id)"/></mask><mask id="satori_om-id-0-0-2-0"><rect x="1" y="1" width="0" height="140" fill="#fff" mask="url(#satori_om-id)"/></mask><mask id="satori_om-id-0-0-2-1"><rect x="1" y="1" width="0" height="140" fill="#fff" mask="url(#satori_om-id)"/></mask><mask id="satori_om-id-0-0-3"><rect x="1" y="1" width="0" height="140" fill="#fff" mask="url(#satori_om-id)"/></mask><mask id="satori_om-id-0-0-3-0"><rect x="1" y="1" width="0" height="140" fill="#fff" mask="url(#satori_om-id)"/></mask><mask id="satori_om-id-0-0-3-1"><rect x="1" y="1" width="0" height="140" fill="#fff" mask="url(#satori_om-id)"/></mask><mask id="satori_om-id-0-0-4"><rect x="1" y="1" width="0" height="140" fill="#fff" mask="url(#satori_om-id)"/></mask><mask id="satori_om-id-0-0-4-0"><rect x="1" y="1" width="0" height="140" fill="#fff" mask="url(#satori_om-id)"/></mask><mask id="satori_om-id-0-0-4-1"><rect x="1" y="1" width="0" height="140" fill="#fff" mask="url(#satori_om-id)"/></mask><mask id="satori_om-id-0-1"><rect x="1" y="1" width="0" height="140" fill="#fff" mask="url(#satori_om-id)"/></mask><mask id="satori_om-id-0-2"><rect x="1" y="1" width="0" height="140" fill="#fff" mask="url(#satori_om-id)"/></mask><mask id="satori_om-id-0-3"><rect x="1" y="1" width="0" height="140" fill="#fff" mask="url(#satori_om-id)"/></mask><mask id="satori_om-id-0-4"><rect x="1" y="1" width="0" height="140" fill="#fff" mask="url(#satori_om-id)"/></mask><mask id="satori_om-id-0-5"><rect x="1" y="1" width="0" height="140" fill="#fff" mask="url(#satori_om-id)"/></mask><defs><clipPath id="satori_bc-id-1" clip-path="url(#satori_cp-id)"><rect x="1" y="30" width="269" height="80"/></clipPath></defs><mask id="satori_om-id-1"><rect x="1" y="30" width="268" height="80" fill="#fff" mask="url(#satori_om-id)"/><path width="269" height="80" fill="none" stroke="#000" stroke-width="2" d="M270,30 A0,0 0 0 1 270,30 v80 A0,0 0 0 1 270,110"/></mask><path width="269" height="80" clip-path="url(#satori_bc-id-1)" fill="none" stroke="rgba(255,255,255,0.06)" stroke-width="2" d="M270,30 A0,0 0 0 1 270,30 v80 A0,0 0 0 1 270,110"/><mask id="satori_om-id-1-0"><rect x="120" y="46" width="31" height="30" fill="#fff" mask="url(#satori_om-id)"/></mask><g mask="url(#satori_om-id)" clip-path="url(#satori_cp-id)"><path fill="#a78bfa" d="M126.2 50.2L131.0 50.2L131.0 72L126.5 72L126.5 54.1L126.4 54.1L121.4 57.7L121.4 53.6L126.2 50.2ZM140.2 72L135.5 72L144.6 54.0L144.6 53.9L134.0 53.9L134.0 50.2L149.3 50.2L149.3 53.9L140.2 72Z "/></g><mask id="satori_om-id-1-1"><rect x="113" y="81" width="45" height="13" fill="#fff" mask="url(#satori_om-id)"/></mask><g mask="url(#satori_om-id)" clip-path="url(#satori_cp-id)"><path fill="rgba(200,195,225,0.45)" d="M115.4 92L113.7 92L113.7 84.0L116.8 84.0Q117.8 84.0 118.4 84.3Q119.0 84.6 119.4 85.2Q119.7 85.8 119.7 86.6Q119.7 87.4 119.4 88.0Q119.0 88.5 118.4 88.8L118.4 88.8Q118.3 88.9 118.3 88.9L118.3 88.9L120.0 92L118.2 92L116.6 89.1L115.4 89.1L115.4 92ZM115.4 85.4L115.4 87.8L116.5 87.8Q117.0 87.8 117.4 87.7Q117.7 87.5 117.9 87.3Q118.0 87.0 118.0 86.6L118.0 86.6Q118.0 86.2 117.9 85.9Q117.7 85.6 117.4 85.5Q117.0 85.4 116.5 85.4L116.5 85.4L115.4 85.4ZM127.8 92L122.4 92L122.4 84.0L127.8 84.0L127.8 85.4L124.1 85.4L124.1 87.3L127.5 87.3L127.5 88.6L124.1 88.6L124.1 90.6L127.8 90.6L127.8 92ZM132.3 92L130.6 92L130.6 84.0L133.8 84.0Q134.7 84.0 135.3 84.3Q135.9 84.7 136.3 85.3Q136.6 85.9 136.6 86.7L136.6 86.7Q136.6 87.5 136.3 88.1Q135.9 88.7 135.3 89.0Q134.6 89.4 133.7 89.4L133.7 89.4L132.3 89.4L132.3 92ZM132.3 85.4L132.3 88.1L133.5 88.1Q134.0 88.1 134.3 87.9Q134.6 87.7 134.8 87.4Q134.9 87.1 134.9 86.7Q134.9 86.3 134.8 86.0Q134.6 85.7 134.3 85.5Q134.0 85.4 133.4 85.4L133.4 85.4L132.3 85.4ZM142.8 92.1L142.8 92.1Q141.7 92.1 140.9 91.6Q140.0 91.1 139.5 90.2Q139.0 89.3 139.0 88.0L139.0 88.0Q139.0 86.7 139.5 85.8Q140.0 84.9 140.9 84.4Q141.7 83.9 142.8 83.9L142.8 83.9Q143.8 83.9 144.7 84.4Q145.5 84.9 146.0 85.8Q146.5 86.7 146.5 88.0L146.5 88.0Q146.5 89.3 146.0 90.2Q145.5 91.1 144.7 91.6Q143.8 92.1 142.8 92.1ZM142.8 90.7L142.8 90.7Q143.4 90.7 143.9 90.3Q144.3 90.0 144.6 89.5Q144.8 88.9 144.8 88.0L144.8 88.0Q144.8 87.1 144.6 86.5Q144.3 86.0 143.9 85.6Q143.4 85.3 142.8 85.3L142.8 85.3Q142.2 85.3 141.7 85.7Q141.2 86.0 141.0 86.6Q140.7 87.1 140.7 88.0L140.7 88.0Q140.7 88.9 141.0 89.4Q141.2 90.0 141.7 90.3Q142.2 90.7 142.8 90.7ZM152.2 92.1L152.2 92.1Q151.2 92.1 150.5 91.8Q149.8 91.5 149.4 90.9Q149.0 90.4 149.0 89.5L149.0 89.5L150.6 89.5Q150.6 89.9 150.8 90.2Q151.0 90.5 151.4 90.6Q151.7 90.7 152.2 90.7L152.2 90.7Q152.6 90.7 152.9 90.6Q153.2 90.5 153.4 90.2Q153.6 90.0 153.6 89.7L153.6 89.7Q153.6 89.4 153.4 89.3Q153.3 89.1 153.0 88.9Q152.7 88.8 152.2 88.7L152.2 88.7L151.3 88.5Q150.3 88.2 149.8 87.7Q149.2 87.2 149.2 86.3L149.2 86.3Q149.2 85.6 149.6 85.0Q150.0 84.5 150.6 84.2Q151.3 83.9 152.2 83.9L152.2 83.9Q153.1 83.9 153.7 84.2Q154.4 84.5 154.8 85.0Q155.1 85.6 155.1 86.3L155.1 86.3L153.6 86.3Q153.5 85.8 153.2 85.5Q152.8 85.3 152.2 85.3L152.2 85.3Q151.8 85.3 151.5 85.4Q151.2 85.5 151.0 85.7Q150.9 85.9 150.9 86.2L150.9 86.2Q150.9 86.5 151.0 86.7Q151.2 86.9 151.5 87.0Q151.8 87.1 152.1 87.2L152.1 87.2L152.9 87.4Q153.4 87.5 153.8 87.7Q154.2 87.9 154.6 88.2Q154.9 88.4 155.1 88.8Q155.3 89.2 155.3 89.7L155.3 89.7Q155.3 90.4 154.9 91.0Q154.5 91.5 153.8 91.8Q153.1 92.1 152.2 92.1Z "/></g><defs><clipPath id="satori_bc-id-2" clip-path="url(#satori_cp-id)"><rect x="270" y="30" width="270" height="80"/></clipPath></defs><mask id="satori_om-id-2"><rect x="270" y="30" width="269" height="80" fill="#fff" mask="url(#satori_om-id)"/><path width="270" height="80" fill="none" stroke="#000" stroke-width="2" d="M540,30 A0,0 0 0 1 540,30 v80 A0,0 0 0 1 540,110"/></mask><path width="270" height="80" clip-path="url(#satori_bc-id-2)" fill="none" stroke="rgba(255,255,255,0.06)" stroke-width="2" d="M540,30 A0,0 0 0 1 540,30 v80 A0,0 0 0 1 540,110"/><mask id="satori_om-id-2-0"><rect x="394" y="46" width="21" height="30" fill="#fff" mask="url(#satori_om-id)"/></mask><g mask="url(#satori_om-id)" clip-path="url(#satori_cp-id)"><path fill="#60a5fa" d="M405.9 68.1L395.5 68.1L395.5 64.6L404.6 50.2L410.2 50.2L410.2 64.5L412.9 64.5L412.9 68.1L410.2 68.1L410.2 72L405.9 72L405.9 68.1ZM400.0 64.5L406.0 64.5L406.0 55.1L405.8 55.1L400.0 64.3L400.0 64.5Z "/></g><mask id="satori_om-id-2-1"><rect x="382" y="81" width="45" height="13" fill="#fff" mask="url(#satori_om-id)"/></mask><g mask="url(#satori_om-id)" clip-path="url(#satori_cp-id)"><path fill="rgba(200,195,225,0.45)" d="M385.7 92.1L385.7 92.1Q384.7 92.1 384.0 91.8Q383.3 91.5 382.9 90.9Q382.5 90.4 382.5 89.5L382.5 89.5L384.1 89.5Q384.1 89.9 384.3 90.2Q384.5 90.5 384.9 90.6Q385.2 90.7 385.6 90.7L385.6 90.7Q386.1 90.7 386.4 90.6Q386.7 90.5 386.9 90.2Q387.1 90.0 387.1 89.7L387.1 89.7Q387.1 89.4 386.9 89.3Q386.8 89.1 386.5 88.9Q386.2 88.8 385.7 88.7L385.7 88.7L384.8 88.5Q383.8 88.2 383.2 87.7Q382.7 87.2 382.7 86.3L382.7 86.3Q382.7 85.6 383.1 85.0Q383.5 84.5 384.1 84.2Q384.8 83.9 385.7 83.9L385.7 83.9Q386.6 83.9 387.2 84.2Q387.9 84.5 388.3 85.0Q388.6 85.6 388.6 86.3L388.6 86.3L387.1 86.3Q387.0 85.8 386.6 85.5Q386.3 85.3 385.7 85.3L385.7 85.3Q385.2 85.3 385.0 85.4Q384.7 85.5 384.5 85.7Q384.4 85.9 384.4 86.2L384.4 86.2Q384.4 86.5 384.5 86.7Q384.7 86.9 385.0 87.0Q385.3 87.1 385.6 87.2L385.6 87.2L386.4 87.4Q386.9 87.5 387.3 87.7Q387.7 87.9 388.1 88.2Q388.4 88.4 388.6 88.8Q388.7 89.2 388.7 89.7L388.7 89.7Q388.7 90.4 388.4 91.0Q388.0 91.5 387.3 91.8Q386.6 92.1 385.7 92.1ZM393.6 85.4L391.1 85.4L391.1 84.0L397.6 84.0L397.6 85.4L395.2 85.4L395.2 92L393.6 92L393.6 85.4ZM401.6 92L399.8 92L402.5 84.0L404.7 84.0L407.5 92L405.7 92L405.1 90.1L402.2 90.1L401.6 92ZM402.6 88.9L404.6 88.9L404.4 88.1Q404.2 87.4 403.9 86.5L403.9 86.5Q403.8 85.9 403.6 85.3L403.6 85.3Q403.4 85.9 403.3 86.5L403.3 86.5Q403.1 87.4 402.9 88.1L402.9 88.1L402.6 88.9ZM411.6 92L410.0 92L410.0 84.0L413.1 84.0Q414.0 84.0 414.7 84.3Q415.3 84.6 415.6 85.2Q416.0 85.8 416.0 86.6Q416.0 87.4 415.6 88.0Q415.3 88.5 414.6 88.8L414.6 88.8Q414.6 88.9 414.5 88.9L414.5 88.9L416.3 92L414.4 92L412.9 89.1L411.6 89.1L411.6 92ZM411.6 85.4L411.6 87.8L412.8 87.8Q413.3 87.8 413.6 87.7Q414.0 87.5 414.1 87.3Q414.3 87.0 414.3 86.6L414.3 86.6Q414.3 86.2 414.1 85.9Q414.0 85.6 413.6 85.5Q413.3 85.4 412.8 85.4L412.8 85.4L411.6 85.4ZM421.6 92.1L421.6 92.1Q420.7 92.1 420.0 91.8Q419.3 91.5 418.9 90.9Q418.5 90.4 418.4 89.5L418.4 89.5L420.0 89.5Q420.1 89.9 420.3 90.2Q420.5 90.5 420.8 90.6Q421.2 90.7 421.6 90.7L421.6 90.7Q422.1 90.7 422.4 90.6Q422.7 90.5 422.9 90.2Q423.1 90.0 423.1 89.7L423.1 89.7Q423.1 89.4 422.9 89.3Q422.8 89.1 422.4 88.9Q422.1 88.8 421.7 88.7L421.7 88.7L420.8 88.5Q419.8 88.2 419.2 87.7Q418.7 87.2 418.7 86.3L418.7 86.3Q418.7 85.6 419.0 85.0Q419.4 84.5 420.1 84.2Q420.8 83.9 421.7 83.9L421.7 83.9Q422.5 83.9 423.2 84.2Q423.9 84.5 424.2 85.0Q424.6 85.6 424.6 86.3L424.6 86.3L423.0 86.3Q423.0 85.8 422.6 85.5Q422.3 85.3 421.6 85.3L421.6 85.3Q421.2 85.3 420.9 85.4Q420.6 85.5 420.5 85.7Q420.3 85.9 420.3 86.2L420.3 86.2Q420.3 86.5 420.5 86.7Q420.7 86.9 421.0 87.0Q421.3 87.1 421.6 87.2L421.6 87.2L422.3 87.4Q422.8 87.5 423.3 87.7Q423.7 87.9 424.0 88.2Q424.4 88.4 424.5 88.8Q424.7 89.2 424.7 89.7L424.7 89.7Q424.7 90.4 424.4 91.0Q424.0 91.5 423.3 91.8Q422.6 92.1 421.6 92.1Z "/></g><mask id="satori_om-id-3"><rect x="540" y="30" width="319" height="80" fill="#fff" mask="url(#satori_om-id)"/></mask><mask id="satori_om-id-3-0"><rect x="652" y="46" width="96" height="30" fill="#fff" mask="url(#satori_om-id)"/></mask><g mask="url(#satori_om-id)" clip-path="url(#satori_cp-id)"><path fill="#f59e0b" d="M669.3 72L653.8 72L653.8 68.8L661.6 61.5Q662.5 60.6 663.2 59.8Q663.9 59.0 664.3 58.2Q664.6 57.5 664.6 56.6L664.6 56.6Q664.6 55.6 664.2 54.9Q663.7 54.2 663.0 53.8Q662.2 53.5 661.2 53.5L661.2 53.5Q660.2 53.5 659.5 53.9Q658.7 54.3 658.3 55.0Q657.9 55.8 657.9 56.9L657.9 56.9L653.6 56.9Q653.6 54.7 654.6 53.2Q655.6 51.6 657.3 50.7Q659.0 49.9 661.3 49.9L661.3 49.9Q663.6 49.9 665.3 50.7Q667.0 51.5 668.0 53.0Q669.0 54.4 669.0 56.3L669.0 56.3Q669.0 57.5 668.5 58.7Q668.0 59.9 666.8 61.4Q665.6 62.9 663.3 64.9L663.3 64.9L660.0 68.2L660.0 68.3L669.3 68.3L669.3 72ZM680.1 72.3L680.1 72.3Q677.9 72.3 676.1 71.5Q674.4 70.6 673.3 69.2Q672.3 67.7 672.3 65.9L672.3 65.9L676.6 65.9Q676.7 66.7 677.1 67.4Q677.6 68.0 678.4 68.4Q679.2 68.7 680.1 68.7L680.1 68.7Q681.2 68.7 682.0 68.3Q682.9 67.8 683.4 66.9Q683.8 66.0 683.8 64.9L683.8 64.9Q683.8 63.7 683.4 62.8Q682.9 61.9 682.0 61.4Q681.2 60.9 680.0 60.9L680.0 60.9Q679.0 60.9 678.1 61.3Q677.2 61.7 676.7 62.3L676.7 62.3L672.7 61.6L673.8 50.2L687.0 50.2L687.0 53.9L677.5 53.9L676.9 59.4L677.0 59.4Q677.6 58.6 678.8 58.1Q679.9 57.6 681.3 57.6L681.3 57.6Q682.8 57.6 684.1 58.1Q685.3 58.6 686.2 59.6Q687.2 60.5 687.7 61.9Q688.2 63.2 688.2 64.7L688.2 64.7Q688.2 66.9 687.2 68.6Q686.1 70.3 684.3 71.3Q682.5 72.3 680.1 72.3ZM699.7 72.3L699.7 72.3Q696.9 72.3 695.0 71.0Q693.0 69.6 692.0 67.1Q690.9 64.6 690.9 61.1L690.9 61.1Q690.9 57.6 692.0 55.1Q693.0 52.5 695.0 51.2Q696.9 49.9 699.7 49.9L699.7 49.9Q702.4 49.9 704.4 51.2Q706.3 52.6 707.4 55.1Q708.4 57.6 708.4 61.1L708.4 61.1Q708.4 64.6 707.4 67.1Q706.3 69.6 704.4 71.0Q702.4 72.3 699.7 72.3ZM699.7 68.6L699.7 68.6Q701.0 68.6 701.9 67.7Q702.9 66.8 703.4 65.2Q703.9 63.5 703.9 61.1L703.9 61.1Q703.9 58.7 703.4 57.0Q702.9 55.3 701.9 54.5Q701.0 53.6 699.7 53.6L699.7 53.6Q698.3 53.6 697.4 54.5Q696.5 55.3 696.0 57.0Q695.5 58.7 695.5 61.1L695.5 61.1Q695.5 63.5 696.0 65.2Q696.5 66.8 697.4 67.7Q698.3 68.6 699.7 68.6ZM719.0 72.3L719.0 72.3Q716.7 72.3 715.0 71.5Q713.2 70.6 712.2 69.2Q711.2 67.7 711.2 65.9L711.2 65.9L715.5 65.9Q715.6 66.7 716.0 67.4Q716.5 68.0 717.3 68.4Q718.1 68.7 719.0 68.7L719.0 68.7Q720.1 68.7 720.9 68.3Q721.8 67.8 722.3 66.9Q722.7 66.0 722.7 64.9L722.7 64.9Q722.7 63.7 722.2 62.8Q721.8 61.9 720.9 61.4Q720.0 60.9 718.9 60.9L718.9 60.9Q717.9 60.9 717.0 61.3Q716.1 61.7 715.6 62.3L715.6 62.3L711.6 61.6L712.7 50.2L725.9 50.2L725.9 53.9L716.4 53.9L715.8 59.4L715.9 59.4Q716.5 58.6 717.7 58.1Q718.8 57.6 720.2 57.6L720.2 57.6Q721.7 57.6 722.9 58.1Q724.2 58.6 725.1 59.6Q726.0 60.5 726.6 61.9Q727.1 63.2 727.1 64.7L727.1 64.7Q727.1 66.9 726.1 68.6Q725.0 70.3 723.2 71.3Q721.4 72.3 719.0 72.3ZM737.6 72.3L737.6 72.3Q735.4 72.3 733.7 71.5Q731.9 70.6 730.9 69.2Q729.9 67.7 729.8 65.9L729.8 65.9L734.2 65.9Q734.2 66.7 734.7 67.4Q735.2 68.0 736.0 68.4Q736.7 68.7 737.6 68.7L737.6 68.7Q738.7 68.7 739.6 68.3Q740.4 67.8 740.9 66.9Q741.4 66.0 741.4 64.9L741.4 64.9Q741.4 63.7 740.9 62.8Q740.4 61.9 739.6 61.4Q738.7 60.9 737.6 60.9L737.6 60.9Q736.6 60.9 735.7 61.3Q734.8 61.7 734.3 62.3L734.3 62.3L730.3 61.6L731.3 50.2L744.5 50.2L744.5 53.9L735.0 53.9L734.5 59.4L734.6 59.4Q735.2 58.6 736.3 58.1Q737.5 57.6 738.9 57.6L738.9 57.6Q740.4 57.6 741.6 58.1Q742.9 58.6 743.8 59.6Q744.7 60.5 745.2 61.9Q745.7 63.2 745.7 64.7L745.7 64.7Q745.7 66.9 744.7 68.6Q743.7 70.3 741.9 71.3Q740.1 72.3 737.6 72.3Z "/></g><mask id="satori_om-id-3-1"><rect x="667" y="81" width="66" height="13" fill="#fff" mask="url(#satori_om-id)"/></mask><g mask="url(#satori_om-id)" clip-path="url(#satori_cp-id)"><path fill="rgba(200,195,225,0.45)" d="M671.2 92.1L671.2 92.1Q670.2 92.1 669.3 91.6Q668.5 91.1 668.0 90.2Q667.5 89.3 667.5 88.0L667.5 88.0Q667.5 86.7 668.0 85.8Q668.5 84.9 669.3 84.4Q670.2 83.9 671.2 83.9L671.2 83.9Q671.9 83.9 672.5 84.1Q673.1 84.3 673.5 84.6Q674.0 85.0 674.3 85.5Q674.6 86.1 674.7 86.7L674.7 86.7L673.0 86.7Q673.0 86.4 672.8 86.1Q672.6 85.9 672.4 85.7Q672.2 85.5 671.9 85.4Q671.6 85.3 671.3 85.3L671.3 85.3Q670.6 85.3 670.2 85.7Q669.7 86.0 669.4 86.6Q669.2 87.2 669.2 88.0L669.2 88.0Q669.2 88.9 669.4 89.5Q669.7 90.1 670.2 90.4Q670.6 90.7 671.2 90.7L671.2 90.7Q671.6 90.7 671.9 90.6Q672.2 90.5 672.4 90.3Q672.6 90.1 672.8 89.8Q673.0 89.6 673.0 89.3L673.0 89.3L674.7 89.3Q674.6 89.8 674.3 90.3Q674.1 90.8 673.6 91.2Q673.2 91.6 672.6 91.9Q672.0 92.1 671.2 92.1ZM680.9 92.1L680.9 92.1Q679.8 92.1 679.0 91.6Q678.1 91.1 677.6 90.2Q677.1 89.3 677.1 88.0L677.1 88.0Q677.1 86.7 677.6 85.8Q678.1 84.9 679.0 84.4Q679.8 83.9 680.9 83.9L680.9 83.9Q681.9 83.9 682.8 84.4Q683.6 84.9 684.1 85.8Q684.6 86.7 684.6 88.0L684.6 88.0Q684.6 89.3 684.1 90.2Q683.6 91.1 682.8 91.6Q681.9 92.1 680.9 92.1ZM680.9 90.7L680.9 90.7Q681.5 90.7 682.0 90.3Q682.4 90.0 682.7 89.5Q682.9 88.9 682.9 88.0L682.9 88.0Q682.9 87.1 682.7 86.5Q682.4 86.0 682.0 85.6Q681.5 85.3 680.9 85.3L680.9 85.3Q680.3 85.3 679.8 85.7Q679.3 86.0 679.1 86.6Q678.8 87.1 678.8 88.0L678.8 88.0Q678.8 88.9 679.1 89.4Q679.3 90.0 679.8 90.3Q680.3 90.7 680.9 90.7ZM689.0 92L687.3 92L687.3 84.0L689.9 84.0L691.2 87.7Q691.2 87.9 691.3 88.3Q691.4 88.7 691.5 89.2L691.5 89.2Q691.7 89.7 691.7 90.1L691.7 90.1Q691.8 89.7 691.9 89.2L691.9 89.2Q692.0 88.8 692.2 88.3Q692.3 87.9 692.3 87.7L692.3 87.7L693.6 84.0L696.1 84.0L696.1 92L694.5 92L694.5 88.2Q694.5 88.0 694.5 87.6Q694.5 87.2 694.5 86.7Q694.5 86.3 694.5 85.8L694.5 85.8Q694.6 85.6 694.6 85.4L694.6 85.4Q694.5 85.6 694.4 85.9L694.4 85.9Q694.3 86.3 694.2 86.8Q694.1 87.2 693.9 87.6Q693.8 88.0 693.8 88.2L693.8 88.2L692.4 92L691.0 92L689.7 88.2Q689.6 88.0 689.5 87.6Q689.4 87.2 689.3 86.8Q689.1 86.4 689.0 85.9L689.0 85.9Q689.0 85.7 688.9 85.5L688.9 85.5Q688.9 85.6 688.9 85.8L688.9 85.8Q688.9 86.2 688.9 86.7Q688.9 87.2 689.0 87.6Q689.0 88.0 689.0 88.2L689.0 88.2L689.0 92ZM700.7 92L699.1 92L699.1 84.0L701.6 84.0L702.9 87.7Q703.0 87.9 703.1 88.3Q703.2 88.7 703.3 89.2L703.3 89.2Q703.4 89.7 703.5 90.1L703.5 90.1Q703.6 89.7 703.7 89.2L703.7 89.2Q703.8 88.8 703.9 88.3Q704.0 87.9 704.1 87.7L704.1 87.7L705.4 84.0L707.9 84.0L707.9 92L706.2 92L706.2 88.2Q706.2 88.0 706.2 87.6Q706.3 87.2 706.3 86.7Q706.3 86.3 706.3 85.8L706.3 85.8Q706.3 85.6 706.3 85.4L706.3 85.4Q706.2 85.6 706.2 85.9L706.2 85.9Q706.1 86.3 705.9 86.8Q705.8 87.2 705.7 87.6Q705.6 88.0 705.5 88.2L705.5 88.2L704.2 92L702.8 92L701.4 88.2Q701.4 88.0 701.3 87.6Q701.1 87.2 701.0 86.8Q700.9 86.4 700.8 85.9L700.8 85.9Q700.7 85.7 700.7 85.5L700.7 85.5Q700.7 85.6 700.7 85.8L700.7 85.8Q700.7 86.2 700.7 86.7Q700.7 87.2 700.7 87.6Q700.7 88.0 700.7 88.2L700.7 88.2L700.7 92ZM710.8 84.0L712.5 84.0L712.5 92L710.8 92L710.8 84.0ZM717.5 85.4L715.1 85.4L715.1 84.0L721.6 84.0L721.6 85.4L719.2 85.4L719.2 92L717.5 92L717.5 85.4ZM727.2 92.1L727.2 92.1Q726.2 92.1 725.5 91.8Q724.8 91.5 724.4 90.9Q724.0 90.4 724.0 89.5L724.0 89.5L725.6 89.5Q725.6 89.9 725.8 90.2Q726.0 90.5 726.4 90.6Q726.7 90.7 727.2 90.7L727.2 90.7Q727.6 90.7 727.9 90.6Q728.3 90.5 728.5 90.2Q728.6 90.0 728.6 89.7L728.6 89.7Q728.6 89.4 728.5 89.3Q728.3 89.1 728.0 88.9Q727.7 88.8 727.3 88.7L727.3 88.7L726.4 88.5Q725.4 88.2 724.8 87.7Q724.2 87.2 724.2 86.3L724.2 86.3Q724.2 85.6 724.6 85.0Q725.0 84.5 725.7 84.2Q726.3 83.9 727.2 83.9L727.2 83.9Q728.1 83.9 728.8 84.2Q729.4 84.5 729.8 85.0Q730.2 85.6 730.2 86.3L730.2 86.3L728.6 86.3Q728.6 85.8 728.2 85.5Q727.8 85.3 727.2 85.3L727.2 85.3Q726.8 85.3 726.5 85.4Q726.2 85.5 726.0 85.7Q725.9 85.9 725.9 86.2L725.9 86.2Q725.9 86.5 726.1 86.7Q726.2 86.9 726.5 87.0Q726.8 87.1 727.2 87.2L727.2 87.2L727.9 87.4Q728.4 87.5 728.8 87.7Q729.3 87.9 729.6 88.2Q729.9 88.4 730.1 88.8Q730.3 89.2 730.3 89.7L730.3 89.7Q730.3 90.4 729.9 91.0Q729.6 91.5 728.9 91.8Q728.2 92.1 727.2 92.1Z "/></g></svg>