<!-- Generated by readme-aura https://github.com/collectioneur/readme-aura -->
<svg width="860" height="140" viewBox="0 0 860 140" xmlns="http://www.w3.org/2000/svg"><defs><clipPath id="satori_bc-id"><path x="0" y="0" width="860" height="140" d="M16,0 h828 a16,16 0 0 1 16,16 v108 a16,16 0 0 1 -16,16 h-828 a16,16 0 0 1 -16,-16 v-108 a16,16 0 0 1 16,-16"/></clipPath></defs><clipPath id="satori_cp-id"><path x="0" y="0" width="860" height="140" d="M16,0 h828 a16,16 0 0 1 16,16 v108 a16,16 0 0 1 -16,16 h-828 a16,16 0 0 1 -16,-16 v-108 a16,16 0 0 1 16,-16"/></clipPath><mask id="satori_om-id"><rect x="1" y="1" width="858" height="138" fill="#fff"/><path width="860" height="140" fill="none" stroke="#000" stroke-width="2" d="M4.686,4.686 A16,16 0 0 1 16,0 h828 a16,16 0 0 1 16,16 v108 a16,16 0 0 1 -16,16 h-828 a16,16 0 0 1 -16,-16 v-108 A16,16 0 0 1 4.686,4.686"/></mask><path x="0" y="0" width="860" height="140" fill="#08080c" d="M16,0 h828 a16,16 0 0 1 16,16 v108 a16,16 0 0 1 -16,16 h-828 a16,16 0 0 1 -16,-16 v-108 a16,16 0 0 1 16,-16"/><path width="860" height="140" clip-path="url(#satori_bc-id)" fill="none" stroke="rgba(110,80,220,0.18)" stroke-width="2" d="M4.686,4.686 A16,16 0 0 1 16,0 h828 a16,16 0 0 1 16,16 v108 a16,16 0 0 1 -16,16 h-828 a16,16 0 0 1 -16,-16 v-108 A16,16 0 0 1 4.686,4.686"/><clipPath id="satori_cp-id-0" clip-path="url(#satori_cp-id)"><rect x="1" y="1" width="860" height="140"/></clipPath><mask id="satori_om-id-0"><rect x="1" y="1" width="860" height="140" fill="#fff" mask="url(#satori_om-id)"/></mask><svg x="1" y="1" width="860" height="140" preserveAspectRatio="none" clip-path="url(#satori_cp-id-0)" mask="url(#satori_om-id-0)"><defs><radialGradient id="g1" cx="50%" cy="50%" r="50%"><stop offset="0%" stop-color="rgba(110,20,210,0.65)"></stop><stop offset="45%" stop-color="rgba(80,15,170,0.28)"></stop><stop offset="70%" stop-color="rgba(80,15,170,0)"></stop></radialGradient><radialGradient id="g2" cx="50%" cy="50%" r="50%"><stop offset="0%" stop-color="rgba(40,70,255,0.55)"></stop><stop offset="45%" stop-color="rgba(20,50,200,0.22)"></stop><stop offset="70%" stop-color="rgba(20,50,200,0)"></stop></radialGradient><radialGradient id="g3" cx="50%" cy="50%" r="50%"><stop offset="0%" stop-color="rgba(0,140,255,0.42)"></stop><stop offset="70%" stop-color="rgba(0,140,255,0)"></stop></radialGradient><radialGradient id="g4" cx="50%" cy="50%" r="50%"><stop offset="0%" stop-color="rgba(0,195,235,0.30)"></stop><stop offset="70%" stop-color="rgba(0,195,235,0)"></stop></radialGradient><radialGradient id="g5" cx="50%" cy="50%" r="50%"><stop offset="0%" stop-color="rgba(100,30,210,0.40)"></stop><stop offset="70%" stop-color="rgba(100,30,210,0)"></stop></radialGradient></defs><ellipse id="glow-1" cx="710" cy="150" rx="210" ry="150" fill="url(#g1)"></ellipse><ellipse id="glow-2" cx="550" cy="140" rx="190" ry="140" fill="url(#g2)"></ellipse><ellipse id="glow-3" cx="400" cy="130" rx="170" ry="130" fill="url(#g3)"></ellipse><ellipse id="glow-4" cx="250" cy="140" rx="150" ry="120" fill="url(#g4)"></ellipse><ellipse id="glow-5" cx="100" cy="150" rx="130" ry="110" fill="url(#g5)"></ellipse><style>

         @keyframes float-slow {
           0%, 100% { transform: translateX(0px); opacity: 0.8; }
           50% { transform: translateX(350px); opacity: 1.2; }
         }
         @keyframes float-medium {
           0%, 100% { transform: translateX(0px); opacity: 0.7; }
           50% { transform: translateX(-250px); opacity: 1.1; }
         }
         @keyframes float-fast {
           0%, 100% { transform: translateX(0px); opacity: 0.9; }
           50% { transform: translateX(200px); opacity: 0.6; }
         }
         @keyframes float-diagonal {
           0%, 100% { transform: translate(0px, 0px); opacity: 0.75; }
           50% { transform: translate(120px, 30px); opacity: 1.0; }
         }
         @keyframes float-wave {
           0%, 100% { transform: translateX(0px); opacity: 0.65; }
           33% { transform: translateX(-160px); opacity: 0.9; }
           66% { transform: translateX(80px); opacity: 1.0; }
         }
         @keyframes float-pulse {
           0%, 100% { transform: scale(1); opacity: 0.8; }
           50% { transform: scale(1.3); opacity: 0.4; }
         }
         #glow-1 { animation: float-slow 8s ease-in-out infinite; }
         #glow-2 { animation: float-medium 12s ease-in-out infinite; }
         #glow-3 { animation: float-fast 9s ease-in-out infinite; }
         #glow-4 { animation: float-diagonal 10s ease-in-out infinite; }
         #glow-5 { animation: float-wave 14s ease-in-out infinite; }
       
</style>
</svg><mask id="satori_om-id-0-0"><rect x="1" y="1" width="0" height="140" fill="#fff" mask="url(#satori_om-id)"/></mask><mask id="satori_om-id-0-0-0"><rect x="1" y="1" width="0" height="140" fill="#fff" mask="url(#satori_om-id)"/></mask><mask id="satori_om-id-0-0-0-0"><rect x="1" y="1" width="0" height="140" fill="#fff" mask="url(#satori_om-id)"/></mask><mask id="satori_om-id-0-0-0-1"><rect x="1" y="1" width="0" height="140" fill="#fff" mask="url(#satori_om-id)"/></mask><mask id="satori_om-id-0-0-0-2"><rect x="1" y="1" width="0" height="140" fill="#fff" mask="url(#satori_om-id)"/></mask><mask id="satori_om-id-0-0-1"><rect x="1" y="1" width="0" height="140" fill="#fff" mask="url(#satori_om-id)"/></mask><mask id="satori_om-id-0-0-1-0"><rect x="1" y="1" width="0" height="140" fill="#fff" mask="url(#satori_om-id)"/></mask><mask id="satori_om-id-0-0-1-1"><rect x="1" y="1" width="0" height="140" fill="#fff" mask="url(#satori_om-id)"/></mask><mask id="satori_om-id-0-0-1-2"><rect x="1" y="1" width="0" height="140" fill="#fff" mask="url(#satori_om-id)"/></mask><mask id="satori_om-id-0-0-2"><rect x="1" y="1" width="0" height="140" fill="#fff" mask="url(#satori_om-id)"/></mask><mask id="satori_om-id-0-0-2-0"><rect x="1" y="1" width="0" height="140" fill="#fff" mask="url(#satori_om-id)"/></mask><mask id="satori_om-id-0-0-2-1"><rect x="1" y="1" width="0" height="140" fill="#fff" mask="url(#satori_om-id)"/></mask><mask id="satori_om-id-0-0-3"><rect x="1" y="1" width="0" height="140" fill="#fff" mask="url(#satori_om-id)"/></mask><mask id="satori_om-id-0-0-3-0"><rect x="1" y="1" width="0" height="140" fill="#fff" mask="url(#satori_om-id)"/></mask><mask id="satori_om-id-0-0-3-1"><rect x="1" y="1" width="0" height="140" fill="#fff" mask="url(#satori_om-id)"/></mask><mask id="satori_om-id-0-0-4"><rect x="1" y="1" width="0" height="140" fill="#fff" mask="url(#satori_om-id)"/></mask><mask id="satori_om-id-0-0-4-0"><rect x="1" y="1" width="0" height="140" fill="#fff" mask="url(#satori_om-id)"/></mask><mask id="satori_om-id-0-0-4-1"><rect x="1" y="1" width="0" height="140" fill="#fff" mask="url(#satori_om-id)"/></mask><mask id="satori_om-id-0-1"><rect x="1" y="1" width="0" height="140" fill="#fff" mask="url(#satori_om-id)"/></mask><mask id="satori_om-id-0-2"><rect x="1" y="1" width="0" height="140" fill="#fff" mask="url(#satori_om-id)"/></mask><mask id="satori_om-id-0-3"><rect x="1" y="1" width="0" height="140" fill="#fff" mask="url(#satori_om-id)"/></mask><mask id="satori_om-id-0-4"><rect x="1" y="1" width="0" height="140" fill="#fff" mask="url(#satori_om-id)"/></mask><mask id="satori_om-id-0-5"><rect x="1" y="1" width="0" height="140" fill="#fff" mask="url(#satori_om-id)"/></mask><defs><clipPath id="satori_bc-id-1" clip-path="url(#satori_cp-id)"><rect x="1" y="30" width="271" height="80"/></clipPath></defs><mask id="satori_om-id-1"><rect x="1" y="30" width="270" height="80" fill="#fff" mask="url(#satori_om-id)"/><path width="271" height="80" fill="none" stroke="#000" stroke-width="2" d="M272,30 A0,0 0 0 1 272,30 v80 A0,0 0 0 1 272,110"/></mask><path width="271" height="80" clip-path="url(#satori_bc-id-1)" fill="none" stroke="rgba(255,255,255,0.06)" stroke-width="2" d="M272,30 A0,0 0 0 1 272,30 v80 A0,0 0 0 1 272,110"/><mask id="satori_om-id-1-0"><rect x="120" y="46" width="32" height="30" fill="#fff" mask="url(#satori_om-id)"/></mask><g mask="url(#satori_om-id)" clip-path="url(#satori_cp-id)"><path fill="#a78bfa" d="M126.2 50.2L131.0 50.2L131.0 72L126.5 72L126.5 54.1L126.4 54.1L121.4 57.7L121.4 53.6L126.2 50.2ZM142.1 72.3L142.1 72.3Q139.9 72.3 138.1 71.5Q136.4 70.6 135.4 69.2Q134.4 67.7 134.3 65.9L134.3 65.9L138.7 65.9Q138.7 66.7 139.2 67.4Q139.7 68.0 140.4 68.4Q141.2 68.7 142.1 68.7L142.1 68.7Q143.2 68.7 144.1 68.3Q144.9 67.8 145.4 66.9Q145.9 66.0 145.9 64.9L145.9 64.9Q145.9 63.7 145.4 62.8Q144.9 61.9 144.0 61.4Q143.2 60.9 142.1 60.9L142.1 60.9Q141.1 60.9 140.2 61.3Q139.3 61.7 138.8 62.3L138.8 62.3L134.8 61.6L135.8 50.2L149.0 50.2L149.0 53.9L139.5 53.9L139.0 59.4L139.1 59.4Q139.7 58.6 140.8 58.1Q142.0 57.6 143.4 57.6L143.4 57.6Q144.8 57.6 146.1 58.1Q147.3 58.6 148.3 59.6Q149.2 60.5 149.7 61.9Q150.2 63.2 150.2 64.7L150.2 64.7Q150.2 66.9 149.2 68.6Q148.2 70.3 146.4 71.3Q144.5 72.3 142.1 72.3Z "/></g><mask id="satori_om-id-1-1"><rect x="114" y="81" width="45" height="13" fill="#fff" mask="url(#satori_om-id)"/></mask><g mask="url(#satori_om-id)" clip-path="url(#satori_cp-id)"><path fill="rgba(200,195,225,0.45)" d="M116.4 92L114.7 92L114.7 84.0L117.8 84.0Q118.8 84.0 119.4 84.3Q120.0 84.6 120.4 85.2Q120.7 85.8 120.7 86.6Q120.7 87.4 120.4 88.0Q120.0 88.5 119.4 88.8L119.4 88.8Q119.3 88.9 119.3 88.9L119.3 88.9L121.0 92L119.2 92L117.6 89.1L116.4 89.1L116.4 92ZM116.4 85.4L116.4 87.8L117.5 87.8Q118.0 87.8 118.4 87.7Q118.7 87.5 118.9 87.3Q119.0 87.0 119.0 86.6L119.0 86.6Q119.0 86.2 118.9 85.9Q118.7 85.6 118.4 85.5Q118.0 85.4 117.5 85.4L117.5 85.4L116.4 85.4ZM128.8 92L123.4 92L123.4 84.0L128.8 84.0L128.8 85.4L125.1 85.4L125.1 87.3L128.5 87.3L128.5 88.6L125.1 88.6L125.1 90.6L128.8 90.6L128.8 92ZM133.3 92L131.6 92L131.6 84.0L134.8 84.0Q135.7 84.0 136.3 84.3Q136.9 84.7 137.3 85.3Q137.6 85.9 137.6 86.7L137.6 86.7Q137.6 87.5 137.3 88.1Q136.9 88.7 136.3 89.0Q135.6 89.4 134.7 89.4L134.7 89.4L133.3 89.4L133.3 92ZM133.3 85.4L133.3 88.1L134.5 88.1Q135.0 88.1 135.3 87.9Q135.6 87.7 135.8 87.4Q135.9 87.1 135.9 86.7Q135.9 86.3 135.8 86.0Q135.6 85.7 135.3 85.5Q135.0 85.4 134.4 85.4L134.4 85.4L133.3 85.4ZM143.8 92.1L143.8 92.1Q142.7 92.1 141.9 91.6Q141.0 91.1 140.5 90.2Q140.0 89.3 140.0 88.0L140.0 88.0Q140.0 86.7 140.5 85.8Q141.0 84.9 141.9 84.4Q142.7 83.9 143.8 83.9L143.8 83.9Q144.8 83.9 145.7 84.4Q146.5 84.9 147.0 85.8Q147.5 86.7 147.5 88.0L147.5 88.0Q147.5 89.3 147.0 90.2Q146.5 91.1 145.7 91.6Q144.8 92.1 143.8 92.1ZM143.8 90.7L143.8 90.7Q144.4 90.7 144.9 90.3Q145.3 90.0 145.6 89.5Q145.8 88.9 145.8 88.0L145.8 88.0Q145.8 87.1 145.6 86.5Q145.3 86.0 144.9 85.6Q144.4 85.3 143.8 85.3L143.8 85.3Q143.2 85.3 142.7 85.7Q142.2 86.0 142.0 86.6Q141.7 87.1 141.7 88.0L141.7 88.0Q141.7 88.9 142.0 89.4Q142.2 90.0 142.7 90.3Q143.2 90.7 143.8 90.7ZM153.2 92.1L153.2 92.1Q152.2 92.1 151.5 91.8Q150.8 91.5 150.4 90.9Q150.0 90.4 150.0 89.5L150.0 89.5L151.6 89.5Q151.6 89.9 151.8 90.2Q152.0 90.5 152.4 90.6Q152.7 90.7 153.2 90.7L153.2 90.7Q153.6 90.7 153.9 90.6Q154.2 90.5 154.4 90.2Q154.6 90.0 154.6 89.7L154.6 89.7Q154.6 89.4 154.4 89.3Q154.3 89.1 154.0 88.9Q153.7 88.8 153.2 88.7L153.2 88.7L152.3 88.5Q151.3 88.2 150.8 87.7Q150.2 87.2 150.2 86.3L150.2 86.3Q150.2 85.6 150.6 85.0Q151.0 84.5 151.6 84.2Q152.3 83.9 153.2 83.9L153.2 83.9Q154.1 83.9 154.7 84.2Q155.4 84.5 155.8 85.0Q156.1 85.6 156.1 86.3L156.1 86.3L154.6 86.3Q154.5 85.8 154.2 85.5Q153.8 85.3 153.2 85.3L153.2 85.3Q152.8 85.3 152.5 85.4Q152.2 85.5 152.0 85.7Q151.9 85.9 151.9 86.2L151.9 86.2Q151.9 86.5 152.0 86.7Q152.2 86.9 152.5 87.0Q152.8 87.1 153.1 87.2L153.1 87.2L153.9 87.4Q154.4 87.5 154.8 87.7Q155.2 87.9 155.6 88.2Q155.9 88.4 156.1 88.8Q156.3 89.2 156.3 89.7L156.3 89.7Q156.3 90.4 155.9 91.0Q155.5 91.5 154.8 91.8Q154.1 92.1 153.2 92.1Z "/></g><defs><clipPath id="satori_bc-id-2" clip-path="url(#satori_cp-id)"><rect x="272" y="30" width="272" height="80"/></clipPath></defs><mask id="satori_om-id-2"><rect x="272" y="30" width="271" height="80" fill="#fff" mask="url(#satori_om-id)"/><path width="272" height="80" fill="none" stroke="#000" stroke-width="2" d="M544,30 A0,0 0 0 1 544,30 v80 A0,0 0 0 1 544,110"/></mask><path width="272" height="80" clip-path="url(#satori_bc-id-2)" fill="none" stroke="rgba(255,255,255,0.06)" stroke-width="2" d="M544,30 A0,0 0 0 1 544,30 v80 A0,0 0 0 1 544,110"/><mask id="satori_om-id-2-0"><rect x="397" y="46" width="21" height="30" fill="#fff" mask="url(#satori_om-id)"/></mask><g mask="url(#satori_om-id)" clip-path="url(#satori_cp-id)"><path fill="#60a5fa" d="M408.9 68.1L398.5 68.1L398.5 64.6L407.6 50.2L413.2 50.2L413.2 64.5L415.9 64.5L415.9 68.1L413.2 68.1L413.2 72L408.9 72L408.9 68.1ZM403.0 64.5L409.0 64.5L409.0 55.1L408.8 55.1L403.0 64.3L403.0 64.5Z "/></g><mask id="satori_om-id-2-1"><rect x="385" y="81" width="45" height="13" fill="#fff" mask="url(#satori_om-id)"/></mask><g mask="url(#satori_om-id)" clip-path="url(#satori_cp-id)"><path fill="rgba(200,195,225,0.45)" d="M388.7 92.1L388.7 92.1Q387.7 92.1 387.0 91.8Q386.3 91.5 385.9 90.9Q385.5 90.4 385.5 89.5L385.5 89.5L387.1 89.5Q387.1 89.9 387.3 90.2Q387.5 90.5 387.9 90.6Q388.2 90.7 388.6 90.7L388.6 90.7Q389.1 90.7 389.4 90.6Q389.7 90.5 389.9 90.2Q390.1 90.0 390.1 89.7L390.1 89.7Q390.1 89.4 389.9 89.3Q389.8 89.1 389.5 88.9Q389.2 88.8 388.7 88.7L388.7 88.7L387.8 88.5Q386.8 88.2 386.2 87.7Q385.7 87.2 385.7 86.3L385.7 86.3Q385.7 85.6 386.1 85.0Q386.5 84.5 387.1 84.2Q387.8 83.9 388.7 83.9L388.7 83.9Q389.6 83.9 390.2 84.2Q390.9 84.5 391.3 85.0Q391.6 85.6 391.6 86.3L391.6 86.3L390.1 86.3Q390.0 85.8 389.6 85.5Q389.3 85.3 388.7 85.3L388.7 85.3Q388.2 85.3 388.0 85.4Q387.7 85.5 387.5 85.7Q387.4 85.9 387.4 86.2L387.4 86.2Q387.4 86.5 387.5 86.7Q387.7 86.9 388.0 87.0Q388.3 87.1 388.6 87.2L388.6 87.2L389.4 87.4Q389.9 87.5 390.3 87.7Q390.7 87.9 391.1 88.2Q391.4 88.4 391.6 88.8Q391.7 89.2 391.7 89.7L391.7 89.7Q391.7 90.4 391.4 91.0Q391.0 91.5 390.3 91.8Q389.6 92.1 388.7 92.1ZM396.6 85.4L394.1 85.4L394.1 84.0L400.6 84.0L400.6 85.4L398.2 85.4L398.2 92L396.6 92L396.6 85.4ZM404.6 92L402.8 92L405.5 84.0L407.7 84.0L410.5 92L408.7 92L408.1 90.1L405.2 90.1L404.6 92ZM405.6 88.9L407.6 88.9L407.4 88.1Q407.2 87.4 406.9 86.5L406.9 86.5Q406.8 85.9 406.6 85.3L406.6 85.3Q406.4 85.9 406.3 86.5L406.3 86.5Q406.1 87.4 405.9 88.1L405.9 88.1L405.6 88.9ZM414.6 92L413.0 92L413.0 84.0L416.1 84.0Q417.0 84.0 417.7 84.3Q418.3 84.6 418.6 85.2Q419.0 85.8 419.0 86.6Q419.0 87.4 418.6 88.0Q418.3 88.5 417.6 88.8L417.6 88.8Q417.6 88.9 417.5 88.9L417.5 88.9L419.3 92L417.4 92L415.9 89.1L414.6 89.1L414.6 92ZM414.6 85.4L414.6 87.8L415.8 87.8Q416.3 87.8 416.6 87.7Q417.0 87.5 417.1 87.3Q417.3 87.0 417.3 86.6L417.3 86.6Q417.3 86.2 417.1 85.9Q417.0 85.6 416.6 85.5Q416.3 85.4 415.8 85.4L415.8 85.4L414.6 85.4ZM424.6 92.1L424.6 92.1Q423.7 92.1 423.0 91.8Q422.3 91.5 421.9 90.9Q421.5 90.4 421.4 89.5L421.4 89.5L423.0 89.5Q423.1 89.9 423.3 90.2Q423.5 90.5 423.8 90.6Q424.2 90.7 424.6 90.7L424.6 90.7Q425.1 90.7 425.4 90.6Q425.7 90.5 425.9 90.2Q426.1 90.0 426.1 89.7L426.1 89.7Q426.1 89.4 425.9 89.3Q425.8 89.1 425.4 88.9Q425.1 88.8 424.7 88.7L424.7 88.7L423.8 88.5Q422.8 88.2 422.2 87.7Q421.7 87.2 421.7 86.3L421.7 86.3Q421.7 85.6 422.0 85.0Q422.4 84.5 423.1 84.2Q423.8 83.9 424.7 83.9L424.7 83.9Q425.5 83.9 426.2 84.2Q426.9 84.5 427.2 85.0Q427.6 85.6 427.6 86.3L427.6 86.3L426.0 86.3Q426.0 85.8 425.6 85.5Q425.3 85.3 424.6 85.3L424.6 85.3Q424.2 85.3 423.9 85.4Q423.6 85.5 423.5 85.7Q423.3 85.9 423.3 86.2L423.3 86.2Q423.3 86.5 423.5 86.7Q423.7 86.9 424.0 87.0Q424.3 87.1 424.6 87.2L424.6 87.2L425.3 87.4Q425.8 87.5 426.3 87.7Q426.7 87.9 427.0 88.2Q427.4 88.4 427.5 88.8Q427.7 89.2 427.7 89.7L427.7 89.7Q427.7 90.4 427.4 91.0Q427.0 91.5 426.3 91.8Q425.6 92.1 424.6 92.1Z "/></g><mask id="satori_om-id-3"><rect x="544" y="30" width="315" height="80" fill="#fff" mask="url(#satori_om-id)"/></mask><mask id="satori_om-id-3-0"><rect x="657" y="46" width="90" height="30" fill="#fff" mask="url(#satori_om-id)"/></mask><g mask="url(#satori_om-id)" clip-path="url(#satori_cp-id)"><path fill="#f59e0b" d="M674.3 72L658.8 72L658.8 68.8L666.6 61.5Q667.5 60.6 668.2 59.8Q668.9 59.0 669.3 58.2Q669.6 57.5 669.6 56.6L669.6 56.6Q669.6 55.6 669.2 54.9Q668.7 54.2 668.0 53.8Q667.2 53.5 666.2 53.5L666.2 53.5Q665.2 53.5 664.5 53.9Q663.7 54.3 663.3 55.0Q662.9 55.8 662.9 56.9L662.9 56.9L658.6 56.9Q658.6 54.7 659.6 53.2Q660.6 51.6 662.3 50.7Q664.0 49.9 666.3 49.9L666.3 49.9Q668.6 49.9 670.3 50.7Q672.0 51.5 673.0 53.0Q674.0 54.4 674.0 56.3L674.0 56.3Q674.0 57.5 673.5 58.7Q673.0 59.9 671.8 61.4Q670.6 62.9 668.3 64.9L668.3 64.9L665.0 68.2L665.0 68.3L674.3 68.3L674.3 72ZM685.1 72.3L685.1 72.3Q682.9 72.3 681.1 71.5Q679.4 70.6 678.3 69.2Q677.3 67.7 677.3 65.9L677.3 65.9L681.6 65.9Q681.7 66.7 682.1 67.4Q682.6 68.0 683.4 68.4Q684.2 68.7 685.1 68.7L685.1 68.7Q686.2 68.7 687.0 68.3Q687.9 67.8 688.4 66.9Q688.8 66.0 688.8 64.9L688.8 64.9Q688.8 63.7 688.4 62.8Q687.9 61.9 687.0 61.4Q686.2 60.9 685.0 60.9L685.0 60.9Q684.0 60.9 683.1 61.3Q682.2 61.7 681.7 62.3L681.7 62.3L677.7 61.6L678.8 50.2L692.0 50.2L692.0 53.9L682.5 53.9L681.9 59.4L682.0 59.4Q682.6 58.6 683.8 58.1Q684.9 57.6 686.3 57.6L686.3 57.6Q687.8 57.6 689.1 58.1Q690.3 58.6 691.2 59.6Q692.2 60.5 692.7 61.9Q693.2 63.2 693.2 64.7L693.2 64.7Q693.2 66.9 692.2 68.6Q691.1 70.3 689.3 71.3Q687.5 72.3 685.1 72.3ZM704.7 72.3L704.7 72.3Q701.9 72.3 700.0 71.0Q698.0 69.6 697.0 67.1Q695.9 64.6 695.9 61.1L695.9 61.1Q695.9 57.6 697.0 55.1Q698.0 52.5 700.0 51.2Q701.9 49.9 704.7 49.9L704.7 49.9Q707.4 49.9 709.4 51.2Q711.3 52.6 712.4 55.1Q713.4 57.6 713.4 61.1L713.4 61.1Q713.4 64.6 712.4 67.1Q711.3 69.6 709.4 71.0Q707.4 72.3 704.7 72.3ZM704.7 68.6L704.7 68.6Q706.0 68.6 706.9 67.7Q707.9 66.8 708.4 65.2Q708.9 63.5 708.9 61.1L708.9 61.1Q708.9 58.7 708.4 57.0Q707.9 55.3 706.9 54.5Q706.0 53.6 704.7 53.6L704.7 53.6Q703.3 53.6 702.4 54.5Q701.5 55.3 701.0 57.0Q700.5 58.7 700.5 61.1L700.5 61.1Q700.5 63.5 701.0 65.2Q701.5 66.8 702.4 67.7Q703.3 68.6 704.7 68.6ZM721.0 50.2L725.8 50.2L725.8 72L721.3 72L721.3 54.1L721.1 54.1L716.2 57.7L716.2 53.6L721.0 50.2ZM745.0 72L729.5 72L729.5 68.8L737.3 61.5Q738.3 60.6 739.0 59.8Q739.6 59.0 740.0 58.2Q740.3 57.5 740.3 56.6L740.3 56.6Q740.3 55.6 739.9 54.9Q739.5 54.2 738.7 53.8Q737.9 53.5 737.0 53.5L737.0 53.5Q736.0 53.5 735.2 53.9Q734.4 54.3 734.0 55.0Q733.6 55.8 733.6 56.9L733.6 56.9L729.3 56.9Q729.3 54.7 730.3 53.2Q731.3 51.6 733.0 50.7Q734.7 49.9 737.0 49.9L737.0 49.9Q739.3 49.9 741.0 50.7Q742.8 51.5 743.7 53.0Q744.7 54.4 744.7 56.3L744.7 56.3Q744.7 57.5 744.2 58.7Q743.7 59.9 742.5 61.4Q741.3 62.9 739.0 64.9L739.0 64.9L735.8 68.2L735.8 68.3L745.0 68.3L745.0 72Z "/></g><mask id="satori_om-id-3-1"><rect x="669" y="81" width="66" height="13" fill="#fff" mask="url(#satori_om-id)"/></mask><g mask="url(#satori_om-id)" clip-path="url(#satori_cp-id)"><path fill="rgba(200,195,225,0.45)" d="M673.2 92.1L673.2 92.1Q672.2 92.1 671.3 91.6Q670.5 91.1 670.0 90.2Q669.5 89.3 669.5 88.0L669.5 88.0Q669.5 86.7 670.0 85.8Q670.5 84.9 671.3 84.4Q672.2 83.9 673.2 83.9L673.2 83.9Q673.9 83.9 674.5 84.1Q675.1 84.3 675.5 84.6Q676.0 85.0 676.3 85.5Q676.6 86.1 676.7 86.7L676.7 86.7L675.0 86.7Q675.0 86.4 674.8 86.1Q674.6 85.9 674.4 85.7Q674.2 85.5 673.9 85.4Q673.6 85.3 673.3 85.3L673.3 85.3Q672.6 85.3 672.2 85.7Q671.7 86.0 671.4 86.6Q671.2 87.2 671.2 88.0L671.2 88.0Q671.2 88.9 671.4 89.5Q671.7 90.1 672.2 90.4Q672.6 90.7 673.2 90.7L673.2 90.7Q673.6 90.7 673.9 90.6Q674.2 90.5 674.4 90.3Q674.6 90.1 674.8 89.8Q675.0 89.6 675.0 89.3L675.0 89.3L676.7 89.3Q676.6 89.8 676.3 90.3Q676.1 90.8 675.6 91.2Q675.2 91.6 674.6 91.9Q674.0 92.1 673.2 92.1ZM682.9 92.1L682.9 92.1Q681.8 92.1 681.0 91.6Q680.1 91.1 679.6 90.2Q679.1 89.3 679.1 88.0L679.1 88.0Q679.1 86.7 679.6 85.8Q680.1 84.9 681.0 84.4Q681.8 83.9 682.9 83.9L682.9 83.9Q683.9 83.9 684.8 84.4Q685.6 84.9 686.1 85.8Q686.6 86.7 686.6 88.0L686.6 88.0Q686.6 89.3 686.1 90.2Q685.6 91.1 684.8 91.6Q683.9 92.1 682.9 92.1ZM682.9 90.7L682.9 90.7Q683.5 90.7 684.0 90.3Q684.4 90.0 684.7 89.5Q684.9 88.9 684.9 88.0L684.9 88.0Q684.9 87.1 684.7 86.5Q684.4 86.0 684.0 85.6Q683.5 85.3 682.9 85.3L682.9 85.3Q682.3 85.3 681.8 85.7Q681.3 86.0 681.1 86.6Q680.8 87.1 680.8 88.0L680.8 88.0Q680.8 88.9 681.1 89.4Q681.3 90.0 681.8 90.3Q682.3 90.7 682.9 90.7ZM691.0 92L689.3 92L689.3 84.0L691.9 84.0L693.2 87.7Q693.2 87.9 693.3 88.3Q693.4 88.7 693.5 89.2L693.5 89.2Q693.7 89.7 693.7 90.1L693.7 90.1Q693.8 89.7 693.9 89.2L693.9 89.2Q694.0 88.8 694.2 88.3Q694.3 87.9 694.3 87.7L694.3 87.7L695.6 84.0L698.1 84.0L698.1 92L696.5 92L696.5 88.2Q696.5 88.0 696.5 87.6Q696.5 87.2 696.5 86.7Q696.5 86.3 696.5 85.8L696.5 85.8Q696.6 85.6 696.6 85.4L696.6 85.4Q696.5 85.6 696.4 85.9L696.4 85.9Q696.3 86.3 696.2 86.8Q696.1 87.2 695.9 87.6Q695.8 88.0 695.8 88.2L695.8 88.2L694.4 92L693.0 92L691.7 88.2Q691.6 88.0 691.5 87.6Q691.4 87.2 691.3 86.8Q691.1 86.4 691.0 85.9L691.0 85.9Q691.0 85.7 690.9 85.5L690.9 85.5Q690.9 85.6 690.9 85.8L690.9 85.8Q690.9 86.2 690.9 86.7Q690.9 87.2 691.0 87.6Q691.0 88.0 691.0 88.2L691.0 88.2L691.0 92ZM702.7 92L701.1 92L701.1 84.0L703.6 84.0L704.9 87.7Q705.0 87.9 705.1 88.3Q705.2 88.7 705.3 89.2L705.3 89.2Q705.4 89.7 705.5 90.1L705.5 90.1Q705.6 89.7 705.7 89.2L705.7 89.2Q705.8 88.8 705.9 88.3Q706.0 87.9 706.1 87.7L706.1 87.7L707.4 84.0L709.9 84.0L709.9 92L708.2 92L708.2 88.2Q708.2 88.0 708.2 87.6Q708.3 87.2 708.3 86.7Q708.3 86.3 708.3 85.8L708.3 85.8Q708.3 85.6 708.3 85.4L708.3 85.4Q708.2 85.6 708.2 85.9L708.2 85.9Q708.1 86.3 707.9 86.8Q707.8 87.2 707.7 87.6Q707.6 88.0 707.5 88.2L707.5 88.2L706.2 92L704.8 92L703.4 88.2Q703.4 88.0 703.3 87.6Q703.1 87.2 703.0 86.8Q702.9 86.4 702.8 85.9L702.8 85.9Q702.7 85.7 702.7 85.5L702.7 85.5Q702.7 85.6 702.7 85.8L702.7 85.8Q702.7 86.2 702.7 86.7Q702.7 87.2 702.7 87.6Q702.7 88.0 702.7 88.2L702.7 88.2L702.7 92ZM712.8 84.0L714.5 84.0L714.5 92L712.8 92L712.8 84.0ZM719.5 85.4L717.1 85.4L717.1 84.0L723.6 84.0L723.6 85.4L721.2 85.4L721.2 92L719.5 92L719.5 85.4ZM729.2 92.1L729.2 92.1Q728.2 92.1 727.5 91.8Q726.8 91.5 726.4 90.9Q726.0 90.4 726.0 89.5L726.0 89.5L727.6 89.5Q727.6 89.9 727.8 90.2Q728.0 90.5 728.4 90.6Q728.7 90.7 729.2 90.7L729.2 90.7Q729.6 90.7 729.9 90.6Q730.3 90.5 730.5 90.2Q730.6 90.0 730.6 89.7L730.6 89.7Q730.6 89.4 730.5 89.3Q730.3 89.1 730.0 88.9Q729.7 88.8 729.3 88.7L729.3 88.7L728.4 88.5Q727.4 88.2 726.8 87.7Q726.2 87.2 726.2 86.3L726.2 86.3Q726.2 85.6 726.6 85.0Q727.0 84.5 727.7 84.2Q728.3 83.9 729.2 83.9L729.2 83.9Q730.1 83.9 730.8 84.2Q731.4 84.5 731.8 85.0Q732.2 85.6 732.2 86.3L732.2 86.3L730.6 86.3Q730.6 85.8 730.2 85.5Q729.8 85.3 729.2 85.3L729.2 85.3Q728.8 85.3 728.5 85.4Q728.2 85.5 728.0 85.7Q727.9 85.9 727.9 86.2L727.9 86.2Q727.9 86.5 728.1 86.7Q728.2 86.9 728.5 87.0Q728.8 87.1 729.2 87.2L729.2 87.2L729.9 87.4Q730.4 87.5 730.8 87.7Q731.3 87.9 731.6 88.2Q731.9 88.4 732.1 88.8Q732.3 89.2 732.3 89.7L732.3 89.7Q732.3 90.4 731.9 91.0Q731.6 91.5 730.9 91.8Q730.2 92.1 729.2 92.1Z "/></g></svg>