<!-- Generated by readme-aura https://github.com/collectioneur/readme-aura -->
<svg width="860" height="140" viewBox="0 0 860 140" xmlns="http://www.w3.org/2000/svg"><defs><clipPath id="satori_bc-id"><path x="0" y="0" width="860" height="140" d="M16,0 h828 a16,16 0 0 1 16,16 v108 a16,16 0 0 1 -16,16 h-828 a16,16 0 0 1 -16,-16 v-108 a16,16 0 0 1 16,-16"/></clipPath></defs><clipPath id="satori_cp-id"><path x="0" y="0" width="860" height="140" d="M16,0 h828 a16,16 0 0 1 16,16 v108 a16,16 0 0 1 -16,16 h-828 a16,16 0 0 1 -16,-16 v-108 a16,16 0 0 1 16,-16"/></clipPath><mask id="satori_om-id"><rect x="1" y="1" width="858" height="138" fill="#fff"/><path width="860" height="140" fill="none" stroke="#000" stroke-width="2" d="M4.686,4.686 A16,16 0 0 1 16,0 h828 a16,16 0 0 1 16,16 v108 a16,16 0 0 1 -16,16 h-828 a16,16 0 0 1 -16,-16 v-108 A16,16 0 0 1 4.686,4.686"/></mask><path x="0" y="0" width="860" height="140" fill="#08080c" d="M16,0 h828 a16,16 0 0 1 16,16 v108 a16,16 0 0 1 -16,16 h-828 a16,16 0 0 1 -16,-16 v-108 a16,16 0 0 1 16,-16"/><path width="860" height="140" clip-path="url(#satori_bc-id)" fill="none" stroke="rgba(110,80,220,0.18)" stroke-width="2" d="M4.686,4.686 A16,16 0 0 1 16,0 h828 a16,16 0 0 1 16,16 v108 a16,16 0 0 1 -16,16 h-828 a16,16 0 0 1 -16,-16 v-108 A16,16 0 0 1 4.686,4.686"/><clipPath id="satori_cp-id-0" clip-path="url(#satori_cp-id)"><rect x="1" y="1" width="860" height="140"/></clipPath><mask id="satori_om-id-0"><rect x="1" y="1" width="860" height="140" fill="#fff" mask="url(#satori_om-id)"/></mask><svg x="1" y="1" width="860" height="140" preserveAspectRatio="none" clip-path="url(#satori_cp-id-0)" mask="url(#satori_om-id-0)"><defs><radialGradient id="g1" cx="50%" cy="50%" r="50%"><stop offset="0%" stop-color="rgba(110,20,210,0.65)"></stop><stop offset="45%" stop-color="rgba(80,15,170,0.28)"></stop><stop offset="70%" stop-color="rgba(80,15,170,0)"></stop></radialGradient><radialGradient id="g2" cx="50%" cy="50%" r="50%"><stop offset="0%" stop-color="rgba(40,70,255,0.55)"></stop><stop offset="45%" stop-color="rgba(20,50,200,0.22)"></stop><stop offset="70%" stop-color="rgba(20,50,200,0)"></stop></radialGradient><radialGradient id="g3" cx="50%" cy="50%" r="50%"><stop offset="0%" stop-color="rgba(0,140,255,0.42)"></stop><stop offset="70%" stop-color="rgba(0,140,255,0)"></stop></radialGradient><radialGradient id="g4" cx="50%" cy="50%" r="50%"><stop offset="0%" stop-color="rgba(0,195,235,0.30)"></stop><stop offset="70%" stop-color="rgba(0,195,235,0)"></stop></radialGradient><radialGradient id="g5" cx="50%" cy="50%" r="50%"><stop offset="0%" stop-color="rgba(100,30,210,0.40)"></stop><stop offset="70%" stop-color="rgba(100,30,210,0)"></stop></radialGradient></defs><ellipse id="glow-1" cx="710" cy="150" rx="210" ry="150" fill="url(#g1)"></ellipse><ellipse id="glow-2" cx="550" cy="140" rx="190" ry="140" fill="url(#g2)"></ellipse><ellipse id="glow-3" cx="400" cy="130" rx="170" ry="130" fill="url(#g3)"></ellipse><ellipse id="glow-4" cx="250" cy="140" rx="150" ry="120" fill="url(#g4)"></ellipse><ellipse id="glow-5" cx="100" cy="150" rx="130" ry="110" fill="url(#g5)"></ellipse><style>

         @keyframes float-slow {
           0%, 100% { transform: translateX(0px); opacity: 0.8; }
           50% { transform: translateX(350px); opacity: 1.2; }
         }
         @keyframes float-medium {
           0%, 100% { transform: translateX(0px); opacity: 0.7; }
           50% { transform: translateX(-250px); opacity: 1.1; }
         }
         @keyframes float-fast {
           0%, 100% { transform: translateX(0px); opacity: 0.9; }
           50% { transform: translateX(200px); opacity: 0.6; }
         }
         @keyframes float-diagonal {
           0%, 100% { transform: translate(0px, 0px); opacity: 0.75; }
           50% { transform: translate(120px, 30px); opacity: 1.0; }
         }
         @keyframes float-wave {
           0%, 100% { transform: translateX(0px); opacity: 0.65; }
           33% { transform: translateX(-160px); opacity: 0.9; }
           66% { transform: translateX(80px); opacity: 1.0; }
         }
         @keyframes float-pulse {
           0%, 100% { transform: scale(1); opacity: 0.8; }
           50% { transform: scale(1.3); opacity: 0.4; }
         }
         #glow-1 { animation: float-slow 8s ease-in-out infinite; }
         #glow-2 { animation: float-medium 12s ease-in-out infinite; }
         #glow-3 { animation: float-fast 9s ease-in-out infinite; }
         #glow-4 { animation: float-diagonal 10s ease-in-out infinite; }
         #glow-5 { animation: float-wave 14s ease-in-out infinite; }
       
</style>
</svg><mask id="satori_om-id-0-0"><rect x="1" y="1" width="0" height="140" fill="#fff" mask="url(#satori_om-id)"/></mask><mask id="satori_om-id-0-0-0"><rect x="1" y="1" width="0" height="140" fill="#fff" mask="url(#satori_om-id)"/></mask><mask id="satori_om-id-0-0-0-0"><rect x="1" y="1" width="0" height="140" fill="#fff" mask="url(#satori_om-id)"/></mask><mask id="satori_om-id-0-0-0-1"><rect x="1" y="1" width="0" height="140" fill="#fff" mask="url(#satori_om-id)"/></mask><mask id="satori_om-id-0-0-0-2"><rect x="1" y="1" width="0" height="140" fill="#fff" mask="url(#satori_om-id)"/></mask><mask id="satori_om-id-0-0-1"><rect x="1" y="1" width="0" height="140" fill="#fff" mask="url(#satori_om-id)"/></mask><mask id="satori_om-id-0-0-1-0"><rect x="1" y="1" width="0" height="140" fill="#fff" mask="url(#satori_om-id)"/></mask><mask id="satori_om-id-0-0-1-1"><rect x="1" y="1" width="0" height="140" fill="#fff" mask="url(#satori_om-id)"/></mask><mask id="satori_om-id-0-0-1-2"><rect x="1" y="1" width="0" height="140" fill="#fff" mask="url(#satori_om-id)"/></mask><mask id="satori_om-id-0-0-2"><rect x="1" y="1" width="0" height="140" fill="#fff" mask="url(#satori_om-id)"/></mask><mask id="satori_om-id-0-0-2-0"><rect x="1" y="1" width="0" height="140" fill="#fff" mask="url(#satori_om-id)"/></mask><mask id="satori_om-id-0-0-2-1"><rect x="1" y="1" width="0" height="140" fill="#fff" mask="url(#satori_om-id)"/></mask><mask id="satori_om-id-0-0-3"><rect x="1" y="1" width="0" height="140" fill="#fff" mask="url(#satori_om-id)"/></mask><mask id="satori_om-id-0-0-3-0"><rect x="1" y="1" width="0" height="140" fill="#fff" mask="url(#satori_om-id)"/></mask><mask id="satori_om-id-0-0-3-1"><rect x="1" y="1" width="0" height="140" fill="#fff" mask="url(#satori_om-id)"/></mask><mask id="satori_om-id-0-0-4"><rect x="1" y="1" width="0" height="140" fill="#fff" mask="url(#satori_om-id)"/></mask><mask id="satori_om-id-0-0-4-0"><rect x="1" y="1" width="0" height="140" fill="#fff" mask="url(#satori_om-id)"/></mask><mask id="satori_om-id-0-0-4-1"><rect x="1" y="1" width="0" height="140" fill="#fff" mask="url(#satori_om-id)"/></mask><mask id="satori_om-id-0-1"><rect x="1" y="1" width="0" height="140" fill="#fff" mask="url(#satori_om-id)"/></mask><mask id="satori_om-id-0-2"><rect x="1" y="1" width="0" height="140" fill="#fff" mask="url(#satori_om-id)"/></mask><mask id="satori_om-id-0-3"><rect x="1" y="1" width="0" height="140" fill="#fff" mask="url(#satori_om-id)"/></mask><mask id="satori_om-id-0-4"><rect x="1" y="1" width="0" height="140" fill="#fff" mask="url(#satori_om-id)"/></mask><mask id="satori_om-id-0-5"><rect x="1" y="1" width="0" height="140" fill="#fff" mask="url(#satori_om-id)"/></mask><defs><clipPath id="satori_bc-id-1" clip-path="url(#satori_cp-id)"><rect x="1" y="30" width="269" height="80"/></clipPath></defs><mask id="satori_om-id-1"><rect x="1" y="30" width="268" height="80" fill="#fff" mask="url(#satori_om-id)"/><path width="269" height="80" fill="none" stroke="#000" stroke-width="2" d="M270,30 A0,0 0 0 1 270,30 v80 A0,0 0 0 1 270,110"/></mask><path width="269" height="80" clip-path="url(#satori_bc-id-1)" fill="none" stroke="rgba(255,255,255,0.06)" stroke-width="2" d="M270,30 A0,0 0 0 1 270,30 v80 A0,0 0 0 1 270,110"/><mask id="satori_om-id-1-0"><rect x="118" y="46" width="33" height="30" fill="#fff" mask="url(#satori_om-id)"/></mask><g mask="url(#satori_om-id)" clip-path="url(#satori_cp-id)"><path fill="#a78bfa" d="M124.2 50.2L129.0 50.2L129.0 72L124.5 72L124.5 54.1L124.4 54.1L119.4 57.7L119.4 53.6L124.2 50.2ZM141.0 72.3L141.0 72.3Q139.3 72.3 137.7 71.7Q136.2 71.2 135.0 69.9Q133.7 68.7 133.0 66.7Q132.3 64.6 132.3 61.6L132.3 61.6Q132.3 58.8 132.9 56.7Q133.5 54.5 134.7 53.0Q135.9 51.5 137.5 50.7Q139.1 49.9 141.1 49.9L141.1 49.9Q143.3 49.9 144.9 50.7Q146.6 51.6 147.6 53.0Q148.6 54.4 148.8 56.2L148.8 56.2L144.4 56.2Q144.1 55.1 143.3 54.4Q142.4 53.7 141.1 53.7L141.1 53.7Q139.7 53.7 138.7 54.6Q137.7 55.4 137.2 57.0Q136.7 58.6 136.7 60.7L136.7 60.7L136.9 60.7Q137.4 59.8 138.2 59.1Q139.0 58.4 140.1 58.0Q141.1 57.7 142.3 57.7L142.3 57.7Q144.3 57.7 145.8 58.6Q147.3 59.5 148.2 61.1Q149.1 62.7 149.1 64.7L149.1 64.7Q149.1 66.9 148.0 68.6Q147.0 70.3 145.2 71.3Q143.4 72.3 141.0 72.3ZM140.9 68.7L140.9 68.7Q142.0 68.7 142.9 68.2Q143.7 67.7 144.2 66.8Q144.7 65.9 144.7 64.8L144.7 64.8Q144.7 63.7 144.2 62.8Q143.7 62.0 142.9 61.4Q142.0 60.9 141.0 60.9L141.0 60.9Q140.1 60.9 139.5 61.2Q138.8 61.5 138.3 62.1Q137.7 62.6 137.4 63.3Q137.2 64.0 137.2 64.8L137.2 64.8Q137.2 65.9 137.6 66.8Q138.1 67.7 139.0 68.2Q139.8 68.7 140.9 68.7Z "/></g><mask id="satori_om-id-1-1"><rect x="112" y="81" width="45" height="13" fill="#fff" mask="url(#satori_om-id)"/></mask><g mask="url(#satori_om-id)" clip-path="url(#satori_cp-id)"><path fill="rgba(200,195,225,0.45)" d="M114.4 92L112.7 92L112.7 84.0L115.8 84.0Q116.8 84.0 117.4 84.3Q118.0 84.6 118.4 85.2Q118.7 85.8 118.7 86.6Q118.7 87.4 118.4 88.0Q118.0 88.5 117.4 88.8L117.4 88.8Q117.3 88.9 117.3 88.9L117.3 88.9L119.0 92L117.2 92L115.6 89.1L114.4 89.1L114.4 92ZM114.4 85.4L114.4 87.8L115.5 87.8Q116.0 87.8 116.4 87.7Q116.7 87.5 116.9 87.3Q117.0 87.0 117.0 86.6L117.0 86.6Q117.0 86.2 116.9 85.9Q116.7 85.6 116.4 85.5Q116.0 85.4 115.5 85.4L115.5 85.4L114.4 85.4ZM126.8 92L121.4 92L121.4 84.0L126.8 84.0L126.8 85.4L123.1 85.4L123.1 87.3L126.5 87.3L126.5 88.6L123.1 88.6L123.1 90.6L126.8 90.6L126.8 92ZM131.3 92L129.6 92L129.6 84.0L132.8 84.0Q133.7 84.0 134.3 84.3Q134.9 84.7 135.3 85.3Q135.6 85.9 135.6 86.7L135.6 86.7Q135.6 87.5 135.3 88.1Q134.9 88.7 134.3 89.0Q133.6 89.4 132.7 89.4L132.7 89.4L131.3 89.4L131.3 92ZM131.3 85.4L131.3 88.1L132.5 88.1Q133.0 88.1 133.3 87.9Q133.6 87.7 133.8 87.4Q133.9 87.1 133.9 86.7Q133.9 86.3 133.8 86.0Q133.6 85.7 133.3 85.5Q133.0 85.4 132.4 85.4L132.4 85.4L131.3 85.4ZM141.8 92.1L141.8 92.1Q140.7 92.1 139.9 91.6Q139.0 91.1 138.5 90.2Q138.0 89.3 138.0 88.0L138.0 88.0Q138.0 86.7 138.5 85.8Q139.0 84.9 139.9 84.4Q140.7 83.9 141.8 83.9L141.8 83.9Q142.8 83.9 143.7 84.4Q144.5 84.9 145.0 85.8Q145.5 86.7 145.5 88.0L145.5 88.0Q145.5 89.3 145.0 90.2Q144.5 91.1 143.7 91.6Q142.8 92.1 141.8 92.1ZM141.8 90.7L141.8 90.7Q142.4 90.7 142.9 90.3Q143.3 90.0 143.6 89.5Q143.8 88.9 143.8 88.0L143.8 88.0Q143.8 87.1 143.6 86.5Q143.3 86.0 142.9 85.6Q142.4 85.3 141.8 85.3L141.8 85.3Q141.2 85.3 140.7 85.7Q140.2 86.0 140.0 86.6Q139.7 87.1 139.7 88.0L139.7 88.0Q139.7 88.9 140.0 89.4Q140.2 90.0 140.7 90.3Q141.2 90.7 141.8 90.7ZM151.2 92.1L151.2 92.1Q150.2 92.1 149.5 91.8Q148.8 91.5 148.4 90.9Q148.0 90.4 148.0 89.5L148.0 89.5L149.6 89.5Q149.6 89.9 149.8 90.2Q150.0 90.5 150.4 90.6Q150.7 90.7 151.2 90.7L151.2 90.7Q151.6 90.7 151.9 90.6Q152.2 90.5 152.4 90.2Q152.6 90.0 152.6 89.7L152.6 89.7Q152.6 89.4 152.4 89.3Q152.3 89.1 152.0 88.9Q151.7 88.8 151.2 88.7L151.2 88.7L150.3 88.5Q149.3 88.2 148.8 87.7Q148.2 87.2 148.2 86.3L148.2 86.3Q148.2 85.6 148.6 85.0Q149.0 84.5 149.6 84.2Q150.3 83.9 151.2 83.9L151.2 83.9Q152.1 83.9 152.7 84.2Q153.4 84.5 153.8 85.0Q154.1 85.6 154.1 86.3L154.1 86.3L152.6 86.3Q152.5 85.8 152.2 85.5Q151.8 85.3 151.2 85.3L151.2 85.3Q150.8 85.3 150.5 85.4Q150.2 85.5 150.0 85.7Q149.9 85.9 149.9 86.2L149.9 86.2Q149.9 86.5 150.0 86.7Q150.2 86.9 150.5 87.0Q150.8 87.1 151.1 87.2L151.1 87.2L151.9 87.4Q152.4 87.5 152.8 87.7Q153.2 87.9 153.6 88.2Q153.9 88.4 154.1 88.8Q154.3 89.2 154.3 89.7L154.3 89.7Q154.3 90.4 153.9 91.0Q153.5 91.5 152.8 91.8Q152.1 92.1 151.2 92.1Z "/></g><defs><clipPath id="satori_bc-id-2" clip-path="url(#satori_cp-id)"><rect x="270" y="30" width="268" height="80"/></clipPath></defs><mask id="satori_om-id-2"><rect x="270" y="30" width="267" height="80" fill="#fff" mask="url(#satori_om-id)"/><path width="268" height="80" fill="none" stroke="#000" stroke-width="2" d="M538,30 A0,0 0 0 1 538,30 v80 A0,0 0 0 1 538,110"/></mask><path width="268" height="80" clip-path="url(#satori_bc-id-2)" fill="none" stroke="rgba(255,255,255,0.06)" stroke-width="2" d="M538,30 A0,0 0 0 1 538,30 v80 A0,0 0 0 1 538,110"/><mask id="satori_om-id-2-0"><rect x="393" y="46" width="21" height="30" fill="#fff" mask="url(#satori_om-id)"/></mask><g mask="url(#satori_om-id)" clip-path="url(#satori_cp-id)"><path fill="#60a5fa" d="M404.9 68.1L394.5 68.1L394.5 64.6L403.6 50.2L409.2 50.2L409.2 64.5L411.9 64.5L411.9 68.1L409.2 68.1L409.2 72L404.9 72L404.9 68.1ZM399.0 64.5L405.0 64.5L405.0 55.1L404.8 55.1L399.0 64.3L399.0 64.5Z "/></g><mask id="satori_om-id-2-1"><rect x="381" y="81" width="45" height="13" fill="#fff" mask="url(#satori_om-id)"/></mask><g mask="url(#satori_om-id)" clip-path="url(#satori_cp-id)"><path fill="rgba(200,195,225,0.45)" d="M384.7 92.1L384.7 92.1Q383.7 92.1 383.0 91.8Q382.3 91.5 381.9 90.9Q381.5 90.4 381.5 89.5L381.5 89.5L383.1 89.5Q383.1 89.9 383.3 90.2Q383.5 90.5 383.9 90.6Q384.2 90.7 384.6 90.7L384.6 90.7Q385.1 90.7 385.4 90.6Q385.7 90.5 385.9 90.2Q386.1 90.0 386.1 89.7L386.1 89.7Q386.1 89.4 385.9 89.3Q385.8 89.1 385.5 88.9Q385.2 88.8 384.7 88.7L384.7 88.7L383.8 88.5Q382.8 88.2 382.2 87.7Q381.7 87.2 381.7 86.3L381.7 86.3Q381.7 85.6 382.1 85.0Q382.5 84.5 383.1 84.2Q383.8 83.9 384.7 83.9L384.7 83.9Q385.6 83.9 386.2 84.2Q386.9 84.5 387.3 85.0Q387.6 85.6 387.6 86.3L387.6 86.3L386.1 86.3Q386.0 85.8 385.6 85.5Q385.3 85.3 384.7 85.3L384.7 85.3Q384.2 85.3 384.0 85.4Q383.7 85.5 383.5 85.7Q383.4 85.9 383.4 86.2L383.4 86.2Q383.4 86.5 383.5 86.7Q383.7 86.9 384.0 87.0Q384.3 87.1 384.6 87.2L384.6 87.2L385.4 87.4Q385.9 87.5 386.3 87.7Q386.7 87.9 387.1 88.2Q387.4 88.4 387.6 88.8Q387.7 89.2 387.7 89.7L387.7 89.7Q387.7 90.4 387.4 91.0Q387.0 91.5 386.3 91.8Q385.6 92.1 384.7 92.1ZM392.6 85.4L390.1 85.4L390.1 84.0L396.6 84.0L396.6 85.4L394.2 85.4L394.2 92L392.6 92L392.6 85.4ZM400.6 92L398.8 92L401.5 84.0L403.7 84.0L406.5 92L404.7 92L404.1 90.1L401.2 90.1L400.6 92ZM401.6 88.9L403.6 88.9L403.4 88.1Q403.2 87.4 402.9 86.5L402.9 86.5Q402.8 85.9 402.6 85.3L402.6 85.3Q402.4 85.9 402.3 86.5L402.3 86.5Q402.1 87.4 401.9 88.1L401.9 88.1L401.6 88.9ZM410.6 92L409.0 92L409.0 84.0L412.1 84.0Q413.0 84.0 413.7 84.3Q414.3 84.6 414.6 85.2Q415.0 85.8 415.0 86.6Q415.0 87.4 414.6 88.0Q414.3 88.5 413.6 88.8L413.6 88.8Q413.6 88.9 413.5 88.9L413.5 88.9L415.3 92L413.4 92L411.9 89.1L410.6 89.1L410.6 92ZM410.6 85.4L410.6 87.8L411.8 87.8Q412.3 87.8 412.6 87.7Q413.0 87.5 413.1 87.3Q413.3 87.0 413.3 86.6L413.3 86.6Q413.3 86.2 413.1 85.9Q413.0 85.6 412.6 85.5Q412.3 85.4 411.8 85.4L411.8 85.4L410.6 85.4ZM420.6 92.1L420.6 92.1Q419.7 92.1 419.0 91.8Q418.3 91.5 417.9 90.9Q417.5 90.4 417.4 89.5L417.4 89.5L419.0 89.5Q419.1 89.9 419.3 90.2Q419.5 90.5 419.8 90.6Q420.2 90.7 420.6 90.7L420.6 90.7Q421.1 90.7 421.4 90.6Q421.7 90.5 421.9 90.2Q422.1 90.0 422.1 89.7L422.1 89.7Q422.1 89.4 421.9 89.3Q421.8 89.1 421.4 88.9Q421.1 88.8 420.7 88.7L420.7 88.7L419.8 88.5Q418.8 88.2 418.2 87.7Q417.7 87.2 417.7 86.3L417.7 86.3Q417.7 85.6 418.0 85.0Q418.4 84.5 419.1 84.2Q419.8 83.9 420.7 83.9L420.7 83.9Q421.5 83.9 422.2 84.2Q422.9 84.5 423.2 85.0Q423.6 85.6 423.6 86.3L423.6 86.3L422.0 86.3Q422.0 85.8 421.6 85.5Q421.3 85.3 420.6 85.3L420.6 85.3Q420.2 85.3 419.9 85.4Q419.6 85.5 419.5 85.7Q419.3 85.9 419.3 86.2L419.3 86.2Q419.3 86.5 419.5 86.7Q419.7 86.9 420.0 87.0Q420.3 87.1 420.6 87.2L420.6 87.2L421.3 87.4Q421.8 87.5 422.3 87.7Q422.7 87.9 423.0 88.2Q423.4 88.4 423.5 88.8Q423.7 89.2 423.7 89.7L423.7 89.7Q423.7 90.4 423.4 91.0Q423.0 91.5 422.3 91.8Q421.6 92.1 420.6 92.1Z "/></g><mask id="satori_om-id-3"><rect x="538" y="30" width="321" height="80" fill="#fff" mask="url(#satori_om-id)"/></mask><mask id="satori_om-id-3-0"><rect x="649" y="46" width="98" height="30" fill="#fff" mask="url(#satori_om-id)"/></mask><g mask="url(#satori_om-id)" clip-path="url(#satori_cp-id)"><path fill="#f59e0b" d="M666.3 72L650.8 72L650.8 68.8L658.6 61.5Q659.5 60.6 660.2 59.8Q660.9 59.0 661.3 58.2Q661.6 57.5 661.6 56.6L661.6 56.6Q661.6 55.6 661.2 54.9Q660.7 54.2 660.0 53.8Q659.2 53.5 658.2 53.5L658.2 53.5Q657.2 53.5 656.5 53.9Q655.7 54.3 655.3 55.0Q654.9 55.8 654.9 56.9L654.9 56.9L650.6 56.9Q650.6 54.7 651.6 53.2Q652.6 51.6 654.3 50.7Q656.0 49.9 658.3 49.9L658.3 49.9Q660.6 49.9 662.3 50.7Q664.0 51.5 665.0 53.0Q666.0 54.4 666.0 56.3L666.0 56.3Q666.0 57.5 665.5 58.7Q665.0 59.9 663.8 61.4Q662.6 62.9 660.3 64.9L660.3 64.9L657.0 68.2L657.0 68.3L666.3 68.3L666.3 72ZM677.1 72.3L677.1 72.3Q674.9 72.3 673.1 71.5Q671.4 70.6 670.3 69.2Q669.3 67.7 669.3 65.9L669.3 65.9L673.6 65.9Q673.7 66.7 674.1 67.4Q674.6 68.0 675.4 68.4Q676.2 68.7 677.1 68.7L677.1 68.7Q678.2 68.7 679.0 68.3Q679.9 67.8 680.4 66.9Q680.8 66.0 680.8 64.9L680.8 64.9Q680.8 63.7 680.4 62.8Q679.9 61.9 679.0 61.4Q678.2 60.9 677.0 60.9L677.0 60.9Q676.0 60.9 675.1 61.3Q674.2 61.7 673.7 62.3L673.7 62.3L669.7 61.6L670.8 50.2L684.0 50.2L684.0 53.9L674.5 53.9L673.9 59.4L674.0 59.4Q674.6 58.6 675.8 58.1Q676.9 57.6 678.3 57.6L678.3 57.6Q679.8 57.6 681.1 58.1Q682.3 58.6 683.2 59.6Q684.2 60.5 684.7 61.9Q685.2 63.2 685.2 64.7L685.2 64.7Q685.2 66.9 684.2 68.6Q683.1 70.3 681.3 71.3Q679.5 72.3 677.1 72.3ZM696.7 72.3L696.7 72.3Q693.9 72.3 692.0 71.0Q690.0 69.6 689.0 67.1Q687.9 64.6 687.9 61.1L687.9 61.1Q687.9 57.6 689.0 55.1Q690.0 52.5 692.0 51.2Q693.9 49.9 696.7 49.9L696.7 49.9Q699.4 49.9 701.4 51.2Q703.3 52.6 704.4 55.1Q705.4 57.6 705.4 61.1L705.4 61.1Q705.4 64.6 704.4 67.1Q703.3 69.6 701.4 71.0Q699.4 72.3 696.7 72.3ZM696.7 68.6L696.7 68.6Q698.0 68.6 698.9 67.7Q699.9 66.8 700.4 65.2Q700.9 63.5 700.9 61.1L700.9 61.1Q700.9 58.7 700.4 57.0Q699.9 55.3 698.9 54.5Q698.0 53.6 696.7 53.6L696.7 53.6Q695.3 53.6 694.4 54.5Q693.5 55.3 693.0 57.0Q692.5 58.7 692.5 61.1L692.5 61.1Q692.5 63.5 693.0 65.2Q693.5 66.8 694.4 67.7Q695.3 68.6 696.7 68.6ZM716.4 72.3L716.4 72.3Q714.1 72.3 712.2 71.5Q710.4 70.7 709.3 69.2Q708.3 67.8 708.2 65.9L708.2 65.9L712.7 65.9Q712.8 66.7 713.3 67.3Q713.8 67.9 714.6 68.3Q715.4 68.6 716.5 68.6L716.5 68.6Q717.5 68.6 718.4 68.2Q719.2 67.8 719.6 67.2Q720.1 66.5 720.1 65.6L720.1 65.6Q720.1 64.7 719.6 64.0Q719.1 63.3 718.2 62.9Q717.3 62.5 716.0 62.5L716.0 62.5L714.0 62.5L714.0 59.2L716.0 59.2Q717.1 59.2 717.9 58.8Q718.7 58.5 719.2 57.8Q719.6 57.2 719.6 56.3L719.6 56.3Q719.6 55.4 719.3 54.8Q718.9 54.2 718.1 53.8Q717.4 53.5 716.5 53.5L716.5 53.5Q715.5 53.5 714.7 53.8Q714.0 54.1 713.5 54.8Q713.0 55.4 713.0 56.2L713.0 56.2L708.7 56.2Q708.7 54.4 709.7 52.9Q710.8 51.5 712.5 50.7Q714.3 49.9 716.5 49.9L716.5 49.9Q718.8 49.9 720.4 50.7Q722.1 51.5 723.1 52.9Q724.0 54.3 724.0 56.0L724.0 56.0Q724.0 57.8 722.9 59.1Q721.7 60.3 719.9 60.6L719.9 60.6L719.9 60.8Q721.5 61.0 722.6 61.7Q723.7 62.4 724.2 63.5Q724.8 64.5 724.8 65.9L724.8 65.9Q724.8 67.7 723.7 69.2Q722.6 70.6 720.8 71.5Q718.9 72.3 716.4 72.3ZM736.3 72.3L736.3 72.3Q733.5 72.3 731.6 71.0Q729.6 69.6 728.6 67.1Q727.5 64.6 727.5 61.1L727.5 61.1Q727.5 57.6 728.6 55.1Q729.6 52.5 731.6 51.2Q733.5 49.9 736.3 49.9L736.3 49.9Q739.0 49.9 741.0 51.2Q742.9 52.6 744.0 55.1Q745.0 57.6 745.0 61.1L745.0 61.1Q745.0 64.6 744.0 67.1Q742.9 69.6 741.0 71.0Q739.0 72.3 736.3 72.3ZM736.3 68.6L736.3 68.6Q737.6 68.6 738.5 67.7Q739.5 66.8 740.0 65.2Q740.5 63.5 740.5 61.1L740.5 61.1Q740.5 58.7 740.0 57.0Q739.5 55.3 738.5 54.5Q737.6 53.6 736.3 53.6L736.3 53.6Q734.9 53.6 734.0 54.5Q733.1 55.3 732.6 57.0Q732.1 58.7 732.1 61.1L732.1 61.1Q732.1 63.5 732.6 65.2Q733.1 66.8 734.0 67.7Q734.9 68.6 736.3 68.6Z "/></g><mask id="satori_om-id-3-1"><rect x="665" y="81" width="66" height="13" fill="#fff" mask="url(#satori_om-id)"/></mask><g mask="url(#satori_om-id)" clip-path="url(#satori_cp-id)"><path fill="rgba(200,195,225,0.45)" d="M669.2 92.1L669.2 92.1Q668.2 92.1 667.3 91.6Q666.5 91.1 666.0 90.2Q665.5 89.3 665.5 88.0L665.5 88.0Q665.5 86.7 666.0 85.8Q666.5 84.9 667.3 84.4Q668.2 83.9 669.2 83.9L669.2 83.9Q669.9 83.9 670.5 84.1Q671.1 84.3 671.5 84.6Q672.0 85.0 672.3 85.5Q672.6 86.1 672.7 86.7L672.7 86.7L671.0 86.7Q671.0 86.4 670.8 86.1Q670.6 85.9 670.4 85.7Q670.2 85.5 669.9 85.4Q669.6 85.3 669.3 85.3L669.3 85.3Q668.6 85.3 668.2 85.7Q667.7 86.0 667.4 86.6Q667.2 87.2 667.2 88.0L667.2 88.0Q667.2 88.9 667.4 89.5Q667.7 90.1 668.2 90.4Q668.6 90.7 669.2 90.7L669.2 90.7Q669.6 90.7 669.9 90.6Q670.2 90.5 670.4 90.3Q670.6 90.1 670.8 89.8Q671.0 89.6 671.0 89.3L671.0 89.3L672.7 89.3Q672.6 89.8 672.3 90.3Q672.1 90.8 671.6 91.2Q671.2 91.6 670.6 91.9Q670.0 92.1 669.2 92.1ZM678.9 92.1L678.9 92.1Q677.8 92.1 677.0 91.6Q676.1 91.1 675.6 90.2Q675.1 89.3 675.1 88.0L675.1 88.0Q675.1 86.7 675.6 85.8Q676.1 84.9 677.0 84.4Q677.8 83.9 678.9 83.9L678.9 83.9Q679.9 83.9 680.8 84.4Q681.6 84.9 682.1 85.8Q682.6 86.7 682.6 88.0L682.6 88.0Q682.6 89.3 682.1 90.2Q681.6 91.1 680.8 91.6Q679.9 92.1 678.9 92.1ZM678.9 90.7L678.9 90.7Q679.5 90.7 680.0 90.3Q680.4 90.0 680.7 89.5Q680.9 88.9 680.9 88.0L680.9 88.0Q680.9 87.1 680.7 86.5Q680.4 86.0 680.0 85.6Q679.5 85.3 678.9 85.3L678.9 85.3Q678.3 85.3 677.8 85.7Q677.3 86.0 677.1 86.6Q676.8 87.1 676.8 88.0L676.8 88.0Q676.8 88.9 677.1 89.4Q677.3 90.0 677.8 90.3Q678.3 90.7 678.9 90.7ZM687.0 92L685.3 92L685.3 84.0L687.9 84.0L689.2 87.7Q689.2 87.9 689.3 88.3Q689.4 88.7 689.5 89.2L689.5 89.2Q689.7 89.7 689.7 90.1L689.7 90.1Q689.8 89.7 689.9 89.2L689.9 89.2Q690.0 88.8 690.2 88.3Q690.3 87.9 690.3 87.7L690.3 87.7L691.6 84.0L694.1 84.0L694.1 92L692.5 92L692.5 88.2Q692.5 88.0 692.5 87.6Q692.5 87.2 692.5 86.7Q692.5 86.3 692.5 85.8L692.5 85.8Q692.6 85.6 692.6 85.4L692.6 85.4Q692.5 85.6 692.4 85.9L692.4 85.9Q692.3 86.3 692.2 86.8Q692.1 87.2 691.9 87.6Q691.8 88.0 691.8 88.2L691.8 88.2L690.4 92L689.0 92L687.7 88.2Q687.6 88.0 687.5 87.6Q687.4 87.2 687.3 86.8Q687.1 86.4 687.0 85.9L687.0 85.9Q687.0 85.7 686.9 85.5L686.9 85.5Q686.9 85.6 686.9 85.8L686.9 85.8Q686.9 86.2 686.9 86.7Q686.9 87.2 687.0 87.6Q687.0 88.0 687.0 88.2L687.0 88.2L687.0 92ZM698.7 92L697.1 92L697.1 84.0L699.6 84.0L700.9 87.7Q701.0 87.9 701.1 88.3Q701.2 88.7 701.3 89.2L701.3 89.2Q701.4 89.7 701.5 90.1L701.5 90.1Q701.6 89.7 701.7 89.2L701.7 89.2Q701.8 88.8 701.9 88.3Q702.0 87.9 702.1 87.7L702.1 87.7L703.4 84.0L705.9 84.0L705.9 92L704.2 92L704.2 88.2Q704.2 88.0 704.2 87.6Q704.3 87.2 704.3 86.7Q704.3 86.3 704.3 85.8L704.3 85.8Q704.3 85.6 704.3 85.4L704.3 85.4Q704.2 85.6 704.2 85.9L704.2 85.9Q704.1 86.3 703.9 86.8Q703.8 87.2 703.7 87.6Q703.6 88.0 703.5 88.2L703.5 88.2L702.2 92L700.8 92L699.4 88.2Q699.4 88.0 699.3 87.6Q699.1 87.2 699.0 86.8Q698.9 86.4 698.8 85.9L698.8 85.9Q698.7 85.7 698.7 85.5L698.7 85.5Q698.7 85.6 698.7 85.8L698.7 85.8Q698.7 86.2 698.7 86.7Q698.7 87.2 698.7 87.6Q698.7 88.0 698.7 88.2L698.7 88.2L698.7 92ZM708.8 84.0L710.5 84.0L710.5 92L708.8 92L708.8 84.0ZM715.5 85.4L713.1 85.4L713.1 84.0L719.6 84.0L719.6 85.4L717.2 85.4L717.2 92L715.5 92L715.5 85.4ZM725.2 92.1L725.2 92.1Q724.2 92.1 723.5 91.8Q722.8 91.5 722.4 90.9Q722.0 90.4 722.0 89.5L722.0 89.5L723.6 89.5Q723.6 89.9 723.8 90.2Q724.0 90.5 724.4 90.6Q724.7 90.7 725.2 90.7L725.2 90.7Q725.6 90.7 725.9 90.6Q726.3 90.5 726.5 90.2Q726.6 90.0 726.6 89.7L726.6 89.7Q726.6 89.4 726.5 89.3Q726.3 89.1 726.0 88.9Q725.7 88.8 725.3 88.7L725.3 88.7L724.4 88.5Q723.4 88.2 722.8 87.7Q722.2 87.2 722.2 86.3L722.2 86.3Q722.2 85.6 722.6 85.0Q723.0 84.5 723.7 84.2Q724.3 83.9 725.2 83.9L725.2 83.9Q726.1 83.9 726.8 84.2Q727.4 84.5 727.8 85.0Q728.2 85.6 728.2 86.3L728.2 86.3L726.6 86.3Q726.6 85.8 726.2 85.5Q725.8 85.3 725.2 85.3L725.2 85.3Q724.8 85.3 724.5 85.4Q724.2 85.5 724.0 85.7Q723.9 85.9 723.9 86.2L723.9 86.2Q723.9 86.5 724.1 86.7Q724.2 86.9 724.5 87.0Q724.8 87.1 725.2 87.2L725.2 87.2L725.9 87.4Q726.4 87.5 726.8 87.7Q727.3 87.9 727.6 88.2Q727.9 88.4 728.1 88.8Q728.3 89.2 728.3 89.7L728.3 89.7Q728.3 90.4 727.9 91.0Q727.6 91.5 726.9 91.8Q726.2 92.1 725.2 92.1Z "/></g></svg>