<!-- Generated by readme-aura https://github.com/collectioneur/readme-aura -->
<svg width="860" height="200" viewBox="0 0 860 200" xmlns="http://www.w3.org/2000/svg"><defs><clipPath id="satori_bc-id"><path x="0" y="0" width="860" height="200" d="M16,0 h828 a16,16 0 0 1 16,16 v168 a16,16 0 0 1 -16,16 h-828 a16,16 0 0 1 -16,-16 v-168 a16,16 0 0 1 16,-16"/></clipPath></defs><clipPath id="satori_cp-id"><path x="0" y="0" width="860" height="200" d="M16,0 h828 a16,16 0 0 1 16,16 v168 a16,16 0 0 1 -16,16 h-828 a16,16 0 0 1 -16,-16 v-168 a16,16 0 0 1 16,-16"/></clipPath><mask id="satori_om-id"><rect x="1" y="1" width="858" height="198" fill="#fff"/><path width="860" height="200" fill="none" stroke="#000" stroke-width="2" d="M4.686,4.686 A16,16 0 0 1 16,0 h828 a16,16 0 0 1 16,16 v168 a16,16 0 0 1 -16,16 h-828 a16,16 0 0 1 -16,-16 v-168 A16,16 0 0 1 4.686,4.686"/></mask><path x="0" y="0" width="860" height="200" fill="#08080c" d="M16,0 h828 a16,16 0 0 1 16,16 v168 a16,16 0 0 1 -16,16 h-828 a16,16 0 0 1 -16,-16 v-168 a16,16 0 0 1 16,-16"/><path width="860" height="200" clip-path="url(#satori_bc-id)" fill="none" stroke="rgba(110,80,220,0.18)" stroke-width="2" d="M4.686,4.686 A16,16 0 0 1 16,0 h828 a16,16 0 0 1 16,16 v168 a16,16 0 0 1 -16,16 h-828 a16,16 0 0 1 -16,-16 v-168 A16,16 0 0 1 4.686,4.686"/><clipPath id="satori_cp-id-0" clip-path="url(#satori_cp-id)"><rect x="1" y="1" width="860" height="200"/></clipPath><mask id="satori_om-id-0"><rect x="1" y="1" width="860" height="200" fill="#fff" mask="url(#satori_om-id)"/></mask><svg x="1" y="1" width="860" height="200" preserveAspectRatio="none" clip-path="url(#satori_cp-id-0)" mask="url(#satori_om-id-0)"><defs><radialGradient id="pg1" cx="50%" cy="50%" r="50%"><stop offset="0%" stop-color="rgba(110,20,210,0.5)"></stop><stop offset="70%" stop-color="rgba(110,20,210,0)"></stop></radialGradient><radialGradient id="pg2" cx="50%" cy="50%" r="50%"><stop offset="0%" stop-color="rgba(0,140,255,0.35)"></stop><stop offset="70%" stop-color="rgba(0,140,255,0)"></stop></radialGradient></defs><ellipse cx="100" cy="200" rx="240" ry="160" fill="url(#pg1)"></ellipse><ellipse cx="750" cy="200" rx="200" ry="140" fill="url(#pg2)"></ellipse></svg><mask id="satori_om-id-0-0"><rect x="1" y="1" width="0" height="200" fill="#fff" mask="url(#satori_om-id)"/></mask><mask id="satori_om-id-0-0-0"><rect x="1" y="1" width="0" height="200" fill="#fff" mask="url(#satori_om-id)"/></mask><mask id="satori_om-id-0-0-0-0"><rect x="1" y="1" width="0" height="200" fill="#fff" mask="url(#satori_om-id)"/></mask><mask id="satori_om-id-0-0-0-1"><rect x="1" y="1" width="0" height="200" fill="#fff" mask="url(#satori_om-id)"/></mask><mask id="satori_om-id-0-0-1"><rect x="1" y="1" width="0" height="200" fill="#fff" mask="url(#satori_om-id)"/></mask><mask id="satori_om-id-0-0-1-0"><rect x="1" y="1" width="0" height="200" fill="#fff" mask="url(#satori_om-id)"/></mask><mask id="satori_om-id-0-0-1-1"><rect x="1" y="1" width="0" height="200" fill="#fff" mask="url(#satori_om-id)"/></mask><mask id="satori_om-id-0-1"><rect x="1" y="1" width="0" height="200" fill="#fff" mask="url(#satori_om-id)"/></mask><mask id="satori_om-id-0-2"><rect x="1" y="1" width="0" height="200" fill="#fff" mask="url(#satori_om-id)"/></mask><mask id="satori_om-id-1"><rect x="33" y="19" width="794" height="12" fill="#fff" mask="url(#satori_om-id)"/></mask><g mask="url(#satori_om-id)" clip-path="url(#satori_cp-id)"><path fill="rgba(155,140,210,0.5)" d="M35.1 29L33.7 29L33.7 21.7L38.4 21.7L38.4 23.0L35.1 23.0L35.1 25.0L38.1 25.0L38.1 26.2L35.1 26.2L35.1 29ZM47.4 29L42.5 29L42.5 21.7L47.4 21.7L47.4 23.0L44.0 23.0L44.0 24.7L47.1 24.7L47.1 25.9L44.0 25.9L44.0 27.8L47.4 27.8L47.4 29ZM52.8 29L51.2 29L53.7 21.7L55.6 21.7L58.2 29L56.5 29L56.0 27.3L53.4 27.3L52.8 29ZM53.7 26.1L55.6 26.1L55.3 25.5Q55.1 24.8 54.9 24L54.9 24Q54.8 23.5 54.6 22.9L54.6 22.9Q54.5 23.5 54.4 24.0L54.4 24.0Q54.2 24.8 54.0 25.5L54.0 25.5L53.7 26.1ZM64.0 23.0L61.8 23.0L61.8 21.7L67.7 21.7L67.7 23.0L65.5 23.0L65.5 29L64.0 29L64.0 23.0ZM74.7 29.1L74.7 29.1Q73.8 29.1 73.2 28.8Q72.5 28.4 72.1 27.8Q71.7 27.2 71.7 26.4L71.7 26.4L71.7 21.7L73.2 21.7L73.2 26.3Q73.2 26.7 73.4 27.1Q73.6 27.4 73.9 27.6Q74.3 27.8 74.7 27.8L74.7 27.8Q75.2 27.8 75.5 27.6Q75.9 27.4 76.1 27.1Q76.3 26.7 76.3 26.3L76.3 26.3L76.3 21.7L77.7 21.7L77.7 26.4Q77.7 27.2 77.4 27.8Q77.0 28.4 76.3 28.8Q75.6 29.1 74.7 29.1ZM83.6 29L82.1 29L82.1 21.7L84.9 21.7Q85.7 21.7 86.3 22.0Q86.9 22.3 87.2 22.8Q87.5 23.4 87.5 24.1Q87.5 24.8 87.2 25.3Q86.9 25.9 86.3 26.1L86.3 26.1Q86.3 26.1 86.2 26.2L86.2 26.2L87.8 29L86.1 29L84.7 26.4L83.6 26.4L83.6 29ZM83.6 23.0L83.6 25.2L84.6 25.2Q85.1 25.2 85.4 25.1Q85.7 24.9 85.8 24.7Q86.0 24.5 86.0 24.1L86.0 24.1Q86.0 23.7 85.8 23.5Q85.7 23.2 85.4 23.1Q85.1 23.0 84.6 23.0L84.6 23.0L83.6 23.0ZM96.5 29L91.6 29L91.6 21.7L96.5 21.7L96.5 23.0L93.1 23.0L93.1 24.7L96.2 24.7L96.2 25.9L93.1 25.9L93.1 27.8L96.5 27.8L96.5 29ZM103.3 29L103.3 29L100.7 29L100.7 21.7L103.3 21.7Q104.4 21.7 105.2 22.2Q106.0 22.6 106.4 23.4Q106.8 24.2 106.8 25.4L106.8 25.4Q106.8 26.5 106.4 27.3Q106.0 28.1 105.2 28.6Q104.4 29 103.3 29ZM102.2 23.0L102.2 27.7L103.2 27.7Q103.9 27.7 104.4 27.5Q104.8 27.2 105.1 26.7Q105.3 26.2 105.3 25.4L105.3 25.4Q105.3 24.5 105.1 24.0Q104.8 23.5 104.4 23.3Q103.9 23.0 103.2 23.0L103.2 23.0L102.2 23.0Z M117.8 29L116.3 29L116.3 21.7L119.1 21.7Q120.0 21.7 120.5 22.0Q121.1 22.4 121.4 22.9Q121.7 23.5 121.7 24.2L121.7 24.2Q121.7 24.9 121.4 25.5Q121.1 26.0 120.5 26.3Q119.9 26.6 119.1 26.6L119.1 26.6L117.8 26.6L117.8 29ZM117.8 23.0L117.8 25.4L118.9 25.4Q119.3 25.4 119.6 25.3Q119.9 25.1 120.1 24.8Q120.2 24.5 120.2 24.2Q120.2 23.8 120.1 23.5Q119.9 23.3 119.6 23.1Q119.3 23.0 118.9 23.0L118.9 23.0L117.8 23.0ZM127.3 29L125.8 29L125.8 21.7L128.6 21.7Q129.4 21.7 130.0 22.0Q130.6 22.3 130.9 22.8Q131.2 23.4 131.2 24.1Q131.2 24.8 130.9 25.3Q130.6 25.9 130.0 26.1L130.0 26.1Q130.0 26.1 129.9 26.2L129.9 26.2L131.5 29L129.8 29L128.4 26.4L127.3 26.4L127.3 29ZM127.3 23.0L127.3 25.2L128.3 25.2Q128.8 25.2 129.1 25.1Q129.4 24.9 129.5 24.7Q129.7 24.5 129.7 24.1L129.7 24.1Q129.7 23.7 129.5 23.5Q129.4 23.2 129.1 23.1Q128.8 23.0 128.3 23.0L128.3 23.0L127.3 23.0ZM138.5 29.1L138.5 29.1Q137.6 29.1 136.8 28.7Q136.0 28.2 135.6 27.4Q135.1 26.5 135.1 25.4L135.1 25.4Q135.1 24.2 135.6 23.3Q136.0 22.5 136.8 22.1Q137.6 21.6 138.5 21.6L138.5 21.6Q139.5 21.6 140.3 22.1Q141.0 22.5 141.5 23.3Q141.9 24.2 141.9 25.4L141.9 25.4Q141.9 26.5 141.5 27.4Q141.0 28.2 140.3 28.7Q139.5 29.1 138.5 29.1ZM138.5 27.8L138.5 27.8Q139.1 27.8 139.5 27.5Q139.9 27.2 140.2 26.7Q140.4 26.1 140.4 25.4L140.4 25.4Q140.4 24.6 140.2 24.0Q139.9 23.5 139.5 23.2Q139.1 23.0 138.5 23.0L138.5 23.0Q138.0 23.0 137.5 23.2Q137.1 23.5 136.9 24.0Q136.7 24.6 136.7 25.4L136.7 25.4Q136.7 26.1 136.9 26.7Q137.1 27.2 137.5 27.5Q138.0 27.8 138.5 27.8ZM148.2 29.1L148.2 29.1Q147.0 29.1 146.4 28.5Q145.7 27.9 145.7 26.8L145.7 26.8L145.7 26.4L147.2 26.4L147.2 26.8Q147.2 27.4 147.5 27.6Q147.7 27.9 148.2 27.9L148.2 27.9Q148.6 27.9 148.8 27.6Q149.1 27.4 149.1 26.8L149.1 26.8L149.1 21.7L150.6 21.7L150.6 26.8Q150.6 27.9 149.9 28.5Q149.3 29.1 148.2 29.1ZM159.8 29L154.9 29L154.9 21.7L159.8 21.7L159.8 23.0L156.4 23.0L156.4 24.7L159.5 24.7L159.5 25.9L156.4 25.9L156.4 27.8L159.8 27.8L159.8 29ZM167.1 29.1L167.1 29.1Q166.2 29.1 165.4 28.7Q164.6 28.2 164.2 27.4Q163.8 26.5 163.8 25.4L163.8 25.4Q163.8 24.2 164.2 23.3Q164.7 22.5 165.4 22.1Q166.2 21.6 167.1 21.6L167.1 21.6Q167.8 21.6 168.3 21.8Q168.8 22.0 169.2 22.3Q169.7 22.6 169.9 23.1Q170.2 23.6 170.3 24.2L170.3 24.2L168.8 24.2Q168.7 23.9 168.6 23.7Q168.4 23.4 168.2 23.3Q168.0 23.1 167.8 23.0Q167.5 23.0 167.2 23.0L167.2 23.0Q166.6 23.0 166.2 23.2Q165.8 23.5 165.5 24.1Q165.3 24.6 165.3 25.4L165.3 25.4Q165.3 26.2 165.5 26.7Q165.8 27.2 166.2 27.5Q166.6 27.8 167.2 27.8L167.2 27.8Q167.5 27.8 167.7 27.7Q168.0 27.6 168.2 27.4Q168.4 27.3 168.6 27.0Q168.7 26.8 168.8 26.5L168.8 26.5L170.3 26.5Q170.2 27.0 170.0 27.5Q169.7 27.9 169.3 28.3Q168.9 28.7 168.4 28.9Q167.8 29.1 167.1 29.1ZM176.3 23.0L174.1 23.0L174.1 21.7L180.0 21.7L180.0 23.0L177.8 23.0L177.8 29L176.3 29L176.3 23.0ZM186.7 29.1L186.7 29.1Q185.8 29.1 185.2 28.8Q184.5 28.6 184.2 28.0Q183.8 27.5 183.8 26.7L183.8 26.7L185.2 26.7Q185.3 27.1 185.5 27.4Q185.7 27.6 186.0 27.7Q186.3 27.8 186.7 27.8L186.7 27.8Q187.1 27.8 187.4 27.7Q187.7 27.6 187.8 27.4Q188.0 27.2 188.0 26.9L188.0 26.9Q188.0 26.7 187.9 26.5Q187.7 26.3 187.4 26.2Q187.2 26.1 186.8 26.0L186.8 26.0L186.0 25.8Q185.0 25.6 184.5 25.1Q184.0 24.6 184.0 23.8L184.0 23.8Q184.0 23.2 184.3 22.7Q184.7 22.2 185.3 21.9Q185.9 21.6 186.7 21.6L186.7 21.6Q187.5 21.6 188.1 21.9Q188.7 22.2 189.1 22.7Q189.4 23.2 189.4 23.8L189.4 23.8L188.0 23.8Q187.9 23.4 187.6 23.1Q187.3 22.9 186.7 22.9L186.7 22.9Q186.3 22.9 186.1 23.0Q185.8 23.1 185.7 23.3Q185.5 23.5 185.5 23.7L185.5 23.7Q185.5 24.0 185.7 24.2Q185.8 24.3 186.1 24.5Q186.4 24.6 186.7 24.6L186.7 24.6L187.3 24.8Q187.8 24.9 188.2 25.1Q188.6 25.3 188.9 25.5Q189.2 25.8 189.3 26.1Q189.5 26.5 189.5 26.9L189.5 26.9Q189.5 27.6 189.2 28.1Q188.8 28.6 188.2 28.8Q187.6 29.1 186.7 29.1Z "/></g><mask id="satori_om-id-2"><rect x="33" y="41" width="794" height="84" fill="#fff" mask="url(#satori_om-id)"/></mask><defs><clipPath id="satori_bc-id-2-0" clip-path="url(#satori_cp-id)"><path x="33" y="41" width="389" height="84" d="M43,41 h369 a10,10 0 0 1 10,10 v64 a10,10 0 0 1 -10,10 h-369 a10,10 0 0 1 -10,-10 v-64 a10,10 0 0 1 10,-10"/></clipPath></defs><mask id="satori_om-id-2-0"><rect x="34" y="42" width="387" height="82" fill="#fff" mask="url(#satori_om-id)"/><path width="389" height="84" fill="none" stroke="#000" stroke-width="2" d="M35.929,43.929 A10,10 0 0 1 43,41 h369 a10,10 0 0 1 10,10 v64 a10,10 0 0 1 -10,10 h-369 a10,10 0 0 1 -10,-10 v-64 A10,10 0 0 1 35.929,43.929"/></mask><path x="33" y="41" width="389" height="84" fill="rgba(255,255,255,0.03)" d="M43,41 h369 a10,10 0 0 1 10,10 v64 a10,10 0 0 1 -10,10 h-369 a10,10 0 0 1 -10,-10 v-64 a10,10 0 0 1 10,-10" clip-path="url(#satori_cp-id)" mask="url(#satori_om-id)"/><path width="389" height="84" clip-path="url(#satori_bc-id-2-0)" fill="none" stroke="rgba(110,80,220,0.15)" stroke-width="2" d="M35.929,43.929 A10,10 0 0 1 43,41 h369 a10,10 0 0 1 10,10 v64 a10,10 0 0 1 -10,10 h-369 a10,10 0 0 1 -10,-10 v-64 A10,10 0 0 1 35.929,43.929"/><mask id="satori_om-id-2-0-0"><rect x="50" y="54" width="355" height="18" fill="#fff" mask="url(#satori_om-id)"/></mask><mask id="satori_om-id-2-0-0-0"><rect x="50" y="55" width="71" height="16" fill="#fff" mask="url(#satori_om-id)"/></mask><g mask="url(#satori_om-id)" clip-path="url(#satori_cp-id)"><path fill="#e0d8ff" d="M55.0 68.1L55.0 68.1Q53.7 68.1 52.7 67.6Q51.7 67.0 51.2 65.9Q50.6 64.8 50.6 63.3L50.6 63.3Q50.6 61.7 51.2 60.6Q51.8 59.6 52.7 59.0Q53.7 58.4 55.0 58.4L55.0 58.4Q55.8 58.4 56.5 58.6Q57.2 58.9 57.7 59.3Q58.3 59.7 58.6 60.4Q59.0 61.0 59.1 61.8L59.1 61.8L57.1 61.8Q57.0 61.4 56.9 61.1Q56.7 60.8 56.4 60.6Q56.1 60.4 55.8 60.2Q55.4 60.1 55.0 60.1L55.0 60.1Q54.3 60.1 53.7 60.5Q53.2 60.9 52.9 61.6Q52.6 62.3 52.6 63.3L52.6 63.3Q52.6 64.3 52.9 65.0Q53.2 65.7 53.7 66.1Q54.3 66.4 55.0 66.4L55.0 66.4Q55.4 66.4 55.8 66.3Q56.1 66.2 56.4 66.0Q56.7 65.8 56.9 65.5Q57.0 65.1 57.1 64.8L57.1 64.8L59.1 64.8Q59.0 65.4 58.7 66.0Q58.4 66.6 57.8 67.1Q57.3 67.6 56.6 67.9Q55.9 68.1 55.0 68.1ZM62.4 68.1L62.4 68.1Q61.7 68.1 61.2 67.9Q60.7 67.7 60.4 67.2Q60.0 66.7 60.0 66.0L60.0 66.0Q60.0 65.4 60.3 65.0Q60.5 64.6 60.9 64.4Q61.2 64.1 61.7 64.0Q62.2 63.9 62.7 63.8L62.7 63.8Q63.3 63.8 63.7 63.7Q64.1 63.7 64.3 63.5Q64.4 63.4 64.4 63.2L64.4 63.2L64.4 63.2Q64.4 62.9 64.3 62.7Q64.2 62.4 63.9 62.3Q63.7 62.2 63.3 62.2L63.3 62.2Q63.0 62.2 62.7 62.3Q62.4 62.4 62.3 62.6Q62.1 62.8 62.0 63.0L62.0 63.0L60.3 62.8Q60.4 62.1 60.9 61.7Q61.3 61.3 61.9 61.0Q62.5 60.8 63.3 60.8L63.3 60.8Q63.9 60.8 64.5 61.0Q65.0 61.1 65.4 61.4Q65.9 61.7 66.1 62.1Q66.4 62.6 66.4 63.2L66.4 63.2L66.4 68L64.5 68L64.5 67.0L64.5 67.0Q64.3 67.3 64.0 67.6Q63.7 67.8 63.3 68.0Q62.9 68.1 62.4 68.1ZM62.9 66.8L62.9 66.8Q63.4 66.8 63.7 66.6Q64.1 66.4 64.3 66.1Q64.5 65.8 64.5 65.5L64.5 65.5L64.5 64.7Q64.4 64.8 64.2 64.8Q64.0 64.9 63.8 64.9Q63.6 64.9 63.4 65.0Q63.2 65.0 63.1 65.0L63.1 65.0Q62.7 65.1 62.4 65.2Q62.2 65.3 62.0 65.5Q61.9 65.7 61.9 66.0L61.9 66.0Q61.9 66.2 62.0 66.4Q62.2 66.6 62.4 66.7Q62.6 66.8 62.9 66.8ZM69.9 70.7L68.0 70.7L68.0 60.9L69.8 60.9L69.8 62.1L69.9 62.1Q70.1 61.8 70.3 61.5Q70.6 61.2 71.0 61.0Q71.4 60.8 72.0 60.8L72.0 60.8Q72.8 60.8 73.4 61.2Q74.1 61.6 74.4 62.4Q74.8 63.3 74.8 64.5L74.8 64.5Q74.8 65.6 74.5 66.5Q74.1 67.3 73.4 67.7Q72.8 68.1 72.0 68.1L72.0 68.1Q71.4 68.1 71.0 67.9Q70.6 67.7 70.3 67.4Q70.1 67.1 69.9 66.9L69.9 66.9L69.9 66.9L69.9 70.7ZM71.4 66.6L71.4 66.6Q71.9 66.6 72.2 66.3Q72.5 66.0 72.7 65.6Q72.9 65.1 72.9 64.5L72.9 64.5Q72.9 63.8 72.7 63.4Q72.5 62.9 72.2 62.6Q71.9 62.3 71.4 62.3L71.4 62.3Q70.9 62.3 70.5 62.6Q70.2 62.9 70.0 63.3Q69.8 63.8 69.8 64.5L69.8 64.5Q69.8 65.1 70.0 65.6Q70.2 66.1 70.5 66.3Q70.9 66.6 71.4 66.6ZM79.0 68.1L79.0 68.1Q78.1 68.1 77.5 67.9Q76.8 67.7 76.4 67.2Q76.0 66.7 75.9 66.1L75.9 66.1L77.6 65.8Q77.8 66.2 78.1 66.5Q78.5 66.7 79.0 66.7L79.0 66.7Q79.6 66.7 79.9 66.5Q80.2 66.3 80.2 66.0L80.2 66.0Q80.2 65.7 80.0 65.6Q79.8 65.4 79.3 65.3L79.3 65.3L78.1 65.0Q77.1 64.8 76.5 64.3Q76.0 63.8 76.0 63.0L76.0 63.0Q76.0 62.3 76.4 61.8Q76.8 61.3 77.5 61.1Q78.1 60.8 79.0 60.8L79.0 60.8Q79.9 60.8 80.5 61.0Q81.1 61.3 81.5 61.7Q81.9 62.1 82.0 62.7L82.0 62.7L80.3 63.0Q80.2 62.6 79.9 62.4Q79.6 62.2 79.0 62.2L79.0 62.2Q78.6 62.2 78.3 62.4Q77.9 62.6 77.9 62.9L77.9 62.9Q77.9 63.2 78.1 63.4Q78.4 63.5 78.9 63.6L78.9 63.6L80.1 63.9Q81.2 64.1 81.7 64.6Q82.2 65.0 82.2 65.8L82.2 65.8Q82.2 66.5 81.8 67.0Q81.4 67.6 80.6 67.8Q79.9 68.1 79.0 68.1ZM85.6 60.9L87.0 60.9L87.0 62.4L85.6 62.4L85.6 65.9Q85.6 66.3 85.8 66.4Q85.9 66.6 86.3 66.6L86.3 66.6Q86.4 66.6 86.6 66.6Q86.8 66.5 86.9 66.5L86.9 66.5L87.2 67.9Q86.9 68.0 86.5 68.1Q86.2 68.1 85.9 68.1L85.9 68.1Q84.9 68.1 84.3 67.6Q83.7 67.1 83.7 66.1L83.7 66.1L83.7 62.4L82.8 62.4L82.8 60.9L83.7 60.9L83.7 59.2L85.6 59.2L85.6 60.9ZM91.4 68.1L91.4 68.1Q90.3 68.1 89.5 67.7Q88.8 67.2 88.3 66.4Q87.9 65.6 87.9 64.5L87.9 64.5Q87.9 63.4 88.3 62.6Q88.8 61.7 89.5 61.3Q90.3 60.8 91.4 60.8L91.4 60.8Q92.5 60.8 93.2 61.3Q94.0 61.7 94.4 62.6Q94.9 63.4 94.9 64.5L94.9 64.5Q94.9 65.6 94.4 66.4Q94.0 67.2 93.2 67.7Q92.5 68.1 91.4 68.1ZM91.4 66.6L91.4 66.6Q91.9 66.6 92.2 66.4Q92.6 66.1 92.8 65.6Q92.9 65.1 92.9 64.5L92.9 64.5Q92.9 63.8 92.8 63.4Q92.6 62.9 92.2 62.6Q91.9 62.3 91.4 62.3L91.4 62.3Q90.9 62.3 90.5 62.6Q90.2 62.9 90.0 63.4Q89.9 63.8 89.9 64.5L89.9 64.5Q89.9 65.1 90.0 65.6Q90.2 66.1 90.5 66.4Q90.9 66.6 91.4 66.6ZM98.1 63.9L98.1 63.9L98.1 68L96.2 68L96.2 60.9L98.0 60.9L98.0 62.4Q98.3 61.7 98.8 61.3L98.8 61.3Q99.3 60.8 100.2 60.8L100.2 60.8Q101.0 60.8 101.5 61.1Q102.1 61.5 102.4 62.1Q102.7 62.7 102.7 63.5L102.7 63.5L102.7 68L100.7 68L100.7 63.8Q100.7 63.2 100.4 62.8Q100.1 62.4 99.5 62.4L99.5 62.4Q99.1 62.4 98.8 62.6Q98.4 62.8 98.3 63.1Q98.1 63.4 98.1 63.9ZM107.5 68.1L107.5 68.1Q106.4 68.1 105.6 67.7Q104.8 67.3 104.4 66.4Q104.0 65.6 104.0 64.5L104.0 64.5Q104.0 63.4 104.4 62.6Q104.8 61.7 105.6 61.3Q106.4 60.8 107.4 60.8L107.4 60.8Q108.1 60.8 108.7 61.0Q109.3 61.3 109.8 61.7Q110.2 62.2 110.5 62.8Q110.7 63.5 110.7 64.4L110.7 64.4L110.7 64.9L105.9 64.9Q105.9 65.5 106.1 65.9L106.1 65.9Q106.3 66.3 106.6 66.5Q107.0 66.7 107.5 66.7L107.5 66.7Q107.9 66.7 108.1 66.6Q108.4 66.5 108.6 66.3Q108.8 66.1 108.9 65.9L108.9 65.9L110.6 66.2Q110.4 66.8 110.0 67.2Q109.6 67.7 109.0 67.9Q108.3 68.1 107.5 68.1ZM105.9 63.8L105.9 63.8L108.9 63.8Q108.8 63.4 108.7 63.1L108.7 63.1Q108.6 62.7 108.2 62.5Q107.9 62.2 107.4 62.2L107.4 62.2Q106.9 62.2 106.6 62.5Q106.2 62.7 106.0 63.1L106.0 63.1Q105.9 63.4 105.9 63.8ZM113.8 68L111.5 68L114.9 63.2L111.8 58.5L114.1 58.5L115.1 60.1Q115.4 60.6 115.6 60.9Q115.8 61.3 115.9 61.6L115.9 61.6Q116.0 61.7 116.0 61.8L116.0 61.8Q116.1 61.7 116.1 61.6L116.1 61.6Q116.3 61.3 116.5 60.9Q116.7 60.6 117.0 60.1L117.0 60.1L118.0 58.5L120.2 58.5L117.1 63.1L120.5 68L118.2 68L116.9 66.0Q116.6 65.6 116.5 65.3Q116.3 65.1 116.2 64.8L116.2 64.8Q116.1 64.7 116.0 64.5L116.0 64.5Q115.9 64.7 115.9 64.8L115.9 64.8Q115.7 65.1 115.6 65.3Q115.4 65.6 115.1 66.0L115.1 66.0L113.8 68Z "/></g><defs><clipPath id="satori_bc-id-2-0-0-1" clip-path="url(#satori_cp-id)"><path x="361" y="54" width="44" height="18" d="M370,54 h26 a9,9 0 0 1 9,9 v0 a9,9 0 0 1 -9,9 h-26 a9,9 0 0 1 -9,-9 v0 a9,9 0 0 1 9,-9"/></clipPath></defs><mask id="satori_om-id-2-0-0-1"><rect x="362" y="55" width="42" height="16" fill="#fff" mask="url(#satori_om-id)"/><path width="44" height="18" fill="none" stroke="#000" stroke-width="2" d="M363.636,56.636 A9,9 0 0 1 370,54 h26 a9,9 0 0 1 9,9 v0 a9,9 0 0 1 -9,9 h-26 a9,9 0 0 1 -9,-9 v0 A9,9 0 0 1 363.636,56.636"/></mask><path x="361" y="54" width="44" height="18" fill="#b0721922" d="M370,54 h26 a9,9 0 0 1 9,9 v0 a9,9 0 0 1 -9,9 h-26 a9,9 0 0 1 -9,-9 v0 a9,9 0 0 1 9,-9" clip-path="url(#satori_cp-id)" mask="url(#satori_om-id)"/><path width="44" height="18" clip-path="url(#satori_bc-id-2-0-0-1)" fill="none" stroke="#b0721955" stroke-width="2" d="M363.636,56.636 A9,9 0 0 1 370,54 h26 a9,9 0 0 1 9,9 v0 a9,9 0 0 1 -9,9 h-26 a9,9 0 0 1 -9,-9 v0 A9,9 0 0 1 363.636,56.636"/><g mask="url(#satori_om-id)" clip-path="url(#satori_cp-id)"><path fill="#b07219" d="M373.8 67.1L373.8 67.1Q372.6 67.1 372.0 66.5Q371.3 65.9 371.3 64.8L371.3 64.8L371.3 64.4L372.8 64.4L372.8 64.8Q372.8 65.4 373.1 65.6Q373.3 65.9 373.8 65.9L373.8 65.9Q374.2 65.9 374.5 65.6Q374.7 65.4 374.7 64.8L374.7 64.8L374.7 59.7L376.2 59.7L376.2 64.8Q376.2 65.9 375.5 66.5Q374.9 67.1 373.8 67.1ZM379.0 67.1L379.0 67.1Q378.5 67.1 378.1 66.9Q377.7 66.7 377.4 66.4Q377.2 66.0 377.2 65.5L377.2 65.5Q377.2 65.0 377.3 64.7Q377.5 64.4 377.8 64.2Q378.1 64.0 378.5 63.9Q378.8 63.8 379.2 63.8L379.2 63.8Q379.7 63.7 380.0 63.7Q380.3 63.7 380.4 63.6Q380.6 63.5 380.6 63.3L380.6 63.3L380.6 63.3Q380.6 63.0 380.5 62.9Q380.4 62.7 380.2 62.6Q380.0 62.6 379.7 62.6L379.7 62.6Q379.4 62.6 379.2 62.6Q379.0 62.7 378.9 62.9Q378.7 63.0 378.7 63.2L378.7 63.2L377.3 63.0Q377.5 62.5 377.8 62.2Q378.1 61.8 378.6 61.6Q379.1 61.5 379.7 61.5L379.7 61.5Q380.2 61.5 380.6 61.6Q381.0 61.7 381.3 61.9Q381.6 62.1 381.8 62.5Q382.0 62.8 382.0 63.3L382.0 63.3L382.0 67L380.6 67L380.6 66.2L380.6 66.2Q380.5 66.5 380.2 66.7Q380.0 66.9 379.7 67.0Q379.4 67.1 379.0 67.1ZM379.4 66.1L379.4 66.1Q379.8 66.1 380.0 65.9Q380.3 65.8 380.4 65.6Q380.6 65.3 380.6 65.0L380.6 65.0L380.6 64.5Q380.5 64.5 380.4 64.5Q380.2 64.6 380.1 64.6Q379.9 64.6 379.8 64.7Q379.6 64.7 379.5 64.7L379.5 64.7Q379.2 64.7 379.0 64.8Q378.8 64.9 378.7 65.1Q378.6 65.2 378.6 65.4L378.6 65.4Q378.6 65.6 378.7 65.8Q378.8 65.9 379.0 66.0Q379.2 66.1 379.4 66.1ZM386.5 67L384.8 67L382.8 61.5L384.4 61.5L385.3 64.4Q385.4 64.9 385.6 65.4L385.6 65.4Q385.6 65.7 385.7 65.9L385.7 65.9Q385.7 65.7 385.8 65.4L385.8 65.4Q385.9 64.9 386.0 64.4L386.0 64.4L387.0 61.5L388.5 61.5L386.5 67ZM390.8 67.1L390.8 67.1Q390.3 67.1 389.9 66.9Q389.5 66.7 389.2 66.4Q389.0 66.0 389.0 65.5L389.0 65.5Q389.0 65.0 389.1 64.7Q389.3 64.4 389.6 64.2Q389.9 64.0 390.3 63.9Q390.6 63.8 391.0 63.8L391.0 63.8Q391.5 63.7 391.8 63.7Q392.1 63.7 392.2 63.6Q392.4 63.5 392.4 63.3L392.4 63.3L392.4 63.3Q392.4 63.0 392.3 62.9Q392.2 62.7 392.0 62.6Q391.8 62.6 391.5 62.6L391.5 62.6Q391.2 62.6 391.0 62.6Q390.8 62.7 390.7 62.9Q390.5 63.0 390.5 63.2L390.5 63.2L389.1 63.0Q389.3 62.5 389.6 62.2Q389.9 61.8 390.4 61.6Q390.9 61.5 391.5 61.5L391.5 61.5Q392.0 61.5 392.4 61.6Q392.8 61.7 393.1 61.9Q393.4 62.1 393.6 62.5Q393.8 62.8 393.8 63.3L393.8 63.3L393.8 67L392.4 67L392.4 66.2L392.4 66.2Q392.3 66.5 392.0 66.7Q391.8 66.9 391.5 67.0Q391.2 67.1 390.8 67.1ZM391.2 66.1L391.2 66.1Q391.6 66.1 391.8 65.9Q392.1 65.8 392.2 65.6Q392.4 65.3 392.4 65.0L392.4 65.0L392.4 64.5Q392.3 64.5 392.2 64.5Q392.0 64.6 391.9 64.6Q391.7 64.6 391.6 64.7Q391.4 64.7 391.3 64.7L391.3 64.7Q391.0 64.7 390.8 64.8Q390.6 64.9 390.5 65.1Q390.4 65.2 390.4 65.4L390.4 65.4Q390.4 65.6 390.5 65.8Q390.6 65.9 390.8 66.0Q391.0 66.1 391.2 66.1Z "/></g><mask id="satori_om-id-2-0-1"><rect x="50" y="78" width="355" height="17" fill="#fff" mask="url(#satori_om-id)"/></mask><g mask="url(#satori_om-id)" clip-path="url(#satori_cp-id)"><path fill="rgba(180,170,220,0.6)" d="M52.0 90L51.0 90L51.0 82.0L52.2 82.0L55.4 87.1Q55.6 87.3 55.7 87.6Q55.9 87.9 56.1 88.3L56.1 88.3Q56.3 88.5 56.4 88.8L56.4 88.8Q56.3 88.5 56.3 88.3L56.3 88.3Q56.3 87.9 56.3 87.5Q56.3 87.2 56.3 86.9L56.3 86.9L56.3 82.0L57.3 82.0L57.3 90L56.1 90L53.2 85.4Q53.0 85.1 52.8 84.8Q52.6 84.5 52.3 84.0L52.3 84.0Q52.2 83.7 51.9 83.2L51.9 83.2Q51.9 83.6 51.9 84.0L51.9 84.0Q52.0 84.5 52.0 84.8Q52.0 85.2 52.0 85.4L52.0 85.4L52.0 90ZM61.6 90.1L61.6 90.1Q60.8 90.1 60.1 89.7Q59.5 89.4 59.2 88.7Q58.8 88.0 58.8 87.0L58.8 87.0Q58.8 86.1 59.2 85.4Q59.5 84.7 60.1 84.3Q60.8 83.9 61.6 83.9L61.6 83.9Q62.4 83.9 63.0 84.3Q63.6 84.7 64.0 85.4Q64.3 86.1 64.3 87.0L64.3 87.0Q64.3 88.0 64.0 88.7Q63.6 89.4 63.0 89.7Q62.4 90.1 61.6 90.1ZM61.6 89.3L61.6 89.3Q62.2 89.3 62.6 89.0Q63.0 88.6 63.2 88.1Q63.3 87.6 63.3 87.0L63.3 87.0Q63.3 86.4 63.2 85.9Q63.0 85.4 62.6 85.1Q62.2 84.8 61.6 84.8L61.6 84.8Q61.0 84.8 60.6 85.1Q60.2 85.4 60.0 85.9Q59.8 86.4 59.8 87.0L59.8 87.0Q59.8 87.6 60.0 88.1Q60.2 88.6 60.6 89.0Q61.0 89.3 61.6 89.3Z M71.1 90.1L71.1 90.1Q70.3 90.1 69.8 89.7Q69.2 89.4 68.9 88.7Q68.5 88.0 68.5 87.0L68.5 87.0Q68.5 86.1 68.9 85.4Q69.2 84.7 69.8 84.3Q70.3 83.9 71.1 83.9L71.1 83.9Q71.7 83.9 72.0 84.1Q72.4 84.3 72.5 84.6Q72.7 84.8 72.8 85.0L72.8 85.0L72.9 85.0L72.9 82.0L73.9 82.0L73.9 90L72.9 90L72.9 89.1L72.8 89.1Q72.7 89.2 72.5 89.5Q72.3 89.7 72.0 89.9Q71.7 90.1 71.1 90.1ZM71.2 89.3L71.2 89.3Q71.8 89.3 72.1 89.0Q72.5 88.7 72.7 88.2Q72.9 87.7 72.9 87.0L72.9 87.0Q72.9 86.3 72.7 85.8Q72.5 85.3 72.2 85.1Q71.8 84.8 71.2 84.8L71.2 84.8Q70.7 84.8 70.3 85.1Q69.9 85.4 69.7 85.9Q69.5 86.4 69.5 87.0L69.5 87.0Q69.5 87.6 69.7 88.1Q69.9 88.7 70.3 89.0Q70.7 89.3 71.2 89.3ZM78.1 90.1L78.1 90.1Q77.2 90.1 76.6 89.7Q76.0 89.4 75.6 88.7Q75.3 88.0 75.3 87.0Q75.3 86.1 75.6 85.4Q75.9 84.7 76.5 84.3Q77.2 83.9 78.0 83.9L78.0 83.9Q78.5 83.9 78.9 84.1Q79.4 84.2 79.8 84.6Q80.1 84.9 80.4 85.5Q80.6 86.1 80.6 86.9L80.6 86.9L80.6 87.3L76.2 87.3Q76.3 87.9 76.5 88.3L76.5 88.3Q76.7 88.8 77.1 89.0Q77.5 89.3 78.1 89.3L78.1 89.3Q78.4 89.3 78.7 89.2Q79.0 89.1 79.2 88.9Q79.4 88.7 79.6 88.3L79.6 88.3L80.5 88.6Q80.4 89.1 80.0 89.4Q79.7 89.7 79.2 89.9Q78.7 90.1 78.1 90.1ZM76.3 86.5L76.3 86.5L79.6 86.5Q79.6 86.1 79.4 85.8L79.4 85.8Q79.2 85.3 78.9 85.0Q78.5 84.8 78.0 84.8Q77.4 84.8 77.0 85.0Q76.7 85.3 76.5 85.7L76.5 85.7Q76.3 86.1 76.3 86.5ZM84.0 90.1L84.0 90.1Q83.4 90.1 82.9 89.9Q82.4 89.8 82.1 89.4Q81.8 89.1 81.7 88.5L81.7 88.5L82.6 88.3Q82.8 88.8 83.1 89.0Q83.5 89.3 84.0 89.3L84.0 89.3Q84.6 89.3 85.0 89.0Q85.4 88.7 85.4 88.4L85.4 88.4Q85.4 88.1 85.2 87.9Q84.9 87.6 84.5 87.5L84.5 87.5L83.5 87.3Q82.7 87.1 82.3 86.7Q81.9 86.3 81.9 85.7L81.9 85.7Q81.9 85.2 82.2 84.8Q82.5 84.4 83.0 84.1Q83.5 83.9 84.1 83.9L84.1 83.9Q84.7 83.9 85.2 84.1Q85.6 84.3 85.9 84.6Q86.1 84.9 86.3 85.4L86.3 85.4L85.4 85.6Q85.3 85.3 85.0 85.0Q84.7 84.7 84.1 84.7L84.1 84.7Q83.6 84.7 83.2 85.0Q82.9 85.2 82.9 85.6L82.9 85.6Q82.9 85.9 83.1 86.1Q83.3 86.3 83.9 86.5L83.9 86.5L84.8 86.7Q85.6 86.9 86.0 87.3Q86.4 87.7 86.4 88.3L86.4 88.3Q86.4 88.8 86.1 89.2Q85.8 89.7 85.3 89.9Q84.7 90.1 84.0 90.1ZM90.2 90.1L90.2 90.1Q89.4 90.1 88.8 89.7Q88.2 89.4 87.8 88.7Q87.5 88.0 87.5 87.0L87.5 87.0Q87.5 86.1 87.8 85.4Q88.2 84.7 88.8 84.3Q89.4 83.9 90.2 83.9L90.2 83.9Q90.7 83.9 91.0 84.0Q91.4 84.1 91.8 84.4Q92.1 84.6 92.3 84.9Q92.5 85.2 92.7 85.6L92.7 85.6L91.7 85.8Q91.7 85.6 91.5 85.4Q91.4 85.2 91.2 85.1Q91.0 84.9 90.8 84.9Q90.5 84.8 90.2 84.8L90.2 84.8Q89.6 84.8 89.2 85.1Q88.8 85.4 88.7 85.9Q88.5 86.4 88.5 87.0L88.5 87.0Q88.5 87.6 88.7 88.1Q88.8 88.6 89.2 89.0Q89.6 89.3 90.2 89.3L90.2 89.3Q90.5 89.3 90.8 89.2Q91.0 89.1 91.2 89.0Q91.4 88.8 91.6 88.6Q91.7 88.4 91.8 88.2L91.8 88.2L92.7 88.4Q92.6 88.8 92.3 89.1Q92.1 89.5 91.8 89.7Q91.4 89.9 91.1 90.0Q90.7 90.1 90.2 90.1ZM95.0 90L94.1 90L94.1 84.0L95.0 84.0L95.0 84.9L95.1 84.9Q95.2 84.5 95.7 84.2Q96.1 83.9 96.6 83.9L96.6 83.9Q96.7 83.9 96.9 83.9Q97.0 83.9 97.1 83.9L97.1 83.9L97.1 84.9Q97.1 84.9 96.9 84.9Q96.7 84.8 96.5 84.8L96.5 84.8Q96.1 84.8 95.8 85.0Q95.4 85.2 95.2 85.5Q95.0 85.8 95.0 86.2L95.0 86.2L95.0 90ZM99.2 90L98.2 90L98.2 84.0L99.2 84.0L99.2 90ZM98.7 83.0L98.7 83.0Q98.4 83.0 98.2 82.8Q98.0 82.6 98.0 82.4L98.0 82.4Q98.0 82.1 98.2 81.9Q98.4 81.7 98.7 81.7L98.7 81.7Q99.0 81.7 99.2 81.9Q99.4 82.1 99.4 82.4L99.4 82.4Q99.4 82.6 99.2 82.8Q99.0 83.0 98.7 83.0ZM101.8 92.2L100.9 92.2L100.9 84.0L101.8 84.0L101.8 85.0L101.9 85.0Q102.0 84.8 102.2 84.6Q102.4 84.3 102.7 84.1Q103.1 83.9 103.7 83.9L103.7 83.9Q104.4 83.9 105.0 84.3Q105.5 84.7 105.9 85.4Q106.2 86.1 106.2 87.0L106.2 87.0Q106.2 88.0 105.9 88.7Q105.6 89.4 105.0 89.7Q104.4 90.1 103.7 90.1L103.7 90.1Q103.1 90.1 102.7 89.9Q102.4 89.7 102.2 89.5Q102.0 89.2 101.9 89.1L101.9 89.1L101.8 89.1L101.8 92.2ZM103.5 89.3L103.5 89.3Q104.1 89.3 104.5 89.0Q104.8 88.7 105.0 88.1Q105.2 87.6 105.2 87.0L105.2 87.0Q105.2 86.4 105.0 85.9Q104.8 85.4 104.5 85.1Q104.1 84.8 103.5 84.8L103.5 84.8Q103.0 84.8 102.6 85.1Q102.2 85.3 102.0 85.8Q101.8 86.3 101.8 87.0L101.8 87.0Q101.8 87.7 102.0 88.2Q102.2 88.7 102.6 89.0Q103.0 89.3 103.5 89.3ZM108.7 84.0L110.0 84.0L110.0 84.8L108.7 84.8L108.7 88.4Q108.7 88.8 108.9 89.0Q109.1 89.2 109.4 89.2L109.4 89.2Q109.5 89.2 109.7 89.2Q109.8 89.2 109.9 89.2L109.9 89.2L110.1 90.0Q110.0 90.0 109.8 90.0Q109.6 90.1 109.4 90.1L109.4 90.1Q108.6 90.1 108.2 89.7Q107.8 89.3 107.8 88.5L107.8 88.5L107.8 84.8L106.9 84.8L106.9 84.0L107.8 84.0L107.8 82.6L108.7 82.6L108.7 84.0ZM112.2 90L111.2 90L111.2 84.0L112.2 84.0L112.2 90ZM111.7 83.0L111.7 83.0Q111.4 83.0 111.2 82.8Q111.0 82.6 111.0 82.4L111.0 82.4Q111.0 82.1 111.2 81.9Q111.4 81.7 111.7 81.7L111.7 81.7Q112.0 81.7 112.2 81.9Q112.4 82.1 112.4 82.4L112.4 82.4Q112.4 82.6 112.2 82.8Q112.0 83.0 111.7 83.0ZM116.3 90.1L116.3 90.1Q115.5 90.1 114.9 89.7Q114.3 89.4 113.9 88.7Q113.6 88.0 113.6 87.0L113.6 87.0Q113.6 86.1 113.9 85.4Q114.3 84.7 114.9 84.3Q115.5 83.9 116.3 83.9L116.3 83.9Q117.1 83.9 117.8 84.3Q118.4 84.7 118.7 85.4Q119.1 86.1 119.1 87.0L119.1 87.0Q119.1 88.0 118.7 88.7Q118.4 89.4 117.8 89.7Q117.1 90.1 116.3 90.1ZM116.3 89.3L116.3 89.3Q116.9 89.3 117.3 89.0Q117.7 88.6 117.9 88.1Q118.1 87.6 118.1 87.0L118.1 87.0Q118.1 86.4 117.9 85.9Q117.7 85.4 117.3 85.1Q116.9 84.8 116.3 84.8L116.3 84.8Q115.7 84.8 115.3 85.1Q114.9 85.4 114.7 85.9Q114.6 86.4 114.6 87.0L114.6 87.0Q114.6 87.6 114.7 88.1Q114.9 88.6 115.3 89.0Q115.7 89.3 116.3 89.3ZM121.4 86.4L121.4 86.4L121.4 90L120.5 90L120.5 84.0L121.4 84.0L121.4 85.1Q121.7 84.5 122.0 84.3L122.0 84.3Q122.6 83.9 123.2 83.9L123.2 83.9Q123.8 83.9 124.3 84.2Q124.8 84.4 125.0 84.9Q125.3 85.4 125.3 86.2L125.3 86.2L125.3 90L124.3 90L124.3 86.3Q124.3 85.6 123.9 85.2Q123.6 84.8 122.9 84.8L122.9 84.8Q122.5 84.8 122.2 85.0Q121.8 85.2 121.6 85.5Q121.4 85.9 121.4 86.4Z M131.0 92.2L130.1 92.2L130.1 84.0L131.0 84.0L131.0 85.0L131.1 85.0Q131.2 84.8 131.4 84.6Q131.6 84.3 131.9 84.1Q132.3 83.9 132.8 83.9L132.8 83.9Q133.6 83.9 134.2 84.3Q134.7 84.7 135.1 85.4Q135.4 86.1 135.4 87.0L135.4 87.0Q135.4 88.0 135.1 88.7Q134.7 89.4 134.2 89.7Q133.6 90.1 132.8 90.1L132.8 90.1Q132.3 90.1 131.9 89.9Q131.6 89.7 131.4 89.5Q131.2 89.2 131.1 89.1L131.1 89.1L131.0 89.1L131.0 92.2ZM132.7 89.3L132.7 89.3Q133.3 89.3 133.6 89.0Q134.0 88.7 134.2 88.1Q134.4 87.6 134.4 87.0L134.4 87.0Q134.4 86.4 134.2 85.9Q134.0 85.4 133.6 85.1Q133.3 84.8 132.7 84.8L132.7 84.8Q132.1 84.8 131.8 85.1Q131.4 85.3 131.2 85.8Q131.0 86.3 131.0 87.0L131.0 87.0Q131.0 87.7 131.2 88.2Q131.4 88.7 131.8 89.0Q132.2 89.3 132.7 89.3ZM137.8 90L136.8 90L136.8 84.0L137.7 84.0L137.7 84.9L137.8 84.9Q138.0 84.5 138.4 84.2Q138.8 83.9 139.3 83.9L139.3 83.9Q139.5 83.9 139.6 83.9Q139.8 83.9 139.8 83.9L139.8 83.9L139.8 84.9Q139.8 84.9 139.6 84.9Q139.5 84.8 139.3 84.8L139.3 84.8Q138.8 84.8 138.5 85.0Q138.1 85.2 138.0 85.5Q137.8 85.8 137.8 86.2L137.8 86.2L137.8 90ZM143.4 90.1L143.4 90.1Q142.6 90.1 141.9 89.7Q141.3 89.4 141.0 88.7Q140.6 88.0 140.6 87.0L140.6 87.0Q140.6 86.1 141.0 85.4Q141.3 84.7 141.9 84.3Q142.6 83.9 143.4 83.9L143.4 83.9Q144.2 83.9 144.8 84.3Q145.4 84.7 145.8 85.4Q146.1 86.1 146.1 87.0L146.1 87.0Q146.1 88.0 145.8 88.7Q145.4 89.4 144.8 89.7Q144.2 90.1 143.4 90.1ZM143.4 89.3L143.4 89.3Q144.0 89.3 144.4 89.0Q144.8 88.6 145.0 88.1Q145.1 87.6 145.1 87.0L145.1 87.0Q145.1 86.4 145.0 85.9Q144.8 85.4 144.4 85.1Q144.0 84.8 143.4 84.8L143.4 84.8Q142.8 84.8 142.4 85.1Q142.0 85.4 141.8 85.9Q141.6 86.4 141.6 87.0L141.6 87.0Q141.6 87.6 141.8 88.1Q142.0 88.6 142.4 89.0Q142.8 89.3 143.4 89.3ZM150.3 90L149.3 90L147.0 84.0L148.0 84.0L149.3 87.6Q149.5 88.1 149.7 88.7L149.7 88.7Q149.7 88.9 149.8 89.1L149.8 89.1Q149.8 88.9 149.9 88.7L149.9 88.7Q150.0 88.1 150.2 87.6L150.2 87.6L151.5 84.0L152.6 84.0L150.3 90ZM154.7 90L153.7 90L153.7 84.0L154.7 84.0L154.7 90ZM154.2 83.0L154.2 83.0Q153.9 83.0 153.7 82.8Q153.5 82.6 153.5 82.4L153.5 82.4Q153.5 82.1 153.7 81.9Q153.9 81.7 154.2 81.7L154.2 81.7Q154.5 81.7 154.7 81.9Q154.9 82.1 154.9 82.4L154.9 82.4Q154.9 82.6 154.7 82.8Q154.5 83.0 154.2 83.0ZM158.6 90.1L158.6 90.1Q157.9 90.1 157.3 89.7Q156.7 89.4 156.4 88.7Q156.1 88.0 156.1 87.0L156.1 87.0Q156.1 86.1 156.4 85.4Q156.7 84.7 157.3 84.3Q157.9 83.9 158.6 83.9L158.6 83.9Q159.2 83.9 159.6 84.1Q159.9 84.3 160.1 84.6Q160.3 84.8 160.4 85.0L160.4 85.0L160.4 85.0L160.4 82.0L161.4 82.0L161.4 90L160.5 90L160.5 89.1L160.4 89.1Q160.3 89.2 160.1 89.5Q159.9 89.7 159.5 89.9Q159.2 90.1 158.6 90.1ZM158.8 89.3L158.8 89.3Q159.3 89.3 159.7 89.0Q160.1 88.7 160.3 88.2Q160.5 87.7 160.5 87.0L160.5 87.0Q160.5 86.3 160.3 85.8Q160.1 85.3 159.7 85.1Q159.3 84.8 158.8 84.8L158.8 84.8Q158.2 84.8 157.8 85.1Q157.4 85.4 157.3 85.9Q157.1 86.4 157.1 87.0L157.1 87.0Q157.1 87.6 157.3 88.1Q157.4 88.7 157.8 89.0Q158.2 89.3 158.8 89.3ZM165.6 90.1L165.6 90.1Q164.8 90.1 164.1 89.7Q163.5 89.4 163.2 88.7Q162.8 88.0 162.8 87.0Q162.8 86.1 163.2 85.4Q163.5 84.7 164.1 84.3Q164.7 83.9 165.5 83.9L165.5 83.9Q166.0 83.9 166.5 84.1Q166.9 84.2 167.3 84.6Q167.7 84.9 167.9 85.5Q168.1 86.1 168.1 86.9L168.1 86.9L168.1 87.3L163.8 87.3Q163.8 87.9 164.0 88.3L164.0 88.3Q164.3 88.8 164.7 89.0Q165.1 89.3 165.6 89.3L165.6 89.3Q166.0 89.3 166.3 89.2Q166.6 89.1 166.8 88.9Q167.0 88.7 167.1 88.3L167.1 88.3L168.0 88.6Q167.9 89.1 167.6 89.4Q167.2 89.7 166.7 89.9Q166.3 90.1 165.6 90.1ZM163.8 86.5L163.8 86.5L167.2 86.5Q167.1 86.1 167.0 85.8L167.0 85.8Q166.8 85.3 166.4 85.0Q166.1 84.8 165.5 84.8Q165.0 84.8 164.6 85.0Q164.2 85.3 164.0 85.7L164.0 85.7Q163.8 86.1 163.8 86.5ZM171.8 90.1L171.8 90.1Q171.0 90.1 170.5 89.7Q169.9 89.4 169.6 88.7Q169.2 88.0 169.2 87.0L169.2 87.0Q169.2 86.1 169.6 85.4Q169.9 84.7 170.5 84.3Q171.0 83.9 171.8 83.9L171.8 83.9Q172.4 83.9 172.7 84.1Q173.1 84.3 173.2 84.6Q173.4 84.8 173.5 85.0L173.5 85.0L173.6 85.0L173.6 82.0L174.6 82.0L174.6 90L173.6 90L173.6 89.1L173.5 89.1Q173.4 89.2 173.2 89.5Q173.0 89.7 172.7 89.9Q172.3 90.1 171.8 90.1ZM171.9 89.3L171.9 89.3Q172.5 89.3 172.8 89.0Q173.2 88.7 173.4 88.2Q173.6 87.7 173.6 87.0L173.6 87.0Q173.6 86.3 173.4 85.8Q173.2 85.3 172.8 85.1Q172.5 84.8 171.9 84.8L171.9 84.8Q171.3 84.8 171.0 85.1Q170.6 85.4 170.4 85.9Q170.2 86.4 170.2 87.0L170.2 87.0Q170.2 87.6 170.4 88.1Q170.6 88.7 171.0 89.0Q171.4 89.3 171.9 89.3ZM177.0 90.1L177.0 90.1Q176.7 90.1 176.5 89.9Q176.3 89.6 176.3 89.3L176.3 89.3Q176.3 89.0 176.5 88.8Q176.7 88.6 177.0 88.6L177.0 88.6Q177.3 88.6 177.5 88.8Q177.7 89.0 177.7 89.3L177.7 89.3Q177.7 89.6 177.5 89.9Q177.3 90.1 177.0 90.1Z "/></g><defs><clipPath id="satori_bc-id-2-1" clip-path="url(#satori_cp-id)"><path x="438" y="41" width="389" height="84" d="M448,41 h369 a10,10 0 0 1 10,10 v64 a10,10 0 0 1 -10,10 h-369 a10,10 0 0 1 -10,-10 v-64 a10,10 0 0 1 10,-10"/></clipPath></defs><mask id="satori_om-id-2-1"><rect x="439" y="42" width="387" height="82" fill="#fff" mask="url(#satori_om-id)"/><path width="389" height="84" fill="none" stroke="#000" stroke-width="2" d="M440.929,43.929 A10,10 0 0 1 448,41 h369 a10,10 0 0 1 10,10 v64 a10,10 0 0 1 -10,10 h-369 a10,10 0 0 1 -10,-10 v-64 A10,10 0 0 1 440.929,43.929"/></mask><path x="438" y="41" width="389" height="84" fill="rgba(255,255,255,0.03)" d="M448,41 h369 a10,10 0 0 1 10,10 v64 a10,10 0 0 1 -10,10 h-369 a10,10 0 0 1 -10,-10 v-64 a10,10 0 0 1 10,-10" clip-path="url(#satori_cp-id)" mask="url(#satori_om-id)"/><path width="389" height="84" clip-path="url(#satori_bc-id-2-1)" fill="none" stroke="rgba(110,80,220,0.15)" stroke-width="2" d="M440.929,43.929 A10,10 0 0 1 448,41 h369 a10,10 0 0 1 10,10 v64 a10,10 0 0 1 -10,10 h-369 a10,10 0 0 1 -10,-10 v-64 A10,10 0 0 1 440.929,43.929"/><mask id="satori_om-id-2-1-0"><rect x="455" y="54" width="355" height="18" fill="#fff" mask="url(#satori_om-id)"/></mask><mask id="satori_om-id-2-1-0-0"><rect x="455" y="55" width="60" height="16" fill="#fff" mask="url(#satori_om-id)"/></mask><g mask="url(#satori_om-id)" clip-path="url(#satori_cp-id)"><path fill="#e0d8ff" d="M457.8 68L455.9 68L455.9 58.5L462.1 58.5L462.1 60.1L457.8 60.1L457.8 62.8L461.7 62.8L461.7 64.4L457.8 64.4L457.8 68ZM465.3 68L463.4 68L463.4 60.9L465.3 60.9L465.3 68ZM464.4 60.0L464.4 60.0Q464.0 60.0 463.7 59.7Q463.4 59.4 463.4 59.0L463.4 59.0Q463.4 58.6 463.7 58.3Q464.0 58.0 464.4 58.0L464.4 58.0Q464.8 58.0 465.1 58.3Q465.4 58.6 465.4 59.0L465.4 59.0Q465.4 59.4 465.1 59.7Q464.8 60.0 464.4 60.0ZM467.0 58.5L468.9 58.5L468.9 68L467.0 68L467.0 58.5ZM473.7 68.1L473.7 68.1Q472.6 68.1 471.8 67.7Q471.0 67.3 470.6 66.4Q470.2 65.6 470.2 64.5L470.2 64.5Q470.2 63.4 470.6 62.6Q471.0 61.7 471.8 61.3Q472.6 60.8 473.6 60.8L473.6 60.8Q474.3 60.8 474.9 61.0Q475.5 61.3 476.0 61.7Q476.4 62.2 476.7 62.8Q476.9 63.5 476.9 64.4L476.9 64.4L476.9 64.9L472.1 64.9Q472.1 65.5 472.3 65.9L472.3 65.9Q472.5 66.3 472.9 66.5Q473.2 66.7 473.7 66.7L473.7 66.7Q474.1 66.7 474.3 66.6Q474.6 66.5 474.8 66.3Q475.0 66.1 475.1 65.9L475.1 65.9L476.8 66.2Q476.7 66.8 476.2 67.2Q475.8 67.7 475.2 67.9Q474.5 68.1 473.7 68.1ZM472.1 63.8L472.1 63.8L475.1 63.8Q475.1 63.4 474.9 63.1L474.9 63.1Q474.8 62.7 474.4 62.5Q474.1 62.2 473.6 62.2L473.6 62.2Q473.1 62.2 472.8 62.5Q472.4 62.7 472.3 63.1L472.3 63.1Q472.1 63.4 472.1 63.8ZM481.7 68.1L481.7 68.1Q480.6 68.1 479.8 67.8Q478.9 67.4 478.5 66.8Q478.0 66.1 478.0 65.1L478.0 65.1L479.8 65.1Q479.9 65.5 480.1 65.9Q480.4 66.2 480.8 66.3Q481.2 66.5 481.7 66.5L481.7 66.5Q482.2 66.5 482.6 66.4Q483.0 66.2 483.2 65.9Q483.4 65.7 483.4 65.3L483.4 65.3Q483.4 65.0 483.3 64.8Q483.1 64.5 482.7 64.4Q482.3 64.2 481.8 64.1L481.8 64.1L480.8 63.8Q479.6 63.5 478.9 62.9Q478.2 62.3 478.2 61.3L478.2 61.3Q478.2 60.4 478.7 59.8Q479.1 59.1 479.9 58.8Q480.7 58.4 481.8 58.4L481.8 58.4Q482.8 58.4 483.6 58.8Q484.4 59.1 484.8 59.8Q485.3 60.4 485.3 61.2L485.3 61.2L483.4 61.2Q483.3 60.7 482.9 60.4Q482.5 60.0 481.7 60.0L481.7 60.0Q481.3 60.0 480.9 60.2Q480.6 60.3 480.4 60.6Q480.2 60.8 480.2 61.1L480.2 61.1Q480.2 61.5 480.4 61.7Q480.6 62.0 481.0 62.1Q481.3 62.2 481.7 62.3L481.7 62.3L482.6 62.5Q483.2 62.7 483.7 62.9Q484.2 63.1 484.6 63.5Q485.0 63.8 485.2 64.3Q485.4 64.7 485.4 65.3L485.4 65.3Q485.4 66.2 485.0 66.8Q484.5 67.4 483.7 67.8Q482.9 68.1 481.7 68.1ZM488.6 63.9L488.6 63.9L488.6 68L486.7 68L486.7 58.5L488.6 58.5L488.6 62.3Q488.9 61.7 489.3 61.3L489.3 61.3Q489.9 60.8 490.8 60.8L490.8 60.8Q491.5 60.8 492.1 61.1Q492.6 61.5 492.9 62.1Q493.2 62.7 493.2 63.5L493.2 63.5L493.2 68L491.3 68L491.3 63.8Q491.3 63.2 491.0 62.8Q490.6 62.4 490.0 62.4L490.0 62.4Q489.6 62.4 489.3 62.6Q489.0 62.8 488.8 63.1Q488.6 63.4 488.6 63.9ZM496.8 68.1L496.8 68.1Q496.1 68.1 495.6 67.9Q495.1 67.7 494.8 67.2Q494.5 66.7 494.5 66.0L494.5 66.0Q494.5 65.4 494.7 65.0Q494.9 64.6 495.3 64.4Q495.7 64.1 496.1 64.0Q496.6 63.9 497.1 63.8L497.1 63.8Q497.8 63.8 498.1 63.7Q498.5 63.7 498.7 63.5Q498.9 63.4 498.9 63.2L498.9 63.2L498.9 63.2Q498.9 62.9 498.7 62.7Q498.6 62.4 498.4 62.3Q498.1 62.2 497.7 62.2L497.7 62.2Q497.4 62.2 497.1 62.3Q496.8 62.4 496.7 62.6Q496.5 62.8 496.4 63.0L496.4 63.0L494.7 62.8Q494.8 62.1 495.3 61.7Q495.7 61.3 496.3 61.0Q497.0 60.8 497.8 60.8L497.8 60.8Q498.3 60.8 498.9 61.0Q499.4 61.1 499.8 61.4Q500.3 61.7 500.5 62.1Q500.8 62.6 500.8 63.2L500.8 63.2L500.8 68L499.0 68L499.0 67.0L498.9 67.0Q498.7 67.3 498.4 67.6Q498.2 67.8 497.7 68.0Q497.3 68.1 496.8 68.1ZM497.4 66.8L497.4 66.8Q497.8 66.8 498.1 66.6Q498.5 66.4 498.7 66.1Q498.9 65.8 498.9 65.5L498.9 65.5L498.9 64.7Q498.8 64.8 498.6 64.8Q498.4 64.9 498.2 64.9Q498.0 64.9 497.8 65.0Q497.6 65.0 497.5 65.0L497.5 65.0Q497.1 65.1 496.8 65.2Q496.6 65.3 496.4 65.5Q496.3 65.7 496.3 66.0L496.3 66.0Q496.3 66.2 496.4 66.4Q496.6 66.6 496.8 66.7Q497.0 66.8 497.4 66.8ZM504.3 68L502.4 68L502.4 60.9L504.2 60.9L504.2 62.1L504.3 62.1Q504.5 61.5 505.0 61.1Q505.4 60.8 506.0 60.8L506.0 60.8Q506.2 60.8 506.3 60.8Q506.5 60.8 506.6 60.9L506.6 60.9L506.6 62.6Q506.5 62.5 506.3 62.5Q506.0 62.5 505.8 62.5L505.8 62.5Q505.4 62.5 505.0 62.7Q504.7 62.9 504.5 63.2Q504.3 63.5 504.3 64.0L504.3 64.0L504.3 68ZM510.9 68.1L510.9 68.1Q509.8 68.1 509.0 67.7Q508.2 67.3 507.8 66.4Q507.4 65.6 507.4 64.5L507.4 64.5Q507.4 63.4 507.8 62.6Q508.2 61.7 509.0 61.3Q509.8 60.8 510.8 60.8L510.8 60.8Q511.5 60.8 512.1 61.0Q512.7 61.3 513.2 61.7Q513.6 62.2 513.9 62.8Q514.1 63.5 514.1 64.4L514.1 64.4L514.1 64.9L509.3 64.9Q509.3 65.5 509.5 65.9L509.5 65.9Q509.7 66.3 510.1 66.5Q510.4 66.7 510.9 66.7L510.9 66.7Q511.3 66.7 511.5 66.6Q511.8 66.5 512.0 66.3Q512.2 66.1 512.3 65.9L512.3 65.9L514.0 66.2Q513.8 66.8 513.4 67.2Q513.0 67.7 512.4 67.9Q511.7 68.1 510.9 68.1ZM509.3 63.8L509.3 63.8L512.3 63.8Q512.2 63.4 512.1 63.1L512.1 63.1Q512.0 62.7 511.6 62.5Q511.3 62.2 510.8 62.2L510.8 62.2Q510.3 62.2 510.0 62.5Q509.6 62.7 509.4 63.1L509.4 63.1Q509.3 63.4 509.3 63.8Z "/></g><defs><clipPath id="satori_bc-id-2-1-0-1" clip-path="url(#satori_cp-id)"><path x="760" y="54" width="50" height="18" d="M769,54 h32 a9,9 0 0 1 9,9 v0 a9,9 0 0 1 -9,9 h-32 a9,9 0 0 1 -9,-9 v0 a9,9 0 0 1 9,-9"/></clipPath></defs><mask id="satori_om-id-2-1-0-1"><rect x="761" y="55" width="48" height="16" fill="#fff" mask="url(#satori_om-id)"/><path width="50" height="18" fill="none" stroke="#000" stroke-width="2" d="M762.636,56.636 A9,9 0 0 1 769,54 h32 a9,9 0 0 1 9,9 v0 a9,9 0 0 1 -9,9 h-32 a9,9 0 0 1 -9,-9 v0 A9,9 0 0 1 762.636,56.636"/></mask><path x="760" y="54" width="50" height="18" fill="#e34c2622" d="M769,54 h32 a9,9 0 0 1 9,9 v0 a9,9 0 0 1 -9,9 h-32 a9,9 0 0 1 -9,-9 v0 a9,9 0 0 1 9,-9" clip-path="url(#satori_cp-id)" mask="url(#satori_om-id)"/><path width="50" height="18" clip-path="url(#satori_bc-id-2-1-0-1)" fill="none" stroke="#e34c2655" stroke-width="2" d="M762.636,56.636 A9,9 0 0 1 769,54 h32 a9,9 0 0 1 9,9 v0 a9,9 0 0 1 -9,9 h-32 a9,9 0 0 1 -9,-9 v0 A9,9 0 0 1 762.636,56.636"/><g mask="url(#satori_om-id)" clip-path="url(#satori_cp-id)"><path fill="#e34c26" d="M772.1 67L770.7 67L770.7 59.7L772.1 59.7L772.1 62.7L775.3 62.7L775.3 59.7L776.8 59.7L776.8 67L775.3 67L775.3 63.9L772.1 63.9L772.1 67ZM780.1 61.0L777.8 61.0L777.8 59.7L783.8 59.7L783.8 61.0L781.6 61.0L781.6 67L780.1 67L780.1 61.0ZM786.3 67L784.8 67L784.8 59.7L787.1 59.7L788.3 63.1Q788.3 63.3 788.4 63.7Q788.5 64.0 788.6 64.5L788.6 64.5Q788.7 64.9 788.8 65.3L788.8 65.3Q788.9 64.9 789.0 64.5L789.0 64.5Q789.1 64.1 789.2 63.7Q789.3 63.3 789.4 63.1L789.4 63.1L790.5 59.7L792.8 59.7L792.8 67L791.3 67L791.3 63.6Q791.3 63.3 791.3 63.0Q791.3 62.6 791.3 62.2Q791.3 61.8 791.4 61.4L791.4 61.4Q791.4 61.2 791.4 61.0L791.4 61.0Q791.3 61.2 791.3 61.4L791.3 61.4Q791.1 61.9 791.0 62.3Q790.9 62.7 790.8 63.0Q790.7 63.3 790.6 63.6L790.6 63.6L789.4 67L788.2 67L787.0 63.6Q786.9 63.3 786.8 63.0Q786.7 62.7 786.6 62.3Q786.4 61.9 786.3 61.4L786.3 61.4Q786.3 61.2 786.2 61.1L786.2 61.1Q786.2 61.2 786.2 61.4L786.2 61.4Q786.2 61.8 786.3 62.2Q786.3 62.6 786.3 63.0Q786.3 63.3 786.3 63.6L786.3 63.6L786.3 67ZM798.8 67L794.1 67L794.1 59.7L795.6 59.7L795.6 65.8L798.8 65.8L798.8 67Z "/></g><mask id="satori_om-id-2-1-1"><rect x="455" y="78" width="355" height="34" fill="#fff" mask="url(#satori_om-id)"/></mask><g mask="url(#satori_om-id)" clip-path="url(#satori_cp-id)"><path fill="rgba(180,170,220,0.6)" d="M458.0 82.9L455.5 82.9L455.5 82.0L461.6 82.0L461.6 82.9L459.1 82.9L459.1 90L458.0 90L458.0 82.9ZM463.9 86.4L463.9 86.4L463.9 90L462.9 90L462.9 82.0L463.9 82.0L463.9 85.0Q464.2 84.5 464.5 84.3L464.5 84.3Q465.0 83.9 465.7 83.9L465.7 83.9Q466.3 83.9 466.8 84.2Q467.2 84.4 467.5 84.9Q467.8 85.4 467.8 86.2L467.8 86.2L467.8 90L466.8 90L466.8 86.3Q466.8 85.6 466.4 85.2Q466.1 84.8 465.4 84.8L465.4 84.8Q465.0 84.8 464.7 85.0Q464.3 85.2 464.1 85.5Q463.9 85.9 463.9 86.4ZM472.0 90.1L472.0 90.1Q471.1 90.1 470.5 89.7Q469.8 89.4 469.5 88.7Q469.2 88.0 469.2 87.0Q469.2 86.1 469.5 85.4Q469.8 84.7 470.4 84.3Q471.0 83.9 471.9 83.9L471.9 83.9Q472.3 83.9 472.8 84.1Q473.3 84.2 473.7 84.6Q474.0 84.9 474.3 85.5Q474.5 86.1 474.5 86.9L474.5 86.9L474.5 87.3L470.1 87.3Q470.2 87.9 470.4 88.3L470.4 88.3Q470.6 88.8 471.0 89.0Q471.4 89.3 472.0 89.3L472.0 89.3Q472.3 89.3 472.6 89.2Q472.9 89.1 473.1 88.9Q473.3 88.7 473.4 88.3L473.4 88.3L474.4 88.6Q474.2 89.1 473.9 89.4Q473.6 89.7 473.1 89.9Q472.6 90.1 472.0 90.1ZM470.1 86.5L470.1 86.5L473.5 86.5Q473.5 86.1 473.3 85.8L473.3 85.8Q473.1 85.3 472.8 85.0Q472.4 84.8 471.9 84.8Q471.3 84.8 470.9 85.0Q470.5 85.3 470.3 85.7L470.3 85.7Q470.2 86.1 470.1 86.5Z M479.8 92.2L478.8 92.2L478.8 84.0L479.8 84.0L479.8 85.0L479.9 85.0Q480.0 84.8 480.2 84.6Q480.4 84.3 480.7 84.1Q481.0 83.9 481.6 83.9L481.6 83.9Q482.4 83.9 483.0 84.3Q483.5 84.7 483.9 85.4Q484.2 86.1 484.2 87.0L484.2 87.0Q484.2 88.0 483.9 88.7Q483.5 89.4 483.0 89.7Q482.4 90.1 481.6 90.1L481.6 90.1Q481.1 90.1 480.7 89.9Q480.4 89.7 480.2 89.5Q480.0 89.2 479.9 89.1L479.9 89.1L479.8 89.1L479.8 92.2ZM481.5 89.3L481.5 89.3Q482.1 89.3 482.4 89.0Q482.8 88.7 483.0 88.1Q483.2 87.6 483.2 87.0L483.2 87.0Q483.2 86.4 483.0 85.9Q482.8 85.4 482.4 85.1Q482.1 84.8 481.5 84.8L481.5 84.8Q480.9 84.8 480.6 85.1Q480.2 85.3 480.0 85.8Q479.8 86.3 479.8 87.0L479.8 87.0Q479.8 87.7 480.0 88.2Q480.2 88.7 480.6 89.0Q480.9 89.3 481.5 89.3ZM487.6 90.1L487.6 90.1Q487.0 90.1 486.6 89.8Q486.1 89.6 485.8 89.1Q485.6 88.6 485.6 87.8L485.6 87.8L485.6 84.0L486.6 84.0L486.6 87.7Q486.6 88.4 486.9 88.8Q487.3 89.2 487.9 89.2L487.9 89.2Q488.3 89.2 488.7 89.0Q489.0 88.8 489.2 88.5Q489.4 88.1 489.4 87.6L489.4 87.6L489.4 84.0L490.4 84.0L490.4 90L489.5 90L489.5 88.9Q489.2 89.5 488.8 89.7L488.8 89.7Q488.3 90.1 487.6 90.1ZM493.1 90L492.1 90L492.1 84.0L493.0 84.0L493.0 84.9L493.1 84.9Q493.3 84.5 493.7 84.2Q494.1 83.9 494.6 83.9L494.6 83.9Q494.8 83.9 494.9 83.9Q495.0 83.9 495.1 83.9L495.1 83.9L495.1 84.9Q495.1 84.9 494.9 84.9Q494.7 84.8 494.6 84.8L494.6 84.8Q494.1 84.8 493.8 85.0Q493.4 85.2 493.2 85.5Q493.1 85.8 493.1 86.2L493.1 86.2L493.1 90ZM497.2 92.2L496.2 92.2L496.2 84.0L497.2 84.0L497.2 85.0L497.3 85.0Q497.4 84.8 497.6 84.6Q497.7 84.3 498.1 84.1Q498.4 83.9 499.0 83.9L499.0 83.9Q499.8 83.9 500.3 84.3Q500.9 84.7 501.2 85.4Q501.6 86.1 501.6 87.0L501.6 87.0Q501.6 88.0 501.2 88.7Q500.9 89.4 500.3 89.7Q499.8 90.1 499.0 90.1L499.0 90.1Q498.4 90.1 498.1 89.9Q497.7 89.7 497.6 89.5Q497.4 89.2 497.3 89.1L497.3 89.1L497.2 89.1L497.2 92.2ZM498.9 89.3L498.9 89.3Q499.4 89.3 499.8 89.0Q500.2 88.7 500.4 88.1Q500.6 87.6 500.6 87.0L500.6 87.0Q500.6 86.4 500.4 85.9Q500.2 85.4 499.8 85.1Q499.4 84.8 498.9 84.8L498.9 84.8Q498.3 84.8 497.9 85.1Q497.6 85.3 497.4 85.8Q497.2 86.3 497.2 87.0L497.2 87.0Q497.2 87.7 497.4 88.2Q497.6 88.7 498.0 89.0Q498.3 89.3 498.9 89.3ZM505.4 90.1L505.4 90.1Q504.6 90.1 504.0 89.7Q503.4 89.4 503.0 88.7Q502.7 88.0 502.7 87.0L502.7 87.0Q502.7 86.1 503.0 85.4Q503.4 84.7 504.0 84.3Q504.6 83.9 505.4 83.9L505.4 83.9Q506.2 83.9 506.8 84.3Q507.5 84.7 507.8 85.4Q508.2 86.1 508.2 87.0L508.2 87.0Q508.2 88.0 507.8 88.7Q507.5 89.4 506.8 89.7Q506.2 90.1 505.4 90.1ZM505.4 89.3L505.4 89.3Q506.0 89.3 506.4 89.0Q506.8 88.6 507.0 88.1Q507.2 87.6 507.2 87.0L507.2 87.0Q507.2 86.4 507.0 85.9Q506.8 85.4 506.4 85.1Q506.0 84.8 505.4 84.8L505.4 84.8Q504.8 84.8 504.4 85.1Q504.0 85.4 503.8 85.9Q503.7 86.4 503.7 87.0L503.7 87.0Q503.7 87.6 503.8 88.1Q504.0 88.6 504.4 89.0Q504.8 89.3 505.4 89.3ZM511.6 90.1L511.6 90.1Q511.0 90.1 510.5 89.9Q510.0 89.8 509.7 89.4Q509.4 89.1 509.3 88.5L509.3 88.5L510.2 88.3Q510.3 88.8 510.7 89.0Q511.1 89.3 511.6 89.3L511.6 89.3Q512.2 89.3 512.6 89.0Q513.0 88.7 513.0 88.4L513.0 88.4Q513.0 88.1 512.7 87.9Q512.5 87.6 512.1 87.5L512.1 87.5L511.1 87.3Q510.3 87.1 509.9 86.7Q509.5 86.3 509.5 85.7L509.5 85.7Q509.5 85.2 509.8 84.8Q510.1 84.4 510.6 84.1Q511.1 83.9 511.7 83.9L511.7 83.9Q512.3 83.9 512.7 84.1Q513.2 84.3 513.5 84.6Q513.7 84.9 513.9 85.4L513.9 85.4L513.0 85.6Q512.9 85.3 512.6 85.0Q512.3 84.7 511.7 84.7L511.7 84.7Q511.2 84.7 510.8 85.0Q510.5 85.2 510.5 85.6L510.5 85.6Q510.5 85.9 510.7 86.1Q510.9 86.3 511.5 86.5L511.5 86.5L512.4 86.7Q513.2 86.9 513.6 87.3Q514.0 87.7 514.0 88.3L514.0 88.3Q514.0 88.8 513.7 89.2Q513.4 89.7 512.8 89.9Q512.3 90.1 511.6 90.1ZM517.9 90.1L517.9 90.1Q517.0 90.1 516.4 89.7Q515.8 89.4 515.4 88.7Q515.1 88.0 515.1 87.0Q515.1 86.1 515.4 85.4Q515.7 84.7 516.4 84.3Q517.0 83.9 517.8 83.9L517.8 83.9Q518.3 83.9 518.7 84.1Q519.2 84.2 519.6 84.6Q519.9 84.9 520.2 85.5Q520.4 86.1 520.4 86.9L520.4 86.9L520.4 87.3L516.1 87.3Q516.1 87.9 516.3 88.3L516.3 88.3Q516.5 88.8 516.9 89.0Q517.3 89.3 517.9 89.3L517.9 89.3Q518.3 89.3 518.5 89.2Q518.8 89.1 519.0 88.9Q519.3 88.7 519.4 88.3L519.4 88.3L520.3 88.6Q520.2 89.1 519.8 89.4Q519.5 89.7 519.0 89.9Q518.5 90.1 517.9 90.1ZM516.1 86.5L516.1 86.5L519.4 86.5Q519.4 86.1 519.2 85.8L519.2 85.8Q519.1 85.3 518.7 85.0Q518.3 84.8 517.8 84.8Q517.2 84.8 516.8 85.0Q516.5 85.3 516.3 85.7L516.3 85.7Q516.1 86.1 516.1 86.5Z M527.3 90.1L527.3 90.1Q526.5 90.1 525.9 89.7Q525.2 89.4 524.9 88.7Q524.6 88.0 524.6 87.0L524.6 87.0Q524.6 86.1 524.9 85.4Q525.2 84.7 525.9 84.3Q526.5 83.9 527.3 83.9L527.3 83.9Q528.1 83.9 528.7 84.3Q529.3 84.7 529.7 85.4Q530.0 86.1 530.0 87.0L530.0 87.0Q530.0 88.0 529.7 88.7Q529.3 89.4 528.7 89.7Q528.1 90.1 527.3 90.1ZM527.3 89.3L527.3 89.3Q527.9 89.3 528.3 89.0Q528.7 88.6 528.9 88.1Q529.1 87.6 529.1 87.0L529.1 87.0Q529.1 86.4 528.9 85.9Q528.7 85.4 528.3 85.1Q527.9 84.8 527.3 84.8L527.3 84.8Q526.7 84.8 526.3 85.1Q525.9 85.4 525.7 85.9Q525.5 86.4 525.5 87.0L525.5 87.0Q525.5 87.6 525.7 88.1Q525.9 88.6 526.3 89.0Q526.7 89.3 527.3 89.3ZM532.9 84.0L534.2 84.0L534.2 84.8L532.9 84.8L532.9 90L531.9 90L531.9 84.8L530.7 84.8L530.7 84.0L531.9 84.0L531.9 83.2Q531.9 82.7 532.1 82.3Q532.4 82.0 532.8 81.8Q533.2 81.6 533.6 81.6L533.6 81.6Q533.9 81.6 534.2 81.7Q534.4 81.7 534.5 81.8L534.5 81.8L534.2 82.6Q534.2 82.6 534.0 82.6Q533.9 82.5 533.7 82.5L533.7 82.5Q533.3 82.5 533.1 82.7Q532.9 83.0 532.9 83.4L532.9 83.4L532.9 84.0Z M540.0 84.0L541.2 84.0L541.2 84.8L540.0 84.8L540.0 88.4Q540.0 88.8 540.1 89.0Q540.3 89.2 540.7 89.2L540.7 89.2Q540.8 89.2 540.9 89.2Q541.1 89.2 541.2 89.2L541.2 89.2L541.4 90.0Q541.2 90.0 541.0 90.0Q540.8 90.1 540.7 90.1L540.7 90.1Q539.9 90.1 539.4 89.7Q539.0 89.3 539.0 88.5L539.0 88.5L539.0 84.8L538.1 84.8L538.1 84.0L539.0 84.0L539.0 82.6L540.0 82.6L540.0 84.0ZM543.4 86.4L543.4 86.4L543.4 90L542.4 90L542.4 82.0L543.4 82.0L543.4 85.0Q543.7 84.5 544.0 84.3L544.0 84.3Q544.5 83.9 545.2 83.9L545.2 83.9Q545.8 83.9 546.3 84.2Q546.7 84.4 547.0 84.9Q547.3 85.4 547.3 86.2L547.3 86.2L547.3 90L546.3 90L546.3 86.3Q546.3 85.6 545.9 85.2Q545.6 84.8 544.9 84.8L544.9 84.8Q544.5 84.8 544.2 85.0Q543.8 85.2 543.6 85.5Q543.4 85.9 543.4 86.4ZM549.9 90L549.0 90L549.0 84.0L549.9 84.0L549.9 90ZM549.4 83.0L549.4 83.0Q549.2 83.0 549.0 82.8Q548.8 82.6 548.8 82.4L548.8 82.4Q548.8 82.1 549.0 81.9Q549.2 81.7 549.4 81.7L549.4 81.7Q549.7 81.7 549.9 81.9Q550.1 82.1 550.1 82.4L550.1 82.4Q550.1 82.6 549.9 82.8Q549.7 83.0 549.4 83.0ZM553.7 90.1L553.7 90.1Q553.0 90.1 552.6 89.9Q552.1 89.8 551.8 89.4Q551.5 89.1 551.3 88.5L551.3 88.5L552.3 88.3Q552.4 88.8 552.8 89.0Q553.1 89.3 553.6 89.3L553.6 89.3Q554.3 89.3 554.6 89.0Q555.0 88.7 555.0 88.4L555.0 88.4Q555.0 88.1 554.8 87.9Q554.6 87.6 554.1 87.5L554.1 87.5L553.1 87.3Q552.3 87.1 551.9 86.7Q551.5 86.3 551.5 85.7L551.5 85.7Q551.5 85.2 551.8 84.8Q552.1 84.4 552.6 84.1Q553.1 83.9 553.8 83.9L553.8 83.9Q554.4 83.9 554.8 84.1Q555.2 84.3 555.5 84.6Q555.8 84.9 555.9 85.4L555.9 85.4L555.0 85.6Q554.9 85.3 554.6 85.0Q554.3 84.7 553.8 84.7L553.8 84.7Q553.2 84.7 552.9 85.0Q552.5 85.2 552.5 85.6L552.5 85.6Q552.5 85.9 552.7 86.1Q553.0 86.3 553.5 86.5L553.5 86.5L554.4 86.7Q555.2 86.9 555.6 87.3Q556.0 87.7 556.0 88.3L556.0 88.3Q556.0 88.8 555.7 89.2Q555.4 89.7 554.9 89.9Q554.4 90.1 553.7 90.1Z M563.2 90L562.2 90L560.4 84.0L561.4 84.0L562.1 86.6Q562.3 87.2 562.5 87.8L562.5 87.8Q562.6 88.3 562.7 89.0L562.7 89.0Q562.8 88.4 563.0 87.9L563.0 87.9Q563.1 87.2 563.3 86.6L563.3 86.6L564.0 84.0L565.0 84.0L565.7 86.6Q565.9 87.2 566.1 87.8L566.1 87.8Q566.2 88.4 566.3 88.9L566.3 88.9Q566.4 88.4 566.5 87.9L566.5 87.9Q566.7 87.2 566.9 86.6L566.9 86.6L567.6 84.0L568.6 84.0L566.8 90L565.8 90L565.1 87.3Q564.9 86.9 564.8 86.4Q564.7 86.0 564.6 85.6L564.6 85.6Q564.6 85.3 564.5 85.1L564.5 85.1Q564.4 85.3 564.4 85.6L564.4 85.6Q564.3 86.0 564.2 86.4Q564.1 86.9 563.9 87.3L563.9 87.3L563.2 90ZM572.4 90.1L572.4 90.1Q571.5 90.1 570.9 89.7Q570.2 89.4 569.9 88.7Q569.6 88.0 569.6 87.0Q569.6 86.1 569.9 85.4Q570.2 84.7 570.8 84.3Q571.4 83.9 572.3 83.9L572.3 83.9Q572.7 83.9 573.2 84.1Q573.7 84.2 574.0 84.6Q574.4 84.9 574.7 85.5Q574.9 86.1 574.9 86.9L574.9 86.9L574.9 87.3L570.5 87.3Q570.6 87.9 570.8 88.3L570.8 88.3Q571 88.8 571.4 89.0Q571.8 89.3 572.4 89.3L572.4 89.3Q572.7 89.3 573.0 89.2Q573.3 89.1 573.5 88.9Q573.7 88.7 573.8 88.3L573.8 88.3L574.8 88.6Q574.6 89.1 574.3 89.4Q574.0 89.7 573.5 89.9Q573.0 90.1 572.4 90.1ZM570.5 86.5L570.5 86.5L573.9 86.5Q573.9 86.1 573.7 85.8L573.7 85.8Q573.5 85.3 573.2 85.0Q572.8 84.8 572.3 84.8Q571.7 84.8 571.3 85.0Q570.9 85.3 570.7 85.7L570.7 85.7Q570.6 86.1 570.5 86.5ZM579.1 90.1L579.1 90.1Q578.5 90.1 578.1 89.9Q577.8 89.7 577.6 89.5Q577.4 89.2 577.3 89.1L577.3 89.1L577.2 89.1L577.2 90L576.3 90L576.3 82.0L577.2 82.0L577.2 85.0L577.3 85.0Q577.4 84.8 577.6 84.6Q577.8 84.3 578.1 84.1Q578.5 83.9 579.0 83.9L579.0 83.9Q579.8 83.9 580.4 84.3Q580.9 84.7 581.3 85.4Q581.6 86.1 581.6 87.0L581.6 87.0Q581.6 88.0 581.3 88.7Q580.9 89.4 580.4 89.7Q579.8 90.1 579.1 90.1ZM578.9 89.3L578.9 89.3Q579.5 89.3 579.8 89.0Q580.2 88.7 580.4 88.1Q580.6 87.6 580.6 87.0L580.6 87.0Q580.6 86.4 580.4 85.9Q580.2 85.4 579.9 85.1Q579.5 84.8 578.9 84.8L578.9 84.8Q578.4 84.8 578.0 85.1Q577.6 85.3 577.4 85.8Q577.2 86.3 577.2 87.0L577.2 87.0Q577.2 87.7 577.4 88.2Q577.6 88.7 578.0 89.0Q578.4 89.3 578.9 89.3ZM585.0 90.1L585.0 90.1Q584.4 90.1 583.9 89.9Q583.5 89.8 583.1 89.4Q582.8 89.1 582.7 88.5L582.7 88.5L583.6 88.3Q583.8 88.8 584.1 89.0Q584.5 89.3 585.0 89.3L585.0 89.3Q585.7 89.3 586.0 89.0Q586.4 88.7 586.4 88.4L586.4 88.4Q586.4 88.1 586.2 87.9Q586.0 87.6 585.5 87.5L585.5 87.5L584.5 87.3Q583.7 87.1 583.3 86.7Q582.9 86.3 582.9 85.7L582.9 85.7Q582.9 85.2 583.2 84.8Q583.5 84.4 584.0 84.1Q584.5 83.9 585.1 83.9L585.1 83.9Q585.8 83.9 586.2 84.1Q586.6 84.3 586.9 84.6Q587.2 84.9 587.3 85.4L587.3 85.4L586.4 85.6Q586.3 85.3 586.0 85.0Q585.7 84.7 585.1 84.7L585.1 84.7Q584.6 84.7 584.2 85.0Q583.9 85.2 583.9 85.6L583.9 85.6Q583.9 85.9 584.1 86.1Q584.4 86.3 584.9 86.5L584.9 86.5L585.8 86.7Q586.6 86.9 587.0 87.3Q587.4 87.7 587.4 88.3L587.4 88.3Q587.4 88.8 587.1 89.2Q586.8 89.7 586.3 89.9Q585.7 90.1 585.0 90.1ZM589.8 90L588.8 90L588.8 84.0L589.8 84.0L589.8 90ZM589.3 83.0L589.3 83.0Q589.0 83.0 588.8 82.8Q588.6 82.6 588.6 82.4L588.6 82.4Q588.6 82.1 588.8 81.9Q589.0 81.7 589.3 81.7L589.3 81.7Q589.6 81.7 589.8 81.9Q590.0 82.1 590.0 82.4L590.0 82.4Q590.0 82.6 589.8 82.8Q589.6 83.0 589.3 83.0ZM592.6 84.0L593.8 84.0L593.8 84.8L592.6 84.8L592.6 88.4Q592.6 88.8 592.8 89.0Q592.9 89.2 593.3 89.2L593.3 89.2Q593.4 89.2 593.5 89.2Q593.7 89.2 593.8 89.2L593.8 89.2L594.0 90.0Q593.8 90.0 593.7 90.0Q593.5 90.1 593.3 90.1L593.3 90.1Q592.5 90.1 592.1 89.7Q591.6 89.3 591.6 88.5L591.6 88.5L591.6 84.8L590.7 84.8L590.7 84.0L591.6 84.0L591.6 82.6L592.6 82.6L592.6 84.0ZM597.6 90.1L597.6 90.1Q596.7 90.1 596.1 89.7Q595.5 89.4 595.1 88.7Q594.8 88.0 594.8 87.0Q594.8 86.1 595.1 85.4Q595.4 84.7 596.1 84.3Q596.7 83.9 597.5 83.9L597.5 83.9Q598.0 83.9 598.4 84.1Q598.9 84.2 599.3 84.6Q599.6 84.9 599.9 85.5Q600.1 86.1 600.1 86.9L600.1 86.9L600.1 87.3L595.8 87.3Q595.8 87.9 596.0 88.3L596.0 88.3Q596.2 88.8 596.6 89.0Q597.0 89.3 597.6 89.3L597.6 89.3Q598.0 89.3 598.2 89.2Q598.5 89.1 598.7 88.9Q599.0 88.7 599.1 88.3L599.1 88.3L600.0 88.6Q599.9 89.1 599.5 89.4Q599.2 89.7 598.7 89.9Q598.2 90.1 597.6 90.1ZM595.8 86.5L595.8 86.5L599.1 86.5Q599.1 86.1 598.9 85.8L598.9 85.8Q598.8 85.3 598.4 85.0Q598.0 84.8 597.5 84.8Q596.9 84.8 596.6 85.0Q596.2 85.3 596.0 85.7L596.0 85.7Q595.8 86.1 595.8 86.5Z M604.8 90L603.8 90L603.8 84.0L604.8 84.0L604.8 90ZM604.3 83.0L604.3 83.0Q604.1 83.0 603.9 82.8Q603.7 82.6 603.7 82.4L603.7 82.4Q603.7 82.1 603.9 81.9Q604.1 81.7 604.3 81.7L604.3 81.7Q604.6 81.7 604.8 81.9Q605.0 82.1 605.0 82.4L605.0 82.4Q605.0 82.6 604.8 82.8Q604.6 83.0 604.3 83.0ZM608.6 90.1L608.6 90.1Q607.9 90.1 607.5 89.9Q607.0 89.8 606.7 89.4Q606.4 89.1 606.2 88.5L606.2 88.5L607.2 88.3Q607.3 88.8 607.6 89.0Q608.0 89.3 608.5 89.3L608.5 89.3Q609.2 89.3 609.5 89.0Q609.9 88.7 609.9 88.4L609.9 88.4Q609.9 88.1 609.7 87.9Q609.5 87.6 609.0 87.5L609.0 87.5L608.0 87.3Q607.2 87.1 606.8 86.7Q606.4 86.3 606.4 85.7L606.4 85.7Q606.4 85.2 606.7 84.8Q607.0 84.4 607.5 84.1Q608.0 83.9 608.7 83.9L608.7 83.9Q609.3 83.9 609.7 84.1Q610.1 84.3 610.4 84.6Q610.7 84.9 610.8 85.4L610.8 85.4L609.9 85.6Q609.8 85.3 609.5 85.0Q609.2 84.7 608.7 84.7L608.7 84.7Q608.1 84.7 607.8 85.0Q607.4 85.2 607.4 85.6L607.4 85.6Q607.4 85.9 607.6 86.1Q607.9 86.3 608.4 86.5L608.4 86.5L609.3 86.7Q610.1 86.9 610.5 87.3Q610.9 87.7 610.9 88.3L610.9 88.3Q610.9 88.8 610.6 89.2Q610.3 89.7 609.8 89.9Q609.3 90.1 608.6 90.1Z M617.0 84.0L618.2 84.0L618.2 84.8L617.0 84.8L617.0 88.4Q617.0 88.8 617.1 89.0Q617.3 89.2 617.7 89.2L617.7 89.2Q617.8 89.2 617.9 89.2Q618.1 89.2 618.2 89.2L618.2 89.2L618.4 90.0Q618.2 90.0 618.0 90.0Q617.8 90.1 617.7 90.1L617.7 90.1Q616.9 90.1 616.4 89.7Q616.0 89.3 616.0 88.5L616.0 88.5L616.0 84.8L615.1 84.8L615.1 84.0L616.0 84.0L616.0 82.6L617.0 82.6L617.0 84.0ZM621.9 90.1L621.9 90.1Q621.1 90.1 620.5 89.7Q619.8 89.4 619.5 88.7Q619.2 88.0 619.2 87.0L619.2 87.0Q619.2 86.1 619.5 85.4Q619.8 84.7 620.5 84.3Q621.1 83.9 621.9 83.9L621.9 83.9Q622.7 83.9 623.3 84.3Q623.9 84.7 624.3 85.4Q624.6 86.1 624.6 87.0L624.6 87.0Q624.6 88.0 624.3 88.7Q623.9 89.4 623.3 89.7Q622.7 90.1 621.9 90.1ZM621.9 89.3L621.9 89.3Q622.5 89.3 622.9 89.0Q623.3 88.6 623.5 88.1Q623.7 87.6 623.7 87.0L623.7 87.0Q623.7 86.4 623.5 85.9Q623.3 85.4 622.9 85.1Q622.5 84.8 621.9 84.8L621.9 84.8Q621.3 84.8 620.9 85.1Q620.5 85.4 620.3 85.9Q620.1 86.4 620.1 87.0L620.1 87.0Q620.1 87.6 620.3 88.1Q620.5 88.6 620.9 89.0Q621.3 89.3 621.9 89.3Z M631.5 90.1L631.5 90.1Q630.7 90.1 630.0 89.9Q629.4 89.6 629.0 89.1Q628.7 88.6 628.6 87.9L628.6 87.9L629.7 87.9Q629.7 88.4 630.0 88.6Q630.2 88.9 630.7 89.1Q631.1 89.2 631.5 89.2L631.5 89.2Q632.1 89.2 632.5 89.0Q632.9 88.9 633.2 88.5Q633.4 88.2 633.4 87.8L633.4 87.8Q633.4 87.4 633.2 87.2Q633.0 86.9 632.6 86.8Q632.3 86.6 631.9 86.5L631.9 86.5L630.9 86.2Q629.9 86.0 629.4 85.4Q628.8 84.9 628.8 84.1L628.8 84.1Q628.8 83.5 629.2 83.0Q629.6 82.4 630.2 82.2Q630.8 81.9 631.6 81.9L631.6 81.9Q632.4 81.9 633.0 82.2Q633.6 82.4 634.0 82.9Q634.3 83.4 634.3 84.0L634.3 84.0L633.3 84.0Q633.3 83.4 632.8 83.1Q632.3 82.8 631.6 82.8L631.6 82.8Q631.1 82.8 630.7 83.0Q630.3 83.1 630.1 83.4Q629.8 83.7 629.8 84.1L629.8 84.1Q629.8 84.5 630.1 84.8Q630.4 85.0 630.7 85.2Q631.1 85.3 631.4 85.4L631.4 85.4L632.2 85.6Q632.5 85.7 632.9 85.8Q633.3 86.0 633.6 86.2Q634.0 86.5 634.2 86.9Q634.4 87.3 634.4 87.8L634.4 87.8Q634.4 88.5 634.1 89.0Q633.8 89.5 633.1 89.8Q632.5 90.1 631.5 90.1ZM636.9 86.4L636.9 86.4L636.9 90L635.9 90L635.9 82.0L636.9 82.0L636.9 85.0Q637.1 84.5 637.5 84.3L637.5 84.3Q638.0 83.9 638.7 83.9L638.7 83.9Q639.3 83.9 639.7 84.2Q640.2 84.4 640.5 84.9Q640.7 85.4 640.7 86.2L640.7 86.2L640.7 90L639.7 90L639.7 86.3Q639.7 85.6 639.4 85.2Q639.0 84.8 638.4 84.8L638.4 84.8Q638.0 84.8 637.6 85.0Q637.3 85.2 637.1 85.5Q636.9 85.9 636.9 86.4ZM644.1 90.1L644.1 90.1Q643.5 90.1 643.1 89.9Q642.6 89.7 642.3 89.3Q642.0 88.9 642.0 88.3L642.0 88.3Q642.0 87.8 642.2 87.5Q642.5 87.1 642.8 86.9Q643.1 86.8 643.5 86.7Q644.0 86.6 644.4 86.5L644.4 86.5Q644.9 86.5 645.3 86.4Q645.6 86.4 645.8 86.3Q645.9 86.2 645.9 86.0L645.9 86.0L645.9 85.9Q645.9 85.6 645.8 85.3Q645.6 85.0 645.4 84.9Q645.1 84.8 644.7 84.8L644.7 84.8Q644.2 84.8 643.9 84.9Q643.6 85.0 643.4 85.2Q643.2 85.4 643.1 85.6L643.1 85.6L642.2 85.3Q642.4 84.8 642.8 84.5Q643.2 84.2 643.7 84.0Q644.2 83.9 644.6 83.9L644.6 83.9Q644.9 83.9 645.3 84.0Q645.7 84.1 646.1 84.3Q646.4 84.5 646.7 84.9Q646.9 85.3 646.9 86.0L646.9 86.0L646.9 90L645.9 90L645.9 89.2L645.9 89.2Q645.8 89.4 645.5 89.6Q645.3 89.8 645.0 90.0Q644.6 90.1 644.1 90.1ZM644.3 89.3L644.3 89.3Q644.8 89.3 645.2 89.1Q645.5 88.9 645.7 88.5Q645.9 88.2 645.9 87.8L645.9 87.8L645.9 87.0Q645.9 87.1 645.7 87.1Q645.5 87.2 645.2 87.2Q645.0 87.3 644.7 87.3Q644.5 87.3 644.3 87.3L644.3 87.3Q644.0 87.4 643.7 87.5Q643.4 87.6 643.2 87.8Q643.0 88.0 643.0 88.3L643.0 88.3Q643.0 88.7 643.2 88.9Q643.3 89.1 643.6 89.2Q643.9 89.3 644.3 89.3ZM649.6 90L648.6 90L648.6 84.0L649.5 84.0L649.5 84.9L649.6 84.9Q649.8 84.5 650.2 84.2Q650.6 83.9 651.1 83.9L651.1 83.9Q651.3 83.9 651.4 83.9Q651.5 83.9 651.6 83.9L651.6 83.9L651.6 84.9Q651.6 84.9 651.4 84.9Q651.2 84.8 651.1 84.8L651.1 84.8Q650.6 84.8 650.3 85.0Q649.9 85.2 649.7 85.5Q649.6 85.8 649.6 86.2L649.6 86.2L649.6 90ZM655.3 90.1L655.3 90.1Q654.4 90.1 653.8 89.7Q653.1 89.4 652.8 88.7Q652.4 88.0 652.4 87.0Q652.4 86.1 652.8 85.4Q653.1 84.7 653.7 84.3Q654.3 83.9 655.1 83.9L655.1 83.9Q655.6 83.9 656.1 84.1Q656.5 84.2 656.9 84.6Q657.3 84.9 657.5 85.5Q657.8 86.1 657.8 86.9L657.8 86.9L657.8 87.3L653.4 87.3Q653.4 87.9 653.6 88.3L653.6 88.3Q653.9 88.8 654.3 89.0Q654.7 89.3 655.3 89.3L655.3 89.3Q655.6 89.3 655.9 89.2Q656.2 89.1 656.4 88.9Q656.6 88.7 656.7 88.3L656.7 88.3L657.7 88.6Q657.5 89.1 657.2 89.4Q656.9 89.7 656.4 89.9Q655.9 90.1 655.3 90.1ZM653.4 86.5L653.4 86.5L656.8 86.5Q656.7 86.1 656.6 85.8L656.6 85.8Q656.4 85.3 656.0 85.0Q655.7 84.8 655.1 84.8Q654.6 84.8 654.2 85.0Q653.8 85.3 653.6 85.7L653.6 85.7Q653.4 86.1 653.4 86.5Z M664.0 84.0L665.2 84.0L665.2 84.8L664.0 84.8L664.0 88.4Q664.0 88.8 664.1 89.0Q664.3 89.2 664.7 89.2L664.7 89.2Q664.8 89.2 664.9 89.2Q665.1 89.2 665.2 89.2L665.2 89.2L665.4 90.0Q665.2 90.0 665.0 90.0Q664.8 90.1 664.7 90.1L664.7 90.1Q663.9 90.1 663.4 89.7Q663.0 89.3 663.0 88.5L663.0 88.5L663.0 84.8L662.1 84.8L662.1 84.0L663.0 84.0L663.0 82.6L664.0 82.6L664.0 84.0ZM667.4 86.4L667.4 86.4L667.4 90L666.4 90L666.4 82.0L667.4 82.0L667.4 85.0Q667.7 84.5 668.0 84.3L668.0 84.3Q668.5 83.9 669.2 83.9L669.2 83.9Q669.8 83.9 670.3 84.2Q670.7 84.4 671.0 84.9Q671.3 85.4 671.3 86.2L671.3 86.2L671.3 90L670.3 90L670.3 86.3Q670.3 85.6 669.9 85.2Q669.6 84.8 668.9 84.8L668.9 84.8Q668.5 84.8 668.2 85.0Q667.8 85.2 667.6 85.5Q667.4 85.9 667.4 86.4ZM675.5 90.1L675.5 90.1Q674.6 90.1 674.0 89.7Q673.3 89.4 673.0 88.7Q672.7 88.0 672.7 87.0Q672.7 86.1 673.0 85.4Q673.3 84.7 673.9 84.3Q674.5 83.9 675.4 83.9L675.4 83.9Q675.8 83.9 676.3 84.1Q676.8 84.2 677.1 84.6Q677.5 84.9 677.8 85.5Q678.0 86.1 678.0 86.9L678.0 86.9L678.0 87.3L673.6 87.3Q673.7 87.9 673.9 88.3L673.9 88.3Q674.1 88.8 674.5 89.0Q674.9 89.3 675.5 89.3L675.5 89.3Q675.8 89.3 676.1 89.2Q676.4 89.1 676.6 88.9Q676.8 88.7 676.9 88.3L676.9 88.3L677.9 88.6Q677.7 89.1 677.4 89.4Q677.1 89.7 676.6 89.9Q676.1 90.1 675.5 90.1ZM673.6 86.5L673.6 86.5L677.0 86.5Q677.0 86.1 676.8 85.8L676.8 85.8Q676.6 85.3 676.3 85.0Q675.9 84.8 675.4 84.8Q674.8 84.8 674.4 85.0Q674.0 85.3 673.8 85.7L673.8 85.7Q673.7 86.1 673.6 86.5Z M683.3 84.0L684.6 84.0L684.6 84.8L683.3 84.8L683.3 90L682.3 90L682.3 84.8L681.1 84.8L681.1 84.0L682.3 84.0L682.3 83.2Q682.3 82.7 682.5 82.3Q682.8 82.0 683.2 81.8Q683.6 81.6 684.0 81.6L684.0 81.6Q684.3 81.6 684.6 81.7Q684.8 81.7 684.9 81.8L684.9 81.8L684.6 82.6Q684.6 82.6 684.4 82.6Q684.3 82.5 684.1 82.5L684.1 82.5Q683.7 82.5 683.5 82.7Q683.3 83.0 683.3 83.4L683.3 83.4L683.3 84.0ZM686.9 90L685.9 90L685.9 84.0L686.9 84.0L686.9 90ZM686.4 83.0L686.4 83.0Q686.1 83.0 685.9 82.8Q685.7 82.6 685.7 82.4L685.7 82.4Q685.7 82.1 685.9 81.9Q686.1 81.7 686.4 81.7L686.4 81.7Q686.7 81.7 686.9 81.9Q687.1 82.1 687.1 82.4L687.1 82.4Q687.1 82.6 686.9 82.8Q686.7 83.0 686.4 83.0ZM688.6 82.0L689.6 82.0L689.6 90L688.6 90L688.6 82.0ZM693.8 90.1L693.8 90.1Q692.9 90.1 692.3 89.7Q691.6 89.4 691.3 88.7Q691.0 88.0 691.0 87.0Q691.0 86.1 691.3 85.4Q691.6 84.7 692.2 84.3Q692.8 83.9 693.7 83.9L693.7 83.9Q694.1 83.9 694.6 84.1Q695.1 84.2 695.4 84.6Q695.8 84.9 696.0 85.5Q696.3 86.1 696.3 86.9L696.3 86.9L696.3 87.3L691.9 87.3Q692.0 87.9 692.2 88.3L692.2 88.3Q692.4 88.8 692.8 89.0Q693.2 89.3 693.8 89.3L693.8 89.3Q694.1 89.3 694.4 89.2Q694.7 89.1 694.9 88.9Q695.1 88.7 695.2 88.3L695.2 88.3L696.2 88.6Q696.0 89.1 695.7 89.4Q695.4 89.7 694.9 89.9Q694.4 90.1 693.8 90.1ZM691.9 86.5L691.9 86.5L695.3 86.5Q695.3 86.1 695.1 85.8L695.1 85.8Q694.9 85.3 694.6 85.0Q694.2 84.8 693.7 84.8Q693.1 84.8 692.7 85.0Q692.3 85.3 692.1 85.7L692.1 85.7Q692.0 86.1 691.9 86.5Z M702.5 90.1L702.5 90.1Q702.0 90.1 701.5 89.9Q701.0 89.7 700.8 89.3Q700.5 88.9 700.5 88.3L700.5 88.3Q700.5 87.8 700.7 87.5Q700.9 87.1 701.2 86.9Q701.6 86.8 702.0 86.7Q702.4 86.6 702.8 86.5L702.8 86.5Q703.4 86.5 703.7 86.4Q704.0 86.4 704.2 86.3Q704.4 86.2 704.4 86.0L704.4 86.0L704.4 85.9Q704.4 85.6 704.2 85.3Q704.1 85.0 703.8 84.9Q703.5 84.8 703.1 84.8L703.1 84.8Q702.7 84.8 702.4 84.9Q702.1 85.0 701.9 85.2Q701.7 85.4 701.6 85.6L701.6 85.6L700.7 85.3Q700.9 84.8 701.3 84.5Q701.7 84.2 702.1 84.0Q702.6 83.9 703.1 83.9L703.1 83.9Q703.4 83.9 703.8 84.0Q704.1 84.1 704.5 84.3Q704.9 84.5 705.1 84.9Q705.3 85.3 705.3 86.0L705.3 86.0L705.3 90L704.4 90L704.4 89.2L704.3 89.2Q704.2 89.4 704.0 89.6Q703.8 89.8 703.4 90.0Q703.0 90.1 702.5 90.1ZM702.7 89.3L702.7 89.3Q703.2 89.3 703.6 89.1Q704.0 88.9 704.2 88.5Q704.4 88.2 704.4 87.8L704.4 87.8L704.4 87.0Q704.3 87.1 704.1 87.1Q703.9 87.2 703.6 87.2Q703.4 87.3 703.2 87.3Q702.9 87.3 702.8 87.3L702.8 87.3Q702.4 87.4 702.1 87.5Q701.8 87.6 701.6 87.8Q701.5 88.0 701.5 88.3L701.5 88.3Q701.5 88.7 701.6 88.9Q701.8 89.1 702.1 89.2Q702.3 89.3 702.7 89.3ZM708.0 90L707.0 90L707.0 84.0L708.0 84.0L708.0 85.1Q708.1 84.8 708.3 84.5L708.3 84.5Q708.6 84.2 708.9 84.0Q709.3 83.9 709.7 83.9L709.7 83.9Q710.3 83.9 710.7 84.3L710.7 84.3Q711.0 84.6 711.2 85.1L711.2 85.1Q711.3 84.8 711.5 84.6L711.5 84.6Q711.8 84.2 712.2 84.1Q712.6 83.9 713.1 83.9L713.1 83.9Q713.6 83.9 714.0 84.1Q714.5 84.3 714.7 84.8Q715.0 85.3 715.0 86.0L715.0 86.0L715.0 90L714.0 90L714.0 86.0Q714.0 85.3 713.6 85.0Q713.3 84.8 712.8 84.8L712.8 84.8Q712.4 84.8 712.1 84.9Q711.8 85.1 711.6 85.4Q711.5 85.7 711.5 86.1L711.5 86.1L711.5 90L710.5 90L710.5 85.9Q710.5 85.4 710.2 85.1Q709.8 84.8 709.3 84.8L709.3 84.8Q709.0 84.8 708.7 84.9Q708.4 85.1 708.2 85.4Q708.0 85.7 708.0 86.2L708.0 86.2L708.0 90ZM719.1 90.1L719.1 90.1Q718.3 90.1 717.7 89.7Q717.1 89.4 716.7 88.7Q716.4 88.0 716.4 87.0L716.4 87.0Q716.4 86.1 716.7 85.4Q717.1 84.7 717.7 84.3Q718.3 83.9 719.1 83.9L719.1 83.9Q719.9 83.9 720.5 84.3Q721.2 84.7 721.5 85.4Q721.8 86.1 721.8 87.0L721.8 87.0Q721.8 88.0 721.5 88.7Q721.2 89.4 720.5 89.7Q719.9 90.1 719.1 90.1ZM719.1 89.3L719.1 89.3Q719.7 89.3 720.1 89.0Q720.5 88.6 720.7 88.1Q720.9 87.6 720.9 87.0L720.9 87.0Q720.9 86.4 720.7 85.9Q720.5 85.4 720.1 85.1Q719.7 84.8 719.1 84.8L719.1 84.8Q718.5 84.8 718.1 85.1Q717.7 85.4 717.5 85.9Q717.4 86.4 717.4 87.0L717.4 87.0Q717.4 87.6 717.5 88.1Q717.7 88.6 718.1 89.0Q718.5 89.3 719.1 89.3ZM724.2 86.4L724.2 86.4L724.2 90L723.3 90L723.3 84.0L724.2 84.0L724.2 85.1Q724.4 84.5 724.8 84.3L724.8 84.3Q725.3 83.9 726.0 83.9L726.0 83.9Q726.6 83.9 727.1 84.2Q727.5 84.4 727.8 84.9Q728.1 85.4 728.1 86.2L728.1 86.2L728.1 90L727.1 90L727.1 86.3Q727.1 85.6 726.7 85.2Q726.4 84.8 725.7 84.8L725.7 84.8Q725.3 84.8 725.0 85.0Q724.6 85.2 724.4 85.5Q724.2 85.9 724.2 86.4ZM732.2 92.4L732.2 92.4Q731.5 92.4 731.0 92.2Q730.6 92.0 730.2 91.8Q729.9 91.5 729.7 91.1L729.7 91.1L730.5 90.6Q730.6 90.8 730.8 91.0Q731.0 91.2 731.3 91.4Q731.7 91.5 732.2 91.5L732.2 91.5Q732.9 91.5 733.4 91.2Q733.8 90.8 733.8 90.1L733.8 90.1L733.8 88.9L733.7 88.9Q733.6 89.1 733.5 89.3Q733.3 89.5 732.9 89.7Q732.6 89.9 732.0 89.9L732.0 89.9Q731.3 89.9 730.7 89.6Q730.1 89.2 729.8 88.6Q729.5 87.9 729.5 87.0L729.5 87.0Q729.5 86.0 729.8 85.4Q730.1 84.7 730.7 84.3Q731.3 83.9 732.0 83.9L732.0 83.9Q732.6 83.9 732.9 84.1Q733.3 84.3 733.5 84.5Q733.7 84.8 733.8 85.0L733.8 85.0L733.9 85.0L733.9 84.0L734.8 84.0L734.8 90.2Q734.8 90.9 734.5 91.4Q734.1 91.9 733.5 92.1Q732.9 92.4 732.2 92.4ZM732.2 89.0L732.2 89.0Q732.7 89.0 733.1 88.8Q733.5 88.5 733.7 88.1Q733.8 87.6 733.8 86.9L733.8 86.9Q733.8 86.3 733.7 85.8Q733.5 85.3 733.1 85.1Q732.7 84.8 732.2 84.8L732.2 84.8Q731.6 84.8 731.2 85.1Q730.8 85.4 730.6 85.9Q730.4 86.3 730.4 86.9L730.4 86.9Q730.4 87.6 730.6 88.0Q730.8 88.5 731.2 88.8Q731.6 89.0 732.2 89.0Z M740.8 90L739.8 90L739.8 84.0L740.8 84.0L740.8 85.1Q740.9 84.8 741.1 84.5L741.1 84.5Q741.4 84.2 741.7 84.0Q742.1 83.9 742.5 83.9L742.5 83.9Q743.1 83.9 743.5 84.3L743.5 84.3Q743.9 84.6 744.0 85.1L744.0 85.1Q744.1 84.8 744.3 84.6L744.3 84.6Q744.6 84.2 745.0 84.1Q745.4 83.9 745.9 83.9L745.9 83.9Q746.4 83.9 746.8 84.1Q747.3 84.3 747.5 84.8Q747.8 85.3 747.8 86.0L747.8 86.0L747.8 90L746.8 90L746.8 86.0Q746.8 85.3 746.5 85.0Q746.1 84.8 745.6 84.8L745.6 84.8Q745.2 84.8 744.9 84.9Q744.6 85.1 744.5 85.4Q744.3 85.7 744.3 86.1L744.3 86.1L744.3 90L743.3 90L743.3 85.9Q743.3 85.4 743.0 85.1Q742.7 84.8 742.2 84.8L742.2 84.8Q741.8 84.8 741.5 84.9Q741.2 85.1 741.0 85.4Q740.8 85.7 740.8 86.2L740.8 86.2L740.8 90ZM751.2 90.1L751.2 90.1Q750.6 90.1 750.1 89.9Q749.7 89.7 749.4 89.3Q749.1 88.9 749.1 88.3L749.1 88.3Q749.1 87.8 749.3 87.5Q749.5 87.1 749.9 86.9Q750.2 86.8 750.6 86.7Q751.0 86.6 751.5 86.5L751.5 86.5Q752.0 86.5 752.3 86.4Q752.7 86.4 752.8 86.3Q753.0 86.2 753.0 86.0L753.0 86.0L753.0 85.9Q753.0 85.6 752.9 85.3Q752.7 85.0 752.4 84.9Q752.2 84.8 751.7 84.8L751.7 84.8Q751.3 84.8 751.0 84.9Q750.7 85.0 750.5 85.2Q750.3 85.4 750.2 85.6L750.2 85.6L749.3 85.3Q749.5 84.8 749.9 84.5Q750.3 84.2 750.8 84.0Q751.3 83.9 751.7 83.9L751.7 83.9Q752.0 83.9 752.4 84.0Q752.8 84.1 753.1 84.3Q753.5 84.5 753.7 84.9Q754.0 85.3 754.0 86.0L754.0 86.0L754.0 90L753.0 90L753.0 89.2L752.9 89.2Q752.8 89.4 752.6 89.6Q752.4 89.8 752.0 90.0Q751.7 90.1 751.2 90.1ZM751.3 89.3L751.3 89.3Q751.9 89.3 752.2 89.1Q752.6 88.9 752.8 88.5Q753.0 88.2 753.0 87.8L753.0 87.8L753.0 87.0Q752.9 87.1 752.7 87.1Q752.5 87.2 752.3 87.2Q752.0 87.3 751.8 87.3Q751.6 87.3 751.4 87.3L751.4 87.3Q751.1 87.4 750.8 87.5Q750.5 87.6 750.3 87.8Q750.1 88.0 750.1 88.3L750.1 88.3Q750.1 88.7 750.3 88.9Q750.4 89.1 750.7 89.2Q751.0 89.3 751.3 89.3ZM756.6 86.4L756.6 86.4L756.6 90L755.7 90L755.7 84.0L756.6 84.0L756.6 85.1Q756.8 84.5 757.2 84.3L757.2 84.3Q757.8 83.9 758.4 83.9L758.4 83.9Q759.0 83.9 759.5 84.2Q760.0 84.4 760.2 84.9Q760.5 85.4 760.5 86.2L760.5 86.2L760.5 90L759.5 90L759.5 86.3Q759.5 85.6 759.1 85.2Q758.8 84.8 758.1 84.8L758.1 84.8Q757.7 84.8 757.4 85.0Q757.0 85.2 756.8 85.5Q756.6 85.9 756.6 86.4ZM762.1 92.2L762.1 92.2L762.3 91.3L762.4 91.4Q762.7 91.4 762.9 91.4Q763.2 91.4 763.4 91.2Q763.6 91.0 763.7 90.5L763.7 90.5L763.9 90.0L761.6 84.0L762.7 84.0L763.9 87.6Q764.1 88.1 764.3 88.7L764.3 88.7Q764.3 88.9 764.4 89.1L764.4 89.1Q764.5 88.9 764.5 88.7L764.5 88.7Q764.7 88.1 764.9 87.6L764.9 87.6L766.2 84.0L767.2 84.0L764.6 90.9Q764.4 91.4 764.1 91.7Q763.9 92.0 763.5 92.1Q763.2 92.3 762.8 92.3L762.8 92.3Q762.5 92.3 762.3 92.3Q762.1 92.2 762.1 92.2Z M772.9 90.1L772.9 90.1Q772.3 90.1 771.8 89.8Q771.4 89.6 771.1 89.1Q770.8 88.6 770.8 87.8L770.8 87.8L770.8 84.0L771.8 84.0L771.8 87.7Q771.8 88.4 772.2 88.8Q772.5 89.2 773.2 89.2L773.2 89.2Q773.6 89.2 773.9 89.0Q774.3 88.8 774.5 88.5Q774.7 88.1 774.7 87.6L774.7 87.6L774.7 84.0L775.7 84.0L775.7 90L774.7 90L774.7 88.9Q774.5 89.5 774.1 89.7L774.1 89.7Q773.5 90.1 772.9 90.1ZM779.4 90.1L779.4 90.1Q778.8 90.1 778.3 89.9Q777.8 89.8 777.5 89.4Q777.2 89.1 777.1 88.5L777.1 88.5L778.0 88.3Q778.1 88.8 778.5 89.0Q778.8 89.3 779.4 89.3L779.4 89.3Q780.0 89.3 780.4 89.0Q780.8 88.7 780.8 88.4L780.8 88.4Q780.8 88.1 780.5 87.9Q780.3 87.6 779.9 87.5L779.9 87.5L778.9 87.3Q778.1 87.1 777.7 86.7Q777.3 86.3 777.3 85.7L777.3 85.7Q777.3 85.2 777.6 84.8Q777.8 84.4 778.3 84.1Q778.9 83.9 779.5 83.9L779.5 83.9Q780.1 83.9 780.5 84.1Q781.0 84.3 781.2 84.6Q781.5 84.9 781.6 85.4L781.6 85.4L780.8 85.6Q780.7 85.3 780.4 85.0Q780.1 84.7 779.5 84.7L779.5 84.7Q779.0 84.7 778.6 85.0Q778.2 85.2 778.2 85.6L778.2 85.6Q778.2 85.9 778.5 86.1Q778.7 86.3 779.3 86.5L779.3 86.5L780.2 86.7Q781.0 86.9 781.4 87.3Q781.8 87.7 781.8 88.3L781.8 88.3Q781.8 88.8 781.5 89.2Q781.2 89.7 780.6 89.9Q780.1 90.1 779.4 90.1ZM785.7 90.1L785.7 90.1Q784.8 90.1 784.2 89.7Q783.6 89.4 783.2 88.7Q782.9 88.0 782.9 87.0Q782.9 86.1 783.2 85.4Q783.5 84.7 784.1 84.3Q784.8 83.9 785.6 83.9L785.6 83.9Q786.0 83.9 786.5 84.1Q787.0 84.2 787.4 84.6Q787.7 84.9 788.0 85.5Q788.2 86.1 788.2 86.9L788.2 86.9L788.2 87.3L783.8 87.3Q783.9 87.9 784.1 88.3L784.1 88.3Q784.3 88.8 784.7 89.0Q785.1 89.3 785.7 89.3L785.7 89.3Q786.0 89.3 786.3 89.2Q786.6 89.1 786.8 88.9Q787.0 88.7 787.2 88.3L787.2 88.3L788.1 88.6Q788.0 89.1 787.6 89.4Q787.3 89.7 786.8 89.9Q786.3 90.1 785.7 90.1ZM783.9 86.5L783.9 86.5L787.2 86.5Q787.2 86.1 787.0 85.8L787.0 85.8Q786.8 85.3 786.5 85.0Q786.1 84.8 785.6 84.8Q785.0 84.8 784.6 85.0Q784.3 85.3 784.1 85.7L784.1 85.7Q783.9 86.1 783.9 86.5ZM790.5 90L789.6 90L789.6 84.0L790.5 84.0L790.5 84.9L790.6 84.9Q790.7 84.5 791.2 84.2Q791.6 83.9 792.1 83.9L792.1 83.9Q792.2 83.9 792.4 83.9Q792.5 83.9 792.6 83.9L792.6 83.9L792.6 84.9Q792.6 84.9 792.4 84.9Q792.2 84.8 792.0 84.8L792.0 84.8Q791.6 84.8 791.3 85.0Q790.9 85.2 790.7 85.5Q790.5 85.8 790.5 86.2L790.5 86.2L790.5 90Z M798.5 90.1L798.5 90.1Q798.0 90.1 797.5 89.9Q797.0 89.7 796.8 89.3Q796.5 88.9 796.5 88.3L796.5 88.3Q796.5 87.8 796.7 87.5Q796.9 87.1 797.2 86.9Q797.6 86.8 798.0 86.7Q798.4 86.6 798.8 86.5L798.8 86.5Q799.4 86.5 799.7 86.4Q800.0 86.4 800.2 86.3Q800.4 86.2 800.4 86.0L800.4 86.0L800.4 85.9Q800.4 85.6 800.2 85.3Q800.1 85.0 799.8 84.9Q799.5 84.8 799.1 84.8L799.1 84.8Q798.7 84.8 798.4 84.9Q798.1 85.0 797.9 85.2Q797.7 85.4 797.6 85.6L797.6 85.6L796.7 85.3Q796.9 84.8 797.3 84.5Q797.7 84.2 798.1 84.0Q798.6 83.9 799.1 83.9L799.1 83.9Q799.4 83.9 799.8 84.0Q800.1 84.1 800.5 84.3Q800.9 84.5 801.1 84.9Q801.3 85.3 801.3 86.0L801.3 86.0L801.3 90L800.4 90L800.4 89.2L800.3 89.2Q800.2 89.4 800.0 89.6Q799.8 89.8 799.4 90.0Q799.0 90.1 798.5 90.1ZM798.7 89.3L798.7 89.3Q799.2 89.3 799.6 89.1Q800.0 88.9 800.2 88.5Q800.4 88.2 800.4 87.8L800.4 87.8L800.4 87.0Q800.3 87.1 800.1 87.1Q799.9 87.2 799.6 87.2Q799.4 87.3 799.2 87.3Q798.9 87.3 798.8 87.3L798.8 87.3Q798.4 87.4 798.1 87.5Q797.8 87.6 797.6 87.8Q797.5 88.0 797.5 88.3L797.5 88.3Q797.5 88.7 797.6 88.9Q797.8 89.1 798.1 89.2Q798.3 89.3 798.7 89.3ZM804.2 84.0L805.4 84.0L805.4 84.8L804.2 84.8L804.2 88.4Q804.2 88.8 804.3 89.0Q804.5 89.2 804.9 89.2L804.9 89.2Q805.0 89.2 805.1 89.2Q805.2 89.2 805.4 89.2L805.4 89.2L805.6 90.0Q805.4 90.0 805.2 90.0Q805.0 90.1 804.8 90.1L804.8 90.1Q804.1 90.1 803.6 89.7Q803.2 89.3 803.2 88.5L803.2 88.5L803.2 84.8L802.3 84.8L802.3 84.0L803.2 84.0L803.2 82.6L804.2 82.6L804.2 84.0Z M457.9 107.1L457.9 107.1Q457.3 107.1 456.8 106.9Q456.3 106.8 456.0 106.4Q455.7 106.1 455.6 105.5L455.6 105.5L456.5 105.3Q456.6 105.8 457.0 106.0Q457.3 106.3 457.9 106.3L457.9 106.3Q458.5 106.3 458.9 106.0Q459.3 105.7 459.3 105.4L459.3 105.4Q459.3 105.1 459.0 104.9Q458.8 104.6 458.4 104.5L458.4 104.5L457.4 104.3Q456.6 104.1 456.2 103.7Q455.8 103.3 455.8 102.7L455.8 102.7Q455.8 102.2 456.1 101.8Q456.3 101.4 456.8 101.1Q457.3 100.9 458.0 100.9L458.0 100.9Q458.6 100.9 459.0 101.1Q459.5 101.3 459.7 101.6Q460.0 101.9 460.1 102.4L460.1 102.4L459.3 102.6Q459.1 102.3 458.9 102.0Q458.6 101.7 458.0 101.7L458.0 101.7Q457.5 101.7 457.1 102.0Q456.7 102.2 456.7 102.6L456.7 102.6Q456.7 102.9 457.0 103.1Q457.2 103.3 457.8 103.5L457.8 103.5L458.7 103.7Q459.5 103.9 459.9 104.3Q460.3 104.7 460.3 105.3L460.3 105.3Q460.3 105.8 460.0 106.2Q459.7 106.7 459.1 106.9Q458.6 107.1 457.9 107.1ZM463.3 107.1L463.3 107.1Q462.8 107.1 462.3 106.9Q461.8 106.7 461.6 106.3Q461.3 105.9 461.3 105.3L461.3 105.3Q461.3 104.8 461.5 104.5Q461.7 104.1 462.0 103.9Q462.4 103.8 462.8 103.7Q463.2 103.6 463.6 103.5L463.6 103.5Q464.2 103.5 464.5 103.4Q464.8 103.4 465.0 103.3Q465.2 103.2 465.2 103.0L465.2 103.0L465.2 102.9Q465.2 102.6 465.0 102.3Q464.9 102.0 464.6 101.9Q464.3 101.8 463.9 101.8L463.9 101.8Q463.5 101.8 463.2 101.9Q462.9 102.0 462.7 102.2Q462.5 102.4 462.4 102.6L462.4 102.6L461.5 102.3Q461.7 101.8 462.1 101.5Q462.5 101.2 462.9 101.0Q463.4 100.9 463.9 100.9L463.9 100.9Q464.2 100.9 464.6 101.0Q465.0 101.1 465.3 101.3Q465.7 101.5 465.9 101.9Q466.1 102.3 466.1 103.0L466.1 103.0L466.1 107L465.2 107L465.2 106.2L465.1 106.2Q465.0 106.4 464.8 106.6Q464.6 106.8 464.2 107.0Q463.8 107.1 463.3 107.1ZM463.5 106.3L463.5 106.3Q464.0 106.3 464.4 106.1Q464.8 105.9 465.0 105.5Q465.2 105.2 465.2 104.8L465.2 104.8L465.2 104.0Q465.1 104.1 464.9 104.1Q464.7 104.2 464.5 104.2Q464.2 104.3 464.0 104.3Q463.7 104.3 463.6 104.3L463.6 104.3Q463.2 104.4 462.9 104.5Q462.6 104.6 462.4 104.8Q462.3 105.0 462.3 105.3L462.3 105.3Q462.3 105.7 462.4 105.9Q462.6 106.1 462.9 106.2Q463.1 106.3 463.5 106.3ZM468.8 107L467.8 107L467.8 101.0L468.8 101.0L468.8 102.1Q468.9 101.8 469.1 101.5L469.1 101.5Q469.4 101.2 469.7 101.0Q470.1 100.9 470.5 100.9L470.5 100.9Q471.1 100.9 471.5 101.3L471.5 101.3Q471.8 101.6 472.0 102.1L472.0 102.1Q472.1 101.8 472.3 101.6L472.3 101.6Q472.6 101.2 473.0 101.1Q473.4 100.9 473.9 100.9L473.9 100.9Q474.4 100.9 474.8 101.1Q475.3 101.3 475.5 101.8Q475.8 102.3 475.8 103.0L475.8 103.0L475.8 107L474.8 107L474.8 103.0Q474.8 102.3 474.4 102.0Q474.1 101.8 473.6 101.8L473.6 101.8Q473.2 101.8 472.9 101.9Q472.6 102.1 472.4 102.4Q472.3 102.7 472.3 103.1L472.3 103.1L472.3 107L471.3 107L471.3 102.9Q471.3 102.4 471.0 102.1Q470.7 101.8 470.1 101.8L470.1 101.8Q469.8 101.8 469.5 101.9Q469.2 102.1 469.0 102.4Q468.8 102.7 468.8 103.2L468.8 103.2L468.8 107ZM480.0 107.1L480.0 107.1Q479.1 107.1 478.5 106.7Q477.9 106.4 477.5 105.7Q477.2 105.0 477.2 104.0Q477.2 103.1 477.5 102.4Q477.8 101.7 478.5 101.3Q479.1 100.9 479.9 100.9L479.9 100.9Q480.4 100.9 480.8 101.1Q481.3 101.2 481.7 101.6Q482.0 101.9 482.3 102.5Q482.5 103.1 482.5 103.9L482.5 103.9L482.5 104.3L478.2 104.3Q478.2 104.9 478.4 105.3L478.4 105.3Q478.6 105.8 479.0 106.0Q479.4 106.3 480.0 106.3L480.0 106.3Q480.4 106.3 480.6 106.2Q480.9 106.1 481.1 105.9Q481.4 105.7 481.5 105.3L481.5 105.3L482.4 105.6Q482.3 106.1 481.9 106.4Q481.6 106.7 481.1 106.9Q480.6 107.1 480.0 107.1ZM478.2 103.5L478.2 103.5L481.5 103.5Q481.5 103.1 481.3 102.8L481.3 102.8Q481.2 102.3 480.8 102.0Q480.4 101.8 479.9 101.8Q479.3 101.8 478.9 102.0Q478.6 102.3 478.4 102.7L478.4 102.7Q478.2 103.1 478.2 103.5Z M488.0 101.0L489.2 101.0L489.2 101.8L488.0 101.8L488.0 105.4Q488.0 105.8 488.1 106.0Q488.3 106.2 488.7 106.2L488.7 106.2Q488.8 106.2 488.9 106.2Q489.1 106.2 489.2 106.2L489.2 106.2L489.4 107.0Q489.2 107.0 489.0 107.0Q488.8 107.1 488.7 107.1L488.7 107.1Q487.9 107.1 487.4 106.7Q487.0 106.3 487.0 105.5L487.0 105.5L487.0 101.8L486.1 101.8L486.1 101.0L487.0 101.0L487.0 99.6L488.0 99.6L488.0 101.0ZM491.4 107L490.4 107L490.4 101.0L491.4 101.0L491.4 107ZM490.9 100.0L490.9 100.0Q490.7 100.0 490.5 99.8Q490.3 99.6 490.3 99.4L490.3 99.4Q490.3 99.1 490.5 98.9Q490.7 98.7 490.9 98.7L490.9 98.7Q491.2 98.7 491.4 98.9Q491.6 99.1 491.6 99.4L491.6 99.4Q491.6 99.6 491.4 99.8Q491.2 100.0 490.9 100.0ZM494.1 107L493.1 107L493.1 101.0L494.1 101.0L494.1 102.1Q494.2 101.8 494.4 101.5L494.4 101.5Q494.6 101.2 495.0 101.0Q495.4 100.9 495.7 100.9L495.7 100.9Q496.4 100.9 496.8 101.3L496.8 101.3Q497.1 101.6 497.3 102.1L497.3 102.1Q497.4 101.8 497.6 101.6L497.6 101.6Q497.9 101.2 498.3 101.1Q498.7 100.9 499.2 100.9L499.2 100.9Q499.7 100.9 500.1 101.1Q500.5 101.3 500.8 101.8Q501.0 102.3 501.0 103.0L501.0 103.0L501.0 107L500.1 107L500.1 103.0Q500.1 102.3 499.7 102.0Q499.4 101.8 498.9 101.8L498.9 101.8Q498.5 101.8 498.2 101.9Q497.9 102.1 497.7 102.4Q497.6 102.7 497.6 103.1L497.6 103.1L497.6 107L496.6 107L496.6 102.9Q496.6 102.4 496.3 102.1Q495.9 101.8 495.4 101.8L495.4 101.8Q495.1 101.8 494.8 101.9Q494.5 102.1 494.3 102.4Q494.1 102.7 494.1 103.2L494.1 103.2L494.1 107ZM505.3 107.1L505.3 107.1Q504.4 107.1 503.8 106.7Q503.1 106.4 502.8 105.7Q502.5 105.0 502.5 104.0Q502.5 103.1 502.8 102.4Q503.1 101.7 503.7 101.3Q504.3 100.9 505.2 100.9L505.2 100.9Q505.6 100.9 506.1 101.1Q506.6 101.2 506.9 101.6Q507.3 101.9 507.5 102.5Q507.8 103.1 507.8 103.9L507.8 103.9L507.8 104.3L503.4 104.3Q503.5 104.9 503.7 105.3L503.7 105.3Q503.9 105.8 504.3 106.0Q504.7 106.3 505.3 106.3L505.3 106.3Q505.6 106.3 505.9 106.2Q506.2 106.1 506.4 105.9Q506.6 105.7 506.7 105.3L506.7 105.3L507.7 105.6Q507.5 106.1 507.2 106.4Q506.9 106.7 506.4 106.9Q505.9 107.1 505.3 107.1ZM503.4 103.5L503.4 103.5L506.8 103.5Q506.8 103.1 506.6 102.8L506.6 102.8Q506.4 102.3 506.1 102.0Q505.7 101.8 505.2 101.8Q504.6 101.8 504.2 102.0Q503.8 102.3 503.6 102.7L503.6 102.7Q503.5 103.1 503.4 103.5ZM509.9 107.1L509.9 107.1Q509.6 107.1 509.4 106.9Q509.2 106.6 509.2 106.3L509.2 106.3Q509.2 106.0 509.4 105.8Q509.6 105.6 509.9 105.6L509.9 105.6Q510.2 105.6 510.4 105.8Q510.6 106.0 510.6 106.3L510.6 106.3Q510.6 106.6 510.4 106.9Q510.2 107.1 509.9 107.1Z M518.9 107L516.0 107L516.0 99.0L518.8 99.0Q519.6 99.0 520.2 99.3Q520.7 99.6 521.0 100.1Q521.3 100.5 521.3 101.1L521.3 101.1Q521.3 101.6 521.1 102.0Q520.9 102.3 520.6 102.5Q520.3 102.7 520.0 102.8L520.0 102.8L520.0 102.9Q520.3 102.9 520.7 103.1Q521.1 103.4 521.3 103.8Q521.6 104.2 521.6 104.9L521.6 104.9Q521.6 105.5 521.3 106.0Q521.0 106.4 520.4 106.7Q519.8 107 518.9 107L518.9 107ZM517.0 103.4L517.0 106.1L518.9 106.1Q519.8 106.1 520.2 105.7Q520.6 105.4 520.6 104.9L520.6 104.9Q520.6 104.5 520.4 104.1Q520.2 103.8 519.8 103.6Q519.4 103.4 518.9 103.4L518.9 103.4L517.0 103.4ZM517.0 99.9L517.0 102.5L518.7 102.5Q519.2 102.5 519.5 102.3Q519.9 102.2 520.1 101.9Q520.3 101.6 520.3 101.1L520.3 101.1Q520.3 100.6 519.9 100.3Q519.6 99.9 518.8 99.9L518.8 99.9L517.0 99.9ZM525.1 107.1L525.1 107.1Q524.5 107.1 524.0 106.8Q523.6 106.6 523.3 106.1Q523.0 105.6 523.0 104.8L523.0 104.8L523.0 101.0L524.0 101.0L524.0 104.7Q524.0 105.4 524.4 105.8Q524.7 106.2 525.4 106.2L525.4 106.2Q525.8 106.2 526.1 106.0Q526.5 105.8 526.7 105.5Q526.9 105.1 526.9 104.6L526.9 104.6L526.9 101.0L527.9 101.0L527.9 107L526.9 107L526.9 105.9Q526.7 106.5 526.3 106.7L526.3 106.7Q525.7 107.1 525.1 107.1ZM530.5 107L529.6 107L529.6 101.0L530.5 101.0L530.5 107ZM530.0 100.0L530.0 100.0Q529.8 100.0 529.6 99.8Q529.4 99.6 529.4 99.4L529.4 99.4Q529.4 99.1 529.6 98.9Q529.8 98.7 530.0 98.7L530.0 98.7Q530.3 98.7 530.5 98.9Q530.7 99.1 530.7 99.4L530.7 99.4Q530.7 99.6 530.5 99.8Q530.3 100.0 530.0 100.0ZM532.2 99.0L533.2 99.0L533.2 107L532.2 107L532.2 99.0ZM536.0 101.0L537.2 101.0L537.2 101.8L536.0 101.8L536.0 105.4Q536.0 105.8 536.2 106.0Q536.3 106.2 536.7 106.2L536.7 106.2Q536.8 106.2 536.9 106.2Q537.1 106.2 537.2 106.2L537.2 106.2L537.4 107.0Q537.3 107.0 537.1 107.0Q536.9 107.1 536.7 107.1L536.7 107.1Q535.9 107.1 535.5 106.7Q535.0 106.3 535.0 105.5L535.0 105.5L535.0 101.8L534.1 101.8L534.1 101.0L535.0 101.0L535.0 99.6L536.0 99.6L536.0 101.0Z M541.8 107L540.8 107L540.8 101.0L541.8 101.0L541.8 107ZM541.3 100.0L541.3 100.0Q541.1 100.0 540.9 99.8Q540.7 99.6 540.7 99.4L540.7 99.4Q540.7 99.1 540.9 98.9Q541.1 98.7 541.3 98.7L541.3 98.7Q541.6 98.7 541.8 98.9Q542.0 99.1 542.0 99.4L542.0 99.4Q542.0 99.6 541.8 99.8Q541.6 100.0 541.3 100.0ZM544.5 103.4L544.5 103.4L544.5 107L543.5 107L543.5 101.0L544.4 101.0L544.4 102.1Q544.7 101.5 545.1 101.3L545.1 101.3Q545.6 100.9 546.3 100.9L546.3 100.9Q546.9 100.9 547.3 101.2Q547.8 101.4 548.1 101.9Q548.3 102.4 548.3 103.2L548.3 103.2L548.3 107L547.3 107L547.3 103.3Q547.3 102.6 547.0 102.2Q546.6 101.8 546.0 101.8L546.0 101.8Q545.6 101.8 545.2 102.0Q544.9 102.2 544.7 102.5Q544.5 102.9 544.5 103.4Z M555.0 107L554.0 107L554.0 99.0L555.2 99.0L558.4 104.1Q558.6 104.3 558.7 104.6Q558.9 104.9 559.1 105.3L559.1 105.3Q559.3 105.5 559.4 105.8L559.4 105.8Q559.3 105.5 559.3 105.3L559.3 105.3Q559.3 104.9 559.3 104.5Q559.3 104.2 559.3 103.9L559.3 103.9L559.3 99.0L560.3 99.0L560.3 107L559.1 107L556.2 102.4Q556.0 102.1 555.8 101.8Q555.6 101.5 555.3 101.0L555.3 101.0Q555.2 100.7 554.9 100.2L554.9 100.2Q554.9 100.6 554.9 101.0L554.9 101.0Q555.0 101.5 555.0 101.8Q555.0 102.2 555.0 102.4L555.0 102.4L555.0 107ZM564.6 107.1L564.6 107.1Q563.8 107.1 563.1 106.7Q562.5 106.4 562.2 105.7Q561.8 105.0 561.8 104.0L561.8 104.0Q561.8 103.1 562.2 102.4Q562.5 101.7 563.1 101.3Q563.8 100.9 564.6 100.9L564.6 100.9Q565.4 100.9 566.0 101.3Q566.6 101.7 567.0 102.4Q567.3 103.1 567.3 104.0L567.3 104.0Q567.3 105.0 567.0 105.7Q566.6 106.4 566.0 106.7Q565.4 107.1 564.6 107.1ZM564.6 106.3L564.6 106.3Q565.2 106.3 565.6 106.0Q566.0 105.6 566.2 105.1Q566.3 104.6 566.3 104.0L566.3 104.0Q566.3 103.4 566.2 102.9Q566.0 102.4 565.6 102.1Q565.2 101.8 564.6 101.8L564.6 101.8Q564.0 101.8 563.6 102.1Q563.2 102.4 563.0 102.9Q562.8 103.4 562.8 104.0L562.8 104.0Q562.8 104.6 563.0 105.1Q563.2 105.6 563.6 106.0Q564.0 106.3 564.6 106.3ZM571.0 107.1L571.0 107.1Q570.2 107.1 569.7 106.7Q569.1 106.4 568.8 105.7Q568.4 105.0 568.4 104.0L568.4 104.0Q568.4 103.1 568.8 102.4Q569.1 101.7 569.7 101.3Q570.2 100.9 571.0 100.9L571.0 100.9Q571.6 100.9 571.9 101.1Q572.3 101.3 572.4 101.6Q572.6 101.8 572.7 102.0L572.7 102.0L572.8 102.0L572.8 99.0L573.8 99.0L573.8 107L572.8 107L572.8 106.1L572.7 106.1Q572.6 106.2 572.4 106.5Q572.3 106.7 571.9 106.9Q571.6 107.1 571.0 107.1ZM571.1 106.3L571.1 106.3Q571.7 106.3 572.1 106.0Q572.4 105.7 572.6 105.2Q572.8 104.7 572.8 104.0L572.8 104.0Q572.8 103.3 572.6 102.8Q572.4 102.3 572.1 102.1Q571.7 101.8 571.1 101.8L571.1 101.8Q570.6 101.8 570.2 102.1Q569.8 102.4 569.6 102.9Q569.4 103.4 569.4 104.0L569.4 104.0Q569.4 104.6 569.6 105.1Q569.8 105.7 570.2 106.0Q570.6 106.3 571.1 106.3ZM578.0 107.1L578.0 107.1Q577.1 107.1 576.5 106.7Q575.9 106.4 575.5 105.7Q575.2 105.0 575.2 104.0Q575.2 103.1 575.5 102.4Q575.8 101.7 576.5 101.3Q577.1 100.9 577.9 100.9L577.9 100.9Q578.4 100.9 578.8 101.1Q579.3 101.2 579.7 101.6Q580.0 101.9 580.3 102.5Q580.5 103.1 580.5 103.9L580.5 103.9L580.5 104.3L576.2 104.3Q576.2 104.9 576.4 105.3L576.4 105.3Q576.6 105.8 577.0 106.0Q577.4 106.3 578.0 106.3L578.0 106.3Q578.4 106.3 578.6 106.2Q578.9 106.1 579.1 105.9Q579.4 105.7 579.5 105.3L579.5 105.3L580.4 105.6Q580.3 106.1 579.9 106.4Q579.6 106.7 579.1 106.9Q578.6 107.1 578.0 107.1ZM576.2 103.5L576.2 103.5L579.5 103.5Q579.5 103.1 579.3 102.8L579.3 102.8Q579.2 102.3 578.8 102.0Q578.4 101.8 577.9 101.8Q577.3 101.8 576.9 102.0Q576.6 102.3 576.4 102.7L576.4 102.7Q576.2 103.1 576.2 103.5ZM582.6 107.1L582.6 107.1Q582.3 107.1 582.1 106.9Q581.9 106.6 581.9 106.3L581.9 106.3Q581.9 106.0 582.1 105.8Q582.3 105.6 582.6 105.6L582.6 105.6Q582.9 105.6 583.1 105.8Q583.3 106.0 583.3 106.3L583.3 106.3Q583.3 106.6 583.1 106.9Q582.9 107.1 582.6 107.1ZM585.0 107.4L585.0 101.0L586.0 101.0L586.0 107.4Q586.0 108.0 585.8 108.4Q585.6 108.8 585.2 109.0Q584.8 109.2 584.3 109.2L584.3 109.2L584.1 109.2L584.1 108.4L584.2 108.4Q584.7 108.4 584.9 108.1Q585.0 107.9 585.0 107.4L585.0 107.4ZM585.5 100.0L585.5 100.0Q585.3 100.0 585.1 99.8Q584.9 99.6 584.9 99.4L584.9 99.4Q584.9 99.1 585.1 98.9Q585.3 98.7 585.5 98.7L585.5 98.7Q585.8 98.7 586.0 98.9Q586.2 99.1 586.2 99.4L586.2 99.4Q586.2 99.6 586.0 99.8Q585.8 100.0 585.5 100.0ZM589.8 107.1L589.8 107.1Q589.1 107.1 588.7 106.9Q588.2 106.8 587.9 106.4Q587.6 106.1 587.4 105.5L587.4 105.5L588.4 105.3Q588.5 105.8 588.8 106.0Q589.2 106.3 589.7 106.3L589.7 106.3Q590.4 106.3 590.7 106.0Q591.1 105.7 591.1 105.4L591.1 105.4Q591.1 105.1 590.9 104.9Q590.7 104.6 590.2 104.5L590.2 104.5L589.2 104.3Q588.4 104.1 588.0 103.7Q587.6 103.3 587.6 102.7L587.6 102.7Q587.6 102.2 587.9 101.8Q588.2 101.4 588.7 101.1Q589.2 100.9 589.9 100.9L589.9 100.9Q590.5 100.9 590.9 101.1Q591.3 101.3 591.6 101.6Q591.9 101.9 592.0 102.4L592.0 102.4L591.1 102.6Q591.0 102.3 590.7 102.0Q590.4 101.7 589.9 101.7L589.9 101.7Q589.3 101.7 589.0 102.0Q588.6 102.2 588.6 102.6L588.6 102.6Q588.6 102.9 588.8 103.1Q589.1 103.3 589.6 103.5L589.6 103.5L590.5 103.7Q591.3 103.9 591.7 104.3Q592.1 104.7 592.1 105.3L592.1 105.3Q592.1 105.8 591.8 106.2Q591.5 106.7 591.0 106.9Q590.5 107.1 589.8 107.1ZM594.1 108.9L593.4 108.9L593.8 105.9L594.9 105.9L594.1 108.9Z M601.0 107L600.0 107L600.0 99.0L601.0 99.0L601.0 102.5L605.2 102.5L605.2 99.0L606.2 99.0L606.2 107L605.2 107L605.2 103.4L601.0 103.4L601.0 107ZM610.2 99.9L607.7 99.9L607.7 99.0L613.7 99.0L613.7 99.9L611.2 99.9L611.2 107L610.2 107L610.2 99.9ZM616.2 107L615.2 107L615.2 99.0L616.7 99.0L618.7 104.0Q618.7 104.2 618.8 104.5Q618.9 104.8 619.0 105.1Q619.1 105.4 619.2 105.7L619.2 105.7Q619.2 105.8 619.3 105.9L619.3 105.9Q619.3 105.8 619.3 105.7L619.3 105.7Q619.4 105.4 619.5 105.1Q619.6 104.8 619.7 104.5Q619.8 104.2 619.8 104.0L619.8 104.0L621.8 99.0L623.2 99.0L623.2 107L622.2 107L622.2 102.4Q622.2 102.2 622.2 101.9Q622.2 101.5 622.3 101.2Q622.3 100.9 622.3 100.5L622.3 100.5Q622.3 100.3 622.3 100.1L622.3 100.1Q622.2 100.3 622.1 100.5L622.1 100.5Q622.0 100.9 621.9 101.3Q621.8 101.6 621.7 101.9Q621.5 102.2 621.5 102.4L621.5 102.4L619.7 107L618.8 107L617.0 102.4Q616.9 102.2 616.8 102.0Q616.7 101.7 616.6 101.3Q616.5 101.0 616.3 100.6L616.3 100.6Q616.3 100.3 616.2 100.1L616.2 100.1Q616.2 100.3 616.2 100.4L616.2 100.4Q616.2 100.8 616.2 101.1Q616.2 101.5 616.2 101.8Q616.2 102.2 616.2 102.4L616.2 102.4L616.2 107ZM629.9 107L625.2 107L625.2 99.0L626.2 99.0L626.2 106.1L629.9 106.1L629.9 107ZM631.9 108.9L631.1 108.9L631.6 105.9L632.7 105.9L631.9 108.9Z M640.2 107.1L640.2 107.1Q639.2 107.1 638.4 106.6Q637.6 106.1 637.1 105.2Q636.7 104.3 636.7 103.0L636.7 103.0Q636.7 101.7 637.1 100.8Q637.6 99.9 638.4 99.4Q639.2 98.9 640.2 98.9L640.2 98.9Q640.8 98.9 641.4 99.1Q641.9 99.2 642.3 99.6Q642.8 99.9 643.0 100.4Q643.3 100.9 643.4 101.5L643.4 101.5L642.4 101.5Q642.3 101.1 642.1 100.8Q641.9 100.5 641.6 100.3Q641.3 100.0 641.0 99.9Q640.6 99.8 640.2 99.8L640.2 99.8Q639.5 99.8 638.9 100.2Q638.3 100.6 638.0 101.3Q637.6 102.0 637.6 103.0L637.6 103.0Q637.6 104.0 638.0 104.7Q638.3 105.4 638.9 105.8Q639.5 106.2 640.2 106.2L640.2 106.2Q640.6 106.2 641.0 106.1Q641.3 105.9 641.6 105.7Q641.9 105.5 642.1 105.2Q642.3 104.9 642.4 104.5L642.4 104.5L643.4 104.5Q643.3 105.1 643.0 105.6Q642.8 106.1 642.3 106.4Q641.9 106.7 641.4 106.9Q640.8 107.1 640.2 107.1ZM647.6 107.1L647.6 107.1Q646.7 107.1 646.1 106.9Q645.4 106.6 645.1 106.1Q644.7 105.6 644.7 104.9L644.7 104.9L645.7 104.9Q645.7 105.4 646.0 105.6Q646.3 105.9 646.7 106.1Q647.1 106.2 647.6 106.2L647.6 106.2Q648.1 106.2 648.5 106.0Q649.0 105.9 649.2 105.5Q649.5 105.2 649.5 104.8L649.5 104.8Q649.5 104.4 649.3 104.2Q649.0 103.9 648.7 103.8Q648.3 103.6 647.9 103.5L647.9 103.5L646.9 103.2Q646.0 103.0 645.4 102.4Q644.9 101.9 644.9 101.1L644.9 101.1Q644.9 100.5 645.2 100.0Q645.6 99.4 646.2 99.2Q646.9 98.9 647.6 98.9L647.6 98.9Q648.4 98.9 649.0 99.2Q649.6 99.4 650.0 99.9Q650.3 100.4 650.4 101.0L650.4 101.0L649.4 101.0Q649.3 100.4 648.8 100.1Q648.3 99.8 647.6 99.8L647.6 99.8Q647.1 99.8 646.7 100.0Q646.3 100.1 646.1 100.4Q645.9 100.7 645.9 101.1L645.9 101.1Q645.9 101.5 646.1 101.8Q646.4 102.0 646.8 102.2Q647.1 102.3 647.4 102.4L647.4 102.4L648.2 102.6Q648.5 102.7 648.9 102.8Q649.3 103.0 649.7 103.2Q650.0 103.5 650.2 103.9Q650.5 104.3 650.5 104.8L650.5 104.8Q650.5 105.5 650.1 106.0Q649.8 106.5 649.1 106.8Q648.5 107.1 647.6 107.1ZM654.6 107.1L654.6 107.1Q653.8 107.1 653.1 106.9Q652.5 106.6 652.1 106.1Q651.8 105.6 651.7 104.9L651.7 104.9L652.8 104.9Q652.8 105.4 653.1 105.6Q653.3 105.9 653.7 106.1Q654.2 106.2 654.6 106.2L654.6 106.2Q655.2 106.2 655.6 106.0Q656.0 105.9 656.3 105.5Q656.5 105.2 656.5 104.8L656.5 104.8Q656.5 104.4 656.3 104.2Q656.1 103.9 655.7 103.8Q655.4 103.6 654.9 103.5L654.9 103.5L654.0 103.2Q653.0 103.0 652.5 102.4Q651.9 101.9 651.9 101.1L651.9 101.1Q651.9 100.5 652.3 100.0Q652.7 99.4 653.3 99.2Q653.9 98.9 654.7 98.9L654.7 98.9Q655.5 98.9 656.1 99.2Q656.7 99.4 657.0 99.9Q657.4 100.4 657.4 101.0L657.4 101.0L656.4 101.0Q656.4 100.4 655.9 100.1Q655.4 99.8 654.7 99.8L654.7 99.8Q654.1 99.8 653.8 100.0Q653.4 100.1 653.1 100.4Q652.9 100.7 652.9 101.1L652.9 101.1Q652.9 101.5 653.2 101.8Q653.5 102.0 653.8 102.2Q654.2 102.3 654.5 102.4L654.5 102.4L655.3 102.6Q655.6 102.7 656.0 102.8Q656.4 103.0 656.7 103.2Q657.1 103.5 657.3 103.9Q657.5 104.3 657.5 104.8L657.5 104.8Q657.5 105.5 657.2 106.0Q656.8 106.5 656.2 106.8Q655.5 107.1 654.6 107.1Z M665.1 107.1L665.1 107.1Q664.3 107.1 663.8 106.8Q663.2 106.5 662.9 106.0Q662.6 105.5 662.6 104.9L662.6 104.9Q662.6 104.4 662.8 104.0Q663.0 103.6 663.4 103.3L663.4 103.3Q663.7 103.0 664.1 102.7L664.1 102.7Q664.0 102.5 663.9 102.4L663.9 102.4Q663.6 102.0 663.4 101.6Q663.2 101.2 663.2 100.7L663.2 100.7Q663.2 100.2 663.5 99.8Q663.7 99.4 664.1 99.2Q664.6 98.9 665.2 98.9L665.2 98.9Q665.8 98.9 666.2 99.2Q666.6 99.4 666.9 99.8Q667.1 100.2 667.1 100.6L667.1 100.6Q667.1 101.0 667.0 101.3Q666.8 101.6 666.6 101.9Q666.4 102.2 666.0 102.4L666.0 102.4L665.5 102.8L667.2 104.9Q667.2 104.8 667.3 104.6L667.3 104.6Q667.5 104.1 667.5 103.5L667.5 103.5L668.4 103.5Q668.4 104.3 668.3 104.8Q668.1 105.3 667.8 105.6L667.8 105.6Q667.8 105.6 667.8 105.6L667.8 105.6L668.9 107L667.7 107L667.2 106.3Q666.8 106.7 666.3 106.9L666.3 106.9Q665.7 107.1 665.1 107.1ZM666.6 105.6L664.7 103.4L664.4 103.6Q664.0 103.9 663.8 104.3Q663.6 104.6 663.6 104.9L663.6 104.9Q663.6 105.3 663.7 105.6Q663.9 105.9 664.3 106.1Q664.6 106.3 665.0 106.3L665.0 106.3Q665.5 106.3 666.0 106.1L666.0 106.1Q666.3 105.9 666.6 105.6L666.6 105.6ZM664.9 102.1L664.9 102.1L665.4 101.7Q665.6 101.6 665.7 101.5Q665.9 101.3 666.0 101.1Q666.1 100.9 666.1 100.6L666.1 100.6Q666.1 100.2 665.9 100.0Q665.6 99.8 665.2 99.8L665.2 99.8Q664.9 99.8 664.7 99.9Q664.4 100.0 664.3 100.2Q664.2 100.4 664.2 100.7L664.2 100.7Q664.2 101.0 664.3 101.3Q664.5 101.6 664.7 101.9L664.7 101.9Q664.8 102.0 664.9 102.1Z M674.9 107.1L674.9 107.1Q673.9 107.1 673.2 106.5Q672.5 105.9 672.5 104.7L672.5 104.7L672.5 104.3L673.6 104.3L673.6 104.7Q673.6 105.4 673.9 105.8Q674.3 106.2 674.9 106.2L674.9 106.2Q675.5 106.2 675.9 105.8Q676.3 105.4 676.3 104.7L676.3 104.7L676.3 99.0L677.3 99.0L677.3 104.7Q677.3 105.9 676.6 106.5Q676.0 107.1 674.9 107.1ZM680.8 107.1L680.8 107.1Q680.2 107.1 679.8 106.9Q679.3 106.7 679.0 106.3Q678.8 105.9 678.8 105.3L678.8 105.3Q678.8 104.8 679.0 104.5Q679.2 104.1 679.5 103.9Q679.9 103.8 680.3 103.7Q680.7 103.6 681.1 103.5L681.1 103.5Q681.6 103.5 682.0 103.4Q682.3 103.4 682.5 103.3Q682.6 103.2 682.6 103.0L682.6 103.0L682.6 102.9Q682.6 102.6 682.5 102.3Q682.4 102.0 682.1 101.9Q681.8 101.8 681.4 101.8L681.4 101.8Q681.0 101.8 680.6 101.9Q680.3 102.0 680.2 102.2Q680.0 102.4 679.9 102.6L679.9 102.6L678.9 102.3Q679.2 101.8 679.6 101.5Q679.9 101.2 680.4 101.0Q680.9 100.9 681.4 100.9L681.4 100.9Q681.7 100.9 682.0 101.0Q682.4 101.1 682.8 101.3Q683.1 101.5 683.4 101.9Q683.6 102.3 683.6 103.0L683.6 103.0L683.6 107L682.7 107L682.7 106.2L682.6 106.2Q682.5 106.4 682.3 106.6Q682.0 106.8 681.7 107.0Q681.3 107.1 680.8 107.1ZM681.0 106.3L681.0 106.3Q681.5 106.3 681.9 106.1Q682.3 105.9 682.4 105.5Q682.6 105.2 682.6 104.8L682.6 104.8L682.6 104.0Q682.6 104.1 682.4 104.1Q682.2 104.2 681.9 104.2Q681.7 104.3 681.4 104.3Q681.2 104.3 681.1 104.3L681.1 104.3Q680.7 104.4 680.4 104.5Q680.1 104.6 679.9 104.8Q679.7 105.0 679.7 105.3L679.7 105.3Q679.7 105.7 679.9 105.9Q680.1 106.1 680.3 106.2Q680.6 106.3 681.0 106.3ZM688.1 107L687.0 107L684.7 101.0L685.8 101.0L687.1 104.6Q687.3 105.1 687.4 105.7L687.4 105.7Q687.5 105.9 687.5 106.1L687.5 106.1Q687.6 105.9 687.7 105.7L687.7 105.7Q687.8 105.1 688.0 104.6L688.0 104.6L689.3 101.0L690.3 101.0L688.1 107ZM693.2 107.1L693.2 107.1Q692.6 107.1 692.1 106.9Q691.7 106.7 691.4 106.3Q691.1 105.9 691.1 105.3L691.1 105.3Q691.1 104.8 691.3 104.5Q691.5 104.1 691.9 103.9Q692.2 103.8 692.6 103.7Q693.0 103.6 693.5 103.5L693.5 103.5Q694.0 103.5 694.3 103.4Q694.7 103.4 694.8 103.3Q695.0 103.2 695.0 103.0L695.0 103.0L695.0 102.9Q695.0 102.6 694.9 102.3Q694.7 102.0 694.4 101.9Q694.2 101.8 693.7 101.8L693.7 101.8Q693.3 101.8 693.0 101.9Q692.7 102.0 692.5 102.2Q692.3 102.4 692.2 102.6L692.2 102.6L691.3 102.3Q691.5 101.8 691.9 101.5Q692.3 101.2 692.8 101.0Q693.3 100.9 693.7 100.9L693.7 100.9Q694.0 100.9 694.4 101.0Q694.8 101.1 695.1 101.3Q695.5 101.5 695.7 101.9Q696.0 102.3 696.0 103.0L696.0 103.0L696.0 107L695.0 107L695.0 106.2L695.0 106.2Q694.8 106.4 694.6 106.6Q694.4 106.8 694.0 107.0Q693.7 107.1 693.2 107.1ZM693.3 106.3L693.3 106.3Q693.9 106.3 694.2 106.1Q694.6 105.9 694.8 105.5Q695.0 105.2 695.0 104.8L695.0 104.8L695.0 104.0Q694.9 104.1 694.7 104.1Q694.5 104.2 694.3 104.2Q694.0 104.3 693.8 104.3Q693.6 104.3 693.4 104.3L693.4 104.3Q693.1 104.4 692.8 104.5Q692.5 104.6 692.3 104.8Q692.1 105.0 692.1 105.3L692.1 105.3Q692.1 105.7 692.3 105.9Q692.4 106.1 692.7 106.2Q693.0 106.3 693.3 106.3ZM700.3 107.1L700.3 107.1Q699.5 107.1 698.8 106.9Q698.2 106.6 697.8 106.1Q697.5 105.6 697.4 104.9L697.4 104.9L698.5 104.9Q698.5 105.4 698.8 105.6Q699.1 105.9 699.5 106.1Q699.9 106.2 700.3 106.2L700.3 106.2Q700.9 106.2 701.3 106.0Q701.8 105.9 702.0 105.5Q702.3 105.2 702.3 104.8L702.3 104.8Q702.3 104.4 702.0 104.2Q701.8 103.9 701.5 103.8Q701.1 103.6 700.7 103.5L700.7 103.5L699.7 103.2Q698.7 103.0 698.2 102.4Q697.7 101.9 697.7 101.1L697.7 101.1Q697.7 100.5 698.0 100.0Q698.4 99.4 699.0 99.2Q699.6 98.9 700.4 98.9L700.4 98.9Q701.2 98.9 701.8 99.2Q702.4 99.4 702.8 99.9Q703.1 100.4 703.1 101.0L703.1 101.0L702.1 101.0Q702.1 100.4 701.6 100.1Q701.1 99.8 700.4 99.8L700.4 99.8Q699.9 99.8 699.5 100.0Q699.1 100.1 698.9 100.4Q698.7 100.7 698.7 101.1L698.7 101.1Q698.7 101.5 698.9 101.8Q699.2 102.0 699.5 102.2Q699.9 102.3 700.2 102.4L700.2 102.4L701.0 102.6Q701.3 102.7 701.7 102.8Q702.1 103.0 702.4 103.2Q702.8 103.5 703.0 103.9Q703.2 104.3 703.2 104.8L703.2 104.8Q703.2 105.5 702.9 106.0Q702.6 106.5 701.9 106.8Q701.3 107.1 700.3 107.1ZM707.2 107.1L707.2 107.1Q706.3 107.1 705.7 106.7Q705.1 106.4 704.8 105.7Q704.4 105.0 704.4 104.0L704.4 104.0Q704.4 103.1 704.8 102.4Q705.1 101.7 705.7 101.3Q706.3 100.9 707.2 100.9L707.2 100.9Q707.6 100.9 708.0 101.0Q708.4 101.1 708.7 101.4Q709.0 101.6 709.2 101.9Q709.5 102.2 709.6 102.6L709.6 102.6L708.7 102.8Q708.6 102.6 708.5 102.4Q708.3 102.2 708.1 102.1Q708.0 101.9 707.7 101.9Q707.5 101.8 707.2 101.8L707.2 101.8Q706.6 101.8 706.2 102.1Q705.8 102.4 705.6 102.9Q705.4 103.4 705.4 104.0L705.4 104.0Q705.4 104.6 705.6 105.1Q705.8 105.6 706.2 106.0Q706.6 106.3 707.2 106.3L707.2 106.3Q707.5 106.3 707.7 106.2Q708.0 106.1 708.2 106.0Q708.4 105.8 708.5 105.6Q708.6 105.4 708.7 105.2L708.7 105.2L709.6 105.4Q709.5 105.8 709.3 106.1Q709.0 106.5 708.7 106.7Q708.4 106.9 708.0 107.0Q707.6 107.1 707.2 107.1ZM712.0 107L711.0 107L711.0 101.0L711.9 101.0L711.9 101.9L712.0 101.9Q712.2 101.5 712.6 101.2Q713.0 100.9 713.6 100.9L713.6 100.9Q713.7 100.9 713.8 100.9Q714.0 100.9 714.1 100.9L714.1 100.9L714.1 101.9Q714.0 101.9 713.8 101.9Q713.7 101.8 713.5 101.8L713.5 101.8Q713.0 101.8 712.7 102.0Q712.4 102.2 712.2 102.5Q712.0 102.8 712.0 103.2L712.0 103.2L712.0 107ZM716.1 107L715.1 107L715.1 101.0L716.1 101.0L716.1 107ZM715.6 100.0L715.6 100.0Q715.4 100.0 715.2 99.8Q715.0 99.6 715.0 99.4L715.0 99.4Q715.0 99.1 715.2 98.9Q715.4 98.7 715.6 98.7L715.6 98.7Q715.9 98.7 716.1 98.9Q716.3 99.1 716.3 99.4L716.3 99.4Q716.3 99.6 716.1 99.8Q715.9 100.0 715.6 100.0ZM718.8 109.2L717.8 109.2L717.8 101.0L718.7 101.0L718.7 102.0L718.9 102.0Q719.0 101.8 719.1 101.6Q719.3 101.3 719.7 101.1Q720.0 100.9 720.6 100.9L720.6 100.9Q721.3 100.9 721.9 101.3Q722.5 101.7 722.8 102.4Q723.1 103.1 723.1 104.0L723.1 104.0Q723.1 105.0 722.8 105.7Q722.5 106.4 721.9 106.7Q721.3 107.1 720.6 107.1L720.6 107.1Q720.0 107.1 719.7 106.9Q719.3 106.7 719.1 106.5Q719.0 106.2 718.9 106.1L718.9 106.1L718.8 106.1L718.8 109.2ZM720.5 106.3L720.5 106.3Q721.0 106.3 721.4 106.0Q721.8 105.7 722.0 105.1Q722.2 104.6 722.2 104.0L722.2 104.0Q722.2 103.4 722.0 102.9Q721.8 102.4 721.4 102.1Q721.0 101.8 720.5 101.8L720.5 101.8Q719.9 101.8 719.5 102.1Q719.1 102.3 719.0 102.8Q718.8 103.3 718.8 104.0L718.8 104.0Q718.8 104.7 719.0 105.2Q719.2 105.7 719.5 106.0Q719.9 106.3 720.5 106.3ZM725.7 101.0L726.9 101.0L726.9 101.8L725.7 101.8L725.7 105.4Q725.7 105.8 725.8 106.0Q726.0 106.2 726.4 106.2L726.4 106.2Q726.5 106.2 726.6 106.2Q726.8 106.2 726.9 106.2L726.9 106.2L727.1 107.0Q726.9 107.0 726.7 107.0Q726.5 107.1 726.4 107.1L726.4 107.1Q725.6 107.1 725.1 106.7Q724.7 106.3 724.7 105.5L724.7 105.5L724.7 101.8L723.8 101.8L723.8 101.0L724.7 101.0L724.7 99.6L725.7 99.6L725.7 101.0ZM728.9 107.1L728.9 107.1Q728.6 107.1 728.4 106.9Q728.2 106.6 728.2 106.3L728.2 106.3Q728.2 106.0 728.4 105.8Q728.6 105.6 728.9 105.6L728.9 105.6Q729.2 105.6 729.4 105.8Q729.6 106.0 729.6 106.3L729.6 106.3Q729.6 106.6 729.4 106.9Q729.2 107.1 728.9 107.1Z "/></g></svg>