<!-- Generated by readme-aura https://github.com/collectioneur/readme-aura -->
<svg width="860" height="200" viewBox="0 0 860 200" xmlns="http://www.w3.org/2000/svg"><defs><clipPath id="satori_bc-id"><path x="0" y="0" width="860" height="200" d="M16,0 h828 a16,16 0 0 1 16,16 v168 a16,16 0 0 1 -16,16 h-828 a16,16 0 0 1 -16,-16 v-168 a16,16 0 0 1 16,-16"/></clipPath></defs><clipPath id="satori_cp-id"><path x="0" y="0" width="860" height="200" d="M16,0 h828 a16,16 0 0 1 16,16 v168 a16,16 0 0 1 -16,16 h-828 a16,16 0 0 1 -16,-16 v-168 a16,16 0 0 1 16,-16"/></clipPath><mask id="satori_om-id"><rect x="1" y="1" width="858" height="198" fill="#fff"/><path width="860" height="200" fill="none" stroke="#000" stroke-width="2" d="M4.686,4.686 A16,16 0 0 1 16,0 h828 a16,16 0 0 1 16,16 v168 a16,16 0 0 1 -16,16 h-828 a16,16 0 0 1 -16,-16 v-168 A16,16 0 0 1 4.686,4.686"/></mask><path x="0" y="0" width="860" height="200" fill="#08080c" d="M16,0 h828 a16,16 0 0 1 16,16 v168 a16,16 0 0 1 -16,16 h-828 a16,16 0 0 1 -16,-16 v-168 a16,16 0 0 1 16,-16"/><path width="860" height="200" clip-path="url(#satori_bc-id)" fill="none" stroke="rgba(110,80,220,0.18)" stroke-width="2" d="M4.686,4.686 A16,16 0 0 1 16,0 h828 a16,16 0 0 1 16,16 v168 a16,16 0 0 1 -16,16 h-828 a16,16 0 0 1 -16,-16 v-168 A16,16 0 0 1 4.686,4.686"/><clipPath id="satori_cp-id-0" clip-path="url(#satori_cp-id)"><rect x="1" y="1" width="860" height="200"/></clipPath><mask id="satori_om-id-0"><rect x="1" y="1" width="860" height="200" fill="#fff" mask="url(#satori_om-id)"/></mask><svg x="1" y="1" width="860" height="200" preserveAspectRatio="none" clip-path="url(#satori_cp-id-0)" mask="url(#satori_om-id-0)"><defs><radialGradient id="pg1" cx="50%" cy="50%" r="50%"><stop offset="0%" stop-color="rgba(110,20,210,0.5)"></stop><stop offset="70%" stop-color="rgba(110,20,210,0)"></stop></radialGradient><radialGradient id="pg2" cx="50%" cy="50%" r="50%"><stop offset="0%" stop-color="rgba(0,140,255,0.35)"></stop><stop offset="70%" stop-color="rgba(0,140,255,0)"></stop></radialGradient></defs><ellipse cx="100" cy="200" rx="240" ry="160" fill="url(#pg1)"></ellipse><ellipse cx="750" cy="200" rx="200" ry="140" fill="url(#pg2)"></ellipse></svg><mask id="satori_om-id-0-0"><rect x="1" y="1" width="0" height="200" fill="#fff" mask="url(#satori_om-id)"/></mask><mask id="satori_om-id-0-0-0"><rect x="1" y="1" width="0" height="200" fill="#fff" mask="url(#satori_om-id)"/></mask><mask id="satori_om-id-0-0-0-0"><rect x="1" y="1" width="0" height="200" fill="#fff" mask="url(#satori_om-id)"/></mask><mask id="satori_om-id-0-0-0-1"><rect x="1" y="1" width="0" height="200" fill="#fff" mask="url(#satori_om-id)"/></mask><mask id="satori_om-id-0-0-1"><rect x="1" y="1" width="0" height="200" fill="#fff" mask="url(#satori_om-id)"/></mask><mask id="satori_om-id-0-0-1-0"><rect x="1" y="1" width="0" height="200" fill="#fff" mask="url(#satori_om-id)"/></mask><mask id="satori_om-id-0-0-1-1"><rect x="1" y="1" width="0" height="200" fill="#fff" mask="url(#satori_om-id)"/></mask><mask id="satori_om-id-0-1"><rect x="1" y="1" width="0" height="200" fill="#fff" mask="url(#satori_om-id)"/></mask><mask id="satori_om-id-0-2"><rect x="1" y="1" width="0" height="200" fill="#fff" mask="url(#satori_om-id)"/></mask><mask id="satori_om-id-1"><rect x="33" y="19" width="794" height="12" fill="#fff" mask="url(#satori_om-id)"/></mask><g mask="url(#satori_om-id)" clip-path="url(#satori_cp-id)"><path fill="rgba(155,140,210,0.5)" d="M35.1 29L33.7 29L33.7 21.7L38.4 21.7L38.4 23.0L35.1 23.0L35.1 25.0L38.1 25.0L38.1 26.2L35.1 26.2L35.1 29ZM47.4 29L42.5 29L42.5 21.7L47.4 21.7L47.4 23.0L44.0 23.0L44.0 24.7L47.1 24.7L47.1 25.9L44.0 25.9L44.0 27.8L47.4 27.8L47.4 29ZM52.8 29L51.2 29L53.7 21.7L55.6 21.7L58.2 29L56.5 29L56.0 27.3L53.4 27.3L52.8 29ZM53.7 26.1L55.6 26.1L55.3 25.5Q55.1 24.8 54.9 24L54.9 24Q54.8 23.5 54.6 22.9L54.6 22.9Q54.5 23.5 54.4 24.0L54.4 24.0Q54.2 24.8 54.0 25.5L54.0 25.5L53.7 26.1ZM64.0 23.0L61.8 23.0L61.8 21.7L67.7 21.7L67.7 23.0L65.5 23.0L65.5 29L64.0 29L64.0 23.0ZM74.7 29.1L74.7 29.1Q73.8 29.1 73.2 28.8Q72.5 28.4 72.1 27.8Q71.7 27.2 71.7 26.4L71.7 26.4L71.7 21.7L73.2 21.7L73.2 26.3Q73.2 26.7 73.4 27.1Q73.6 27.4 73.9 27.6Q74.3 27.8 74.7 27.8L74.7 27.8Q75.2 27.8 75.5 27.6Q75.9 27.4 76.1 27.1Q76.3 26.7 76.3 26.3L76.3 26.3L76.3 21.7L77.7 21.7L77.7 26.4Q77.7 27.2 77.4 27.8Q77.0 28.4 76.3 28.8Q75.6 29.1 74.7 29.1ZM83.6 29L82.1 29L82.1 21.7L84.9 21.7Q85.7 21.7 86.3 22.0Q86.9 22.3 87.2 22.8Q87.5 23.4 87.5 24.1Q87.5 24.8 87.2 25.3Q86.9 25.9 86.3 26.1L86.3 26.1Q86.3 26.1 86.2 26.2L86.2 26.2L87.8 29L86.1 29L84.7 26.4L83.6 26.4L83.6 29ZM83.6 23.0L83.6 25.2L84.6 25.2Q85.1 25.2 85.4 25.1Q85.7 24.9 85.8 24.7Q86.0 24.5 86.0 24.1L86.0 24.1Q86.0 23.7 85.8 23.5Q85.7 23.2 85.4 23.1Q85.1 23.0 84.6 23.0L84.6 23.0L83.6 23.0ZM96.5 29L91.6 29L91.6 21.7L96.5 21.7L96.5 23.0L93.1 23.0L93.1 24.7L96.2 24.7L96.2 25.9L93.1 25.9L93.1 27.8L96.5 27.8L96.5 29ZM103.3 29L103.3 29L100.7 29L100.7 21.7L103.3 21.7Q104.4 21.7 105.2 22.2Q106.0 22.6 106.4 23.4Q106.8 24.2 106.8 25.4L106.8 25.4Q106.8 26.5 106.4 27.3Q106.0 28.1 105.2 28.6Q104.4 29 103.3 29ZM102.2 23.0L102.2 27.7L103.2 27.7Q103.9 27.7 104.4 27.5Q104.8 27.2 105.1 26.7Q105.3 26.2 105.3 25.4L105.3 25.4Q105.3 24.5 105.1 24.0Q104.8 23.5 104.4 23.3Q103.9 23.0 103.2 23.0L103.2 23.0L102.2 23.0Z M117.8 29L116.3 29L116.3 21.7L119.1 21.7Q120.0 21.7 120.5 22.0Q121.1 22.4 121.4 22.9Q121.7 23.5 121.7 24.2L121.7 24.2Q121.7 24.9 121.4 25.5Q121.1 26.0 120.5 26.3Q119.9 26.6 119.1 26.6L119.1 26.6L117.8 26.6L117.8 29ZM117.8 23.0L117.8 25.4L118.9 25.4Q119.3 25.4 119.6 25.3Q119.9 25.1 120.1 24.8Q120.2 24.5 120.2 24.2Q120.2 23.8 120.1 23.5Q119.9 23.3 119.6 23.1Q119.3 23.0 118.9 23.0L118.9 23.0L117.8 23.0ZM127.3 29L125.8 29L125.8 21.7L128.6 21.7Q129.4 21.7 130.0 22.0Q130.6 22.3 130.9 22.8Q131.2 23.4 131.2 24.1Q131.2 24.8 130.9 25.3Q130.6 25.9 130.0 26.1L130.0 26.1Q130.0 26.1 129.9 26.2L129.9 26.2L131.5 29L129.8 29L128.4 26.4L127.3 26.4L127.3 29ZM127.3 23.0L127.3 25.2L128.3 25.2Q128.8 25.2 129.1 25.1Q129.4 24.9 129.5 24.7Q129.7 24.5 129.7 24.1L129.7 24.1Q129.7 23.7 129.5 23.5Q129.4 23.2 129.1 23.1Q128.8 23.0 128.3 23.0L128.3 23.0L127.3 23.0ZM138.5 29.1L138.5 29.1Q137.6 29.1 136.8 28.7Q136.0 28.2 135.6 27.4Q135.1 26.5 135.1 25.4L135.1 25.4Q135.1 24.2 135.6 23.3Q136.0 22.5 136.8 22.1Q137.6 21.6 138.5 21.6L138.5 21.6Q139.5 21.6 140.3 22.1Q141.0 22.5 141.5 23.3Q141.9 24.2 141.9 25.4L141.9 25.4Q141.9 26.5 141.5 27.4Q141.0 28.2 140.3 28.7Q139.5 29.1 138.5 29.1ZM138.5 27.8L138.5 27.8Q139.1 27.8 139.5 27.5Q139.9 27.2 140.2 26.7Q140.4 26.1 140.4 25.4L140.4 25.4Q140.4 24.6 140.2 24.0Q139.9 23.5 139.5 23.2Q139.1 23.0 138.5 23.0L138.5 23.0Q138.0 23.0 137.5 23.2Q137.1 23.5 136.9 24.0Q136.7 24.6 136.7 25.4L136.7 25.4Q136.7 26.1 136.9 26.7Q137.1 27.2 137.5 27.5Q138.0 27.8 138.5 27.8ZM148.2 29.1L148.2 29.1Q147.0 29.1 146.4 28.5Q145.7 27.9 145.7 26.8L145.7 26.8L145.7 26.4L147.2 26.4L147.2 26.8Q147.2 27.4 147.5 27.6Q147.7 27.9 148.2 27.9L148.2 27.9Q148.6 27.9 148.8 27.6Q149.1 27.4 149.1 26.8L149.1 26.8L149.1 21.7L150.6 21.7L150.6 26.8Q150.6 27.9 149.9 28.5Q149.3 29.1 148.2 29.1ZM159.8 29L154.9 29L154.9 21.7L159.8 21.7L159.8 23.0L156.4 23.0L156.4 24.7L159.5 24.7L159.5 25.9L156.4 25.9L156.4 27.8L159.8 27.8L159.8 29ZM167.1 29.1L167.1 29.1Q166.2 29.1 165.4 28.7Q164.6 28.2 164.2 27.4Q163.8 26.5 163.8 25.4L163.8 25.4Q163.8 24.2 164.2 23.3Q164.7 22.5 165.4 22.1Q166.2 21.6 167.1 21.6L167.1 21.6Q167.8 21.6 168.3 21.8Q168.8 22.0 169.2 22.3Q169.7 22.6 169.9 23.1Q170.2 23.6 170.3 24.2L170.3 24.2L168.8 24.2Q168.7 23.9 168.6 23.7Q168.4 23.4 168.2 23.3Q168.0 23.1 167.8 23.0Q167.5 23.0 167.2 23.0L167.2 23.0Q166.6 23.0 166.2 23.2Q165.8 23.5 165.5 24.1Q165.3 24.6 165.3 25.4L165.3 25.4Q165.3 26.2 165.5 26.7Q165.8 27.2 166.2 27.5Q166.6 27.8 167.2 27.8L167.2 27.8Q167.5 27.8 167.7 27.7Q168.0 27.6 168.2 27.4Q168.4 27.3 168.6 27.0Q168.7 26.8 168.8 26.5L168.8 26.5L170.3 26.5Q170.2 27.0 170.0 27.5Q169.7 27.9 169.3 28.3Q168.9 28.7 168.4 28.9Q167.8 29.1 167.1 29.1ZM176.3 23.0L174.1 23.0L174.1 21.7L180.0 21.7L180.0 23.0L177.8 23.0L177.8 29L176.3 29L176.3 23.0ZM186.7 29.1L186.7 29.1Q185.8 29.1 185.2 28.8Q184.5 28.6 184.2 28.0Q183.8 27.5 183.8 26.7L183.8 26.7L185.2 26.7Q185.3 27.1 185.5 27.4Q185.7 27.6 186.0 27.7Q186.3 27.8 186.7 27.8L186.7 27.8Q187.1 27.8 187.4 27.7Q187.7 27.6 187.8 27.4Q188.0 27.2 188.0 26.9L188.0 26.9Q188.0 26.7 187.9 26.5Q187.7 26.3 187.4 26.2Q187.2 26.1 186.8 26.0L186.8 26.0L186.0 25.8Q185.0 25.6 184.5 25.1Q184.0 24.6 184.0 23.8L184.0 23.8Q184.0 23.2 184.3 22.7Q184.7 22.2 185.3 21.9Q185.9 21.6 186.7 21.6L186.7 21.6Q187.5 21.6 188.1 21.9Q188.7 22.2 189.1 22.7Q189.4 23.2 189.4 23.8L189.4 23.8L188.0 23.8Q187.9 23.4 187.6 23.1Q187.3 22.9 186.7 22.9L186.7 22.9Q186.3 22.9 186.1 23.0Q185.8 23.1 185.7 23.3Q185.5 23.5 185.5 23.7L185.5 23.7Q185.5 24.0 185.7 24.2Q185.8 24.3 186.1 24.5Q186.4 24.6 186.7 24.6L186.7 24.6L187.3 24.8Q187.8 24.9 188.2 25.1Q188.6 25.3 188.9 25.5Q189.2 25.8 189.3 26.1Q189.5 26.5 189.5 26.9L189.5 26.9Q189.5 27.6 189.2 28.1Q188.8 28.6 188.2 28.8Q187.6 29.1 186.7 29.1Z "/></g><mask id="satori_om-id-2"><rect x="33" y="41" width="794" height="0" fill="#fff" mask="url(#satori_om-id)"/></mask></svg>