<!-- Generated by readme-aura https://github.com/collectioneur/readme-aura -->
<svg width="860" height="140" viewBox="0 0 860 140" xmlns="http://www.w3.org/2000/svg"><defs><clipPath id="satori_bc-id"><path x="0" y="0" width="860" height="140" d="M16,0 h828 a16,16 0 0 1 16,16 v108 a16,16 0 0 1 -16,16 h-828 a16,16 0 0 1 -16,-16 v-108 a16,16 0 0 1 16,-16"/></clipPath></defs><clipPath id="satori_cp-id"><path x="0" y="0" width="860" height="140" d="M16,0 h828 a16,16 0 0 1 16,16 v108 a16,16 0 0 1 -16,16 h-828 a16,16 0 0 1 -16,-16 v-108 a16,16 0 0 1 16,-16"/></clipPath><mask id="satori_om-id"><rect x="1" y="1" width="858" height="138" fill="#fff"/><path width="860" height="140" fill="none" stroke="#000" stroke-width="2" d="M4.686,4.686 A16,16 0 0 1 16,0 h828 a16,16 0 0 1 16,16 v108 a16,16 0 0 1 -16,16 h-828 a16,16 0 0 1 -16,-16 v-108 A16,16 0 0 1 4.686,4.686"/></mask><path x="0" y="0" width="860" height="140" fill="#08080c" d="M16,0 h828 a16,16 0 0 1 16,16 v108 a16,16 0 0 1 -16,16 h-828 a16,16 0 0 1 -16,-16 v-108 a16,16 0 0 1 16,-16"/><path width="860" height="140" clip-path="url(#satori_bc-id)" fill="none" stroke="rgba(110,80,220,0.18)" stroke-width="2" d="M4.686,4.686 A16,16 0 0 1 16,0 h828 a16,16 0 0 1 16,16 v108 a16,16 0 0 1 -16,16 h-828 a16,16 0 0 1 -16,-16 v-108 A16,16 0 0 1 4.686,4.686"/><clipPath id="satori_cp-id-0" clip-path="url(#satori_cp-id)"><rect x="1" y="1" width="860" height="140"/></clipPath><mask id="satori_om-id-0"><rect x="1" y="1" width="860" height="140" fill="#fff" mask="url(#satori_om-id)"/></mask><svg x="1" y="1" width="860" height="140" preserveAspectRatio="none" clip-path="url(#satori_cp-id-0)" mask="url(#satori_om-id-0)"><defs><radialGradient id="g1" cx="50%" cy="50%" r="50%"><stop offset="0%" stop-color="rgba(110,20,210,0.65)"></stop><stop offset="45%" stop-color="rgba(80,15,170,0.28)"></stop><stop offset="70%" stop-color="rgba(80,15,170,0)"></stop></radialGradient><radialGradient id="g2" cx="50%" cy="50%" r="50%"><stop offset="0%" stop-color="rgba(40,70,255,0.55)"></stop><stop offset="45%" stop-color="rgba(20,50,200,0.22)"></stop><stop offset="70%" stop-color="rgba(20,50,200,0)"></stop></radialGradient><radialGradient id="g3" cx="50%" cy="50%" r="50%"><stop offset="0%" stop-color="rgba(0,140,255,0.42)"></stop><stop offset="70%" stop-color="rgba(0,140,255,0)"></stop></radialGradient><radialGradient id="g4" cx="50%" cy="50%" r="50%"><stop offset="0%" stop-color="rgba(0,195,235,0.30)"></stop><stop offset="70%" stop-color="rgba(0,195,235,0)"></stop></radialGradient><radialGradient id="g5" cx="50%" cy="50%" r="50%"><stop offset="0%" stop-color="rgba(100,30,210,0.40)"></stop><stop offset="70%" stop-color="rgba(100,30,210,0)"></stop></radialGradient></defs><ellipse id="glow-1" cx="710" cy="150" rx="210" ry="150" fill="url(#g1)"></ellipse><ellipse id="glow-2" cx="550" cy="140" rx="190" ry="140" fill="url(#g2)"></ellipse><ellipse id="glow-3" cx="400" cy="130" rx="170" ry="130" fill="url(#g3)"></ellipse><ellipse id="glow-4" cx="250" cy="140" rx="150" ry="120" fill="url(#g4)"></ellipse><ellipse id="glow-5" cx="100" cy="150" rx="130" ry="110" fill="url(#g5)"></ellipse><style>

         @keyframes float-slow {
           0%, 100% { transform: translateX(0px); opacity: 0.8; }
           50% { transform: translateX(350px); opacity: 1.2; }
         }
         @keyframes float-medium {
           0%, 100% { transform: translateX(0px); opacity: 0.7; }
           50% { transform: translateX(-250px); opacity: 1.1; }
         }
         @keyframes float-fast {
           0%, 100% { transform: translateX(0px); opacity: 0.9; }
           50% { transform: translateX(200px); opacity: 0.6; }
         }
         @keyframes float-diagonal {
           0%, 100% { transform: translate(0px, 0px); opacity: 0.75; }
           50% { transform: translate(120px, 30px); opacity: 1.0; }
         }
         @keyframes float-wave {
           0%, 100% { transform: translateX(0px); opacity: 0.65; }
           33% { transform: translateX(-160px); opacity: 0.9; }
           66% { transform: translateX(80px); opacity: 1.0; }
         }
         @keyframes float-pulse {
           0%, 100% { transform: scale(1); opacity: 0.8; }
           50% { transform: scale(1.3); opacity: 0.4; }
         }
         #glow-1 { animation: float-slow 8s ease-in-out infinite; }
         #glow-2 { animation: float-medium 12s ease-in-out infinite; }
         #glow-3 { animation: float-fast 9s ease-in-out infinite; }
         #glow-4 { animation: float-diagonal 10s ease-in-out infinite; }
         #glow-5 { animation: float-wave 14s ease-in-out infinite; }
       
</style>
</svg><mask id="satori_om-id-0-0"><rect x="1" y="1" width="0" height="140" fill="#fff" mask="url(#satori_om-id)"/></mask><mask id="satori_om-id-0-0-0"><rect x="1" y="1" width="0" height="140" fill="#fff" mask="url(#satori_om-id)"/></mask><mask id="satori_om-id-0-0-0-0"><rect x="1" y="1" width="0" height="140" fill="#fff" mask="url(#satori_om-id)"/></mask><mask id="satori_om-id-0-0-0-1"><rect x="1" y="1" width="0" height="140" fill="#fff" mask="url(#satori_om-id)"/></mask><mask id="satori_om-id-0-0-0-2"><rect x="1" y="1" width="0" height="140" fill="#fff" mask="url(#satori_om-id)"/></mask><mask id="satori_om-id-0-0-1"><rect x="1" y="1" width="0" height="140" fill="#fff" mask="url(#satori_om-id)"/></mask><mask id="satori_om-id-0-0-1-0"><rect x="1" y="1" width="0" height="140" fill="#fff" mask="url(#satori_om-id)"/></mask><mask id="satori_om-id-0-0-1-1"><rect x="1" y="1" width="0" height="140" fill="#fff" mask="url(#satori_om-id)"/></mask><mask id="satori_om-id-0-0-1-2"><rect x="1" y="1" width="0" height="140" fill="#fff" mask="url(#satori_om-id)"/></mask><mask id="satori_om-id-0-0-2"><rect x="1" y="1" width="0" height="140" fill="#fff" mask="url(#satori_om-id)"/></mask><mask id="satori_om-id-0-0-2-0"><rect x="1" y="1" width="0" height="140" fill="#fff" mask="url(#satori_om-id)"/></mask><mask id="satori_om-id-0-0-2-1"><rect x="1" y="1" width="0" height="140" fill="#fff" mask="url(#satori_om-id)"/></mask><mask id="satori_om-id-0-0-3"><rect x="1" y="1" width="0" height="140" fill="#fff" mask="url(#satori_om-id)"/></mask><mask id="satori_om-id-0-0-3-0"><rect x="1" y="1" width="0" height="140" fill="#fff" mask="url(#satori_om-id)"/></mask><mask id="satori_om-id-0-0-3-1"><rect x="1" y="1" width="0" height="140" fill="#fff" mask="url(#satori_om-id)"/></mask><mask id="satori_om-id-0-0-4"><rect x="1" y="1" width="0" height="140" fill="#fff" mask="url(#satori_om-id)"/></mask><mask id="satori_om-id-0-0-4-0"><rect x="1" y="1" width="0" height="140" fill="#fff" mask="url(#satori_om-id)"/></mask><mask id="satori_om-id-0-0-4-1"><rect x="1" y="1" width="0" height="140" fill="#fff" mask="url(#satori_om-id)"/></mask><mask id="satori_om-id-0-1"><rect x="1" y="1" width="0" height="140" fill="#fff" mask="url(#satori_om-id)"/></mask><mask id="satori_om-id-0-2"><rect x="1" y="1" width="0" height="140" fill="#fff" mask="url(#satori_om-id)"/></mask><mask id="satori_om-id-0-3"><rect x="1" y="1" width="0" height="140" fill="#fff" mask="url(#satori_om-id)"/></mask><mask id="satori_om-id-0-4"><rect x="1" y="1" width="0" height="140" fill="#fff" mask="url(#satori_om-id)"/></mask><mask id="satori_om-id-0-5"><rect x="1" y="1" width="0" height="140" fill="#fff" mask="url(#satori_om-id)"/></mask><defs><clipPath id="satori_bc-id-1" clip-path="url(#satori_cp-id)"><rect x="1" y="30" width="272" height="80"/></clipPath></defs><mask id="satori_om-id-1"><rect x="1" y="30" width="271" height="80" fill="#fff" mask="url(#satori_om-id)"/><path width="272" height="80" fill="none" stroke="#000" stroke-width="2" d="M273,30 A0,0 0 0 1 273,30 v80 A0,0 0 0 1 273,110"/></mask><path width="272" height="80" clip-path="url(#satori_bc-id-1)" fill="none" stroke="rgba(255,255,255,0.06)" stroke-width="2" d="M273,30 A0,0 0 0 1 273,30 v80 A0,0 0 0 1 273,110"/><mask id="satori_om-id-1-0"><rect x="120" y="46" width="32" height="30" fill="#fff" mask="url(#satori_om-id)"/></mask><g mask="url(#satori_om-id)" clip-path="url(#satori_cp-id)"><path fill="#a78bfa" d="M126.2 50.2L131.0 50.2L131.0 72L126.5 72L126.5 54.1L126.4 54.1L121.4 57.7L121.4 53.6L126.2 50.2ZM142.1 72.3L142.1 72.3Q139.9 72.3 138.1 71.5Q136.4 70.6 135.4 69.2Q134.4 67.7 134.3 65.9L134.3 65.9L138.7 65.9Q138.7 66.7 139.2 67.4Q139.7 68.0 140.4 68.4Q141.2 68.7 142.1 68.7L142.1 68.7Q143.2 68.7 144.1 68.3Q144.9 67.8 145.4 66.9Q145.9 66.0 145.9 64.9L145.9 64.9Q145.9 63.7 145.4 62.8Q144.9 61.9 144.0 61.4Q143.2 60.9 142.1 60.9L142.1 60.9Q141.1 60.9 140.2 61.3Q139.3 61.7 138.8 62.3L138.8 62.3L134.8 61.6L135.8 50.2L149.0 50.2L149.0 53.9L139.5 53.9L139.0 59.4L139.1 59.4Q139.7 58.6 140.8 58.1Q142.0 57.6 143.4 57.6L143.4 57.6Q144.8 57.6 146.1 58.1Q147.3 58.6 148.3 59.6Q149.2 60.5 149.7 61.9Q150.2 63.2 150.2 64.7L150.2 64.7Q150.2 66.9 149.2 68.6Q148.2 70.3 146.4 71.3Q144.5 72.3 142.1 72.3Z "/></g><mask id="satori_om-id-1-1"><rect x="114" y="81" width="45" height="13" fill="#fff" mask="url(#satori_om-id)"/></mask><g mask="url(#satori_om-id)" clip-path="url(#satori_cp-id)"><path fill="rgba(200,195,225,0.45)" d="M116.4 92L114.7 92L114.7 84.0L117.8 84.0Q118.8 84.0 119.4 84.3Q120.0 84.6 120.4 85.2Q120.7 85.8 120.7 86.6Q120.7 87.4 120.4 88.0Q120.0 88.5 119.4 88.8L119.4 88.8Q119.3 88.9 119.3 88.9L119.3 88.9L121.0 92L119.2 92L117.6 89.1L116.4 89.1L116.4 92ZM116.4 85.4L116.4 87.8L117.5 87.8Q118.0 87.8 118.4 87.7Q118.7 87.5 118.9 87.3Q119.0 87.0 119.0 86.6L119.0 86.6Q119.0 86.2 118.9 85.9Q118.7 85.6 118.4 85.5Q118.0 85.4 117.5 85.4L117.5 85.4L116.4 85.4ZM128.8 92L123.4 92L123.4 84.0L128.8 84.0L128.8 85.4L125.1 85.4L125.1 87.3L128.5 87.3L128.5 88.6L125.1 88.6L125.1 90.6L128.8 90.6L128.8 92ZM133.3 92L131.6 92L131.6 84.0L134.8 84.0Q135.7 84.0 136.3 84.3Q136.9 84.7 137.3 85.3Q137.6 85.9 137.6 86.7L137.6 86.7Q137.6 87.5 137.3 88.1Q136.9 88.7 136.3 89.0Q135.6 89.4 134.7 89.4L134.7 89.4L133.3 89.4L133.3 92ZM133.3 85.4L133.3 88.1L134.5 88.1Q135.0 88.1 135.3 87.9Q135.6 87.7 135.8 87.4Q135.9 87.1 135.9 86.7Q135.9 86.3 135.8 86.0Q135.6 85.7 135.3 85.5Q135.0 85.4 134.4 85.4L134.4 85.4L133.3 85.4ZM143.8 92.1L143.8 92.1Q142.7 92.1 141.9 91.6Q141.0 91.1 140.5 90.2Q140.0 89.3 140.0 88.0L140.0 88.0Q140.0 86.7 140.5 85.8Q141.0 84.9 141.9 84.4Q142.7 83.9 143.8 83.9L143.8 83.9Q144.8 83.9 145.7 84.4Q146.5 84.9 147.0 85.8Q147.5 86.7 147.5 88.0L147.5 88.0Q147.5 89.3 147.0 90.2Q146.5 91.1 145.7 91.6Q144.8 92.1 143.8 92.1ZM143.8 90.7L143.8 90.7Q144.4 90.7 144.9 90.3Q145.3 90.0 145.6 89.5Q145.8 88.9 145.8 88.0L145.8 88.0Q145.8 87.1 145.6 86.5Q145.3 86.0 144.9 85.6Q144.4 85.3 143.8 85.3L143.8 85.3Q143.2 85.3 142.7 85.7Q142.2 86.0 142.0 86.6Q141.7 87.1 141.7 88.0L141.7 88.0Q141.7 88.9 142.0 89.4Q142.2 90.0 142.7 90.3Q143.2 90.7 143.8 90.7ZM153.2 92.1L153.2 92.1Q152.2 92.1 151.5 91.8Q150.8 91.5 150.4 90.9Q150.0 90.4 150.0 89.5L150.0 89.5L151.6 89.5Q151.6 89.9 151.8 90.2Q152.0 90.5 152.4 90.6Q152.7 90.7 153.2 90.7L153.2 90.7Q153.6 90.7 153.9 90.6Q154.2 90.5 154.4 90.2Q154.6 90.0 154.6 89.7L154.6 89.7Q154.6 89.4 154.4 89.3Q154.3 89.1 154.0 88.9Q153.7 88.8 153.2 88.7L153.2 88.7L152.3 88.5Q151.3 88.2 150.8 87.7Q150.2 87.2 150.2 86.3L150.2 86.3Q150.2 85.6 150.6 85.0Q151.0 84.5 151.6 84.2Q152.3 83.9 153.2 83.9L153.2 83.9Q154.1 83.9 154.7 84.2Q155.4 84.5 155.8 85.0Q156.1 85.6 156.1 86.3L156.1 86.3L154.6 86.3Q154.5 85.8 154.2 85.5Q153.8 85.3 153.2 85.3L153.2 85.3Q152.8 85.3 152.5 85.4Q152.2 85.5 152.0 85.7Q151.9 85.9 151.9 86.2L151.9 86.2Q151.9 86.5 152.0 86.7Q152.2 86.9 152.5 87.0Q152.8 87.1 153.1 87.2L153.1 87.2L153.9 87.4Q154.4 87.5 154.8 87.7Q155.2 87.9 155.6 88.2Q155.9 88.4 156.1 88.8Q156.3 89.2 156.3 89.7L156.3 89.7Q156.3 90.4 155.9 91.0Q155.5 91.5 154.8 91.8Q154.1 92.1 153.2 92.1Z "/></g><defs><clipPath id="satori_bc-id-2" clip-path="url(#satori_cp-id)"><rect x="273" y="30" width="271" height="80"/></clipPath></defs><mask id="satori_om-id-2"><rect x="273" y="30" width="270" height="80" fill="#fff" mask="url(#satori_om-id)"/><path width="271" height="80" fill="none" stroke="#000" stroke-width="2" d="M544,30 A0,0 0 0 1 544,30 v80 A0,0 0 0 1 544,110"/></mask><path width="271" height="80" clip-path="url(#satori_bc-id-2)" fill="none" stroke="rgba(255,255,255,0.06)" stroke-width="2" d="M544,30 A0,0 0 0 1 544,30 v80 A0,0 0 0 1 544,110"/><mask id="satori_om-id-2-0"><rect x="398" y="46" width="21" height="30" fill="#fff" mask="url(#satori_om-id)"/></mask><g mask="url(#satori_om-id)" clip-path="url(#satori_cp-id)"><path fill="#60a5fa" d="M409.9 68.1L399.5 68.1L399.5 64.6L408.6 50.2L414.2 50.2L414.2 64.5L416.9 64.5L416.9 68.1L414.2 68.1L414.2 72L409.9 72L409.9 68.1ZM404.0 64.5L410.0 64.5L410.0 55.1L409.8 55.1L404.0 64.3L404.0 64.5Z "/></g><mask id="satori_om-id-2-1"><rect x="386" y="81" width="45" height="13" fill="#fff" mask="url(#satori_om-id)"/></mask><g mask="url(#satori_om-id)" clip-path="url(#satori_cp-id)"><path fill="rgba(200,195,225,0.45)" d="M389.7 92.1L389.7 92.1Q388.7 92.1 388.0 91.8Q387.3 91.5 386.9 90.9Q386.5 90.4 386.5 89.5L386.5 89.5L388.1 89.5Q388.1 89.9 388.3 90.2Q388.5 90.5 388.9 90.6Q389.2 90.7 389.6 90.7L389.6 90.7Q390.1 90.7 390.4 90.6Q390.7 90.5 390.9 90.2Q391.1 90.0 391.1 89.7L391.1 89.7Q391.1 89.4 390.9 89.3Q390.8 89.1 390.5 88.9Q390.2 88.8 389.7 88.7L389.7 88.7L388.8 88.5Q387.8 88.2 387.2 87.7Q386.7 87.2 386.7 86.3L386.7 86.3Q386.7 85.6 387.1 85.0Q387.5 84.5 388.1 84.2Q388.8 83.9 389.7 83.9L389.7 83.9Q390.6 83.9 391.2 84.2Q391.9 84.5 392.3 85.0Q392.6 85.6 392.6 86.3L392.6 86.3L391.1 86.3Q391.0 85.8 390.6 85.5Q390.3 85.3 389.7 85.3L389.7 85.3Q389.2 85.3 389.0 85.4Q388.7 85.5 388.5 85.7Q388.4 85.9 388.4 86.2L388.4 86.2Q388.4 86.5 388.5 86.7Q388.7 86.9 389.0 87.0Q389.3 87.1 389.6 87.2L389.6 87.2L390.4 87.4Q390.9 87.5 391.3 87.7Q391.7 87.9 392.1 88.2Q392.4 88.4 392.6 88.8Q392.7 89.2 392.7 89.7L392.7 89.7Q392.7 90.4 392.4 91.0Q392.0 91.5 391.3 91.8Q390.6 92.1 389.7 92.1ZM397.6 85.4L395.1 85.4L395.1 84.0L401.6 84.0L401.6 85.4L399.2 85.4L399.2 92L397.6 92L397.6 85.4ZM405.6 92L403.8 92L406.5 84.0L408.7 84.0L411.5 92L409.7 92L409.1 90.1L406.2 90.1L405.6 92ZM406.6 88.9L408.6 88.9L408.4 88.1Q408.2 87.4 407.9 86.5L407.9 86.5Q407.8 85.9 407.6 85.3L407.6 85.3Q407.4 85.9 407.3 86.5L407.3 86.5Q407.1 87.4 406.9 88.1L406.9 88.1L406.6 88.9ZM415.6 92L414.0 92L414.0 84.0L417.1 84.0Q418.0 84.0 418.7 84.3Q419.3 84.6 419.6 85.2Q420.0 85.8 420.0 86.6Q420.0 87.4 419.6 88.0Q419.3 88.5 418.6 88.8L418.6 88.8Q418.6 88.9 418.5 88.9L418.5 88.9L420.3 92L418.4 92L416.9 89.1L415.6 89.1L415.6 92ZM415.6 85.4L415.6 87.8L416.8 87.8Q417.3 87.8 417.6 87.7Q418.0 87.5 418.1 87.3Q418.3 87.0 418.3 86.6L418.3 86.6Q418.3 86.2 418.1 85.9Q418.0 85.6 417.6 85.5Q417.3 85.4 416.8 85.4L416.8 85.4L415.6 85.4ZM425.6 92.1L425.6 92.1Q424.7 92.1 424.0 91.8Q423.3 91.5 422.9 90.9Q422.5 90.4 422.4 89.5L422.4 89.5L424.0 89.5Q424.1 89.9 424.3 90.2Q424.5 90.5 424.8 90.6Q425.2 90.7 425.6 90.7L425.6 90.7Q426.1 90.7 426.4 90.6Q426.7 90.5 426.9 90.2Q427.1 90.0 427.1 89.7L427.1 89.7Q427.1 89.4 426.9 89.3Q426.8 89.1 426.4 88.9Q426.1 88.8 425.7 88.7L425.7 88.7L424.8 88.5Q423.8 88.2 423.2 87.7Q422.7 87.2 422.7 86.3L422.7 86.3Q422.7 85.6 423.0 85.0Q423.4 84.5 424.1 84.2Q424.8 83.9 425.7 83.9L425.7 83.9Q426.5 83.9 427.2 84.2Q427.9 84.5 428.2 85.0Q428.6 85.6 428.6 86.3L428.6 86.3L427.0 86.3Q427.0 85.8 426.6 85.5Q426.3 85.3 425.6 85.3L425.6 85.3Q425.2 85.3 424.9 85.4Q424.6 85.5 424.5 85.7Q424.3 85.9 424.3 86.2L424.3 86.2Q424.3 86.5 424.5 86.7Q424.7 86.9 425.0 87.0Q425.3 87.1 425.6 87.2L425.6 87.2L426.3 87.4Q426.8 87.5 427.3 87.7Q427.7 87.9 428.0 88.2Q428.4 88.4 428.5 88.8Q428.7 89.2 428.7 89.7L428.7 89.7Q428.7 90.4 428.4 91.0Q428.0 91.5 427.3 91.8Q426.6 92.1 425.6 92.1Z "/></g><mask id="satori_om-id-3"><rect x="544" y="30" width="315" height="80" fill="#fff" mask="url(#satori_om-id)"/></mask><mask id="satori_om-id-3-0"><rect x="657" y="46" width="89" height="30" fill="#fff" mask="url(#satori_om-id)"/></mask><g mask="url(#satori_om-id)" clip-path="url(#satori_cp-id)"><path fill="#f59e0b" d="M674.3 72L658.8 72L658.8 68.8L666.6 61.5Q667.5 60.6 668.2 59.8Q668.9 59.0 669.3 58.2Q669.6 57.5 669.6 56.6L669.6 56.6Q669.6 55.6 669.2 54.9Q668.7 54.2 668.0 53.8Q667.2 53.5 666.2 53.5L666.2 53.5Q665.2 53.5 664.5 53.9Q663.7 54.3 663.3 55.0Q662.9 55.8 662.9 56.9L662.9 56.9L658.6 56.9Q658.6 54.7 659.6 53.2Q660.6 51.6 662.3 50.7Q664.0 49.9 666.3 49.9L666.3 49.9Q668.6 49.9 670.3 50.7Q672.0 51.5 673.0 53.0Q674.0 54.4 674.0 56.3L674.0 56.3Q674.0 57.5 673.5 58.7Q673.0 59.9 671.8 61.4Q670.6 62.9 668.3 64.9L668.3 64.9L665.0 68.2L665.0 68.3L674.3 68.3L674.3 72ZM685.1 72.3L685.1 72.3Q682.9 72.3 681.1 71.5Q679.4 70.6 678.3 69.2Q677.3 67.7 677.3 65.9L677.3 65.9L681.6 65.9Q681.7 66.7 682.1 67.4Q682.6 68.0 683.4 68.4Q684.2 68.7 685.1 68.7L685.1 68.7Q686.2 68.7 687.0 68.3Q687.9 67.8 688.4 66.9Q688.8 66.0 688.8 64.9L688.8 64.9Q688.8 63.7 688.4 62.8Q687.9 61.9 687.0 61.4Q686.2 60.9 685.0 60.9L685.0 60.9Q684.0 60.9 683.1 61.3Q682.2 61.7 681.7 62.3L681.7 62.3L677.7 61.6L678.8 50.2L692.0 50.2L692.0 53.9L682.5 53.9L681.9 59.4L682.0 59.4Q682.6 58.6 683.8 58.1Q684.9 57.6 686.3 57.6L686.3 57.6Q687.8 57.6 689.1 58.1Q690.3 58.6 691.2 59.6Q692.2 60.5 692.7 61.9Q693.2 63.2 693.2 64.7L693.2 64.7Q693.2 66.9 692.2 68.6Q691.1 70.3 689.3 71.3Q687.5 72.3 685.1 72.3ZM704.7 72.3L704.7 72.3Q701.9 72.3 700.0 71.0Q698.0 69.6 697.0 67.1Q695.9 64.6 695.9 61.1L695.9 61.1Q695.9 57.6 697.0 55.1Q698.0 52.5 700.0 51.2Q701.9 49.9 704.7 49.9L704.7 49.9Q707.4 49.9 709.4 51.2Q711.3 52.6 712.4 55.1Q713.4 57.6 713.4 61.1L713.4 61.1Q713.4 64.6 712.4 67.1Q711.3 69.6 709.4 71.0Q707.4 72.3 704.7 72.3ZM704.7 68.6L704.7 68.6Q706.0 68.6 706.9 67.7Q707.9 66.8 708.4 65.2Q708.9 63.5 708.9 61.1L708.9 61.1Q708.9 58.7 708.4 57.0Q707.9 55.3 706.9 54.5Q706.0 53.6 704.7 53.6L704.7 53.6Q703.3 53.6 702.4 54.5Q701.5 55.3 701.0 57.0Q700.5 58.7 700.5 61.1L700.5 61.1Q700.5 63.5 701.0 65.2Q701.5 66.8 702.4 67.7Q703.3 68.6 704.7 68.6ZM721.0 50.2L725.8 50.2L725.8 72L721.3 72L721.3 54.1L721.1 54.1L716.2 57.7L716.2 53.6L721.0 50.2ZM735.0 72L730.3 72L739.4 54.0L739.4 53.9L728.8 53.9L728.8 50.2L744.1 50.2L744.1 53.9L735.0 72Z "/></g><mask id="satori_om-id-3-1"><rect x="668" y="81" width="66" height="13" fill="#fff" mask="url(#satori_om-id)"/></mask><g mask="url(#satori_om-id)" clip-path="url(#satori_cp-id)"><path fill="rgba(200,195,225,0.45)" d="M672.2 92.1L672.2 92.1Q671.2 92.1 670.3 91.6Q669.5 91.1 669.0 90.2Q668.5 89.3 668.5 88.0L668.5 88.0Q668.5 86.7 669.0 85.8Q669.5 84.9 670.3 84.4Q671.2 83.9 672.2 83.9L672.2 83.9Q672.9 83.9 673.5 84.1Q674.1 84.3 674.5 84.6Q675.0 85.0 675.3 85.5Q675.6 86.1 675.7 86.7L675.7 86.7L674.0 86.7Q674.0 86.4 673.8 86.1Q673.6 85.9 673.4 85.7Q673.2 85.5 672.9 85.4Q672.6 85.3 672.3 85.3L672.3 85.3Q671.6 85.3 671.2 85.7Q670.7 86.0 670.4 86.6Q670.2 87.2 670.2 88.0L670.2 88.0Q670.2 88.9 670.4 89.5Q670.7 90.1 671.2 90.4Q671.6 90.7 672.2 90.7L672.2 90.7Q672.6 90.7 672.9 90.6Q673.2 90.5 673.4 90.3Q673.6 90.1 673.8 89.8Q674.0 89.6 674.0 89.3L674.0 89.3L675.7 89.3Q675.6 89.8 675.3 90.3Q675.1 90.8 674.6 91.2Q674.2 91.6 673.6 91.9Q673.0 92.1 672.2 92.1ZM681.9 92.1L681.9 92.1Q680.8 92.1 680.0 91.6Q679.1 91.1 678.6 90.2Q678.1 89.3 678.1 88.0L678.1 88.0Q678.1 86.7 678.6 85.8Q679.1 84.9 680.0 84.4Q680.8 83.9 681.9 83.9L681.9 83.9Q682.9 83.9 683.8 84.4Q684.6 84.9 685.1 85.8Q685.6 86.7 685.6 88.0L685.6 88.0Q685.6 89.3 685.1 90.2Q684.6 91.1 683.8 91.6Q682.9 92.1 681.9 92.1ZM681.9 90.7L681.9 90.7Q682.5 90.7 683.0 90.3Q683.4 90.0 683.7 89.5Q683.9 88.9 683.9 88.0L683.9 88.0Q683.9 87.1 683.7 86.5Q683.4 86.0 683.0 85.6Q682.5 85.3 681.9 85.3L681.9 85.3Q681.3 85.3 680.8 85.7Q680.3 86.0 680.1 86.6Q679.8 87.1 679.8 88.0L679.8 88.0Q679.8 88.9 680.1 89.4Q680.3 90.0 680.8 90.3Q681.3 90.7 681.9 90.7ZM690.0 92L688.3 92L688.3 84.0L690.9 84.0L692.2 87.7Q692.2 87.9 692.3 88.3Q692.4 88.7 692.5 89.2L692.5 89.2Q692.7 89.7 692.7 90.1L692.7 90.1Q692.8 89.7 692.9 89.2L692.9 89.2Q693.0 88.8 693.2 88.3Q693.3 87.9 693.3 87.7L693.3 87.7L694.6 84.0L697.1 84.0L697.1 92L695.5 92L695.5 88.2Q695.5 88.0 695.5 87.6Q695.5 87.2 695.5 86.7Q695.5 86.3 695.5 85.8L695.5 85.8Q695.6 85.6 695.6 85.4L695.6 85.4Q695.5 85.6 695.4 85.9L695.4 85.9Q695.3 86.3 695.2 86.8Q695.1 87.2 694.9 87.6Q694.8 88.0 694.8 88.2L694.8 88.2L693.4 92L692.0 92L690.7 88.2Q690.6 88.0 690.5 87.6Q690.4 87.2 690.3 86.8Q690.1 86.4 690.0 85.9L690.0 85.9Q690.0 85.7 689.9 85.5L689.9 85.5Q689.9 85.6 689.9 85.8L689.9 85.8Q689.9 86.2 689.9 86.7Q689.9 87.2 690.0 87.6Q690.0 88.0 690.0 88.2L690.0 88.2L690.0 92ZM701.7 92L700.1 92L700.1 84.0L702.6 84.0L703.9 87.7Q704.0 87.9 704.1 88.3Q704.2 88.7 704.3 89.2L704.3 89.2Q704.4 89.7 704.5 90.1L704.5 90.1Q704.6 89.7 704.7 89.2L704.7 89.2Q704.8 88.8 704.9 88.3Q705.0 87.9 705.1 87.7L705.1 87.7L706.4 84.0L708.9 84.0L708.9 92L707.2 92L707.2 88.2Q707.2 88.0 707.2 87.6Q707.3 87.2 707.3 86.7Q707.3 86.3 707.3 85.8L707.3 85.8Q707.3 85.6 707.3 85.4L707.3 85.4Q707.2 85.6 707.2 85.9L707.2 85.9Q707.1 86.3 706.9 86.8Q706.8 87.2 706.7 87.6Q706.6 88.0 706.5 88.2L706.5 88.2L705.2 92L703.8 92L702.4 88.2Q702.4 88.0 702.3 87.6Q702.1 87.2 702.0 86.8Q701.9 86.4 701.8 85.9L701.8 85.9Q701.7 85.7 701.7 85.5L701.7 85.5Q701.7 85.6 701.7 85.8L701.7 85.8Q701.7 86.2 701.7 86.7Q701.7 87.2 701.7 87.6Q701.7 88.0 701.7 88.2L701.7 88.2L701.7 92ZM711.8 84.0L713.5 84.0L713.5 92L711.8 92L711.8 84.0ZM718.5 85.4L716.1 85.4L716.1 84.0L722.6 84.0L722.6 85.4L720.2 85.4L720.2 92L718.5 92L718.5 85.4ZM728.2 92.1L728.2 92.1Q727.2 92.1 726.5 91.8Q725.8 91.5 725.4 90.9Q725.0 90.4 725.0 89.5L725.0 89.5L726.6 89.5Q726.6 89.9 726.8 90.2Q727.0 90.5 727.4 90.6Q727.7 90.7 728.2 90.7L728.2 90.7Q728.6 90.7 728.9 90.6Q729.3 90.5 729.5 90.2Q729.6 90.0 729.6 89.7L729.6 89.7Q729.6 89.4 729.5 89.3Q729.3 89.1 729.0 88.9Q728.7 88.8 728.3 88.7L728.3 88.7L727.4 88.5Q726.4 88.2 725.8 87.7Q725.2 87.2 725.2 86.3L725.2 86.3Q725.2 85.6 725.6 85.0Q726.0 84.5 726.7 84.2Q727.3 83.9 728.2 83.9L728.2 83.9Q729.1 83.9 729.8 84.2Q730.4 84.5 730.8 85.0Q731.2 85.6 731.2 86.3L731.2 86.3L729.6 86.3Q729.6 85.8 729.2 85.5Q728.8 85.3 728.2 85.3L728.2 85.3Q727.8 85.3 727.5 85.4Q727.2 85.5 727.0 85.7Q726.9 85.9 726.9 86.2L726.9 86.2Q726.9 86.5 727.1 86.7Q727.2 86.9 727.5 87.0Q727.8 87.1 728.2 87.2L728.2 87.2L728.9 87.4Q729.4 87.5 729.8 87.7Q730.3 87.9 730.6 88.2Q730.9 88.4 731.1 88.8Q731.3 89.2 731.3 89.7L731.3 89.7Q731.3 90.4 730.9 91.0Q730.6 91.5 729.9 91.8Q729.2 92.1 728.2 92.1Z "/></g></svg>